# https://github.com/mikedh/trimesh
v -0.03457996 -0.02732198 0.07543016
v -0.03457996 -0.02732930 0.07543068
v -0.03457996 -0.02732198 0.07172878
v -0.07908017 -0.02732198 0.07708652
v -0.03457996 -0.05224129 0.07708075
v -0.03457996 -0.05224129 0.07172878
v -0.08126729 -0.02732198 0.07172878
v -0.08357911 -0.02732198 0.07708652
v -0.06618288 -0.05178507 0.07708652
v -0.06600542 -0.05224129 0.07708652
v -0.07087367 -0.05224129 0.07172878
v -0.08123371 -0.02811733 0.07172878
v -0.08310907 -0.03826413 0.07708652
v -0.07659568 -0.05224129 0.07708652
v -0.07480185 -0.05224129 0.07512700
v -0.07138688 -0.05196561 0.07172878
v -0.08115218 -0.02910542 0.07172878
v -0.08304672 -0.03933761 0.07708652
v -0.08307070 -0.03900337 0.07708652
v -0.07684508 -0.05202416 0.07708652
v -0.07551650 -0.05194853 0.07552981
v -0.07483543 -0.05222910 0.07513906
v -0.07483063 -0.05224129 0.07515270
v -0.07141086 -0.05195097 0.07172878
v -0.08087879 -0.03219167 0.07172878
v -0.08293640 -0.04033301 0.07708652
v -0.08030323 -0.03832512 0.07172878
v -0.07694581 -0.05193389 0.07708652
v -0.07588582 -0.05126784 0.07509081
v -0.07438458 -0.04981377 0.07172878
v -0.07387137 -0.05023828 0.07172878
v -0.07317591 -0.05076282 0.07172878
v -0.07268189 -0.05110926 0.07172878
v -0.07208714 -0.05151426 0.07172878
v -0.08291242 -0.04048916 0.07708652
v -0.08018812 -0.03931321 0.07172878
v -0.08018332 -0.03934737 0.07172878
v -0.07755014 -0.05131176 0.07708652
v -0.07691223 -0.05026756 0.07508451
v -0.07547813 -0.04882812 0.07172878
v -0.07496493 -0.04930387 0.07172878
v -0.08275894 -0.04135282 0.07708652
v -0.08000586 -0.04033301 0.07172878
v -0.07796262 -0.05086773 0.07708652
v -0.07759331 -0.04990160 0.07551250
v -0.07594338 -0.04831822 0.07172878
v -0.07549252 -0.04881349 0.07172878
v -0.08255270 -0.04219452 0.07708652
v -0.08000106 -0.04035741 0.07172878
v -0.07846144 -0.05030904 0.07708652
v -0.07786190 -0.04922092 0.07513959
v -0.07646617 -0.04767658 0.07172878
v -0.08203470 -0.04383645 0.07708652
v -0.07981880 -0.04108933 0.07172878
v -0.07966532 -0.04158459 0.07172878
v -0.07897945 -0.04961371 0.07708652
v -0.07878280 -0.04808157 0.07524396
v -0.07683549 -0.04718131 0.07172878
v -0.08183325 -0.04441711 0.07708652
v -0.07941591 -0.04237506 0.07172878
v -0.07985717 -0.04836214 0.07708652
v -0.07800100 -0.04541739 0.07172878
v -0.07768924 -0.04592974 0.07172878
v -0.07731992 -0.04648111 0.07172878
v -0.08002025 -0.04811329 0.07708652
v -0.08053825 -0.04725938 0.07708652
v -0.08151190 -0.04521490 0.07708652
v -0.07904659 -0.04339486 0.07172878
v -0.07849502 -0.04455861 0.07172878
v -0.08095553 -0.04645671 0.07708652
v -0.07877800 -0.04401943 0.07172878
v -0.08101788 -0.04632741 0.07708652
f 1 2 5
f 1 5 6
f 1 6 3
f 1 3 7
f 1 7 8
f 1 8 4
f 1 4 2
f 2 4 5
f 3 6 11
f 3 11 16
f 3 16 24
f 3 24 34
f 3 34 33
f 3 33 32
f 3 32 31
f 3 31 30
f 3 30 41
f 3 41 40
f 3 40 47
f 3 47 46
f 3 46 52
f 3 52 58
f 3 58 64
f 3 64 63
f 3 63 62
f 3 62 69
f 3 69 71
f 3 71 68
f 3 68 60
f 3 60 55
f 3 55 54
f 3 54 49
f 3 49 43
f 3 43 37
f 3 37 36
f 3 36 27
f 3 27 25
f 3 25 17
f 3 17 12
f 3 12 7
f 4 8 13
f 4 13 19
f 4 19 18
f 4 18 26
f 4 26 35
f 4 35 42
f 4 42 48
f 4 48 53
f 4 53 59
f 4 59 67
f 4 67 72
f 4 72 70
f 4 70 66
f 4 66 65
f 4 65 61
f 4 61 56
f 4 56 50
f 4 50 44
f 4 44 38
f 4 38 28
f 4 28 20
f 4 20 14
f 4 14 10
f 4 10 9
f 4 9 5
f 5 9 10
f 5 10 14
f 5 14 23
f 5 23 15
f 5 15 11
f 5 11 6
f 7 12 8
f 8 12 13
f 11 15 16
f 12 17 18
f 12 18 19
f 12 19 13
f 14 20 21
f 14 21 22
f 14 22 23
f 15 23 22
f 15 22 24
f 15 24 16
f 17 25 18
f 18 25 27
f 18 27 26
f 20 28 29
f 20 29 21
f 21 29 22
f 22 30 31
f 22 31 32
f 22 32 33
f 22 33 34
f 22 34 24
f 22 29 30
f 26 27 36
f 26 36 37
f 26 37 35
f 28 38 39
f 28 39 40
f 28 40 29
f 29 40 41
f 29 41 30
f 35 37 42
f 37 43 42
f 38 44 39
f 39 44 45
f 39 45 46
f 39 46 47
f 39 47 40
f 42 43 49
f 42 49 48
f 44 50 45
f 45 50 51
f 45 51 46
f 46 51 52
f 48 49 54
f 48 54 55
f 48 55 53
f 50 56 51
f 51 56 57
f 51 57 58
f 51 58 52
f 53 55 60
f 53 60 59
f 56 61 57
f 57 62 63
f 57 63 64
f 57 64 58
f 57 61 65
f 57 65 66
f 57 66 62
f 59 60 68
f 59 68 67
f 62 66 69
f 66 70 71
f 66 71 69
f 67 68 71
f 67 71 72
f 70 72 71

