# https://github.com/mikedh/trimesh
v -0.02639504 -0.03426156 0.07618239
v -0.02573867 -0.03426156 0.07747497
v -0.02573991 -0.03420806 0.07747599
v -0.02639380 -0.03420806 0.07618239
v -0.02240706 -0.03426156 0.07618239
v -0.02515812 -0.03426156 0.07774199
v -0.02512704 -0.03420806 0.07775745
v -0.02512704 -0.03318783 0.07776070
v -0.02572126 -0.03318783 0.07746277
v -0.02638883 -0.03410106 0.07618239
v -0.02333320 -0.03426156 0.07759903
v -0.01393384 -0.02195036 0.07618239
v -0.01419739 -0.02155098 0.07744366
v -0.01426949 -0.02160572 0.07752155
v -0.02512704 -0.03426156 0.07775562
v -0.02410643 -0.03114612 0.07806616
v -0.02410643 -0.03012465 0.07805579
v -0.02503381 -0.03114612 0.07768607
v -0.02522277 -0.03209543 0.07765007
v -0.02567775 -0.03238906 0.07741987
v -0.02633413 -0.03318783 0.07618239
v -0.02410643 -0.03426156 0.07787967
v -0.01424338 -0.02155098 0.07753639
v -0.01453925 -0.02155098 0.07773223
v -0.01492462 -0.02155098 0.07791750
v -0.01553376 -0.02155098 0.07819082
v -0.01370138 -0.02155969 0.07618239
v -0.01369640 -0.02155098 0.07618239
v -0.02415988 -0.03426156 0.07787357
v -0.02410643 -0.03318783 0.07795959
v -0.02410643 -0.03216635 0.07802183
v -0.02308581 -0.02910442 0.07818716
v -0.02308581 -0.02808294 0.07799457
v -0.02417729 -0.02905714 0.07778999
v -0.02487717 -0.03012465 0.07764052
v -0.02562554 -0.03170849 0.07734848
v -0.02622473 -0.03215267 0.07618239
v -0.02308581 -0.03012465 0.07812595
v -0.01696212 -0.02298055 0.07822641
v -0.01798274 -0.02400078 0.07823475
v -0.02002397 -0.02604248 0.07823719
v -0.02104458 -0.02706396 0.07822946
v -0.01594151 -0.02155098 0.07822763
v -0.01856701 -0.02155098 0.07618239
v -0.01655437 -0.02155098 0.07825976
v -0.01900335 -0.02400078 0.07820201
v -0.02002397 -0.02502225 0.07817150
v -0.02381305 -0.02808294 0.07756812
v -0.02000284 -0.02403437 0.07773630
v -0.02473546 -0.02936694 0.07752643
v -0.02600594 -0.03114115 0.07618239
v -0.01820153 -0.02155098 0.07701313
v -0.01896730 -0.02195161 0.07618239
v -0.01697953 -0.02155098 0.07809259
v -0.01762099 -0.02155098 0.07781622
v -0.02359799 -0.02757158 0.07737878
v -0.02063186 -0.02439767 0.07749979
v -0.01782113 -0.02155098 0.07768383
v -0.01964854 -0.02334758 0.07752826
v -0.02391872 -0.02725058 0.07618239
v -0.02456763 -0.02867642 0.07686549
v -0.02510964 -0.02903599 0.07618239
v -0.02559695 -0.03012465 0.07618239
v -0.01865030 -0.02229003 0.07754270
f 1 2 3
f 1 3 4
f 1 4 10
f 1 10 21
f 1 21 37
f 1 37 51
f 1 51 63
f 1 63 62
f 1 62 60
f 1 60 53
f 1 53 44
f 1 44 28
f 1 28 27
f 1 27 12
f 1 12 5
f 1 5 11
f 1 11 22
f 1 22 29
f 1 29 15
f 1 15 6
f 1 6 2
f 2 6 3
f 3 6 7
f 3 7 8
f 3 8 9
f 3 9 4
f 4 9 10
f 5 12 13
f 5 13 14
f 5 14 11
f 6 15 7
f 7 15 16
f 7 16 8
f 8 16 17
f 8 17 18
f 8 18 19
f 8 19 9
f 9 19 18
f 9 18 20
f 9 20 21
f 9 21 10
f 11 14 23
f 11 23 24
f 11 24 25
f 11 25 26
f 11 26 22
f 12 27 13
f 13 28 44
f 13 44 52
f 13 52 58
f 13 58 55
f 13 55 54
f 13 54 45
f 13 45 43
f 13 43 26
f 13 26 25
f 13 25 24
f 13 24 23
f 13 23 14
f 13 27 28
f 15 29 30
f 15 30 31
f 15 31 16
f 16 31 32
f 16 32 17
f 17 32 33
f 17 33 34
f 17 34 35
f 17 35 18
f 18 35 20
f 20 35 36
f 20 36 37
f 20 37 21
f 22 38 30
f 22 30 29
f 22 26 39
f 22 39 40
f 22 40 41
f 22 41 42
f 22 42 38
f 26 43 39
f 30 38 31
f 31 38 32
f 32 38 42
f 32 42 45
f 32 45 46
f 32 46 47
f 32 47 33
f 33 48 34
f 33 47 49
f 33 49 48
f 34 48 50
f 34 50 35
f 35 50 36
f 36 50 51
f 36 51 37
f 39 43 45
f 39 45 40
f 40 45 41
f 41 45 42
f 44 53 52
f 45 54 46
f 46 54 47
f 47 54 55
f 47 55 49
f 48 56 50
f 48 49 57
f 48 57 56
f 49 55 58
f 49 58 59
f 49 59 57
f 50 56 60
f 50 60 61
f 50 61 62
f 50 62 63
f 50 63 51
f 52 53 64
f 52 64 58
f 53 59 64
f 53 60 59
f 56 57 60
f 57 59 60
f 58 64 59
f 60 62 61

