# https://github.com/mikedh/trimesh
v 0.01739121 -0.01073340 0.07787979
v 0.01730177 -0.01073340 0.07732332
v 0.01722641 -0.01025077 0.07753499
v 0.01736885 -0.01064630 0.07787894
v 0.01724711 -0.01018690 0.07852246
v 0.01735642 -0.01066662 0.07888007
v 0.01737216 -0.01073340 0.07888177
v 0.01644133 -0.00868748 0.07707325
v 0.01629889 -0.00797696 0.07724992
v 0.01386580 -0.01073340 0.07172878
v 0.01670302 -0.00868748 0.07788576
v 0.01709473 -0.00979136 0.07787894
v 0.01724711 -0.01018690 0.07821521
v 0.01665333 -0.00868748 0.07890652
v 0.01706906 -0.00979136 0.07888007
v 0.01721564 -0.01028415 0.07920268
v 0.01734649 -0.01073340 0.07902772
v 0.01529932 -0.00594120 0.07721152
v 0.01613740 -0.00732886 0.07788576
v 0.01636265 -0.00783907 0.07788576
v 0.01385172 -0.01069638 0.07172878
v 0.01346084 -0.00970790 0.07172878
v 0.01319997 -0.00910406 0.07172878
v 0.00893089 -0.01073340 0.07172878
v 0.01633781 -0.00790221 0.07890652
v 0.01626576 -0.00806115 0.07949884
v 0.01639247 -0.00868748 0.07966868
v 0.01659453 -0.00970790 0.07984364
v 0.01682559 -0.01073340 0.07990936
v 0.01438670 -0.00460435 0.07710995
v 0.01419871 -0.00406294 0.07733527
v 0.01507572 -0.00532648 0.07788576
v 0.01536060 -0.00583669 0.07788576
v 0.01579206 -0.00664664 0.07788576
v 0.01294573 -0.00860982 0.07172878
v 0.01414571 -0.00618651 0.07538081
v 0.01574072 -0.00664664 0.07890652
v 0.01611090 -0.00739127 0.07890652
v 0.00893089 -0.00350047 0.07172878
v 0.00893089 -0.01073340 0.07674125
v 0.01526536 -0.00601015 0.07952871
v 0.01543016 -0.00664664 0.07970623
v 0.01574900 -0.00769899 0.07983255
v 0.01563472 -0.00862506 0.08022941
v 0.01668397 -0.01073340 0.08002799
v 0.01673532 -0.01068985 0.07997764
v 0.01673863 -0.01073340 0.07998532
v 0.01325132 -0.00498030 0.07520755
v 0.01342357 -0.00331903 0.07706557
v 0.01361901 -0.00331903 0.07764764
v 0.01366125 -0.00331903 0.07788576
v 0.01382108 -0.00351571 0.07788576
v 0.01422521 -0.00402592 0.07788576
v 0.01461610 -0.00460435 0.07788576
v 0.01304594 -0.00331903 0.07650143
v 0.01311053 -0.00331903 0.07658762
v 0.01421859 -0.00403463 0.07860781
v 0.01503928 -0.00537801 0.07890652
v 0.01533493 -0.00588822 0.07890652
v 0.01292089 -0.00856628 0.07172878
v 0.01242649 -0.00772875 0.07172878
v 0.00931350 -0.00385537 0.07172878
v 0.00893089 -0.00331903 0.07244314
v 0.01122071 -0.00331903 0.07452221
v 0.01155280 -0.00331903 0.07486019
v 0.01207204 -0.00331903 0.07541153
v 0.00893089 -0.01072904 0.07674210
v 0.01576390 -0.01073340 0.08034378
v 0.01025509 -0.00331903 0.07956199
v 0.01414406 -0.00413334 0.07928803
v 0.01438505 -0.00481337 0.07966868
v 0.01470885 -0.00565235 0.07983852
v 0.01468483 -0.00664664 0.08019698
v 0.01524714 -0.00892408 0.08044790
v 0.01563472 -0.00965637 0.08034719
v 0.01209109 -0.00721782 0.07172878
v 0.01166708 -0.00664664 0.07172878
v 0.01360908 -0.00331903 0.07847808
v 0.01295650 -0.00331903 0.07639730
v 0.01119835 -0.00603410 0.07172878
v 0.01356850 -0.00331903 0.07892018
v 0.01383764 -0.00364998 0.07893128
v 0.01448442 -0.00452597 0.07893128
v 0.00982446 -0.00439679 0.07172878
v 0.00893089 -0.00331903 0.07769885
v 0.00979630 -0.00331903 0.07899272
v 0.00973336 -0.00331903 0.07890652
v 0.01524714 -0.00928188 0.08044790
v 0.01517510 -0.00928188 0.08044790
v 0.01064598 -0.00331903 0.07975403
v 0.01330266 -0.00331903 0.07955004
v 0.01341115 -0.00358394 0.07963369
v 0.01374738 -0.00452597 0.07989143
v 0.01366373 -0.00562550 0.08027209
v 0.01517510 -0.00892408 0.08044790
v 0.01025923 -0.00490700 0.07172878
v 0.00983854 -0.00441275 0.07172878
v 0.01162319 -0.00358394 0.08004506
v 0.01162319 -0.00331903 0.08003311
v 0.01261613 -0.00331903 0.07989826
v 0.01264346 -0.00358394 0.08001519
f 1 2 3
f 1 3 4
f 1 4 5
f 1 5 6
f 1 6 7
f 1 7 17
f 1 17 29
f 1 29 47
f 1 47 45
f 1 45 68
f 1 68 40
f 1 40 24
f 1 24 10
f 1 10 2
f 2 8 9
f 2 9 3
f 2 10 8
f 3 9 11
f 3 11 12
f 3 12 13
f 3 13 4
f 4 13 5
f 5 13 11
f 5 11 14
f 5 14 15
f 5 15 16
f 5 16 6
f 6 16 7
f 7 16 17
f 8 10 9
f 9 18 19
f 9 19 20
f 9 20 11
f 9 10 21
f 9 21 22
f 9 22 23
f 9 23 18
f 10 24 39
f 10 39 62
f 10 62 84
f 10 84 97
f 10 97 96
f 10 96 80
f 10 80 77
f 10 77 76
f 10 76 61
f 10 61 60
f 10 60 35
f 10 35 23
f 10 23 22
f 10 22 21
f 11 20 14
f 11 13 12
f 14 25 26
f 14 26 16
f 14 16 15
f 14 20 25
f 16 26 27
f 16 27 28
f 16 28 29
f 16 29 17
f 18 30 31
f 18 31 32
f 18 32 33
f 18 33 34
f 18 34 19
f 18 23 35
f 18 35 36
f 18 36 30
f 19 34 37
f 19 37 38
f 19 38 25
f 19 25 20
f 24 40 67
f 24 67 85
f 24 85 63
f 24 63 39
f 25 38 26
f 26 38 41
f 26 41 42
f 26 42 27
f 27 42 43
f 27 43 44
f 27 44 28
f 28 44 45
f 28 45 46
f 28 46 29
f 29 46 47
f 30 36 48
f 30 48 31
f 31 49 50
f 31 50 51
f 31 51 52
f 31 52 53
f 31 53 54
f 31 54 32
f 31 48 55
f 31 55 56
f 31 56 49
f 32 54 57
f 32 57 58
f 32 58 59
f 32 59 33
f 33 59 37
f 33 37 34
f 35 60 36
f 36 60 61
f 36 61 48
f 37 59 41
f 37 41 38
f 39 63 64
f 39 64 65
f 39 65 66
f 39 66 62
f 40 68 69
f 40 69 67
f 41 59 58
f 41 58 70
f 41 70 71
f 41 71 72
f 41 72 42
f 42 72 73
f 42 73 44
f 42 44 43
f 44 73 74
f 44 74 45
f 45 47 46
f 45 74 75
f 45 75 68
f 48 61 76
f 48 76 77
f 48 77 55
f 49 56 55
f 49 55 79
f 49 79 66
f 49 66 65
f 49 65 64
f 49 64 63
f 49 63 85
f 49 85 87
f 49 87 86
f 49 86 69
f 49 69 90
f 49 90 99
f 49 99 100
f 49 100 91
f 49 91 81
f 49 81 78
f 49 78 51
f 49 51 50
f 51 78 57
f 51 57 52
f 52 57 53
f 53 57 54
f 55 77 80
f 55 80 79
f 57 78 81
f 57 81 82
f 57 82 70
f 57 70 83
f 57 83 58
f 58 83 70
f 62 66 79
f 62 79 84
f 67 69 86
f 67 86 87
f 67 87 85
f 68 75 74
f 68 74 88
f 68 88 89
f 68 89 69
f 69 89 90
f 70 82 81
f 70 81 91
f 70 91 71
f 71 91 92
f 71 92 93
f 71 93 72
f 72 93 73
f 73 94 74
f 73 93 94
f 74 94 95
f 74 95 89
f 74 89 88
f 79 80 96
f 79 96 97
f 79 97 84
f 89 95 98
f 89 98 90
f 90 98 99
f 91 100 92
f 92 100 101
f 92 101 93
f 93 101 94
f 94 101 99
f 94 99 98
f 94 98 95
f 99 101 100

