# https://github.com/mikedh/trimesh
v -0.02639512 -0.03512623 0.07618235
v -0.02573936 -0.03426156 0.07747500
v -0.02639429 -0.03426156 0.07618235
v -0.02638762 -0.03614646 0.07618235
v -0.02572186 -0.03522994 0.07745855
v -0.02515859 -0.03426156 0.07774204
v -0.02240723 -0.03426156 0.07618235
v -0.02638179 -0.03625807 0.07618235
v -0.02512776 -0.03522994 0.07772160
v -0.02568520 -0.03604050 0.07742448
v -0.02512776 -0.03426156 0.07775566
v -0.01788356 -0.04173693 0.07618235
v -0.02333379 -0.03426156 0.07759913
v -0.01788356 -0.04276506 0.07747816
v -0.02631596 -0.03716445 0.07618235
v -0.02522275 -0.03632909 0.07760229
v -0.02504111 -0.03727155 0.07760212
v -0.02410704 -0.03829291 0.07782745
v -0.02562687 -0.03672028 0.07736549
v -0.02490779 -0.03829291 0.07755609
v -0.02410704 -0.03727155 0.07784988
v -0.02415954 -0.03426156 0.07787365
v -0.01788356 -0.04577730 0.07618235
v -0.02410704 -0.03426156 0.07787979
v -0.01788356 -0.04339073 0.07776796
v -0.02617848 -0.03810239 0.07618235
v -0.02410704 -0.03931316 0.07771811
v -0.02308632 -0.04033339 0.07784174
v -0.02590768 -0.03923875 0.07618235
v -0.02555188 -0.03727155 0.07726280
v -0.02474530 -0.03931316 0.07746021
v -0.01788356 -0.04577730 0.07709297
v -0.02173647 -0.04577730 0.07618235
v -0.01900344 -0.04339637 0.07787813
v -0.01788356 -0.04441661 0.07787198
v -0.02408454 -0.04025110 0.07753831
v -0.02311798 -0.04137054 0.07761558
v -0.02210726 -0.04241897 0.07762954
v -0.02104488 -0.04237500 0.07784756
v -0.02500194 -0.04111802 0.07618235
v -0.02463698 -0.03985653 0.07739108
v -0.01788356 -0.04571643 0.07714764
v -0.01798272 -0.04570516 0.07713435
v -0.01798272 -0.04519447 0.07757371
v -0.01879179 -0.04505468 0.07748514
v -0.02002416 -0.04422271 0.07756606
v -0.02068575 -0.04401077 0.07744858
v -0.02179480 -0.04308184 0.07748863
v -0.02279885 -0.04210895 0.07749909
v -0.02372875 -0.04104136 0.07746702
v -0.02347878 -0.04172227 0.07725183
v -0.02490279 -0.04127810 0.07618235
v -0.02002416 -0.04339637 0.07784573
v -0.01798272 -0.04441661 0.07786949
v -0.01788356 -0.04520687 0.07757869
v -0.02103405 -0.04341103 0.07759963
v -0.01908010 -0.04450567 0.07766925
f 1 2 3
f 1 3 7
f 1 7 12
f 1 12 23
f 1 23 33
f 1 33 52
f 1 52 40
f 1 40 29
f 1 29 26
f 1 26 15
f 1 15 8
f 1 8 4
f 1 4 2
f 2 5 6
f 2 6 11
f 2 11 22
f 2 22 24
f 2 24 13
f 2 13 7
f 2 7 3
f 2 4 5
f 4 8 5
f 5 9 6
f 5 8 10
f 5 10 9
f 6 9 11
f 7 13 14
f 7 14 12
f 8 15 10
f 9 10 16
f 9 16 17
f 9 17 18
f 9 18 11
f 10 15 19
f 10 19 20
f 10 20 17
f 10 17 16
f 11 18 21
f 11 21 22
f 12 14 25
f 12 25 35
f 12 35 55
f 12 55 42
f 12 42 32
f 12 32 23
f 13 24 25
f 13 25 14
f 15 26 19
f 17 20 18
f 18 20 27
f 18 27 28
f 18 28 21
f 19 26 29
f 19 29 30
f 19 30 31
f 19 31 20
f 20 31 27
f 21 24 22
f 21 28 24
f 23 32 33
f 24 28 34
f 24 34 35
f 24 35 25
f 27 31 36
f 27 36 28
f 28 36 37
f 28 37 38
f 28 38 39
f 28 39 34
f 29 40 41
f 29 41 31
f 29 31 30
f 31 41 36
f 32 42 43
f 32 43 33
f 33 43 44
f 33 44 45
f 33 45 46
f 33 46 47
f 33 47 48
f 33 48 49
f 33 49 50
f 33 50 51
f 33 51 52
f 34 39 53
f 34 53 54
f 34 54 35
f 35 54 55
f 36 50 37
f 36 41 50
f 37 49 38
f 37 50 49
f 38 49 48
f 38 48 56
f 38 56 53
f 38 53 39
f 40 52 41
f 41 52 51
f 41 51 50
f 42 55 44
f 42 44 43
f 44 55 54
f 44 54 57
f 44 57 45
f 45 57 46
f 46 53 56
f 46 56 47
f 46 57 53
f 47 56 48
f 53 57 54

