# https://github.com/mikedh/trimesh
v -0.07729001 -0.04179923 0.07708738
v -0.07729001 -0.05151990 0.07708738
v -0.07729001 -0.04951401 0.08050024
v -0.07693989 -0.04930749 0.08027673
v -0.06836366 -0.04952117 0.07708738
v -0.07729001 -0.05185114 0.07776192
v -0.07694762 -0.05193498 0.07708738
v -0.07680735 -0.05219568 0.07721954
v -0.07662953 -0.04998839 0.08045607
v -0.07729001 -0.04959274 0.08050425
v -0.07724473 -0.04959683 0.08050325
v -0.07450453 -0.05198099 0.08048050
v -0.06800470 -0.04984322 0.07708738
v -0.07729001 -0.05186955 0.07784791
v -0.07686699 -0.05224373 0.07770069
v -0.07690897 -0.05224373 0.07788639
v -0.07659750 -0.05224373 0.07708738
v -0.07670464 -0.05224373 0.07717805
v -0.07676207 -0.05224373 0.07727441
v -0.07729001 -0.05044743 0.08050225
v -0.07715747 -0.05051593 0.08050525
v -0.07435542 -0.05224373 0.08048585
v -0.07383632 -0.05224373 0.08032892
v -0.06726029 -0.05054149 0.07708738
v -0.07729001 -0.05187773 0.07788639
v -0.07690676 -0.05224373 0.07792353
v -0.07729001 -0.05183683 0.07873893
v -0.06600671 -0.05224373 0.07708738
v -0.07729001 -0.05065089 0.08039885
v -0.07679410 -0.05114162 0.08048016
v -0.07573822 -0.05214048 0.08047381
v -0.07555488 -0.05224373 0.08047782
v -0.07511199 -0.05224373 0.08048920
v -0.06618674 -0.05178674 0.07708738
v -0.07687252 -0.05224373 0.07837757
v -0.07729001 -0.05182559 0.07890690
v -0.07729001 -0.05117434 0.08006158
v -0.07641968 -0.05182252 0.08020379
v -0.07583542 -0.05224373 0.08028275
v -0.07683055 -0.05224373 0.07890690
v -0.07685374 -0.05222329 0.07890690
v -0.07729001 -0.05139926 0.07980629
v -0.07675986 -0.05214456 0.07952322
v -0.07655664 -0.05224373 0.07961457
v -0.07618995 -0.05224373 0.07997024
f 1 2 6
f 1 6 14
f 1 14 25
f 1 25 27
f 1 27 36
f 1 36 42
f 1 42 37
f 1 37 29
f 1 29 20
f 1 20 10
f 1 10 3
f 1 3 4
f 1 4 5
f 1 5 13
f 1 13 24
f 1 24 34
f 1 34 28
f 1 28 17
f 1 17 7
f 1 7 2
f 2 7 8
f 2 8 6
f 3 9 4
f 3 10 11
f 3 11 12
f 3 12 9
f 4 9 5
f 5 9 13
f 6 8 15
f 6 15 16
f 6 16 14
f 7 17 18
f 7 18 8
f 8 18 19
f 8 19 15
f 9 12 13
f 10 20 21
f 10 21 22
f 10 22 11
f 11 22 12
f 12 22 23
f 12 23 24
f 12 24 13
f 14 16 25
f 15 19 18
f 15 18 17
f 15 17 28
f 15 28 23
f 15 23 22
f 15 22 33
f 15 33 32
f 15 32 39
f 15 39 45
f 15 45 44
f 15 44 40
f 15 40 35
f 15 35 26
f 15 26 16
f 16 26 27
f 16 27 25
f 20 29 30
f 20 30 31
f 20 31 32
f 20 32 21
f 21 32 33
f 21 33 22
f 23 28 34
f 23 34 24
f 26 35 36
f 26 36 27
f 29 37 30
f 30 38 31
f 30 37 38
f 31 38 39
f 31 39 32
f 35 40 41
f 35 41 36
f 36 41 43
f 36 43 42
f 37 42 43
f 37 43 44
f 37 44 38
f 38 44 45
f 38 45 39
f 40 44 43
f 40 43 41

