# https://github.com/mikedh/trimesh
v -0.00164688 0.00377661 0.07722739
v -0.00164688 0.00365159 0.07686515
v -0.00200863 0.00376897 0.07722739
v -0.00062594 0.00373216 0.07722739
v -0.00266782 0.00122132 0.07172932
v -0.00365660 0.00125813 0.07172932
v -0.00368875 0.00125883 0.07172932
v -0.00675157 0.00114422 0.07172932
v -0.00266782 0.00359742 0.07686515
v -0.00302957 0.00371549 0.07722739
v -0.00062594 0.00360297 0.07686515
v 0.00109840 0.00348004 0.07722739
v -0.00263566 0.00121854 0.07172932
v -0.00705303 0.00112755 0.07172932
v -0.00705303 0.00331751 0.07703631
v -0.00705303 0.00338766 0.07722739
v -0.00028831 0.00099350 0.07172932
v -0.00162276 0.00112339 0.07172932
v 0.00141594 0.00331751 0.07693082
v 0.00334527 0.00311956 0.07722739
v 0.00243486 0.00321055 0.07705730
v -0.00705303 -0.00331834 0.07172932
v -0.00705303 0.00031630 0.07722739
v 0.00039500 0.00087821 0.07172932
v 0.00345379 0.00309803 0.07722739
v -0.00705303 -0.00331834 0.07660734
v 0.00866098 -0.00331834 0.07172932
v 0.00837761 -0.00331834 0.07722739
v 0.00141594 0.00063580 0.07172932
v 0.00345379 0.00284035 0.07673705
v 0.00411901 0.00292925 0.07722739
v 0.00825100 -0.00290994 0.07172932
v 0.00873132 -0.00331834 0.07172985
v 0.01347828 -0.00331834 0.07722739
v 0.00243486 0.00033089 0.07172932
v 0.00623927 0.00213328 0.07722739
v 0.00622922 0.00213120 0.07720693
v 0.00438229 0.00268962 0.07696203
v 0.00245697 0.00032395 0.07172932
v 0.00759985 -0.00239943 0.07172932
v 0.01098221 -0.00113811 0.07649323
v 0.01203128 -0.00215634 0.07646040
v 0.01234279 -0.00283701 0.07614876
v 0.01206947 -0.00331834 0.07541084
v 0.01342402 -0.00331834 0.07706592
v 0.01326124 -0.00297106 0.07722739
v 0.00626339 0.00212356 0.07722739
v 0.00541126 0.00224788 0.07686623
v 0.00828114 0.00113797 0.07716818
v 0.00751745 0.00130050 0.07684309
v 0.00654877 0.00176725 0.07686623
v 0.00368089 -0.00016503 0.07172932
v 0.00314430 0.00007946 0.07172932
v 0.01030092 -0.00084986 0.07619667
v 0.00708938 -0.00200631 0.07172932
v 0.00982059 -0.00016919 0.07658635
v 0.01057022 -0.00054148 0.07687969
v 0.01124548 -0.00091307 0.07717356
v 0.01163939 -0.00151456 0.07681725
v 0.01229054 -0.00189101 0.07714127
v 0.01265631 -0.00255571 0.07683447
v 0.01302409 -0.00325861 0.07652768
v 0.01295576 -0.00331834 0.07639689
v 0.01324516 -0.00295578 0.07720801
v 0.01310850 -0.00331834 0.07658796
v 0.01325721 -0.00296550 0.07722739
v 0.00821683 0.00118659 0.07722739
v 0.00829320 0.00114561 0.07722739
v 0.00833541 0.00112130 0.07722739
v 0.01008789 0.00005862 0.07722739
v 0.00952114 0.00021004 0.07690175
v 0.00859667 0.00073304 0.07684309
v 0.00576899 -0.00115130 0.07172932
v 0.00575292 -0.00114228 0.07172932
v 0.00784504 0.00091154 0.07648785
v 0.00525852 -0.00090335 0.07172932
v 0.00450086 -0.00054773 0.07172932
v 0.00653470 -0.00162847 0.07172932
v 0.01020043 -0.00001917 0.07722739
v 0.00651661 -0.00161666 0.07172932
v 0.01125352 -0.00090751 0.07722739
v 0.01129171 -0.00094224 0.07722739
v 0.01223829 -0.00182295 0.07722739
v 0.01229858 -0.00188198 0.07722739
v 0.01235686 -0.00194658 0.07722739
v 0.01323511 -0.00293911 0.07722739
v 0.01304418 -0.00331834 0.07650185
f 1 2 3
f 1 3 10
f 1 10 16
f 1 16 23
f 1 23 28
f 1 28 34
f 1 34 46
f 1 46 66
f 1 66 86
f 1 86 85
f 1 85 84
f 1 84 83
f 1 83 82
f 1 82 81
f 1 81 79
f 1 79 70
f 1 70 69
f 1 69 68
f 1 68 67
f 1 67 47
f 1 47 36
f 1 36 31
f 1 31 25
f 1 25 20
f 1 20 12
f 1 12 4
f 1 4 2
f 2 5 6
f 2 6 7
f 2 7 8
f 2 8 9
f 2 9 10
f 2 10 3
f 2 4 11
f 2 11 5
f 4 12 11
f 5 11 13
f 5 13 18
f 5 18 17
f 5 17 24
f 5 24 29
f 5 29 35
f 5 35 39
f 5 39 53
f 5 53 52
f 5 52 77
f 5 77 76
f 5 76 74
f 5 74 73
f 5 73 80
f 5 80 78
f 5 78 55
f 5 55 40
f 5 40 32
f 5 32 27
f 5 27 22
f 5 22 14
f 5 14 8
f 5 8 7
f 5 7 6
f 8 14 9
f 9 14 15
f 9 15 10
f 10 15 16
f 11 17 18
f 11 18 13
f 11 12 19
f 11 19 17
f 12 20 21
f 12 21 19
f 14 22 26
f 14 26 23
f 14 23 16
f 14 16 15
f 17 19 21
f 17 21 24
f 20 25 24
f 20 24 21
f 22 27 33
f 22 33 44
f 22 44 63
f 22 63 87
f 22 87 65
f 22 65 45
f 22 45 34
f 22 34 28
f 22 28 26
f 23 26 28
f 24 25 30
f 24 30 29
f 25 31 30
f 27 32 33
f 29 30 31
f 29 31 35
f 31 36 37
f 31 37 38
f 31 38 39
f 31 39 35
f 32 40 41
f 32 41 33
f 33 41 42
f 33 42 43
f 33 43 44
f 34 45 46
f 36 47 37
f 37 48 38
f 37 47 49
f 37 49 50
f 37 50 51
f 37 51 52
f 37 52 53
f 37 53 48
f 38 53 39
f 38 48 53
f 40 54 41
f 40 55 54
f 41 54 56
f 41 56 57
f 41 57 58
f 41 58 59
f 41 59 42
f 42 59 60
f 42 60 61
f 42 61 62
f 42 62 43
f 43 62 63
f 43 63 44
f 45 64 46
f 45 65 62
f 45 62 64
f 46 64 66
f 47 67 49
f 49 67 68
f 49 68 69
f 49 69 70
f 49 70 71
f 49 71 56
f 49 56 72
f 49 72 73
f 49 73 74
f 49 74 75
f 49 75 50
f 50 75 74
f 50 74 76
f 50 76 77
f 50 77 52
f 50 52 51
f 54 55 56
f 55 78 56
f 56 71 70
f 56 70 79
f 56 79 57
f 56 78 80
f 56 80 73
f 56 73 72
f 57 79 58
f 58 81 82
f 58 82 60
f 58 60 59
f 58 79 81
f 60 83 84
f 60 84 85
f 60 85 86
f 60 86 64
f 60 64 61
f 60 82 83
f 61 64 62
f 62 65 87
f 62 87 63
f 64 86 66

