# https://github.com/mikedh/trimesh
v 0.00893089 -0.02155098 0.07818303
v 0.00893089 -0.02094636 0.07814071
v 0.00893089 -0.02155098 0.07172878
v 0.01367673 -0.02155098 0.07694096
v 0.01367673 -0.02154039 0.07694159
v 0.01367673 -0.01073340 0.07738573
v 0.00893089 -0.01991606 0.07806237
v 0.01367673 -0.02155098 0.07172878
v 0.00893089 -0.01073340 0.07172878
v 0.01367673 -0.01073340 0.07172878
v 0.00893089 -0.01073340 0.07674195
v 0.00893089 -0.01787453 0.07785009
v 0.00893089 -0.01889529 0.07796823
f 1 2 7
f 1 7 13
f 1 13 12
f 1 12 11
f 1 11 9
f 1 9 3
f 1 3 8
f 1 8 4
f 1 4 5
f 1 5 6
f 1 6 2
f 2 6 7
f 3 9 10
f 3 10 8
f 4 8 10
f 4 10 6
f 4 6 5
f 6 10 9
f 6 9 11
f 6 11 12
f 6 12 13
f 6 13 7

