# https://github.com/mikedh/trimesh
v -0.00737993 -0.04577606 0.07172878
v 0.01108713 -0.04577606 0.07172878
v -0.00737993 -0.04577606 0.07796147
v -0.00737993 -0.02155335 0.07172878
v 0.01140726 -0.04552468 0.07172878
v 0.01124161 -0.04577606 0.07173289
v -0.00232485 -0.04577606 0.07838224
v -0.00737993 -0.04543693 0.07814924
v -0.00737993 -0.02155335 0.07578157
v 0.01163247 -0.02155335 0.07172878
v 0.01141843 -0.04550808 0.07172878
v 0.01163247 -0.04518792 0.07172878
v 0.01163247 -0.04577606 0.07297532
v -0.00201402 -0.04577606 0.07840006
v -0.00737993 -0.04441718 0.07830275
v 0.00753778 -0.02155335 0.07823696
v -0.00737993 -0.04096187 0.07815541
v 0.01163247 -0.02155335 0.07674783
v 0.01163247 -0.04577606 0.07847133
v -0.00154872 -0.04577606 0.07841788
v 0.00549602 -0.04543693 0.07866115
v -0.00675270 -0.04441718 0.07832125
v -0.00737993 -0.04339505 0.07829315
v -0.00112622 -0.04577606 0.07843158
v 0.00794539 -0.02155335 0.07829041
v -0.00737993 -0.04198163 0.07825272
v 0.00955907 -0.02155335 0.07793269
v 0.00907515 -0.02239287 0.07839869
v 0.01013605 -0.02731140 0.07842267
v 0.01115042 -0.03242914 0.07842130
v 0.01163247 -0.03618326 0.07854191
v 0.00957954 -0.04339505 0.07871392
v 0.00855959 -0.04441718 0.07870844
v 0.00753778 -0.04543693 0.07865841
v 0.00612697 -0.04577606 0.07863100
v 0.01163247 -0.03931130 0.07867280
v 0.01162130 -0.03931130 0.07867623
v 0.01060135 -0.04135318 0.07872899
v 0.00510702 -0.04577606 0.07861387
v 0.00651783 -0.04543693 0.07868719
v 0.00753778 -0.02502289 0.07842473
v -0.00737993 -0.04300375 0.07828630
v 0.00755825 -0.02410036 0.07841102
v 0.00858565 -0.02155335 0.07835894
v -0.00737993 -0.04237530 0.07826574
v 0.00791375 -0.02329642 0.07840554
v 0.01019561 -0.02808452 0.07845282
v 0.00898023 -0.02239287 0.07839869
v 0.00855959 -0.02400076 0.07843089
v 0.00957954 -0.02808452 0.07849942
v 0.01060135 -0.03522754 0.07861798
v 0.01162130 -0.03829154 0.07864813
v 0.01162130 -0.03726942 0.07861181
v 0.01163247 -0.03726942 0.07860907
v 0.01163247 -0.03701092 0.07859331
v 0.01163247 -0.03929470 0.07867280
v 0.01163247 -0.03829154 0.07864539
v 0.00855959 -0.02502289 0.07844597
v 0.00860798 -0.02201580 0.07838018
v 0.00860798 -0.02296678 0.07840759
f 1 2 6
f 1 6 13
f 1 13 19
f 1 19 35
f 1 35 39
f 1 39 24
f 1 24 20
f 1 20 14
f 1 14 7
f 1 7 3
f 1 3 8
f 1 8 15
f 1 15 23
f 1 23 42
f 1 42 45
f 1 45 26
f 1 26 17
f 1 17 9
f 1 9 4
f 1 4 10
f 1 10 12
f 1 12 11
f 1 11 5
f 1 5 2
f 2 5 6
f 3 7 8
f 4 9 16
f 4 16 25
f 4 25 44
f 4 44 27
f 4 27 18
f 4 18 10
f 5 11 6
f 6 11 12
f 6 12 13
f 7 14 8
f 8 14 15
f 9 17 16
f 10 18 31
f 10 31 55
f 10 55 54
f 10 54 57
f 10 57 56
f 10 56 36
f 10 36 19
f 10 19 13
f 10 13 12
f 14 20 15
f 15 21 22
f 15 22 23
f 15 20 24
f 15 24 21
f 16 17 25
f 17 26 25
f 18 27 28
f 18 28 29
f 18 29 30
f 18 30 31
f 19 32 33
f 19 33 34
f 19 34 35
f 19 36 37
f 19 37 38
f 19 38 32
f 21 23 22
f 21 24 39
f 21 39 40
f 21 40 41
f 21 41 23
f 23 41 43
f 23 43 42
f 25 26 44
f 26 45 46
f 26 46 44
f 27 44 28
f 28 47 29
f 28 44 48
f 28 48 49
f 28 49 50
f 28 50 51
f 28 51 37
f 28 37 52
f 28 52 53
f 28 53 47
f 29 47 54
f 29 54 55
f 29 55 31
f 29 31 30
f 32 38 33
f 33 38 40
f 33 40 34
f 34 40 35
f 35 40 39
f 36 56 37
f 37 56 57
f 37 57 52
f 37 51 38
f 38 51 50
f 38 50 49
f 38 49 58
f 38 58 41
f 38 41 40
f 41 58 49
f 41 49 43
f 42 43 46
f 42 46 45
f 43 49 46
f 44 46 59
f 44 59 48
f 46 49 60
f 46 60 48
f 46 48 59
f 47 53 54
f 48 60 49
f 52 57 54
f 52 54 53

