# https://github.com/mikedh/trimesh
v 0.01289659 -0.00849957 0.06971514
v 0.01243492 -0.00771408 0.06971514
v 0.01287917 -0.00849957 0.07172878
v 0.01288788 -0.00849957 0.06562885
v 0.01236958 -0.00775777 0.00438613
v 0.01236958 -0.00775371 0.00541139
v 0.01212132 -0.00717043 0.05235947
v 0.01242620 -0.00768054 0.06562885
v 0.01209519 -0.00720904 0.07073302
v 0.01242185 -0.00772830 0.07172878
v 0.01212132 -0.00716941 0.06562885
v 0.01211697 -0.00717856 0.06665411
v -0.03159410 -0.00849957 0.07172878
v 0.01274851 -0.00849957 0.00622275
v 0.01207777 -0.00724766 0.00438613
v 0.01208212 -0.00724258 0.00541139
v 0.01274415 -0.00849957 0.00520486
v 0.01273544 -0.00849957 0.00438613
v 0.01264833 -0.00849957 -0.00071805
v 0.01230861 -0.00786650 -0.00071805
v 0.01172498 -0.00664507 0.00541139
v 0.01126766 -0.00590734 0.00541139
v 0.01209955 -0.00723445 0.07172878
v 0.01176418 -0.00664507 0.06562885
v 0.01172934 -0.00664507 0.06869726
v -0.03159410 -0.00007254 0.07172878
v -0.03159410 -0.00849957 -0.00130812
v 0.01171627 -0.00664507 0.00438613
v 0.01201244 -0.00735639 -0.00071805
v 0.01262655 -0.00849957 -0.00097621
v 0.01226070 -0.00795897 -0.00173593
v 0.01126331 -0.00591242 0.00438613
v 0.01088874 -0.00540129 0.00438613
v 0.01089309 -0.00539723 0.00541139
v 0.01126331 -0.00594291 0.06562885
v 0.01165094 -0.00662577 0.07172878
v 0.01124588 -0.00595815 0.06869726
v -0.03090159 -0.00003596 0.07172878
v -0.00369324 0.00187950 0.00438613
v -0.00471241 0.00182056 0.00336824
v -0.01652432 0.00101373 0.00393619
v -0.01652432 0.00101373 0.00386981
v -0.02920733 0.00008902 0.00438613
v -0.03002179 0.00002094 0.00438613
v -0.03159410 -0.00012437 0.00438613
v -0.03159410 -0.00318911 -0.00331439
v 0.00957775 -0.00849957 -0.00357993
v 0.01169014 -0.00664507 0.00336824
v 0.01156383 -0.00664507 -0.00071805
v 0.01120233 -0.00599371 0.00030721
v 0.01160738 -0.00664507 0.00030721
v 0.01194711 -0.00744784 -0.00173593
v 0.01253073 -0.00849957 -0.00173593
v 0.01218665 -0.00808701 -0.00232601
v 0.01084954 -0.00548360 0.00030721
v 0.01037915 -0.00478042 0.00438613
v 0.01038351 -0.00476416 0.00541139
v 0.01033560 -0.00482513 0.00030721
v 0.01084518 -0.00543279 0.06562885
v 0.01083647 -0.00544804 0.06869726
v 0.01119797 -0.00603334 0.07172878
v -0.02818380 0.00010122 0.07172878
v -0.00266971 0.00186324 0.00438613
v -0.00369324 0.00188052 0.00030721
v -0.01900256 0.00056459 0.07172878
v -0.00675510 0.00114380 0.07172878
v -0.00369324 0.00125863 0.07172878
v -0.00471241 0.00182056 0.00030721
v -0.00471241 0.00181244 -0.00071805
v -0.02993904 0.00001688 0.00383293
v -0.03159410 -0.00027273 -0.00071805
v -0.03159410 -0.00297368 -0.00335127
v -0.03159410 -0.00256315 -0.00341765
v 0.00957775 -0.00766632 -0.00360943
v 0.01041400 -0.00849957 -0.00356517
v 0.01117184 -0.00604046 -0.00071805
v 0.01113264 -0.00609838 -0.00136713
v 0.01106731 -0.00619390 -0.00205310
v 0.01138526 -0.00657902 -0.00172118
v 0.01248718 -0.00849957 -0.00192033
v 0.01227812 -0.00849957 -0.00245140
v 0.01178595 -0.00849957 -0.00296034
v 0.01096278 -0.00740110 -0.00315949
v 0.01128944 -0.00687473 -0.00247353
v 0.01081470 -0.00553035 -0.00071805
v 0.01030511 -0.00486171 -0.00071805
v 0.00995232 -0.00425405 0.00541139
v 0.00995232 -0.00425303 0.00642927
v 0.00986086 -0.00435058 -0.00071805
v 0.00988264 -0.00431400 0.00030721
v 0.00989570 -0.00431298 0.06767200
v 0.01032253 -0.00482310 0.06767200
v 0.01032689 -0.00483732 0.06869726
v 0.01027898 -0.00487391 0.07073302
v 0.01025720 -0.00490642 0.07172878
v -0.00165054 0.00176671 0.00438613
v -0.00165054 0.00177179 0.00336824
v -0.00165054 0.00176975 0.00132510
v -0.00266971 0.00185003 0.00030721
v -0.00266971 0.00126980 0.06869726
v -0.00369324 0.00185715 -0.00071805
v -0.00365839 0.00125761 0.07172878
v -0.00369324 0.00168643 -0.00173593
v -0.00471241 0.00162851 -0.00173593
v -0.03159410 -0.00036317 -0.00173593
v -0.03159410 -0.00229184 -0.00340290
v -0.02308360 -0.00154191 -0.00347666
v -0.02206443 -0.00154191 -0.00348404
v -0.02104090 -0.00154191 -0.00349141
v 0.00855858 -0.00664507 -0.00362418
v 0.00855858 -0.00562485 -0.00357993
v 0.01060128 -0.00849957 -0.00353567
v 0.01075807 -0.00570411 -0.00172118
v 0.01010476 -0.00509543 -0.00226700
v 0.01018751 -0.00499178 -0.00173593
v 0.01163351 -0.00849957 -0.00310786
v 0.01115878 -0.00808193 -0.00329964
v 0.01007427 -0.00615732 -0.00325538
v 0.01032689 -0.00562485 -0.00251041
v 0.00975633 -0.00448167 -0.00173593
v 0.00942531 -0.00369414 0.00438613
v 0.00943838 -0.00368195 0.00541139
v 0.00944274 -0.00367585 0.00642927
v 0.00935127 -0.00379576 -0.00071805
v 0.00924674 -0.00390550 -0.00173593
v 0.00937305 -0.00377137 0.00030721
v 0.00893750 -0.00320232 0.00336824
v 0.00938611 -0.00379678 0.06767200
v 0.00936434 -0.00379373 0.06869726
v 0.00987828 -0.00432721 0.06869726
v 0.00897235 -0.00316675 0.00642927
v 0.00983908 -0.00436379 0.07073302
v 0.00982166 -0.00439631 0.07172878
v 0.00983472 -0.00441155 0.07172878
v -0.00063137 0.00163156 0.00438613
v -0.00029165 0.00099341 0.07172878
v -0.00063137 0.00163054 0.00336824
v -0.00063137 0.00162546 0.00132510
v -0.00165054 0.00174943 0.00030721
v -0.00266971 0.00181548 -0.00071805
v -0.00266971 0.00122103 0.07172878
v -0.00162441 0.00112348 0.07172878
v -0.00080123 0.00104320 0.07172878
v -0.00266971 0.00166204 -0.00173593
v -0.00266971 0.00127387 -0.00259892
v -0.00369324 0.00127488 -0.00259154
v -0.00471241 0.00123729 -0.00256942
v -0.00675510 0.00116616 -0.00248828
v -0.00777427 0.00112958 -0.00242927
v -0.02206443 0.00011849 -0.00243665
v -0.03159410 -0.00075439 -0.00264318
v -0.03159410 -0.00175734 -0.00337340
v -0.01797904 -0.00071273 -0.00341765
v -0.01593634 -0.00064363 -0.00342503
v -0.01695987 -0.00154191 -0.00351354
v 0.00549672 -0.00358237 -0.00357255
v 0.00753506 -0.00460361 -0.00355042
v 0.00847147 -0.00469506 -0.00336602
v 0.00932514 -0.00562485 -0.00338077
v 0.00967357 -0.00655667 -0.00348404
v 0.01061434 -0.00771103 -0.00341765
v 0.01119362 -0.00849957 -0.00338077
v 0.00912914 -0.00403049 -0.00231863
v 0.01128073 -0.00849957 -0.00335127
v 0.01028333 -0.00683815 -0.00336602
v 0.00908559 -0.00509645 -0.00327751
v 0.00895057 -0.00318505 0.00438613
v 0.00895928 -0.00317184 0.00541139
v 0.00884169 -0.00328666 -0.00071805
v 0.00888089 -0.00326126 0.00030721
v 0.00870667 -0.00339438 -0.00173593
v 0.00837130 -0.00278265 0.00030721
v 0.00838872 -0.00276740 0.00132510
v 0.00886782 -0.00326837 0.05644576
v 0.00882862 -0.00328463 0.06869726
v 0.00893315 -0.00320334 0.02684597
v 0.00931207 -0.00385470 0.07172878
v 0.00779638 -0.00225729 0.00132510
v 0.00846276 -0.00274098 0.00642927
v 0.00841050 -0.00274911 0.02990700
v 0.00039216 0.00141511 0.00541139
v 0.00039216 0.00141715 0.00438613
v 0.00039216 0.00087757 0.07172878
v 0.00039216 0.00139886 0.00132510
v 0.00039216 0.00137447 0.00030721
v -0.00063137 0.00159193 0.00030721
v -0.00165054 0.00168948 -0.00071805
v -0.00165054 0.00152486 -0.00173593
v -0.00165054 0.00120375 -0.00253991
v -0.00165054 0.00071904 -0.00304886
v -0.00266971 0.00074953 -0.00310786
v -0.00369324 0.00070888 -0.00310049
v -0.00675510 0.00067637 -0.00299722
v -0.00573593 0.00119969 -0.00253254
v -0.01797904 -0.00020160 -0.00313737
v -0.03159410 -0.00107956 -0.00298247
v -0.03159410 -0.00158459 -0.00329964
v -0.02104090 -0.00083365 -0.00338077
v -0.02002173 -0.00079503 -0.00339553
v -0.00777427 0.00014085 -0.00335127
v -0.00777427 -0.00052169 -0.00343978
v -0.00266971 0.00023840 -0.00336602
v -0.00063137 -0.00052169 -0.00344716
v 0.00243050 -0.00154191 -0.00351354
v 0.00447319 -0.00256315 -0.00351354
v 0.00651589 -0.00358237 -0.00349879
v 0.00651589 -0.00288629 -0.00334389
v 0.00743924 -0.00366874 -0.00333652
v 0.00703419 -0.00306514 -0.00327013
v 0.00807513 -0.00406606 -0.00328489
v 0.00807078 -0.00305294 -0.00227438
v 0.00875458 -0.00441562 -0.00299722
v 0.00833210 -0.00282532 -0.00071805
v 0.00819273 -0.00294930 -0.00173593
v 0.00778332 -0.00227253 0.00030721
v 0.00835823 -0.00281313 0.05644576
v 0.00831903 -0.00285987 0.06869726
v 0.00824935 -0.00291068 0.07172878
v 0.00875893 -0.00334357 0.07172878
v 0.00832775 -0.00282228 0.06359308
v 0.00727373 -0.00186505 0.00030721
v 0.00728680 -0.00185591 0.00132510
v 0.00729115 -0.00184879 0.00235036
v 0.00780945 -0.00224713 0.00336824
v 0.00781381 -0.00222985 0.00642927
v 0.00780945 -0.00222376 0.01459448
v 0.00777025 -0.00223900 0.02990700
v 0.00770056 -0.00231216 0.06359308
v 0.00138084 0.00114990 0.00541139
v 0.00141133 0.00063572 0.07172878
v 0.00134164 0.00114380 0.00132510
v 0.00129809 0.00113364 0.00030721
v 0.00121098 0.00110214 -0.00071805
v 0.00039216 0.00131451 -0.00071805
v -0.00063137 0.00152384 -0.00071805
v -0.00063137 0.00133992 -0.00173593
v 0.00072317 0.00097817 -0.00211948
v 0.00004372 0.00103812 -0.00229650
v -0.00063137 0.00110214 -0.00239977
v 0.00098885 0.00001688 -0.00328489
v 0.00039216 0.00006260 -0.00331439
v -0.00165054 0.00020792 -0.00335864
v -0.00675510 0.00016625 -0.00335127
v -0.01695987 -0.00016400 -0.00316687
v -0.03159410 -0.00124723 -0.00315212
v 0.00039216 -0.00052169 -0.00344716
v 0.00136342 -0.00050238 -0.00338077
v 0.00243050 -0.00079808 -0.00336602
v 0.00351500 -0.00147485 -0.00341765
v 0.00548801 -0.00252048 -0.00341028
v 0.00321447 -0.00092206 -0.00332914
v 0.00389392 -0.00109074 -0.00324063
v 0.00582337 -0.00215161 -0.00320375
v 0.00629811 -0.00184270 -0.00251778
v 0.00743924 -0.00287512 -0.00267268
v 0.00698192 -0.00208963 -0.00214899
v 0.00773105 -0.00231420 -0.00071805
v 0.00712565 -0.00197480 -0.00147040
v 0.00749586 -0.00238431 -0.00178019
v 0.00722147 -0.00190265 -0.00071805
v 0.00708645 -0.00200732 0.07172878
v 0.00760039 -0.00240057 0.07172878
v 0.00602372 -0.00102062 -0.00032712
v 0.00654638 -0.00135392 0.00030721
v 0.00658993 -0.00133055 0.00438613
v 0.00729551 -0.00184270 0.00336824
v 0.00729986 -0.00184066 0.00438613
v 0.00729115 -0.00184168 0.01153345
v 0.00658558 -0.00133055 0.01153345
v 0.00608034 -0.00098099 0.01663762
v 0.00719098 -0.00194635 0.06359308
v 0.00187736 0.00099747 0.00642927
v 0.00189042 0.00100052 0.00541139
v 0.00188607 0.00099950 0.00438613
v 0.00137648 0.00114685 0.00438613
v 0.00144617 0.00062556 0.07172878
v 0.00186865 0.00099442 0.00235036
v 0.00185123 0.00098833 0.00132510
v 0.00180767 0.00097410 0.00030721
v 0.00172056 0.00094565 -0.00071805
v 0.00106289 0.00105946 -0.00144089
v 0.00038345 0.00113466 -0.00176543
v 0.00306203 0.00004126 -0.00234076
v 0.00243050 0.00016828 -0.00251041
v 0.00136342 0.00030242 -0.00281282
v 0.00140697 0.00086436 -0.00176543
v 0.00038345 0.00064182 -0.00268743
v 0.00167265 -0.00014977 -0.00318900
v 0.00243050 -0.00028797 -0.00301935
v 0.00348016 -0.00051762 -0.00279069
v 0.00447319 -0.00080824 -0.00256204
v 0.00509602 -0.00097286 -0.00235551
v 0.00580595 -0.00114561 -0.00173593
v 0.00658993 -0.00168926 -0.00178019
v 0.00597146 -0.00105314 -0.00100571
v 0.00642442 -0.00133360 -0.00068854
v 0.00651589 -0.00161711 0.07172878
v 0.00557511 -0.00079199 -0.00068854
v 0.00549672 -0.00069240 0.00030721
v 0.00603679 -0.00101148 0.00030721
v 0.00608034 -0.00098506 0.00438613
v 0.00608470 -0.00097794 0.00541139
v 0.00549672 -0.00063753 0.00745454
v 0.00466919 -0.00017518 0.00642927
v 0.00465612 -0.00017111 0.00745454
v 0.00464741 -0.00018026 0.01153345
v 0.00533992 -0.00082450 0.06052467
v 0.00584951 -0.00112224 0.06154993
v 0.00651589 -0.00151651 0.06154993
v 0.00575369 -0.00114358 0.07172878
v 0.00243050 0.00033087 0.07172878
v 0.00245227 0.00032376 0.07172878
v 0.00243050 0.00080135 0.00541139
v 0.00243050 0.00080237 0.00438613
v 0.00314043 0.00007886 0.07172878
v 0.00320141 0.00009309 0.06665411
v 0.00243050 0.00078408 0.00235036
v 0.00243050 0.00077087 0.00132510
v 0.00243050 0.00074242 0.00030721
v 0.00243050 0.00069059 -0.00071805
v 0.00243050 0.00049956 -0.00173593
v 0.00342353 0.00012561 -0.00166217
v 0.00374583 -0.00011217 -0.00195721
v 0.00439044 -0.00033776 -0.00166217
v 0.00529637 -0.00085397 -0.00173593
v 0.00399845 0.00000570 -0.00127862
v 0.00455594 -0.00023005 -0.00071805
v 0.00460386 -0.00020261 0.00030721
v 0.00461692 -0.00019753 0.00132510
v 0.00549672 -0.00063956 0.00541139
v 0.00415089 0.00008699 0.00541139
v 0.00415960 0.00008902 0.00642927
v 0.00447319 -0.00038755 0.06052467
v 0.00527894 -0.00087938 0.07073302
v 0.00525717 -0.00090377 0.07172878
v 0.00345402 0.00039692 0.00642927
v 0.00345402 0.00039794 0.00541139
v 0.00368051 -0.00016603 0.07172878
v 0.00447319 -0.00051153 0.07073302
v 0.00375890 -0.00008474 0.06052467
v 0.00345402 0.00035323 0.00132510
v 0.00345402 0.00038778 0.00438613
v 0.00345402 0.00033189 0.00030721
v 0.00345402 0.00028413 -0.00071805
v 0.00404636 0.00002907 -0.00071805
v 0.00409427 0.00005244 0.00030721
v 0.00410733 0.00005956 0.00132510
v 0.00413347 0.00007073 0.01153345
v 0.00449933 -0.00054913 0.07172878
f 1 2 3
f 1 3 13
f 1 13 27
f 1 27 47
f 1 47 75
f 1 75 112
f 1 112 162
f 1 162 164
f 1 164 116
f 1 116 82
f 1 82 81
f 1 81 80
f 1 80 53
f 1 53 30
f 1 30 19
f 1 19 18
f 1 18 17
f 1 17 14
f 1 14 4
f 1 4 5
f 1 5 6
f 1 6 7
f 1 7 8
f 1 8 2
f 2 9 10
f 2 10 3
f 2 8 11
f 2 11 12
f 2 12 9
f 3 10 23
f 3 23 36
f 3 36 61
f 3 61 95
f 3 95 134
f 3 134 133
f 3 133 177
f 3 177 219
f 3 219 218
f 3 218 262
f 3 262 261
f 3 261 297
f 3 297 310
f 3 310 335
f 3 335 349
f 3 349 338
f 3 338 315
f 3 315 312
f 3 312 311
f 3 311 276
f 3 276 230
f 3 230 183
f 3 183 136
f 3 136 143
f 3 143 142
f 3 142 141
f 3 141 102
f 3 102 67
f 3 67 66
f 3 66 65
f 3 65 62
f 3 62 38
f 3 38 26
f 3 26 13
f 4 14 5
f 5 15 16
f 5 16 6
f 5 14 17
f 5 17 18
f 5 18 19
f 5 19 20
f 5 20 15
f 6 16 7
f 7 11 8
f 7 16 21
f 7 21 22
f 7 22 11
f 9 23 10
f 9 12 24
f 9 24 25
f 9 25 23
f 11 24 12
f 11 22 24
f 13 26 45
f 13 45 71
f 13 71 105
f 13 105 151
f 13 151 196
f 13 196 245
f 13 245 197
f 13 197 152
f 13 152 106
f 13 106 73
f 13 73 72
f 13 72 46
f 13 46 27
f 15 28 21
f 15 21 16
f 15 20 29
f 15 29 28
f 19 30 20
f 20 30 31
f 20 31 29
f 21 28 32
f 21 32 22
f 22 32 33
f 22 33 34
f 22 34 35
f 22 35 24
f 23 25 37
f 23 37 36
f 24 35 37
f 24 37 25
f 26 38 39
f 26 39 40
f 26 40 41
f 26 41 42
f 26 42 43
f 26 43 44
f 26 44 45
f 27 46 47
f 28 29 48
f 28 48 32
f 29 49 50
f 29 50 51
f 29 51 48
f 29 31 52
f 29 52 49
f 30 53 31
f 31 53 54
f 31 54 52
f 32 48 51
f 32 51 50
f 32 50 55
f 32 55 33
f 33 56 57
f 33 57 34
f 33 55 58
f 33 58 56
f 34 57 35
f 35 59 60
f 35 60 37
f 35 57 59
f 36 37 61
f 37 60 61
f 38 62 39
f 39 63 64
f 39 64 40
f 39 62 65
f 39 65 66
f 39 66 67
f 39 67 63
f 40 64 68
f 40 68 42
f 40 42 41
f 42 68 69
f 42 69 43
f 43 69 70
f 43 70 44
f 44 70 45
f 45 70 71
f 46 72 47
f 47 72 73
f 47 73 74
f 47 74 75
f 49 76 50
f 49 52 77
f 49 77 76
f 50 76 55
f 52 54 78
f 52 78 79
f 52 79 77
f 53 80 54
f 54 80 81
f 54 81 82
f 54 82 83
f 54 83 84
f 54 84 78
f 55 76 85
f 55 85 86
f 55 86 58
f 56 87 57
f 56 58 87
f 57 87 88
f 57 88 59
f 58 86 89
f 58 89 90
f 58 90 87
f 59 91 92
f 59 92 60
f 59 88 91
f 60 92 93
f 60 93 94
f 60 94 61
f 61 94 95
f 63 96 97
f 63 97 98
f 63 98 99
f 63 99 64
f 63 67 100
f 63 100 96
f 64 99 101
f 64 101 69
f 64 69 68
f 67 102 100
f 69 71 70
f 69 101 103
f 69 103 104
f 69 104 105
f 69 105 71
f 73 106 107
f 73 107 108
f 73 108 109
f 73 109 110
f 73 110 74
f 74 110 111
f 74 111 75
f 75 111 112
f 76 77 85
f 77 79 78
f 77 78 113
f 77 113 86
f 77 86 85
f 78 84 114
f 78 114 115
f 78 115 113
f 82 116 83
f 83 116 117
f 83 117 118
f 83 118 84
f 84 118 119
f 84 119 114
f 86 113 115
f 86 115 120
f 86 120 89
f 87 121 122
f 87 122 123
f 87 123 88
f 87 90 121
f 88 123 91
f 89 124 90
f 89 120 125
f 89 125 124
f 90 124 126
f 90 126 127
f 90 127 121
f 91 128 129
f 91 129 130
f 91 130 93
f 91 93 92
f 91 123 131
f 91 131 128
f 93 130 132
f 93 132 94
f 94 132 133
f 94 133 134
f 94 134 95
f 96 135 97
f 96 100 136
f 96 136 135
f 97 135 98
f 98 135 137
f 98 137 138
f 98 138 139
f 98 139 99
f 99 139 140
f 99 140 101
f 100 102 141
f 100 141 142
f 100 142 143
f 100 143 136
f 101 140 144
f 101 144 103
f 103 144 145
f 103 145 146
f 103 146 147
f 103 147 148
f 103 148 104
f 104 148 149
f 104 149 150
f 104 150 105
f 105 150 151
f 106 152 107
f 107 153 154
f 107 154 108
f 107 152 153
f 108 154 109
f 109 154 155
f 109 155 110
f 110 155 156
f 110 156 111
f 111 156 157
f 111 157 158
f 111 158 159
f 111 159 160
f 111 160 112
f 112 160 161
f 112 161 162
f 114 163 125
f 114 125 120
f 114 120 115
f 114 119 118
f 114 118 163
f 116 164 117
f 117 164 165
f 117 165 118
f 118 165 159
f 118 159 166
f 118 166 163
f 121 167 122
f 121 127 167
f 122 167 168
f 122 168 131
f 122 131 123
f 124 169 170
f 124 170 126
f 124 125 169
f 125 163 171
f 125 171 169
f 126 170 127
f 127 170 172
f 127 172 173
f 127 173 167
f 128 174 175
f 128 175 129
f 128 131 176
f 128 176 174
f 129 175 177
f 129 177 132
f 129 132 130
f 131 168 178
f 131 178 179
f 131 179 180
f 131 180 176
f 132 177 133
f 135 181 182
f 135 182 137
f 135 136 183
f 135 183 181
f 137 182 138
f 138 184 185
f 138 185 186
f 138 186 139
f 138 182 184
f 139 186 187
f 139 187 140
f 140 187 144
f 144 188 189
f 144 189 145
f 144 187 188
f 145 189 190
f 145 190 191
f 145 191 146
f 146 191 192
f 146 192 193
f 146 193 147
f 147 194 148
f 147 193 195
f 147 195 194
f 148 194 195
f 148 195 150
f 148 150 149
f 150 195 151
f 151 195 196
f 152 197 198
f 152 198 199
f 152 199 153
f 153 199 200
f 153 200 154
f 154 201 155
f 154 200 202
f 154 202 201
f 155 201 203
f 155 203 246
f 155 246 204
f 155 204 156
f 156 204 205
f 156 205 206
f 156 206 157
f 157 206 207
f 157 207 208
f 157 208 158
f 158 208 209
f 158 209 210
f 158 210 166
f 158 166 159
f 159 165 160
f 160 165 161
f 161 165 162
f 162 165 164
f 163 211 171
f 163 166 212
f 163 212 210
f 163 210 209
f 163 209 211
f 166 210 212
f 167 173 178
f 167 178 168
f 169 213 172
f 169 172 170
f 169 171 213
f 171 211 214
f 171 214 213
f 172 213 215
f 172 215 173
f 173 215 178
f 174 216 175
f 174 176 180
f 174 180 216
f 175 217 218
f 175 218 219
f 175 219 177
f 175 216 220
f 175 220 217
f 178 215 221
f 178 221 222
f 178 222 223
f 178 223 224
f 178 224 179
f 179 224 225
f 179 225 226
f 179 226 180
f 180 226 227
f 180 227 228
f 180 228 216
f 181 229 182
f 181 183 230
f 181 230 229
f 182 229 231
f 182 231 184
f 184 231 232
f 184 232 185
f 185 232 233
f 185 233 234
f 185 234 186
f 186 234 235
f 186 235 187
f 187 235 188
f 188 236 237
f 188 237 238
f 188 238 239
f 188 239 189
f 188 235 236
f 189 240 190
f 189 239 240
f 190 240 241
f 190 241 191
f 191 241 242
f 191 242 202
f 191 202 243
f 191 243 200
f 191 200 192
f 192 200 193
f 193 244 195
f 193 200 244
f 195 244 245
f 195 245 196
f 197 245 198
f 198 200 199
f 198 245 244
f 198 244 200
f 200 243 202
f 201 202 203
f 202 242 246
f 202 246 203
f 204 246 247
f 204 247 248
f 204 248 249
f 204 249 205
f 205 249 206
f 206 249 250
f 206 250 207
f 207 251 252
f 207 252 253
f 207 253 209
f 207 209 208
f 207 250 251
f 209 253 254
f 209 254 255
f 209 255 211
f 211 256 214
f 211 255 254
f 211 254 256
f 213 257 215
f 213 214 258
f 213 258 257
f 214 256 259
f 214 259 258
f 215 257 260
f 215 260 221
f 216 228 220
f 217 261 262
f 217 262 218
f 217 220 228
f 217 228 261
f 221 260 263
f 221 263 264
f 221 264 222
f 222 264 265
f 222 265 223
f 223 266 224
f 223 265 266
f 224 266 225
f 225 266 267
f 225 267 226
f 226 268 269
f 226 269 227
f 226 267 268
f 227 269 270
f 227 270 271
f 227 271 228
f 228 271 261
f 229 272 273
f 229 273 274
f 229 274 275
f 229 275 231
f 229 230 272
f 230 276 272
f 231 277 278
f 231 278 232
f 231 275 274
f 231 274 277
f 232 279 280
f 232 280 233
f 232 278 279
f 233 280 281
f 233 281 234
f 234 281 235
f 235 281 236
f 236 282 237
f 236 281 282
f 237 283 284
f 237 284 285
f 237 285 238
f 237 282 281
f 237 281 286
f 237 286 283
f 238 285 240
f 238 240 287
f 238 287 239
f 239 287 240
f 240 252 251
f 240 251 248
f 240 248 247
f 240 247 241
f 240 285 288
f 240 288 252
f 241 247 246
f 241 246 242
f 248 251 249
f 249 251 250
f 252 288 289
f 252 289 284
f 252 284 290
f 252 290 291
f 252 291 292
f 252 292 253
f 253 292 254
f 254 292 256
f 256 292 293
f 256 293 294
f 256 294 258
f 256 258 259
f 257 258 260
f 258 294 295
f 258 295 260
f 260 296 263
f 260 295 296
f 261 271 297
f 263 296 295
f 263 295 298
f 263 298 299
f 263 299 300
f 263 300 264
f 264 300 301
f 264 301 265
f 265 267 266
f 265 301 302
f 265 302 269
f 265 269 267
f 267 269 268
f 269 302 270
f 270 302 303
f 270 303 304
f 270 304 305
f 270 305 306
f 270 306 307
f 270 307 308
f 270 308 309
f 270 309 271
f 271 309 310
f 271 310 297
f 272 276 311
f 272 311 312
f 272 312 273
f 273 313 314
f 273 314 274
f 273 312 315
f 273 315 316
f 273 316 313
f 274 314 277
f 277 317 278
f 277 314 317
f 278 318 319
f 278 319 279
f 278 317 318
f 279 319 320
f 279 320 280
f 280 320 281
f 281 321 286
f 281 320 321
f 283 286 321
f 283 321 322
f 283 322 323
f 283 323 292
f 283 292 291
f 283 291 290
f 283 290 284
f 284 289 288
f 284 288 285
f 292 323 324
f 292 324 325
f 292 325 293
f 293 325 295
f 293 295 294
f 295 326 327
f 295 327 298
f 295 325 326
f 298 327 299
f 299 327 328
f 299 328 329
f 299 329 330
f 299 330 301
f 299 301 300
f 301 330 302
f 302 330 303
f 303 330 304
f 304 331 332
f 304 332 305
f 304 330 329
f 304 329 331
f 305 332 306
f 306 332 333
f 306 333 307
f 307 333 334
f 307 334 310
f 307 310 308
f 308 310 309
f 310 334 335
f 313 336 337
f 313 337 314
f 313 316 336
f 314 337 317
f 315 338 339
f 315 339 333
f 315 333 340
f 315 340 316
f 316 340 336
f 317 341 318
f 317 337 342
f 317 342 341
f 318 341 343
f 318 343 319
f 319 343 344
f 319 344 320
f 320 344 326
f 320 326 321
f 321 326 322
f 322 326 323
f 323 326 324
f 324 326 325
f 326 344 345
f 326 345 327
f 327 345 328
f 328 345 346
f 328 346 347
f 328 347 331
f 328 331 329
f 331 342 337
f 331 337 332
f 331 347 341
f 331 341 342
f 332 337 336
f 332 336 348
f 332 348 333
f 333 339 334
f 333 348 336
f 333 336 340
f 334 339 338
f 334 338 349
f 334 349 335
f 341 347 346
f 341 346 343
f 343 346 345
f 343 345 344

