# https://github.com/mikedh/trimesh
v -0.03159846 -0.04522260 0.07172878
v -0.07811411 -0.04522260 0.07172878
v -0.03159846 -0.05271040 0.07172878
v -0.03159846 -0.04522260 -0.00141919
v -0.07800000 -0.04542023 0.07172878
v -0.07822822 -0.04522260 0.06869540
v -0.07810498 -0.04543884 0.06869540
v -0.03942182 -0.05317390 0.07172878
v -0.06127609 -0.05412306 -0.00040069
v -0.03159846 -0.05213257 0.00337074
v -0.03159846 -0.04877285 -0.00339716
v -0.07513813 -0.04522260 -0.00338240
v -0.07768962 -0.04593070 0.07172878
v -0.07809129 -0.04543884 0.06155109
v -0.07776265 -0.04604945 0.06052521
v -0.07776265 -0.04605034 0.06155109
v -0.07817801 -0.04522260 0.05261333
v -0.07774439 -0.04602021 0.06869540
v -0.04758750 -0.05365069 0.07172878
v -0.06197901 -0.05415319 0.00337074
v -0.06187859 -0.05414255 0.00030784
v -0.06194706 -0.05413192 -0.00073281
v -0.06165494 -0.05410888 -0.00107969
v -0.06090181 -0.05408229 -0.00073281
v -0.04761945 -0.05365247 0.07172878
v -0.05269505 -0.05391213 0.07172878
v -0.06187859 -0.05427549 0.06052521
v -0.03159846 -0.05186847 -0.00173656
v -0.03159846 -0.04952172 -0.00359644
v -0.07540286 -0.04522260 -0.00338978
v -0.07731991 -0.04648282 0.07172878
v -0.07741576 -0.04655993 0.06052521
v -0.07802738 -0.04522260 0.00847065
v -0.07795892 -0.04535110 0.00949654
v -0.07764854 -0.04586246 0.00540775
v -0.07741576 -0.04656081 0.06155109
v -0.07742489 -0.04654309 0.06358811
v -0.07742032 -0.04654575 0.06461399
v -0.07740206 -0.04653068 0.06869540
v -0.06289645 -0.05417003 0.00337074
v -0.06239893 -0.05411597 -0.00122730
v -0.06233503 -0.05411597 -0.00122730
v -0.06263171 -0.05412926 -0.00071805
v -0.06085617 -0.05397151 -0.00173656
v -0.05983375 -0.05420282 0.07172878
v -0.05986569 -0.05420370 0.07172878
v -0.06085617 -0.05422497 0.07172878
v -0.06187859 -0.05424358 0.07172878
v -0.06191054 -0.05424358 0.07172878
v -0.06289645 -0.05424181 0.07172878
v -0.06292840 -0.05424092 0.07172878
v -0.06289645 -0.05424004 0.06052521
v -0.03159846 -0.05173642 -0.00208344
v -0.03227855 -0.05054178 -0.00349311
v -0.03329641 -0.05054178 -0.00353001
v -0.03431883 -0.05054178 -0.00355215
v -0.04350694 -0.05054178 -0.00367024
v -0.03159846 -0.05060027 -0.00344145
v -0.07514726 -0.04543884 -0.00338978
v -0.07510161 -0.04639243 -0.00333812
v -0.07593233 -0.04543884 -0.00333812
v -0.07600536 -0.04522260 -0.00334550
v -0.04656964 -0.05054178 -0.00364810
v -0.04860992 -0.05054178 -0.00363334
v -0.05881589 -0.05156272 -0.00353739
v -0.06595915 -0.05156272 -0.00347097
v -0.07683608 -0.04718384 0.07172878
v -0.07690455 -0.04727600 0.05950670
v -0.07691368 -0.04726714 0.06358811
v -0.07722862 -0.04645978 0.00438925
v -0.07679044 -0.04713243 0.01255206
v -0.07801369 -0.04522260 0.00540775
v -0.07794066 -0.04535199 0.00540775
v -0.07764398 -0.04585448 0.00438925
v -0.07690455 -0.04726094 0.06767689
v -0.07689085 -0.04723701 0.06869540
v -0.06354916 -0.05413103 0.00234485
v -0.06349438 -0.05412306 0.00053663
v -0.06298317 -0.05413635 0.00024141
v -0.06391887 -0.05420547 0.07172878
v -0.06391887 -0.05384832 -0.00173656
v -0.06280060 -0.05395910 -0.00163323
v -0.06194706 -0.05399367 -0.00163323
v -0.06338027 -0.05411331 -0.00014237
v -0.06313836 -0.05409204 -0.00071805
v -0.06391887 -0.05401759 -0.00071805
v -0.06493673 -0.05389973 -0.00071805
v -0.06187859 -0.05345749 -0.00269602
v -0.06085617 -0.05348408 -0.00269602
v -0.05983375 -0.05344420 -0.00268864
v -0.03329641 -0.05158222 -0.00275506
v -0.03227855 -0.05150778 -0.00275506
v -0.03159846 -0.05141029 -0.00282149
v -0.03329641 -0.05113379 -0.00333074
v -0.04350694 -0.05144220 -0.00347097
v -0.03431883 -0.05115683 -0.00335288
v -0.04860992 -0.05156272 -0.00353739
v -0.04963235 -0.05156272 -0.00354477
v -0.03159846 -0.05090780 -0.00332336
v -0.07473190 -0.04707040 -0.00330860
v -0.06698157 -0.05156272 -0.00341931
v -0.07571324 -0.04600780 -0.00328646
v -0.07621989 -0.04522260 -0.00330860
v -0.05881589 -0.05243123 -0.00342669
v -0.05983375 -0.05246491 -0.00341193
v -0.06595915 -0.05224601 -0.00335288
v -0.06698157 -0.05216448 -0.00332336
v -0.07646637 -0.04767835 0.07172878
v -0.07652570 -0.04778648 0.05950670
v -0.07640246 -0.04761100 0.00438925
v -0.07589125 -0.04830226 0.00438925
v -0.07601449 -0.04844938 0.05950670
v -0.07718754 -0.04645978 0.00030784
v -0.07675849 -0.04707571 0.00030784
v -0.07677218 -0.04710053 0.00438925
v -0.07800456 -0.04522260 0.00438925
v -0.07793610 -0.04534401 0.00438925
v -0.07762116 -0.04580574 0.00030784
v -0.07648919 -0.04777141 0.06767689
v -0.07643898 -0.04771292 0.07172878
v -0.07561739 -0.04895985 0.05848819
v -0.07560826 -0.04895985 0.05950670
v -0.06406037 -0.05407343 0.00234485
v -0.06401929 -0.05407343 0.00132635
v -0.06474502 -0.05414699 0.07172878
v -0.06525624 -0.05409381 0.07172878
v -0.06386866 -0.05407874 0.00024141
v -0.06493673 -0.05372514 -0.00173656
v -0.06493673 -0.05334849 -0.00260007
v -0.06391887 -0.05340875 -0.00265912
v -0.06289645 -0.05343091 -0.00268864
v -0.06595915 -0.05372337 -0.00071805
v -0.06493673 -0.05394847 0.00030784
v -0.06289645 -0.05291246 -0.00319789
v -0.06187859 -0.05293816 -0.00320527
v -0.06085617 -0.05294968 -0.00321265
v -0.05983375 -0.05297538 -0.00319789
v -0.03159846 -0.05129154 -0.00296910
v -0.04860992 -0.05213523 -0.00331598
v -0.04963235 -0.05216359 -0.00333812
v -0.03227855 -0.05108150 -0.00329384
v -0.03173539 -0.05105491 -0.00327170
v -0.03159846 -0.05116303 -0.00312409
v -0.07367296 -0.04804880 -0.00328646
v -0.07435305 -0.04775014 -0.00316099
v -0.07541199 -0.04668843 -0.00315361
v -0.06755212 -0.05209181 -0.00327908
v -0.06874799 -0.05118430 -0.00330122
v -0.07644355 -0.04543884 -0.00314623
v -0.07652570 -0.04522260 -0.00319051
v -0.06391887 -0.05283270 -0.00316837
v -0.06493673 -0.05278307 -0.00310933
v -0.06595915 -0.05275648 -0.00299124
v -0.07588212 -0.04828897 0.00337074
v -0.07548046 -0.04881274 0.00438925
v -0.07714189 -0.04645978 -0.00071805
v -0.07674023 -0.04705001 -0.00071805
v -0.07633856 -0.04756049 -0.00071805
v -0.07793610 -0.04522260 0.00030784
v -0.07789958 -0.04529527 0.00030784
v -0.07788589 -0.04525184 -0.00071805
v -0.07758920 -0.04576231 -0.00071805
v -0.07594146 -0.04831999 0.07172878
v -0.07510618 -0.04946944 0.05848819
v -0.07546220 -0.04884553 0.07172878
v -0.06493673 -0.05395910 0.00337074
v -0.06595915 -0.05400430 0.07172878
v -0.06595915 -0.05353903 -0.00173656
v -0.06595915 -0.05324657 -0.00248198
v -0.06698157 -0.05347345 -0.00071805
v -0.06772557 -0.05316770 -0.00147086
v -0.06595915 -0.05375350 0.00030784
v -0.06698157 -0.05350801 0.00030784
v -0.06595915 -0.05379072 0.00337074
v -0.07106213 -0.05054178 -0.00301338
v -0.07310698 -0.04952172 -0.00284363
v -0.07405637 -0.04843343 -0.00295433
v -0.07510161 -0.04743819 -0.00293219
v -0.07586843 -0.04748072 -0.00241556
v -0.07616055 -0.04644383 -0.00279196
v -0.06793553 -0.05239490 -0.00281411
v -0.06902185 -0.05230628 -0.00254841
v -0.06980236 -0.05217334 -0.00238604
v -0.07106213 -0.05140143 -0.00257793
v -0.06823221 -0.05186493 -0.00319789
v -0.07684521 -0.04620011 -0.00243032
v -0.07718754 -0.04522260 -0.00264435
v -0.07546220 -0.04879944 0.00337074
v -0.07582735 -0.04818439 -0.00071805
v -0.07436675 -0.04976898 -0.00071805
v -0.07496925 -0.04930282 0.00438925
v -0.07670371 -0.04700393 -0.00133063
v -0.07789958 -0.04522260 -0.00071805
v -0.07775809 -0.04522260 -0.00153728
v -0.07750248 -0.04560545 -0.00173656
v -0.07455845 -0.04997902 0.05848819
v -0.07496468 -0.04930548 0.07172878
v -0.06698157 -0.05377743 0.07172878
v -0.06701352 -0.05327139 -0.00178084
v -0.06737868 -0.05306223 -0.00214986
v -0.06669858 -0.05315529 -0.00234913
v -0.06787619 -0.05321467 -0.00071805
v -0.06793096 -0.05323682 0.00030784
v -0.06902185 -0.05267849 -0.00173656
v -0.06804051 -0.05297627 -0.00178084
v -0.06838740 -0.05305426 -0.00071805
v -0.06902185 -0.05283979 -0.00071805
v -0.06698157 -0.05355941 0.00337074
v -0.06799943 -0.05329177 0.00337074
v -0.06799943 -0.05327050 0.00234485
v -0.07213020 -0.05060648 -0.00263697
v -0.07310698 -0.05025464 -0.00242294
v -0.07364101 -0.05005258 -0.00226795
v -0.07403811 -0.04943664 -0.00241556
v -0.07466343 -0.04903961 -0.00227533
v -0.07506054 -0.04840241 -0.00240080
v -0.07566303 -0.04799651 -0.00225319
v -0.07182439 -0.05120557 -0.00241556
v -0.07048246 -0.05204484 -0.00212034
v -0.07736098 -0.04522260 -0.00247460
v -0.07728339 -0.04522260 -0.00255579
v -0.07661243 -0.04688074 -0.00200963
v -0.07763028 -0.04522260 -0.00205391
v -0.07537548 -0.04869487 -0.00071805
v -0.07486427 -0.04926028 -0.00071805
v -0.07574063 -0.04808602 -0.00173656
v -0.07385553 -0.05023071 -0.00071805
v -0.07476842 -0.04915394 -0.00173656
v -0.07426177 -0.04966441 -0.00173656
v -0.07375512 -0.05014829 -0.00173656
v -0.07694563 -0.04650764 -0.00169227
v -0.07629748 -0.04739830 -0.00169227
v -0.07772157 -0.04522260 -0.00173656
v -0.07208456 -0.05154234 0.06461399
v -0.07208456 -0.05152639 0.07073980
v -0.07270075 -0.05112758 0.07073980
v -0.07317544 -0.05076245 0.07172878
v -0.07387380 -0.05024046 0.07172878
v -0.07440326 -0.04979911 0.07172878
v -0.07320283 -0.05074118 -0.00071805
v -0.07269162 -0.05111695 -0.00071805
v -0.06802682 -0.05346015 0.07172878
v -0.06858824 -0.05312427 0.00337074
v -0.06854716 -0.05310743 0.00234485
v -0.07010361 -0.05227348 -0.00176608
v -0.07004428 -0.05244719 -0.00071805
v -0.07064221 -0.05211573 -0.00144134
v -0.07250448 -0.05098933 -0.00206868
v -0.07304764 -0.05069953 -0.00173656
v -0.07527963 -0.04859649 -0.00173656
v -0.07101649 -0.05187025 -0.00176608
v -0.07213020 -0.05130394 -0.00173656
v -0.07266880 -0.05110099 -0.00138967
v -0.07138164 -0.05197216 0.06155109
v -0.07140902 -0.05195267 0.07172878
v -0.07208456 -0.05151398 0.07172878
v -0.07267792 -0.05111074 0.07172878
v -0.07208456 -0.05145283 -0.00071805
v -0.07128579 -0.05192962 0.01357795
v -0.07138164 -0.05197039 0.06052521
v -0.06877994 -0.05320492 0.07172878
v -0.06909488 -0.05291157 0.00337074
v -0.07004428 -0.05247554 0.00030784
v -0.07074262 -0.05217157 0.00030784
v -0.07071068 -0.05215118 -0.00071805
v -0.07122189 -0.05189772 -0.00071805
v -0.07087043 -0.05223183 0.06052521
v -0.07087499 -0.05224158 0.07172878
v -0.07137251 -0.05197482 0.07172878
v -0.07074719 -0.05217777 0.00132635
v -0.06927289 -0.05299399 0.07172878
v -0.07004428 -0.05263950 0.06052521
v -0.07004428 -0.05249859 0.00234485
v -0.07004428 -0.05264482 0.06971391
v -0.07004428 -0.05264570 0.07172878
v -0.06931398 -0.05297627 0.07172878
f 1 2 5
f 1 5 13
f 1 13 31
f 1 31 67
f 1 67 108
f 1 108 120
f 1 120 163
f 1 163 165
f 1 165 197
f 1 197 239
f 1 239 238
f 1 238 237
f 1 237 257
f 1 257 256
f 1 256 255
f 1 255 269
f 1 269 268
f 1 268 275
f 1 275 276
f 1 276 271
f 1 271 261
f 1 261 242
f 1 242 198
f 1 198 167
f 1 167 126
f 1 126 125
f 1 125 80
f 1 80 51
f 1 51 50
f 1 50 49
f 1 49 48
f 1 48 47
f 1 47 46
f 1 46 45
f 1 45 26
f 1 26 25
f 1 25 19
f 1 19 8
f 1 8 3
f 1 3 10
f 1 10 28
f 1 28 53
f 1 53 93
f 1 93 138
f 1 138 143
f 1 143 99
f 1 99 58
f 1 58 29
f 1 29 11
f 1 11 4
f 1 4 12
f 1 12 30
f 1 30 62
f 1 62 103
f 1 103 150
f 1 150 187
f 1 187 221
f 1 221 220
f 1 220 223
f 1 223 233
f 1 233 194
f 1 194 193
f 1 193 159
f 1 159 116
f 1 116 72
f 1 72 33
f 1 33 17
f 1 17 6
f 1 6 2
f 2 6 7
f 2 7 5
f 3 8 9
f 3 9 10
f 4 11 12
f 5 7 13
f 6 14 15
f 6 15 16
f 6 16 7
f 6 17 14
f 7 18 13
f 7 16 18
f 8 19 9
f 9 20 21
f 9 21 22
f 9 22 23
f 9 23 24
f 9 24 10
f 9 19 25
f 9 25 26
f 9 26 27
f 9 27 20
f 10 24 28
f 11 29 30
f 11 30 12
f 13 18 31
f 14 17 15
f 15 32 36
f 15 36 16
f 15 17 33
f 15 33 34
f 15 34 35
f 15 35 32
f 16 36 37
f 16 37 38
f 16 38 18
f 18 38 39
f 18 39 31
f 20 40 21
f 20 27 40
f 21 40 22
f 22 41 42
f 22 42 23
f 22 40 43
f 22 43 41
f 23 42 44
f 23 44 28
f 23 28 24
f 26 45 27
f 27 45 46
f 27 46 47
f 27 47 48
f 27 48 49
f 27 49 50
f 27 50 51
f 27 51 52
f 27 52 40
f 28 44 53
f 29 54 55
f 29 55 56
f 29 56 57
f 29 57 30
f 29 58 54
f 30 59 60
f 30 60 61
f 30 61 62
f 30 57 63
f 30 63 64
f 30 64 65
f 30 65 66
f 30 66 59
f 31 39 67
f 32 68 69
f 32 69 36
f 32 35 70
f 32 70 71
f 32 71 68
f 33 72 73
f 33 73 34
f 34 73 35
f 35 73 117
f 35 117 74
f 35 74 70
f 36 69 37
f 37 69 38
f 38 75 39
f 38 69 75
f 39 75 76
f 39 76 67
f 40 77 78
f 40 78 79
f 40 79 43
f 40 52 80
f 40 80 77
f 41 81 82
f 41 82 83
f 41 83 44
f 41 44 42
f 41 43 84
f 41 84 85
f 41 85 86
f 41 86 87
f 41 87 81
f 43 79 84
f 44 83 88
f 44 88 89
f 44 89 90
f 44 90 91
f 44 91 53
f 51 80 52
f 53 91 92
f 53 92 93
f 54 58 94
f 54 94 55
f 55 95 56
f 55 94 96
f 55 96 95
f 56 97 57
f 56 95 97
f 57 97 98
f 57 98 65
f 57 65 63
f 58 99 94
f 59 66 60
f 60 100 61
f 60 66 101
f 60 101 100
f 61 100 102
f 61 102 103
f 61 103 62
f 63 65 64
f 65 98 104
f 65 104 66
f 66 104 105
f 66 105 106
f 66 106 107
f 66 107 101
f 67 76 108
f 68 109 69
f 68 71 110
f 68 110 111
f 68 111 109
f 69 109 112
f 69 112 75
f 70 74 113
f 70 113 114
f 70 114 115
f 70 115 71
f 71 115 110
f 72 116 117
f 72 117 73
f 74 117 118
f 74 118 113
f 75 119 120
f 75 120 108
f 75 108 76
f 75 112 121
f 75 121 122
f 75 122 119
f 77 123 124
f 77 124 78
f 77 80 125
f 77 125 126
f 77 126 123
f 78 124 127
f 78 127 84
f 78 84 79
f 81 87 128
f 81 128 129
f 81 129 130
f 81 130 82
f 82 130 83
f 83 130 131
f 83 131 88
f 84 127 87
f 84 87 86
f 84 86 85
f 87 132 128
f 87 127 133
f 87 133 132
f 88 131 134
f 88 134 135
f 88 135 89
f 89 135 136
f 89 136 137
f 89 137 90
f 90 137 94
f 90 94 91
f 91 94 93
f 91 93 92
f 93 94 138
f 94 139 140
f 94 140 96
f 94 99 141
f 94 141 138
f 94 137 139
f 95 96 140
f 95 140 97
f 97 140 104
f 97 104 98
f 99 142 141
f 99 143 142
f 100 144 145
f 100 145 146
f 100 146 102
f 100 101 144
f 101 107 147
f 101 147 148
f 101 148 144
f 102 146 149
f 102 149 150
f 102 150 103
f 104 140 137
f 104 137 136
f 104 136 105
f 105 136 135
f 105 135 134
f 105 134 106
f 106 134 151
f 106 151 107
f 107 151 152
f 107 152 153
f 107 153 147
f 109 121 112
f 109 111 121
f 110 115 114
f 110 114 111
f 111 114 154
f 111 154 155
f 111 155 121
f 113 118 156
f 113 156 157
f 113 157 114
f 114 157 158
f 114 158 154
f 116 159 160
f 116 160 118
f 116 118 117
f 118 160 161
f 118 161 162
f 118 162 156
f 119 163 120
f 119 122 163
f 121 164 122
f 121 155 164
f 122 164 165
f 122 165 163
f 123 166 133
f 123 133 124
f 123 126 167
f 123 167 166
f 124 133 127
f 128 168 169
f 128 169 129
f 128 132 168
f 129 169 153
f 129 153 152
f 129 152 130
f 130 152 151
f 130 151 134
f 130 134 131
f 132 170 171
f 132 171 168
f 132 133 172
f 132 172 173
f 132 173 170
f 133 166 174
f 133 174 172
f 137 140 139
f 138 141 142
f 138 142 143
f 144 148 147
f 144 147 175
f 144 175 176
f 144 176 145
f 145 176 177
f 145 177 178
f 145 178 146
f 146 178 179
f 146 179 180
f 146 180 149
f 147 153 169
f 147 169 181
f 147 181 182
f 147 182 183
f 147 183 184
f 147 184 185
f 147 185 175
f 149 180 186
f 149 186 150
f 150 186 187
f 154 188 155
f 154 158 189
f 154 189 188
f 155 188 190
f 155 190 191
f 155 191 164
f 156 162 192
f 156 192 157
f 157 192 158
f 158 192 189
f 159 193 161
f 159 161 160
f 161 193 194
f 161 194 195
f 161 195 162
f 162 195 192
f 164 196 165
f 164 191 196
f 165 196 197
f 166 167 174
f 167 198 174
f 168 171 199
f 168 199 200
f 168 200 201
f 168 201 169
f 169 201 181
f 170 202 171
f 170 173 203
f 170 203 202
f 171 204 205
f 171 205 200
f 171 200 199
f 171 202 206
f 171 206 207
f 171 207 204
f 172 174 208
f 172 208 173
f 173 208 209
f 173 209 210
f 173 210 203
f 174 198 208
f 175 185 184
f 175 184 211
f 175 211 176
f 176 211 212
f 176 212 213
f 176 213 214
f 176 214 177
f 177 214 178
f 178 214 215
f 178 215 216
f 178 216 217
f 178 217 179
f 179 186 180
f 179 217 186
f 181 201 182
f 182 201 183
f 183 218 184
f 183 201 200
f 183 200 204
f 183 204 219
f 183 219 218
f 184 218 211
f 186 220 221
f 186 221 187
f 186 217 222
f 186 222 223
f 186 223 220
f 188 189 224
f 188 224 225
f 188 225 190
f 189 192 226
f 189 226 224
f 190 227 191
f 190 225 228
f 190 228 229
f 190 229 230
f 190 230 227
f 191 227 196
f 192 195 231
f 192 231 222
f 192 222 232
f 192 232 226
f 194 233 195
f 195 233 223
f 195 223 222
f 195 222 231
f 196 234 235
f 196 235 236
f 196 236 237
f 196 237 238
f 196 238 239
f 196 239 197
f 196 227 240
f 196 240 241
f 196 241 234
f 198 242 243
f 198 243 209
f 198 209 208
f 200 205 204
f 202 203 206
f 203 210 243
f 203 243 244
f 203 244 206
f 204 245 219
f 204 207 245
f 206 244 207
f 207 246 247
f 207 247 245
f 207 244 243
f 207 243 246
f 209 243 210
f 211 218 212
f 212 218 213
f 213 248 249
f 213 249 230
f 213 230 229
f 213 229 215
f 213 215 214
f 213 218 248
f 215 229 228
f 215 228 217
f 215 217 216
f 217 228 250
f 217 250 226
f 217 226 232
f 217 232 222
f 218 219 248
f 219 245 247
f 219 247 251
f 219 251 252
f 219 252 248
f 224 226 250
f 224 250 225
f 225 250 228
f 227 230 253
f 227 253 240
f 230 249 253
f 234 254 255
f 234 255 235
f 234 241 254
f 235 255 236
f 236 255 256
f 236 256 257
f 236 257 237
f 240 253 241
f 241 253 258
f 241 258 259
f 241 259 260
f 241 260 254
f 242 261 243
f 243 262 263
f 243 263 246
f 243 261 262
f 246 263 264
f 246 264 265
f 246 265 247
f 247 265 266
f 247 266 253
f 247 253 251
f 248 252 253
f 248 253 249
f 251 253 252
f 253 266 258
f 254 260 267
f 254 267 268
f 254 268 269
f 254 269 255
f 258 266 264
f 258 264 270
f 258 270 259
f 259 270 267
f 259 267 260
f 261 271 272
f 261 272 262
f 262 273 263
f 262 272 273
f 263 273 264
f 264 273 270
f 264 266 265
f 267 272 268
f 267 270 272
f 268 274 275
f 268 272 274
f 270 273 272
f 271 276 272
f 272 276 274
f 274 276 275

