# https://github.com/mikedh/trimesh
v -0.03159846 -0.00007249 0.07172878
v -0.03224269 -0.00010252 0.07172878
v -0.03159846 -0.02198329 0.07172878
v -0.03159846 -0.00012612 0.00439226
v -0.03329511 -0.00015186 0.07172878
v -0.08149478 -0.02198329 0.07172878
v -0.03159846 -0.02198329 -0.00045691
v -0.03159846 -0.00027412 -0.00071445
v -0.03227712 -0.00030201 -0.00071445
v -0.03431802 -0.00038780 -0.00071445
v -0.03534093 -0.00043928 -0.00071445
v -0.06085464 -0.00174985 0.00030836
v -0.05470243 -0.00124793 0.07172878
v -0.08153412 -0.02096872 0.07172878
v -0.08153412 -0.02198329 0.06869713
v -0.07883423 -0.02198329 -0.00224500
v -0.03159846 -0.00256279 -0.00342234
v -0.03159846 -0.00036421 -0.00173727
v -0.03227712 -0.00037064 -0.00173727
v -0.03329511 -0.00041140 -0.00173727
v -0.05065014 -0.00126080 -0.00071445
v -0.06187755 -0.00183994 0.00030836
v -0.06455777 -0.00203942 0.00073514
v -0.06491185 -0.00202012 0.00140476
v -0.06493644 -0.00198365 0.00234663
v -0.06493644 -0.00197722 0.00336945
v -0.05167305 -0.00131872 -0.00071445
v -0.05983665 -0.00182493 -0.00071445
v -0.06089890 -0.00190429 -0.00078804
v -0.05473686 -0.00125008 0.07172878
v -0.08156363 -0.01994772 0.07172878
v -0.08157347 -0.02093654 0.06869713
v -0.08178493 -0.02145562 0.04475296
v -0.08172100 -0.02198329 0.04515032
v -0.07923258 -0.02198329 -0.00225236
v -0.03329511 -0.00256279 -0.00343706
v -0.03227712 -0.00176272 -0.00337819
v -0.03159846 -0.00175843 -0.00337083
v -0.03159846 -0.00075459 -0.00264235
v -0.03227712 -0.00075459 -0.00263499
v -0.03329511 -0.00077604 -0.00262027
v -0.03635892 -0.00086399 -0.00250990
v -0.03738183 -0.00089401 -0.00245839
v -0.03635892 -0.00058299 -0.00173727
v -0.06342175 -0.00205015 -0.00021409
v -0.06698226 -0.00228180 0.00132381
v -0.06523643 -0.00207589 0.00111778
v -0.06491185 -0.00215954 0.00035987
v -0.06595935 -0.00232041 0.00030836
v -0.06546757 -0.00205015 0.00180211
v -0.06553150 -0.00204157 0.00234663
v -0.06559543 -0.00203085 0.00336945
v -0.06391845 -0.00193432 0.07172878
v -0.05575485 -0.00132515 0.07172878
v -0.04963215 -0.00133802 -0.00173727
v -0.05065014 -0.00139808 -0.00173727
v -0.05167305 -0.00146457 -0.00173727
v -0.06058416 -0.00201368 -0.00131784
v -0.08156363 -0.01991554 0.07172878
v -0.08178493 -0.02145562 0.04467938
v -0.08178493 -0.02141487 0.04475296
v -0.08179477 -0.02027161 0.04010983
v -0.08183903 -0.01889454 0.00846880
v -0.08182427 -0.01991554 0.00336945
v -0.08172100 -0.02198329 0.00336945
v -0.08013746 -0.02198329 -0.00198745
v -0.07820967 -0.01481268 -0.00189180
v -0.07718676 -0.01379167 -0.00200953
v -0.07616877 -0.01277067 -0.00204632
v -0.05983665 -0.00358380 -0.00298819
v -0.05551879 -0.00400850 -0.00328989
v -0.05551879 -0.00416508 -0.00328989
v -0.05473686 -0.00420584 -0.00330461
v -0.05269596 -0.00358380 -0.00336347
v -0.04860924 -0.00353232 -0.00337819
v -0.03431802 -0.00256279 -0.00344441
v -0.03329511 -0.00177559 -0.00337819
v -0.03227712 -0.00125222 -0.00315008
v -0.03159846 -0.00124793 -0.00315008
v -0.03159846 -0.00158469 -0.00329724
v -0.03159846 -0.00108063 -0.00298084
v -0.03329511 -0.00126509 -0.00312800
v -0.03431802 -0.00129298 -0.00309857
v -0.05065014 -0.00179490 -0.00259820
v -0.05167305 -0.00183136 -0.00254669
v -0.06595935 -0.00270651 -0.00071445
v -0.06692325 -0.00289741 -0.00075860
v -0.06698226 -0.00248129 0.00030836
v -0.06126774 -0.00206945 -0.00117068
v -0.06800025 -0.00251132 0.00132381
v -0.06800025 -0.00247271 0.00234663
v -0.06800025 -0.00244482 0.00336945
v -0.06698226 -0.00225821 0.00234663
v -0.06604295 -0.00211450 0.00234663
v -0.06587083 -0.00212522 0.00140476
v -0.06800025 -0.00270651 0.00030836
v -0.06610689 -0.00211021 0.00336945
v -0.06698226 -0.00223676 0.00439226
v -0.06698226 -0.00223676 0.00540771
v -0.06698226 -0.00226036 0.07172878
v -0.06593476 -0.00212951 0.07172878
v -0.06479874 -0.00201368 0.07172878
v -0.06089890 -0.00224320 -0.00169312
v -0.08153904 -0.01889454 0.07172878
v -0.08157347 -0.01889454 0.06767431
v -0.08158822 -0.01991554 0.06869713
v -0.08178493 -0.02145348 0.03958002
v -0.08173575 -0.01889454 0.04419373
v -0.08178493 -0.01924202 0.03472349
v -0.08177018 -0.01889883 0.03503990
v -0.08180953 -0.01822102 0.00846880
v -0.08180461 -0.01823604 0.00745334
v -0.08181444 -0.01910475 0.00336945
v -0.08179969 -0.01924202 0.00269247
v -0.08179477 -0.01991554 0.00272927
v -0.08178493 -0.02044535 0.00284700
v -0.08169641 -0.02198329 0.00231720
v -0.08179477 -0.02059120 0.00406849
v -0.08018172 -0.02198329 -0.00197274
v -0.07820967 -0.01379167 -0.00178878
v -0.07718676 -0.01277067 -0.00192859
v -0.07616877 -0.01174967 -0.00198745
v -0.06085464 -0.00358380 -0.00287782
v -0.06085464 -0.00278802 -0.00250990
v -0.05350248 -0.00301324 -0.00330461
v -0.05379263 -0.00351301 -0.00332668
v -0.05269596 -0.00295961 -0.00332668
v -0.05167305 -0.00290170 -0.00334139
v -0.04860924 -0.00277515 -0.00337819
v -0.03738183 -0.00256279 -0.00343706
v -0.03738183 -0.00190858 -0.00334139
v -0.04759125 -0.00224749 -0.00317951
v -0.04860924 -0.00226465 -0.00315008
v -0.04963215 -0.00230111 -0.00312800
v -0.05065014 -0.00234401 -0.00310593
v -0.05167305 -0.00239120 -0.00306178
v -0.05983665 -0.00275155 -0.00258348
v -0.05983665 -0.00224105 -0.00186236
v -0.06800025 -0.00297677 -0.00042012
v -0.06654457 -0.00306043 -0.00123690
v -0.06958379 -0.00305399 0.00074986
v -0.06902316 -0.00281805 0.00132381
v -0.06902316 -0.00275799 0.00234663
v -0.06902316 -0.00271509 0.00336945
v -0.06800025 -0.00243410 0.00439226
v -0.06895923 -0.00297034 0.00036722
v -0.06857564 -0.00305185 -0.00025088
v -0.06800025 -0.00249201 0.07172878
v -0.08145544 -0.01790571 0.07172878
v -0.08150954 -0.01787354 0.06767431
v -0.08164232 -0.01787354 0.04419373
v -0.08173084 -0.01771052 0.00846880
v -0.08173084 -0.01772553 0.00745334
v -0.08165707 -0.01787354 0.00336945
v -0.08176035 -0.01859424 0.00336945
v -0.08162264 -0.01787354 0.00234663
v -0.08155380 -0.01787354 0.00132381
v -0.08164723 -0.01889454 0.00132381
v -0.08168166 -0.01991554 0.00132381
v -0.08168166 -0.02093654 0.00132381
v -0.08166199 -0.02198329 0.00132381
v -0.08092431 -0.02198329 -0.00144294
v -0.08075711 -0.01942863 -0.00122218
v -0.07988173 -0.01583153 -0.00133256
v -0.07923258 -0.01583153 -0.00164161
v -0.07718676 -0.01174967 -0.00174463
v -0.07928668 -0.01481911 -0.00147237
v -0.07900144 -0.01379167 -0.00141350
v -0.07830311 -0.01268487 -0.00151652
v -0.07616877 -0.01073081 -0.00181086
v -0.07412787 -0.00970981 -0.00198745
v -0.07514586 -0.00970981 -0.00183293
v -0.07412787 -0.00868881 -0.00184029
v -0.07310496 -0.00868881 -0.00198010
v -0.07208697 -0.00766781 -0.00196538
v -0.07310496 -0.00766781 -0.00181821
v -0.07208697 -0.00664680 -0.00174463
v -0.07004115 -0.00477640 -0.00139879
v -0.06947560 -0.00412218 -0.00120747
v -0.06879694 -0.00398061 -0.00128841
v -0.04963215 -0.00281161 -0.00336347
v -0.06722815 -0.00317840 -0.00112652
v -0.07167879 -0.00403638 0.00066156
v -0.07106406 -0.00361168 0.00132381
v -0.07016902 -0.00322559 0.00132381
v -0.06965756 -0.00302611 0.00132381
v -0.06925922 -0.00316768 0.00007289
v -0.06997230 -0.00334785 0.00036722
v -0.06974608 -0.00299179 0.00234663
v -0.06978051 -0.00297248 0.00336945
v -0.06902316 -0.00271294 0.00439226
v -0.06800025 -0.00332211 -0.00092785
v -0.07004115 -0.00383476 -0.00055993
v -0.07074932 -0.00399563 -0.00035390
v -0.06975592 -0.00300895 0.07172878
v -0.08130791 -0.01688471 0.07172878
v -0.08134725 -0.01685254 0.06869713
v -0.08135708 -0.01685254 0.06767431
v -0.08136200 -0.01685254 0.06665150
v -0.08153904 -0.01685254 0.00846880
v -0.08114070 -0.01583153 0.06869713
v -0.08153412 -0.01685254 0.00745334
v -0.08125381 -0.01583153 0.00234663
v -0.08148003 -0.01685254 0.00234663
v -0.08141610 -0.01685254 0.00132381
v -0.08134725 -0.01787354 0.00030836
v -0.08145052 -0.01889454 0.00030836
v -0.08152921 -0.01991554 0.00030836
v -0.08157838 -0.02093654 0.00030836
v -0.08158330 -0.02195755 0.00030836
v -0.08158330 -0.02198329 0.00030836
v -0.08093907 -0.02198329 -0.00142822
v -0.08081120 -0.02011073 -0.00127369
v -0.08097349 -0.01787354 -0.00054521
v -0.08059974 -0.01787354 -0.00105294
v -0.07979813 -0.01516445 -0.00127369
v -0.07803755 -0.01174967 -0.00139142
v -0.07720643 -0.01073939 -0.00145029
v -0.07883915 -0.01296586 -0.00131048
v -0.07870637 -0.01228591 -0.00121483
v -0.07620319 -0.00967978 -0.00148709
v -0.07519996 -0.00863518 -0.00150180
v -0.07414754 -0.00763349 -0.00148709
v -0.07308037 -0.00665538 -0.00145765
v -0.07272629 -0.00603334 -0.00129577
v -0.07208697 -0.00584673 -0.00139142
v -0.07079850 -0.00497588 -0.00131048
v -0.07148208 -0.00517321 -0.00118539
v -0.07004115 -0.00426589 -0.00106766
v -0.07107881 -0.00386908 0.00031572
v -0.07142798 -0.00416937 -0.00001541
v -0.07204271 -0.00436885 0.00031572
v -0.07309512 -0.00493083 0.00038930
v -0.07363117 -0.00510458 0.00078665
v -0.07179682 -0.00396989 0.00132381
v -0.07187550 -0.00392914 0.00234663
v -0.07106406 -0.00353446 0.00234663
v -0.07025262 -0.00319127 0.00234663
v -0.07029196 -0.00318483 0.00336945
v -0.07106406 -0.00350014 0.00643053
v -0.07026737 -0.00316339 0.07172878
v -0.07274596 -0.00502307 -0.00033182
v -0.07208697 -0.00484718 -0.00052314
v -0.08130299 -0.01685254 0.07172878
v -0.08112102 -0.01586585 0.07172878
v -0.08126365 -0.01583153 0.00540771
v -0.08126365 -0.01583153 0.00336945
v -0.08091939 -0.01481268 0.06155214
v -0.08078170 -0.01425499 0.06155214
v -0.08088989 -0.01491778 0.07172878
v -0.08098333 -0.01481268 0.00540771
v -0.08097349 -0.01481268 0.00439226
v -0.08095382 -0.01481268 0.00336945
v -0.08089972 -0.01472044 0.00239078
v -0.08075711 -0.01432148 0.00208173
v -0.08073744 -0.01438583 0.00132381
v -0.08118496 -0.01583153 0.00132381
v -0.08118004 -0.01685254 0.00030836
v -0.08087513 -0.01685254 -0.00039805
v -0.08123414 -0.02093654 -0.00071445
v -0.08131774 -0.02198329 -0.00071445
v -0.08157838 -0.02198329 0.00027892
v -0.08130791 -0.02198329 -0.00073653
v -0.08105218 -0.01982760 -0.00081747
v -0.08103250 -0.01889454 -0.00065559
v -0.08049646 -0.01685254 -0.00090578
v -0.07966043 -0.01448450 -0.00114860
v -0.08043253 -0.01585298 -0.00065559
v -0.08005878 -0.01481911 -0.00077332
v -0.07782116 -0.01108259 -0.00128841
v -0.07687694 -0.00999938 -0.00133256
v -0.07951289 -0.01379167 -0.00097936
v -0.07979813 -0.01315248 -0.00028767
v -0.07894243 -0.01174967 -0.00052314
v -0.07854408 -0.01174967 -0.00103822
v -0.07588354 -0.00893977 -0.00133992
v -0.07489505 -0.00795094 -0.00134728
v -0.07450162 -0.00727099 -0.00114860
v -0.07340495 -0.00632077 -0.00108973
v -0.07307545 -0.00564082 -0.00071445
v -0.07208697 -0.00533623 -0.00103822
v -0.07342954 -0.00525043 0.00010968
v -0.07409345 -0.00564940 0.00035987
v -0.07474260 -0.00604836 0.00061005
v -0.07483604 -0.00596900 0.00132381
v -0.07419180 -0.00545849 0.00132381
v -0.07368035 -0.00507240 0.00132381
v -0.07310496 -0.00472921 0.00132381
v -0.07230335 -0.00426375 0.00132381
v -0.07238696 -0.00421656 0.00234663
v -0.07248040 -0.00415650 0.00540771
v -0.07250498 -0.00414149 0.00643053
v -0.07106406 -0.00352374 0.00336945
v -0.07199353 -0.00390340 0.00643053
v -0.07106406 -0.00355591 0.07172878
v -0.07387706 -0.00593039 -0.00041276
v -0.07455572 -0.00620280 -0.00006692
v -0.08077678 -0.01426571 0.06256760
v -0.08051613 -0.01379167 0.07172878
v -0.07983256 -0.01206927 0.06869713
v -0.07984239 -0.01201993 0.06155214
v -0.07984239 -0.01201565 0.06052933
v -0.08020631 -0.01277067 0.00949161
v -0.08059974 -0.01371445 0.00643053
v -0.08079153 -0.01422496 0.00643053
v -0.08072760 -0.01440728 0.07172878
v -0.08078661 -0.01423139 0.00540771
v -0.08078170 -0.01425070 0.00439226
v -0.08077186 -0.01427429 0.00336945
v -0.08076694 -0.01429359 0.00275870
v -0.08053089 -0.01379167 0.00132381
v -0.08060466 -0.01388820 0.00239078
v -0.08083087 -0.01507436 0.00061741
v -0.08092923 -0.01585298 0.00028629
v -0.08080137 -0.01620476 -0.00027295
v -0.07992108 -0.01379167 -0.00046427
v -0.07755560 -0.01040478 -0.00111181
v -0.07656711 -0.00931943 -0.00115596
v -0.07557863 -0.00825767 -0.00117803
v -0.08070793 -0.01552480 -0.00006692
v -0.08030467 -0.01379167 0.00030836
v -0.07990632 -0.01279427 0.00036722
v -0.07964076 -0.01247252 0.00006553
v -0.07877030 -0.01115337 -0.00030239
v -0.07788018 -0.00994790 -0.00043484
v -0.07492948 -0.00688489 -0.00047163
v -0.07419180 -0.00660176 -0.00078068
v -0.07581469 -0.00701145 0.00055118
v -0.07534749 -0.00639799 0.00132381
v -0.07490981 -0.00590465 0.00234663
v -0.07425082 -0.00539415 0.00234663
v -0.07374428 -0.00503594 0.00234663
v -0.07310496 -0.00464770 0.00234663
v -0.07310496 -0.00452973 0.00643053
v -0.07310496 -0.00452329 0.00745334
v -0.07377870 -0.00500591 0.03297220
v -0.07310496 -0.00464770 0.05746824
v -0.07235745 -0.00420584 0.05746824
v -0.07230827 -0.00425088 0.07172878
v -0.07560814 -0.00720235 -0.00013314
v -0.08010304 -0.01280285 0.07172878
v -0.07982272 -0.01209501 0.06971259
v -0.07957191 -0.01155877 0.06869713
v -0.07962109 -0.01152230 0.06256760
v -0.07962109 -0.01150943 0.06155214
v -0.07962109 -0.01150514 0.06052933
v -0.07986206 -0.01201565 0.01051443
v -0.08020139 -0.01277067 0.00643053
v -0.08019647 -0.01277067 0.00540771
v -0.08018664 -0.01277067 0.00439226
v -0.08058990 -0.01372089 0.00540771
v -0.08058498 -0.01374019 0.00439226
v -0.08058007 -0.01376379 0.00336945
v -0.08008828 -0.01277067 0.00132381
v -0.07976370 -0.01221727 0.00074986
v -0.08012762 -0.01277067 0.00234663
v -0.08061941 -0.01476549 0.00028629
v -0.07726053 -0.00963474 -0.00079540
v -0.07696546 -0.00889043 -0.00047899
v -0.07596714 -0.00788445 -0.00049371
v -0.07941454 -0.01182474 0.00036722
v -0.07889325 -0.01096247 0.00030836
v -0.07857359 -0.01045197 0.00030836
v -0.07764904 -0.00926795 -0.00005956
v -0.07680317 -0.00803674 0.00053647
v -0.07643433 -0.00742114 0.00132381
v -0.07592288 -0.00690849 0.00132381
v -0.07664580 -0.00821048 -0.00014050
v -0.07542126 -0.00633793 0.00234663
v -0.07546552 -0.00629288 0.00336945
v -0.07495898 -0.00587891 0.00336945
v -0.07426557 -0.00536841 0.00336945
v -0.07379346 -0.00498446 0.00745334
v -0.07379837 -0.00498231 0.00846880
v -0.07380821 -0.00498875 0.00949161
v -0.07497374 -0.00588105 0.04725481
v -0.07420164 -0.00540058 0.06767431
v -0.07370985 -0.00504881 0.05950651
v -0.07431967 -0.00534481 0.00949161
v -0.07369018 -0.00506811 0.06767431
v -0.07310496 -0.00473135 0.07172878
v -0.07308037 -0.00471634 0.07172878
v -0.08008828 -0.01277067 0.07172878
v -0.07979321 -0.01215936 0.07172878
v -0.07953748 -0.01164886 0.07172878
v -0.07904079 -0.01073081 0.07172878
v -0.07908013 -0.01073081 0.06971259
v -0.07917848 -0.01073081 0.06359041
v -0.07919324 -0.01073081 0.06256760
v -0.07960142 -0.01150514 0.01051443
v -0.07960142 -0.01151587 0.00643053
v -0.07985715 -0.01202637 0.00540771
v -0.07986206 -0.01201993 0.00949161
v -0.07985223 -0.01204353 0.00439226
v -0.07978338 -0.01217223 0.00132381
v -0.07983256 -0.01208214 0.00336945
v -0.07951781 -0.01166387 0.00132381
v -0.07900636 -0.01079087 0.00132381
v -0.07802771 -0.00964975 0.00029364
v -0.07868178 -0.01028037 0.00132381
v -0.07775723 -0.00912209 0.00062477
v -0.07741298 -0.00852579 0.00132381
v -0.07690153 -0.00793164 0.00132381
v -0.07648843 -0.00736322 0.00234663
v -0.07597697 -0.00684843 0.00234663
v -0.07602615 -0.00680339 0.00336945
v -0.07603599 -0.00679910 0.00439226
v -0.07546552 -0.00628859 0.00439226
v -0.07549011 -0.00628216 0.01459833
v -0.07496882 -0.00587462 0.04521654
v -0.07547044 -0.00626929 0.06052933
v -0.07492456 -0.00591108 0.06767431
v -0.07492456 -0.00591966 0.06869713
v -0.07492456 -0.00593682 0.07073540
v -0.07416721 -0.00543061 0.07172878
v -0.07366068 -0.00508742 0.07172878
v -0.07549011 -0.00627573 0.02991112
v -0.07873096 -0.01020315 0.07172878
v -0.07874571 -0.01018599 0.07073540
v -0.07879981 -0.01009590 0.06359041
v -0.07880473 -0.01010019 0.06256760
v -0.07879489 -0.01011735 0.01051443
v -0.07915881 -0.01073081 0.01051443
v -0.07914898 -0.01073081 0.00643053
v -0.07959650 -0.01151587 0.00540771
v -0.07958666 -0.01153303 0.00439226
v -0.07954240 -0.01161668 0.00234663
v -0.07956699 -0.01157164 0.00336945
v -0.07907521 -0.01073081 0.00336945
v -0.07874080 -0.01019243 0.00336945
v -0.07828836 -0.00970981 0.00132381
v -0.07840147 -0.00968193 0.00336945
v -0.07785559 -0.00898052 0.00234663
v -0.07782116 -0.00903629 0.00132381
v -0.07746708 -0.00847002 0.00234663
v -0.07695562 -0.00787372 0.00234663
v -0.07653761 -0.00731818 0.00336945
v -0.07654744 -0.00729673 0.00439226
v -0.07657203 -0.00728386 0.02480440
v -0.07606058 -0.00680339 0.02480440
v -0.07607041 -0.00677979 0.06052933
v -0.07543601 -0.00632506 0.07073540
v -0.07491472 -0.00595184 0.07172878
v -0.07489997 -0.00594111 0.07172878
v -0.07487538 -0.00592395 0.07172878
v -0.07872112 -0.01018814 0.07172878
v -0.07836212 -0.00969265 0.07172878
v -0.07794411 -0.00888829 0.06461323
v -0.07845556 -0.00958540 0.06359041
v -0.07792444 -0.00889472 0.00540771
v -0.07843589 -0.00963259 0.00540771
v -0.07877522 -0.01013666 0.00643053
v -0.07877030 -0.01014309 0.00540771
v -0.07913914 -0.01073081 0.00540771
v -0.07911455 -0.01073081 0.00439226
v -0.07876047 -0.01015596 0.00439226
v -0.07843097 -0.00964546 0.00439226
v -0.07791952 -0.00890116 0.00439226
v -0.07789001 -0.00893977 0.00336945
v -0.07749658 -0.00842927 0.00336945
v -0.07699005 -0.00782868 0.00336945
v -0.07701464 -0.00780723 0.00439226
v -0.07703431 -0.00776862 0.05950651
v -0.07658187 -0.00726241 0.06052933
v -0.07657695 -0.00725812 0.05950651
v -0.07653269 -0.00731174 0.06665150
v -0.07596222 -0.00683556 0.07073540
v -0.07540650 -0.00636152 0.07172878
v -0.07656220 -0.00727313 0.06256760
v -0.07785067 -0.00900841 0.07172878
v -0.07751134 -0.00839924 0.06562869
v -0.07751625 -0.00837779 0.06461323
v -0.07753101 -0.00837350 0.06359041
v -0.07754085 -0.00837779 0.06256760
v -0.07794411 -0.00888400 0.06359041
v -0.07752609 -0.00838637 0.00540771
v -0.07752117 -0.00839066 0.00439226
v -0.07754576 -0.00838208 0.06052933
v -0.07703431 -0.00777291 0.06052933
v -0.07702939 -0.00778363 0.06256760
v -0.07699989 -0.00781581 0.06562869
v -0.07693104 -0.00789517 0.07073540
v -0.07646876 -0.00738467 0.07073540
v -0.07693104 -0.00794022 0.07172878
v -0.07643925 -0.00741041 0.07172878
v -0.07593271 -0.00687202 0.07172878
v -0.07742282 -0.00849791 0.07172878
v -0.07744249 -0.00848504 0.07073540
f 1 2 5
f 1 5 13
f 1 13 30
f 1 30 54
f 1 54 53
f 1 53 102
f 1 102 101
f 1 101 100
f 1 100 148
f 1 148 195
f 1 195 241
f 1 241 295
f 1 295 339
f 1 339 382
f 1 382 381
f 1 381 416
f 1 416 415
f 1 415 445
f 1 445 444
f 1 444 443
f 1 443 468
f 1 468 486
f 1 486 485
f 1 485 484
f 1 484 487
f 1 487 470
f 1 470 447
f 1 447 446
f 1 446 418
f 1 418 386
f 1 386 385
f 1 385 384
f 1 384 383
f 1 383 341
f 1 341 299
f 1 299 306
f 1 306 250
f 1 250 245
f 1 245 244
f 1 244 196
f 1 196 149
f 1 149 104
f 1 104 59
f 1 59 31
f 1 31 14
f 1 14 6
f 1 6 3
f 1 3 7
f 1 7 17
f 1 17 38
f 1 38 80
f 1 80 79
f 1 79 81
f 1 81 39
f 1 39 18
f 1 18 8
f 1 8 4
f 1 4 2
f 2 4 5
f 3 6 15
f 3 15 34
f 3 34 65
f 3 65 117
f 3 117 161
f 3 161 211
f 3 211 262
f 3 262 261
f 3 261 263
f 3 263 212
f 3 212 162
f 3 162 119
f 3 119 66
f 3 66 35
f 3 35 16
f 3 16 7
f 4 8 9
f 4 9 10
f 4 10 11
f 4 11 12
f 4 12 13
f 4 13 5
f 6 14 15
f 7 16 17
f 8 18 19
f 8 19 20
f 8 20 9
f 9 20 10
f 10 20 11
f 11 20 21
f 11 21 12
f 12 22 23
f 12 23 24
f 12 24 25
f 12 25 26
f 12 26 13
f 12 21 27
f 12 27 28
f 12 28 29
f 12 29 22
f 13 26 30
f 14 31 32
f 14 32 15
f 15 32 33
f 15 33 34
f 16 35 17
f 17 35 36
f 17 36 37
f 17 37 38
f 18 39 40
f 18 40 19
f 19 40 41
f 19 41 20
f 20 41 42
f 20 42 43
f 20 43 44
f 20 44 21
f 21 44 27
f 22 29 45
f 22 45 23
f 23 46 47
f 23 47 24
f 23 45 48
f 23 48 49
f 23 49 46
f 24 47 50
f 24 50 25
f 25 51 52
f 25 52 26
f 25 50 51
f 26 52 53
f 26 53 54
f 26 54 30
f 27 44 55
f 27 55 56
f 27 56 28
f 28 56 29
f 29 56 57
f 29 57 58
f 29 58 45
f 31 59 61
f 31 61 33
f 31 33 32
f 33 60 65
f 33 65 34
f 33 61 62
f 33 62 63
f 33 63 64
f 33 64 60
f 35 66 67
f 35 67 68
f 35 68 69
f 35 69 70
f 35 70 71
f 35 71 72
f 35 72 73
f 35 73 74
f 35 74 75
f 35 75 76
f 35 76 36
f 36 76 37
f 37 76 77
f 37 77 78
f 37 78 79
f 37 79 80
f 37 80 38
f 39 81 40
f 40 81 78
f 40 78 82
f 40 82 41
f 41 82 83
f 41 83 84
f 41 84 42
f 42 84 43
f 43 84 85
f 43 85 56
f 43 56 55
f 43 55 44
f 45 86 87
f 45 87 88
f 45 88 49
f 45 49 48
f 45 58 89
f 45 89 86
f 46 90 91
f 46 91 92
f 46 92 93
f 46 93 94
f 46 94 50
f 46 50 95
f 46 95 47
f 46 49 88
f 46 88 96
f 46 96 90
f 47 95 50
f 50 94 51
f 51 94 52
f 52 94 93
f 52 93 97
f 52 97 98
f 52 98 99
f 52 99 100
f 52 100 101
f 52 101 102
f 52 102 53
f 56 85 57
f 57 85 58
f 58 85 103
f 58 103 87
f 58 87 89
f 59 104 105
f 59 105 106
f 59 106 61
f 60 107 65
f 60 64 107
f 61 106 62
f 62 106 105
f 62 105 108
f 62 108 109
f 62 109 63
f 63 109 110
f 63 110 111
f 63 111 112
f 63 112 113
f 63 113 64
f 64 113 114
f 64 114 115
f 64 115 116
f 64 116 117
f 64 117 65
f 64 65 118
f 64 118 107
f 65 107 118
f 66 119 120
f 66 120 67
f 67 120 121
f 67 121 68
f 68 121 122
f 68 122 69
f 69 122 70
f 70 122 123
f 70 123 124
f 70 124 125
f 70 125 71
f 71 125 126
f 71 126 74
f 71 74 72
f 72 74 73
f 74 126 127
f 74 127 128
f 74 128 129
f 74 129 130
f 74 130 75
f 75 130 76
f 76 130 77
f 77 130 129
f 77 129 131
f 77 131 78
f 78 81 79
f 78 131 82
f 82 131 132
f 82 132 133
f 82 133 134
f 82 134 83
f 83 134 84
f 84 134 135
f 84 135 85
f 85 135 136
f 85 136 137
f 85 137 124
f 85 124 138
f 85 138 103
f 86 89 87
f 87 139 88
f 87 103 140
f 87 140 139
f 88 139 96
f 90 96 141
f 90 141 142
f 90 142 143
f 90 143 144
f 90 144 91
f 91 144 92
f 92 144 145
f 92 145 98
f 92 98 93
f 93 98 97
f 96 146 141
f 96 139 147
f 96 147 146
f 98 145 99
f 99 145 100
f 100 145 148
f 103 138 124
f 103 124 140
f 104 149 150
f 104 150 105
f 105 150 108
f 108 151 111
f 108 111 110
f 108 110 109
f 108 150 151
f 111 152 153
f 111 153 112
f 111 151 152
f 112 153 154
f 112 154 155
f 112 155 113
f 113 155 114
f 114 155 156
f 114 156 157
f 114 157 158
f 114 158 159
f 114 159 160
f 114 160 115
f 115 160 161
f 115 161 116
f 116 161 117
f 119 162 163
f 119 163 164
f 119 164 165
f 119 165 120
f 120 166 121
f 120 165 167
f 120 167 168
f 120 168 169
f 120 169 166
f 121 166 170
f 121 170 122
f 122 171 123
f 122 170 172
f 122 172 173
f 122 173 171
f 123 171 174
f 123 174 175
f 123 175 176
f 123 176 177
f 123 177 178
f 123 178 124
f 124 137 125
f 124 178 179
f 124 179 180
f 124 180 140
f 125 135 127
f 125 127 126
f 125 137 136
f 125 136 135
f 127 135 134
f 127 134 128
f 128 131 181
f 128 181 129
f 128 134 133
f 128 133 132
f 128 132 131
f 129 181 131
f 139 140 182
f 139 182 147
f 140 180 179
f 140 179 182
f 141 183 184
f 141 184 185
f 141 185 186
f 141 186 142
f 141 146 187
f 141 187 188
f 141 188 183
f 142 186 189
f 142 189 143
f 143 189 144
f 144 189 190
f 144 190 191
f 144 191 145
f 145 191 148
f 146 147 187
f 147 182 192
f 147 192 193
f 147 193 194
f 147 194 187
f 148 191 195
f 149 196 197
f 149 197 150
f 150 197 198
f 150 198 151
f 151 198 199
f 151 199 152
f 152 200 153
f 152 199 201
f 152 201 200
f 153 200 202
f 153 202 203
f 153 203 204
f 153 204 154
f 154 204 155
f 155 204 156
f 156 204 205
f 156 205 157
f 157 205 206
f 157 206 207
f 157 207 158
f 158 207 208
f 158 208 209
f 158 209 159
f 159 209 210
f 159 210 211
f 159 211 160
f 160 211 161
f 162 212 213
f 162 213 163
f 163 213 214
f 163 214 215
f 163 215 164
f 164 216 167
f 164 167 165
f 164 215 216
f 166 169 217
f 166 217 218
f 166 218 170
f 167 216 168
f 168 216 219
f 168 219 169
f 169 219 220
f 169 220 217
f 170 218 221
f 170 221 222
f 170 222 172
f 171 173 174
f 172 222 173
f 173 176 175
f 173 175 174
f 173 222 176
f 176 222 223
f 176 223 224
f 176 224 177
f 177 224 225
f 177 225 226
f 177 226 227
f 177 227 178
f 178 227 179
f 179 227 228
f 179 228 229
f 179 229 193
f 179 193 192
f 179 192 182
f 183 188 230
f 183 230 231
f 183 231 232
f 183 232 233
f 183 233 234
f 183 234 235
f 183 235 184
f 184 235 236
f 184 236 237
f 184 237 185
f 185 237 238
f 185 238 189
f 185 189 186
f 187 194 188
f 188 194 230
f 189 238 190
f 190 238 239
f 190 239 240
f 190 240 241
f 190 241 191
f 191 241 195
f 193 229 194
f 194 242 231
f 194 231 230
f 194 229 243
f 194 243 242
f 196 244 197
f 197 244 245
f 197 245 198
f 198 245 201
f 198 201 199
f 200 246 247
f 200 247 202
f 200 201 248
f 200 248 249
f 200 249 246
f 201 245 250
f 201 250 249
f 201 249 248
f 202 247 203
f 203 247 251
f 203 251 252
f 203 252 253
f 203 253 254
f 203 254 255
f 203 255 256
f 203 256 257
f 203 257 205
f 203 205 204
f 205 257 258
f 205 258 206
f 206 258 259
f 206 259 214
f 206 214 260
f 206 260 207
f 207 260 261
f 207 261 208
f 208 261 209
f 209 262 210
f 209 261 262
f 210 262 211
f 212 263 260
f 212 260 264
f 212 264 213
f 213 264 214
f 214 264 265
f 214 265 260
f 214 259 215
f 215 259 266
f 215 266 216
f 216 267 220
f 216 220 219
f 216 266 268
f 216 268 269
f 216 269 267
f 217 220 270
f 217 270 218
f 218 270 271
f 218 271 221
f 220 267 272
f 220 272 273
f 220 273 274
f 220 274 275
f 220 275 270
f 221 271 276
f 221 276 222
f 222 276 277
f 222 277 223
f 223 277 224
f 224 277 225
f 225 278 279
f 225 279 280
f 225 280 281
f 225 281 228
f 225 228 227
f 225 227 226
f 225 277 278
f 228 281 229
f 229 281 243
f 231 242 232
f 232 242 233
f 233 242 282
f 233 282 234
f 234 282 283
f 234 283 284
f 234 284 285
f 234 285 286
f 234 286 287
f 234 287 288
f 234 288 289
f 234 289 235
f 235 289 290
f 235 290 236
f 236 290 291
f 236 291 292
f 236 292 237
f 237 293 239
f 237 239 238
f 237 292 294
f 237 294 293
f 239 293 294
f 239 294 240
f 240 294 241
f 241 294 292
f 241 292 295
f 242 243 281
f 242 281 280
f 242 280 296
f 242 296 297
f 242 297 282
f 246 251 247
f 246 249 251
f 249 250 298
f 249 298 299
f 249 299 300
f 249 300 301
f 249 301 302
f 249 302 303
f 249 303 304
f 249 304 305
f 249 305 251
f 250 306 298
f 251 305 307
f 251 307 252
f 252 308 309
f 252 309 310
f 252 310 253
f 252 307 308
f 253 310 254
f 254 310 255
f 255 311 256
f 255 310 312
f 255 312 311
f 256 311 313
f 256 313 257
f 257 313 258
f 258 314 315
f 258 315 259
f 258 313 314
f 259 315 268
f 259 268 266
f 260 263 261
f 260 265 264
f 267 269 316
f 267 316 272
f 268 315 269
f 269 315 316
f 270 275 317
f 270 317 271
f 271 317 318
f 271 318 319
f 271 319 276
f 272 316 273
f 273 316 320
f 273 320 321
f 273 321 322
f 273 322 323
f 273 323 324
f 273 324 274
f 274 324 275
f 275 324 325
f 275 325 317
f 276 319 277
f 277 319 278
f 278 319 326
f 278 326 327
f 278 327 279
f 279 327 296
f 279 296 280
f 282 297 283
f 283 297 284
f 284 328 329
f 284 329 285
f 284 297 328
f 285 329 330
f 285 330 286
f 286 330 331
f 286 331 287
f 287 331 332
f 287 332 333
f 287 333 290
f 287 290 288
f 288 290 289
f 290 333 291
f 291 333 332
f 291 332 292
f 292 332 334
f 292 334 335
f 292 335 336
f 292 336 337
f 292 337 338
f 292 338 295
f 295 338 339
f 296 327 326
f 296 326 297
f 297 326 340
f 297 340 328
f 298 306 299
f 299 341 300
f 300 341 342
f 300 342 343
f 300 343 344
f 300 344 345
f 300 345 301
f 301 345 346
f 301 346 302
f 302 346 303
f 303 347 348
f 303 348 304
f 303 346 347
f 304 348 349
f 304 349 350
f 304 350 351
f 304 351 307
f 304 307 305
f 307 351 352
f 307 352 308
f 308 352 353
f 308 353 309
f 309 353 310
f 310 353 312
f 311 354 355
f 311 355 321
f 311 321 313
f 311 312 356
f 311 356 354
f 312 353 356
f 313 321 357
f 313 357 320
f 313 320 314
f 314 320 315
f 315 320 316
f 317 325 358
f 317 358 318
f 318 358 359
f 318 359 319
f 319 359 360
f 319 360 326
f 320 357 321
f 321 355 322
f 322 355 323
f 323 355 361
f 323 361 324
f 324 361 362
f 324 362 363
f 324 363 364
f 324 364 325
f 325 364 359
f 325 359 358
f 326 360 340
f 328 365 366
f 328 366 367
f 328 367 329
f 328 340 368
f 328 368 365
f 329 367 369
f 329 369 330
f 330 369 370
f 330 370 371
f 330 371 331
f 331 371 372
f 331 372 332
f 332 372 334
f 334 373 335
f 334 372 373
f 335 373 374
f 335 374 375
f 335 375 336
f 336 376 377
f 336 377 378
f 336 378 337
f 336 375 379
f 336 379 376
f 337 378 380
f 337 380 381
f 337 381 382
f 337 382 339
f 337 339 338
f 340 360 368
f 341 383 342
f 342 383 384
f 342 384 385
f 342 385 343
f 343 385 386
f 343 386 387
f 343 387 388
f 343 388 389
f 343 389 344
f 344 389 345
f 345 389 346
f 346 389 390
f 346 390 347
f 347 390 391
f 347 391 392
f 347 392 393
f 347 393 348
f 348 392 349
f 348 393 392
f 349 392 350
f 350 352 351
f 350 392 394
f 350 394 356
f 350 356 353
f 350 353 352
f 354 395 355
f 354 356 396
f 354 396 395
f 355 395 397
f 355 397 398
f 355 398 362
f 355 362 361
f 356 394 396
f 359 364 368
f 359 368 360
f 362 398 363
f 363 399 364
f 363 398 400
f 363 400 401
f 363 401 399
f 364 399 401
f 364 401 365
f 364 365 368
f 365 401 402
f 365 402 403
f 365 403 366
f 366 403 436
f 366 436 404
f 366 404 405
f 366 405 367
f 367 405 369
f 369 405 406
f 369 406 370
f 370 406 407
f 370 407 408
f 370 408 371
f 371 408 409
f 371 409 379
f 371 379 372
f 372 379 373
f 373 379 374
f 374 379 375
f 376 410 411
f 376 411 377
f 376 379 410
f 377 411 412
f 377 412 413
f 377 413 414
f 377 414 415
f 377 415 416
f 377 416 380
f 377 380 378
f 379 409 417
f 379 417 411
f 379 411 410
f 380 416 381
f 386 418 419
f 386 419 387
f 387 419 388
f 388 419 420
f 388 420 389
f 389 420 421
f 389 421 422
f 389 422 423
f 389 423 390
f 390 423 391
f 391 424 425
f 391 425 392
f 391 423 424
f 392 425 394
f 394 425 426
f 394 426 428
f 394 428 396
f 395 396 428
f 395 428 427
f 395 427 397
f 397 427 398
f 398 427 429
f 398 429 430
f 398 430 400
f 400 431 401
f 400 430 432
f 400 432 433
f 400 433 431
f 401 431 434
f 401 434 402
f 402 434 435
f 402 435 436
f 402 436 403
f 404 436 437
f 404 437 406
f 404 406 405
f 406 437 438
f 406 438 407
f 407 438 439
f 407 439 440
f 407 440 441
f 407 441 409
f 407 409 408
f 409 441 417
f 411 441 442
f 411 442 412
f 411 417 441
f 412 442 413
f 413 442 414
f 414 442 443
f 414 443 444
f 414 444 445
f 414 445 415
f 418 446 419
f 419 446 447
f 419 447 448
f 419 448 449
f 419 449 420
f 420 449 421
f 421 449 422
f 422 450 451
f 422 451 452
f 422 452 424
f 422 424 423
f 422 449 450
f 424 452 453
f 424 453 454
f 424 454 425
f 425 454 426
f 426 454 455
f 426 455 429
f 426 429 428
f 427 428 429
f 429 455 456
f 429 456 430
f 430 456 457
f 430 457 432
f 431 433 434
f 432 457 458
f 432 458 459
f 432 459 433
f 433 459 435
f 433 435 434
f 435 459 460
f 435 460 461
f 435 461 436
f 436 461 437
f 437 461 462
f 437 462 438
f 438 462 439
f 439 462 463
f 439 463 464
f 439 464 465
f 439 465 441
f 439 441 440
f 441 465 464
f 441 464 442
f 442 466 467
f 442 467 486
f 442 486 468
f 442 468 443
f 442 464 469
f 442 469 466
f 447 470 448
f 448 471 472
f 448 472 473
f 448 473 474
f 448 474 475
f 448 475 449
f 448 470 471
f 449 475 450
f 450 476 477
f 450 477 458
f 450 458 451
f 450 475 476
f 451 453 452
f 451 458 457
f 451 457 453
f 453 457 456
f 453 456 454
f 454 456 455
f 458 477 460
f 458 460 459
f 460 477 461
f 461 477 462
f 462 477 476
f 462 476 463
f 463 478 474
f 463 474 479
f 463 479 464
f 463 476 478
f 464 479 480
f 464 480 469
f 466 481 471
f 466 471 482
f 466 482 483
f 466 483 467
f 466 469 480
f 466 480 481
f 467 483 484
f 467 484 485
f 467 485 486
f 470 487 488
f 470 488 471
f 471 481 472
f 471 488 482
f 472 481 480
f 472 480 473
f 473 480 479
f 473 479 474
f 474 478 475
f 475 478 476
f 482 488 487
f 482 487 484
f 482 484 483

