# https://github.com/mikedh/trimesh
v -0.01834775 -0.05142358 0.07708824
v 0.00908939 -0.05001295 0.07991165
v 0.00804570 -0.05001295 0.07977817
v 0.00721835 -0.05001295 0.07960903
v 0.00676228 -0.05001295 0.07950428
v 0.00649039 -0.05001295 0.07941778
v 0.00619804 -0.05001295 0.07925417
v 0.00240625 -0.05001295 0.07708824
v 0.00885259 -0.05142358 0.07708824
v 0.00464273 -0.05142358 0.07985058
v 0.00562211 -0.05142358 0.07989507
v 0.00665703 -0.05142358 0.07988678
v 0.00855731 -0.05054254 0.07989231
v 0.01013893 -0.05001295 0.07981713
v 0.01120894 -0.05001295 0.07708824
v 0.00922387 -0.05126919 0.07708824
v 0.00939636 -0.05142358 0.07792288
v 0.00775335 -0.05142358 0.07973754
v 0.00829127 -0.05142358 0.07965408
v 0.00855731 -0.05134749 0.07963666
v 0.00959808 -0.05058880 0.07970769
v 0.01060085 -0.05001295 0.07970023
v 0.01128202 -0.05001295 0.07716867
v 0.01114462 -0.05006169 0.07708824
v 0.00932912 -0.05121423 0.07708824
v 0.00934666 -0.05122486 0.07711892
v 0.01002784 -0.05101261 0.07762523
v 0.00964486 -0.05129308 0.07793394
v 0.01010970 -0.05106785 0.07830594
v 0.01010970 -0.05106785 0.07845269
v 0.00931742 -0.05142358 0.07857374
v 0.00848715 -0.05142358 0.07958194
v 0.00927065 -0.05116728 0.07952501
v 0.01060085 -0.05025862 0.07959493
v 0.01089612 -0.05001295 0.07960626
v 0.01121478 -0.05010796 0.07723306
v 0.01151883 -0.05001295 0.07788640
v 0.01094874 -0.05018736 0.07708824
v 0.00937589 -0.05118523 0.07708824
v 0.01051022 -0.05073269 0.07793394
v 0.01130541 -0.05017258 0.07788640
v 0.00995182 -0.05095972 0.07913284
v 0.00959808 -0.05125856 0.07883823
v 0.00927065 -0.05142358 0.07884292
v 0.01148667 -0.05001295 0.07850714
v 0.01127325 -0.05015684 0.07890705
v 0.01117385 -0.05008683 0.07947360
v 0.00896076 -0.05142358 0.07926384
v 0.01122063 -0.05001295 0.07949240
v 0.01144282 -0.05001295 0.07890705
v 0.01129664 -0.05001295 0.07935919
f 1 2 3
f 1 3 4
f 1 4 5
f 1 5 6
f 1 6 7
f 1 7 8
f 1 8 15
f 1 15 24
f 1 24 38
f 1 38 39
f 1 39 25
f 1 25 16
f 1 16 9
f 1 9 17
f 1 17 31
f 1 31 44
f 1 44 48
f 1 48 32
f 1 32 19
f 1 19 18
f 1 18 12
f 1 12 11
f 1 11 10
f 1 10 2
f 2 11 12
f 2 12 13
f 2 13 14
f 2 14 22
f 2 22 35
f 2 35 49
f 2 49 51
f 2 51 50
f 2 50 45
f 2 45 37
f 2 37 23
f 2 23 15
f 2 15 8
f 2 8 7
f 2 7 6
f 2 6 5
f 2 5 4
f 2 4 3
f 2 10 11
f 9 16 17
f 12 18 13
f 13 18 14
f 14 18 19
f 14 19 20
f 14 20 21
f 14 21 22
f 15 23 24
f 16 25 26
f 16 26 17
f 17 26 27
f 17 27 28
f 17 28 29
f 17 29 30
f 17 30 31
f 19 32 20
f 20 32 33
f 20 33 34
f 20 34 21
f 21 34 22
f 22 34 35
f 23 36 24
f 23 37 36
f 24 36 38
f 25 39 26
f 26 39 38
f 26 38 36
f 26 36 27
f 27 40 29
f 27 29 28
f 27 36 41
f 27 41 40
f 29 40 41
f 29 41 37
f 29 37 30
f 30 42 43
f 30 43 44
f 30 44 31
f 30 37 45
f 30 45 46
f 30 46 47
f 30 47 42
f 32 48 33
f 33 48 43
f 33 43 42
f 33 42 47
f 33 47 34
f 34 47 49
f 34 49 35
f 36 37 41
f 43 48 44
f 45 50 46
f 46 50 47
f 47 50 51
f 47 51 49

