# https://github.com/mikedh/trimesh
v -0.00738179 -0.03770251 0.07618219
v -0.00738179 -0.03887022 0.07731413
v -0.00738179 -0.04577843 0.07618219
v -0.01788356 -0.04173849 0.07618219
v -0.01788356 -0.04276469 0.07747812
v -0.00738179 -0.03905838 0.07746421
v -0.00738179 -0.04577843 0.07796158
v -0.01788356 -0.04577843 0.07618219
v -0.01788356 -0.04339084 0.07776791
v -0.00738179 -0.03919199 0.07754330
v -0.00738179 -0.04543769 0.07814965
v -0.00981603 -0.04543769 0.07802385
v -0.01287733 -0.04543769 0.07786319
v -0.01287733 -0.04577843 0.07766827
v -0.01788356 -0.04577843 0.07709326
v -0.01788356 -0.04441703 0.07787211
v -0.00738179 -0.04096371 0.07815546
v -0.00738179 -0.03986320 0.07784388
v -0.00738179 -0.04441703 0.07830285
v -0.00879525 -0.04441703 0.07826237
v -0.00981603 -0.04441703 0.07823289
v -0.01083681 -0.04441703 0.07819428
v -0.01185758 -0.04441703 0.07815380
v -0.01389811 -0.04543769 0.07780299
v -0.01345505 -0.04577843 0.07763651
v -0.01738088 -0.04577843 0.07721595
v -0.01788356 -0.04571676 0.07714786
v -0.01788356 -0.04520683 0.07757859
v -0.01696044 -0.04531831 0.07762488
v -0.01491889 -0.04543769 0.07773179
v -0.00738179 -0.04198358 0.07825261
v -0.00738179 -0.04339637 0.07829351
v -0.00777448 -0.04339637 0.07828479
v -0.00777448 -0.04237492 0.07825199
v -0.01389811 -0.04577843 0.07761035
v -0.01696044 -0.04577843 0.07730770
v -0.01609900 -0.04577843 0.07742332
v -0.01566622 -0.04577843 0.07747646
v -0.01588929 -0.04551121 0.07760973
v -0.01491889 -0.04577843 0.07753874
v -0.00738179 -0.04237492 0.07826610
v -0.00738179 -0.04300424 0.07828624
f 1 2 6
f 1 6 10
f 1 10 18
f 1 18 17
f 1 17 31
f 1 31 41
f 1 41 42
f 1 42 32
f 1 32 19
f 1 19 11
f 1 11 7
f 1 7 3
f 1 3 8
f 1 8 4
f 1 4 5
f 1 5 2
f 2 5 6
f 3 7 14
f 3 14 25
f 3 25 35
f 3 35 40
f 3 40 38
f 3 38 37
f 3 37 36
f 3 36 26
f 3 26 15
f 3 15 8
f 4 8 15
f 4 15 27
f 4 27 28
f 4 28 16
f 4 16 9
f 4 9 5
f 5 9 10
f 5 10 6
f 7 11 12
f 7 12 13
f 7 13 14
f 9 16 17
f 9 17 18
f 9 18 10
f 11 19 20
f 11 20 21
f 11 21 22
f 11 22 23
f 11 23 16
f 11 16 12
f 12 16 13
f 13 16 24
f 13 24 25
f 13 25 14
f 15 26 27
f 16 28 29
f 16 29 30
f 16 30 24
f 16 23 31
f 16 31 17
f 19 32 33
f 19 33 20
f 20 33 21
f 21 33 22
f 22 33 23
f 23 33 34
f 23 34 31
f 24 30 35
f 24 35 25
f 26 36 28
f 26 28 27
f 28 36 37
f 28 37 29
f 29 37 38
f 29 38 39
f 29 39 30
f 30 40 35
f 30 39 40
f 31 34 41
f 32 42 33
f 33 42 41
f 33 41 34
f 38 40 39

