# https://github.com/mikedh/trimesh
v -0.00340650 -0.00331903 0.07673136
v -0.00645824 -0.01116255 0.07841519
v -0.00610423 -0.01116255 0.07841519
v -0.00471264 -0.01073067 0.07827570
v -0.00369031 -0.01073067 0.07823603
v -0.00340650 -0.01073067 0.07821157
v -0.00340650 -0.00331903 0.07172878
v -0.03457691 -0.00331903 0.07650460
v -0.00846628 -0.01212626 0.07846279
v -0.00777658 -0.01198706 0.07846411
v -0.00610423 -0.01138563 0.07841519
v -0.00340650 -0.02155098 0.07591688
v -0.00710215 -0.01236362 0.07841982
v -0.00985176 -0.01479966 0.07845287
v -0.00918649 -0.01445166 0.07841916
v -0.01021187 -0.01543143 0.07841122
v -0.01553409 -0.02155098 0.07819042
v -0.00340650 -0.02155098 0.07172878
v -0.03457691 -0.00331903 0.07172878
v -0.03457691 -0.00970985 0.07622561
v -0.01655642 -0.02155098 0.07825917
v -0.01239081 -0.01632018 0.07840660
v -0.01142341 -0.01520299 0.07843436
v -0.01082832 -0.01484250 0.07846213
v -0.00982735 -0.01378598 0.07848262
v -0.00880197 -0.01276695 0.07848064
v -0.00784372 -0.01272947 0.07845684
v -0.01236334 -0.01736777 0.07839668
v -0.01594303 -0.02155098 0.07822744
v -0.03457691 -0.02155098 0.07172878
v -0.03457691 -0.02155098 0.07548716
v -0.01238470 -0.01736777 0.07839668
v -0.01239691 -0.01685379 0.07840461
f 1 2 3
f 1 3 4
f 1 4 5
f 1 5 6
f 1 6 12
f 1 12 18
f 1 18 7
f 1 7 19
f 1 19 8
f 1 8 2
f 2 9 10
f 2 10 3
f 2 8 9
f 3 10 11
f 3 11 5
f 3 5 4
f 5 11 6
f 6 11 13
f 6 13 14
f 6 14 15
f 6 15 16
f 6 16 17
f 6 17 12
f 7 18 30
f 7 30 19
f 8 19 30
f 8 30 31
f 8 31 20
f 8 20 21
f 8 21 22
f 8 22 23
f 8 23 24
f 8 24 25
f 8 25 9
f 9 25 26
f 9 26 10
f 10 26 27
f 10 27 11
f 11 27 13
f 12 17 29
f 12 29 21
f 12 21 31
f 12 31 30
f 12 30 18
f 13 27 14
f 14 25 24
f 14 24 28
f 14 28 16
f 14 16 15
f 14 27 25
f 16 28 17
f 17 28 29
f 20 31 21
f 21 29 28
f 21 28 32
f 21 32 33
f 21 33 24
f 21 24 22
f 22 24 23
f 24 33 32
f 24 32 28
f 25 27 26

