# https://github.com/mikedh/trimesh
v -0.06226533 -0.00298209 0.07725688
v -0.07332953 -0.00298209 0.08021401
v -0.07988527 -0.00943481 0.08050165
v -0.07979213 -0.01784367 0.07725688
v -0.07669278 -0.00298209 0.07725688
v -0.07457652 -0.00298209 0.08035591
v -0.07988527 -0.00916893 0.08052888
v -0.07988527 -0.01790503 0.07725688
v -0.07674969 -0.00301861 0.07725688
v -0.07671347 -0.00298209 0.07726873
v -0.07548891 -0.00298209 0.08037033
v -0.07554237 -0.00307120 0.08043951
v -0.07554237 -0.00309311 0.08043951
v -0.07750168 -0.00536333 0.08048852
v -0.07988527 -0.00827779 0.08052376
v -0.07988527 -0.00621795 0.07725688
v -0.07680143 -0.00305659 0.07725688
v -0.07677556 -0.00300254 0.07728699
v -0.07679971 -0.00298209 0.07743401
v -0.07558722 -0.00298209 0.08037033
v -0.07566311 -0.00307120 0.08043951
v -0.07781558 -0.00499372 0.08048852
v -0.07988527 -0.00757365 0.08050229
v -0.07920227 -0.00670004 0.08050902
v -0.07988527 -0.00596229 0.07788149
v -0.07981283 -0.00604702 0.07728379
v -0.07984387 -0.00612737 0.07725688
v -0.07785698 -0.00395211 0.07725688
v -0.07738095 -0.00334585 0.07788629
v -0.07694459 -0.00298209 0.07788629
v -0.07582178 -0.00298209 0.08021690
v -0.07662723 -0.00298209 0.07956538
v -0.07674969 -0.00301276 0.07949747
v -0.07742406 -0.00431295 0.08025437
v -0.07849685 -0.00533411 0.08023900
v -0.07884352 -0.00601488 0.08049364
v -0.07988527 -0.00738519 0.08048724
v -0.07980421 -0.00707549 0.08047154
v -0.07988527 -0.00595645 0.07796157
v -0.07988182 -0.00595645 0.07788629
v -0.07976109 -0.00602365 0.07725688
v -0.07979903 -0.00607040 0.07725688
v -0.07946098 -0.00544660 0.07788629
v -0.07895219 -0.00486078 0.07788629
v -0.07884525 -0.00497327 0.07725688
v -0.07847098 -0.00435094 0.07788629
v -0.07796046 -0.00385570 0.07788629
v -0.07736198 -0.00337068 0.07890681
v -0.07691354 -0.00298209 0.07890681
v -0.07691872 -0.00298209 0.07877677
v -0.07671865 -0.00298209 0.07947057
v -0.07678591 -0.00298209 0.07928478
v -0.07793114 -0.00388053 0.07890681
v -0.07781213 -0.00399010 0.07957371
v -0.07984905 -0.00603388 0.07956185
v -0.07952307 -0.00639471 0.08024252
v -0.07988527 -0.00714707 0.08043407
v -0.07988527 -0.00700682 0.08033157
v -0.07988527 -0.00591846 0.07884948
v -0.07893666 -0.00488708 0.07890681
v -0.07988527 -0.00591846 0.07890681
v -0.07944719 -0.00543637 0.07890681
v -0.07844166 -0.00437577 0.07890681
v -0.07988527 -0.00598274 0.07918068
v -0.07988527 -0.00606748 0.07952149
v -0.07988527 -0.00611422 0.07959260
v -0.07988527 -0.00660362 0.08001574
f 1 2 3
f 1 3 4
f 1 4 8
f 1 8 16
f 1 16 27
f 1 27 42
f 1 42 41
f 1 41 45
f 1 45 28
f 1 28 17
f 1 17 9
f 1 9 5
f 1 5 10
f 1 10 19
f 1 19 30
f 1 30 50
f 1 50 49
f 1 49 52
f 1 52 51
f 1 51 32
f 1 32 31
f 1 31 20
f 1 20 11
f 1 11 6
f 1 6 2
f 2 6 7
f 2 7 3
f 3 7 15
f 3 15 23
f 3 23 37
f 3 37 57
f 3 57 58
f 3 58 67
f 3 67 66
f 3 66 65
f 3 65 64
f 3 64 61
f 3 61 59
f 3 59 39
f 3 39 25
f 3 25 16
f 3 16 8
f 3 8 4
f 5 9 10
f 6 11 12
f 6 12 13
f 6 13 7
f 7 14 15
f 7 13 14
f 9 17 18
f 9 18 10
f 10 18 19
f 11 20 21
f 11 21 12
f 12 21 22
f 12 22 14
f 12 14 13
f 14 22 15
f 15 22 24
f 15 24 23
f 16 25 26
f 16 26 27
f 17 28 18
f 18 29 19
f 18 28 29
f 19 29 30
f 20 31 21
f 21 31 32
f 21 32 33
f 21 33 34
f 21 34 22
f 22 34 35
f 22 35 36
f 22 36 24
f 23 24 37
f 24 36 38
f 24 38 37
f 25 39 40
f 25 40 26
f 26 41 42
f 26 42 27
f 26 40 43
f 26 43 44
f 26 44 45
f 26 45 41
f 28 45 46
f 28 46 47
f 28 47 29
f 29 48 49
f 29 49 50
f 29 50 30
f 29 47 48
f 32 51 33
f 33 51 52
f 33 52 49
f 33 49 48
f 33 48 53
f 33 53 54
f 33 54 34
f 34 54 35
f 35 54 55
f 35 55 56
f 35 56 36
f 36 56 38
f 37 38 57
f 38 56 58
f 38 58 57
f 39 59 43
f 39 43 40
f 43 59 44
f 44 60 46
f 44 46 45
f 44 59 61
f 44 61 62
f 44 62 60
f 46 60 63
f 46 63 53
f 46 53 47
f 47 53 48
f 53 63 54
f 54 63 55
f 55 63 60
f 55 60 62
f 55 62 64
f 55 64 65
f 55 65 66
f 55 66 56
f 56 66 67
f 56 67 58
f 61 64 62

