# https://github.com/mikedh/trimesh
v -0.00340225 -0.02155098 0.07172878
v 0.00893089 -0.02155098 0.07172878
v -0.00340225 -0.02155098 0.07591677
v -0.00340225 -0.00331903 0.07172878
v 0.00893089 -0.02155098 0.07818243
v 0.00893089 -0.00350107 0.07172878
v 0.00753881 -0.02155098 0.07823695
v -0.00340225 -0.01073067 0.07821163
v -0.00340225 -0.00331903 0.07673127
v 0.00866165 -0.00331903 0.07172878
v 0.00858680 -0.02155098 0.07835896
v 0.00893089 -0.00331903 0.07769892
v 0.00877877 -0.00336186 0.07172878
v 0.00893089 -0.00331903 0.07244268
v 0.00794569 -0.02155098 0.07829016
v 0.00039368 -0.01073067 0.07816491
v 0.00753881 -0.01685379 0.07826680
v 0.00873168 -0.00331903 0.07173008
v 0.00874496 -0.00333153 0.07172878
f 1 2 5
f 1 5 11
f 1 11 15
f 1 15 7
f 1 7 3
f 1 3 8
f 1 8 9
f 1 9 4
f 1 4 10
f 1 10 19
f 1 19 13
f 1 13 6
f 1 6 2
f 2 6 14
f 2 14 12
f 2 12 5
f 3 7 8
f 4 9 12
f 4 12 14
f 4 14 18
f 4 18 10
f 5 12 11
f 6 13 14
f 7 15 8
f 8 16 12
f 8 12 9
f 8 15 11
f 8 11 17
f 8 17 16
f 10 18 19
f 11 12 17
f 12 16 17
f 13 19 18
f 13 18 14

