# https://github.com/mikedh/trimesh
v -0.03457996 -0.00298209 0.07652068
v -0.03534135 -0.00970967 0.07629234
v -0.03457996 -0.00970967 0.07622578
v -0.03457996 -0.00298209 0.07172878
v -0.06226156 -0.00298209 0.07725656
v -0.07988505 -0.02731954 0.07725656
v -0.03457996 -0.02731954 0.07542984
v -0.03457996 -0.02731954 0.07172878
v -0.06966692 -0.00298209 0.07172878
v -0.07668916 -0.00298209 0.07725656
v -0.08369200 -0.02731954 0.07725656
v -0.08126719 -0.02731954 0.07172878
v -0.07026827 -0.00316552 0.07172878
v -0.07674735 -0.00302020 0.07725656
v -0.07106360 -0.00355622 0.07172878
v -0.07230995 -0.00424946 0.07172878
v -0.07308104 -0.00471639 0.07172878
v -0.07364360 -0.00507612 0.07172878
v -0.08375019 -0.02680735 0.07725656
v -0.08378899 -0.02624037 0.07725656
v -0.08128174 -0.02706226 0.07172878
v -0.07680069 -0.00305832 0.07725656
v -0.07416735 -0.00542870 0.07172878
v -0.07489965 -0.00594089 0.07172878
v -0.08379869 -0.02604025 0.07725656
v -0.08403632 -0.01991539 0.07711912
v -0.08146117 -0.02300998 0.07172878
v -0.07784821 -0.00395883 0.07722193
v -0.07785306 -0.00395168 0.07725656
v -0.07491419 -0.00595280 0.07172878
v -0.07540886 -0.00636255 0.07172878
v -0.08384718 -0.02502063 0.07725656
v -0.08407997 -0.01991539 0.07725656
v -0.08411391 -0.01889577 0.07725656
v -0.08406057 -0.01889577 0.07708936
v -0.08153392 -0.02096836 0.07172878
v -0.07593262 -0.00687236 0.07172878
v -0.07884238 -0.00497606 0.07723925
v -0.07884238 -0.00497368 0.07725656
v -0.08411876 -0.01868137 0.07725656
v -0.08412361 -0.01787377 0.07725656
v -0.08406057 -0.01787377 0.07707962
v -0.08156301 -0.01994874 0.07172878
v -0.07644182 -0.00741076 0.07172878
v -0.07975896 -0.00602427 0.07725656
v -0.07689769 -0.00790628 0.07172878
v -0.07742145 -0.00849708 0.07172878
v -0.08408482 -0.01685415 0.07725656
v -0.08403147 -0.01685415 0.07709964
v -0.08153877 -0.01889577 0.07172878
v -0.08156301 -0.01991539 0.07172878
v -0.07979776 -0.00606953 0.07725656
v -0.07785306 -0.00900928 0.07172878
v -0.08399752 -0.01583215 0.07725656
v -0.08397328 -0.01583215 0.07716457
v -0.08145147 -0.01787377 0.07172878
v -0.07984140 -0.00612671 0.07725656
v -0.07836227 -0.00969299 0.07172878
v -0.08390538 -0.01485779 0.07725656
v -0.08390053 -0.01481491 0.07725656
v -0.08131084 -0.01688512 0.07172878
v -0.07872114 -0.01018851 0.07172878
v -0.08065129 -0.00726068 0.07725656
v -0.08379869 -0.01428366 0.07725656
v -0.08111200 -0.01583215 0.07172878
v -0.08130599 -0.01685415 0.07172878
v -0.07873084 -0.01020280 0.07172878
v -0.08098106 -0.00784672 0.07715484
v -0.08181520 -0.00904739 0.07725656
v -0.08375989 -0.01413596 0.07725656
v -0.08088892 -0.01491973 0.07172878
v -0.07905577 -0.01076026 0.07172878
v -0.08183944 -0.00909027 0.07725656
v -0.08289666 -0.01132724 0.07725656
v -0.08072888 -0.01440992 0.07172878
v -0.07953588 -0.01165123 0.07172878
v -0.08186854 -0.00914983 0.07725656
v -0.07980261 -0.01218010 0.07172878
v -0.08280452 -0.01108187 0.07725656
v -0.08051550 -0.01379291 0.07172878
v -0.08008873 -0.01277329 0.07172878
v -0.08010328 -0.01280426 0.07172878
f 1 2 3
f 1 3 7
f 1 7 8
f 1 8 4
f 1 4 9
f 1 9 10
f 1 10 5
f 1 5 6
f 1 6 2
f 2 7 3
f 2 6 7
f 4 8 12
f 4 12 21
f 4 21 27
f 4 27 36
f 4 36 43
f 4 43 51
f 4 51 50
f 4 50 56
f 4 56 61
f 4 61 66
f 4 66 65
f 4 65 71
f 4 71 75
f 4 75 80
f 4 80 82
f 4 82 81
f 4 81 78
f 4 78 76
f 4 76 72
f 4 72 67
f 4 67 62
f 4 62 58
f 4 58 53
f 4 53 47
f 4 47 46
f 4 46 44
f 4 44 37
f 4 37 31
f 4 31 30
f 4 30 24
f 4 24 23
f 4 23 18
f 4 18 17
f 4 17 16
f 4 16 15
f 4 15 13
f 4 13 9
f 5 10 14
f 5 14 22
f 5 22 29
f 5 29 39
f 5 39 45
f 5 45 52
f 5 52 57
f 5 57 63
f 5 63 69
f 5 69 73
f 5 73 77
f 5 77 79
f 5 79 74
f 5 74 70
f 5 70 64
f 5 64 60
f 5 60 59
f 5 59 54
f 5 54 48
f 5 48 41
f 5 41 40
f 5 40 34
f 5 34 33
f 5 33 32
f 5 32 25
f 5 25 20
f 5 20 19
f 5 19 11
f 5 11 6
f 6 11 12
f 6 12 8
f 6 8 7
f 9 13 10
f 10 13 15
f 10 15 16
f 10 16 17
f 10 17 18
f 10 18 14
f 11 19 12
f 12 19 20
f 12 20 21
f 14 18 23
f 14 23 24
f 14 24 22
f 20 25 26
f 20 26 21
f 21 26 27
f 22 28 29
f 22 24 30
f 22 30 31
f 22 31 28
f 25 32 26
f 26 32 33
f 26 33 34
f 26 34 35
f 26 35 27
f 27 35 36
f 28 37 38
f 28 38 29
f 28 31 37
f 29 38 39
f 34 40 35
f 35 40 41
f 35 41 42
f 35 42 43
f 35 43 36
f 37 44 38
f 38 45 39
f 38 44 46
f 38 46 47
f 38 47 45
f 41 48 49
f 41 49 42
f 42 49 50
f 42 50 51
f 42 51 43
f 45 47 52
f 47 53 52
f 48 54 55
f 48 55 49
f 49 55 56
f 49 56 50
f 52 53 57
f 53 58 57
f 54 59 55
f 55 59 60
f 55 60 56
f 56 60 61
f 57 58 62
f 57 62 63
f 60 64 65
f 60 65 66
f 60 66 61
f 62 67 68
f 62 68 63
f 63 68 69
f 64 70 71
f 64 71 65
f 67 72 69
f 67 69 68
f 69 72 73
f 70 74 71
f 71 74 75
f 72 76 73
f 73 76 78
f 73 78 77
f 74 79 80
f 74 80 75
f 77 78 79
f 78 81 79
f 79 81 82
f 79 82 80

