# https://github.com/mikedh/trimesh
v -0.08433213 -0.01787323 0.07788625
v -0.08430993 -0.01787323 0.07890725
v -0.08429296 -0.01685297 0.07890725
v -0.08429470 -0.01685297 0.07788625
v -0.08408748 -0.01685297 0.07725689
v -0.08412361 -0.01787323 0.07725689
v -0.08411882 -0.01868190 0.07725689
v -0.08431820 -0.01889559 0.07788625
v -0.08427336 -0.02093611 0.07890725
v -0.08403959 -0.01991585 0.07992163
v -0.08404221 -0.01787323 0.07987793
v -0.08405047 -0.02195846 0.07984979
v -0.08404699 -0.02093611 0.07989713
v -0.08403437 -0.01685297 0.07983986
v -0.08399606 -0.01583480 0.07977530
v -0.08393424 -0.01481454 0.07966142
v -0.08419892 -0.01583480 0.07890725
v -0.08417846 -0.01583480 0.07788625
v -0.08390377 -0.01481454 0.07726086
v -0.08390682 -0.01485644 0.07725689
v -0.08400129 -0.01583480 0.07725689
v -0.08411578 -0.01889559 0.07725689
v -0.08408791 -0.01973358 0.07725689
v -0.08427771 -0.01991585 0.07788625
v -0.08425290 -0.02195846 0.07890725
v -0.08381758 -0.01991585 0.08043213
v -0.08403350 -0.02297872 0.07982463
v -0.08379407 -0.01889559 0.08041691
v -0.08375489 -0.01787323 0.08038843
v -0.08371223 -0.01685297 0.08035036
v -0.08366434 -0.01583480 0.08028547
v -0.08359687 -0.01481454 0.08017192
v -0.08387591 -0.01406035 0.07953362
v -0.08404699 -0.01481454 0.07890725
v -0.08401652 -0.01481454 0.07788625
v -0.08385240 -0.01420071 0.07733535
v -0.08390159 -0.01482083 0.07725689
v -0.08408051 -0.01991585 0.07725689
v -0.08385893 -0.02604160 0.07732939
v -0.08420327 -0.02297872 0.07890725
v -0.08383760 -0.02672037 0.07735985
v -0.08389376 -0.02731954 0.07788294
v -0.08388810 -0.02731954 0.07956574
v -0.08399476 -0.02399898 0.07979020
v -0.08379102 -0.02093611 0.08040764
v -0.08305706 -0.02731954 0.08058178
v -0.08321117 -0.02297872 0.08063839
v -0.08322945 -0.02195846 0.08063375
v -0.08328082 -0.02093611 0.08061422
v -0.08315414 -0.01583480 0.08058078
v -0.08372180 -0.02297872 0.08033513
v -0.08368393 -0.02399898 0.08030070
v -0.08308623 -0.01481454 0.08057218
v -0.08299960 -0.01379219 0.08054635
v -0.08288206 -0.01277193 0.08048610
v -0.08280980 -0.01225237 0.08044140
v -0.08356073 -0.01374819 0.07989548
v -0.08356335 -0.01277193 0.07890725
v -0.08378623 -0.01346327 0.07890725
v -0.08389637 -0.01397445 0.07890725
v -0.08326123 -0.01277193 0.07992792
v -0.08285812 -0.01112108 0.07952502
v -0.08387853 -0.01407920 0.07788625
v -0.08376142 -0.01413577 0.07725689
v -0.08380103 -0.01428242 0.07725689
v -0.08375010 -0.01356802 0.07788625
v -0.08351285 -0.01277193 0.07788625
v -0.08285942 -0.01111688 0.07729927
v -0.08289686 -0.01132638 0.07725689
v -0.08384587 -0.02510723 0.07725689
v -0.08388201 -0.02501924 0.07729761
v -0.08380191 -0.02604160 0.07725689
v -0.08379015 -0.02624062 0.07725689
v -0.08395210 -0.02731954 0.07869504
v -0.08396211 -0.02731954 0.07890725
v -0.08375271 -0.02680836 0.07725689
v -0.08369394 -0.02731954 0.07725689
v -0.08381583 -0.02731954 0.07743004
v -0.08356770 -0.02731954 0.08007624
v -0.08229567 -0.02731954 0.08059800
v -0.08239536 -0.02297872 0.08063839
v -0.08239406 -0.02195846 0.08063375
v -0.08127527 -0.01073141 0.08058211
v -0.08229567 -0.01379219 0.08059303
v -0.08229567 -0.01277193 0.08058343
v -0.08125829 -0.00979076 0.08054503
v -0.08227260 -0.01184804 0.08052715
v -0.08189778 -0.01073141 0.08049835
v -0.08295171 -0.01184804 0.07989018
v -0.08180288 -0.01018461 0.08045035
v -0.08319027 -0.01175167 0.07890725
v -0.08317765 -0.01175167 0.07788625
v -0.08197527 -0.00979076 0.07989184
v -0.08184424 -0.00909522 0.07952734
v -0.08228914 -0.00970905 0.07890725
v -0.08267746 -0.01050515 0.07890725
v -0.08290296 -0.01101423 0.07890725
v -0.08280501 -0.01108127 0.07725689
v -0.08283722 -0.01115878 0.07725689
v -0.08290383 -0.01101213 0.07788625
v -0.08267789 -0.01050305 0.07788625
v -0.08229567 -0.00970905 0.07788625
v -0.08185251 -0.00906798 0.07728007
v -0.08187341 -0.00914969 0.07725689
v -0.07988570 -0.02731954 0.07725689
v -0.08190344 -0.02731954 0.08049371
v -0.07988570 -0.00917064 0.08052881
v -0.08024093 -0.00967134 0.08055761
v -0.08028707 -0.00864061 0.08053410
v -0.07988570 -0.00757426 0.08050232
v -0.08090698 -0.00894857 0.08051391
v -0.07988570 -0.00714688 0.08043412
v -0.08064883 -0.00826770 0.08039208
v -0.08092396 -0.00766853 0.07965016
v -0.08158740 -0.00950584 0.08020801
v -0.08077334 -0.00714269 0.07943364
v -0.08162397 -0.00846253 0.07890725
v -0.08190736 -0.00897161 0.07890725
v -0.08191389 -0.00895276 0.07788625
v -0.08184293 -0.00908893 0.07725689
v -0.08163615 -0.00844158 0.07788625
v -0.08075810 -0.00716573 0.07742110
v -0.08181899 -0.00904913 0.07725689
v -0.08142894 -0.02731954 0.07992792
v -0.07988570 -0.00621880 0.07725689
v -0.07988570 -0.00943461 0.08050166
v -0.08176632 -0.02731954 0.08045465
v -0.07988570 -0.00827817 0.08052384
v -0.07988570 -0.00738571 0.08048709
v -0.07988570 -0.00700651 0.08033149
v -0.08046904 -0.00766853 0.08016066
v -0.08016823 -0.00676978 0.07983787
v -0.07988570 -0.00611614 0.07959256
v -0.07988570 -0.00606796 0.07952138
v -0.07988570 -0.00598206 0.07918071
v -0.07991095 -0.00594645 0.07890725
v -0.08042115 -0.00659799 0.07890725
v -0.08079946 -0.00710707 0.07890725
v -0.08114815 -0.00766853 0.07890725
v -0.08080250 -0.00710498 0.07810177
v -0.08107589 -0.00757216 0.07781142
v -0.08046425 -0.00671740 0.07781142
v -0.07988570 -0.00596321 0.07788161
v -0.07988570 -0.00596530 0.07787632
v -0.08065580 -0.00726001 0.07725689
v -0.07988570 -0.00660428 0.08001565
v -0.07988570 -0.00591921 0.07890725
v -0.07988570 -0.00591712 0.07884931
v -0.07988570 -0.00595692 0.07796140
f 1 2 3
f 1 3 4
f 1 4 5
f 1 5 6
f 1 6 7
f 1 7 8
f 1 8 9
f 1 9 2
f 2 10 11
f 2 11 3
f 2 9 12
f 2 12 13
f 2 13 10
f 3 14 15
f 3 15 16
f 3 16 17
f 3 17 4
f 3 11 14
f 4 17 18
f 4 18 19
f 4 19 20
f 4 20 21
f 4 21 5
f 5 21 20
f 5 20 37
f 5 37 65
f 5 65 64
f 5 64 69
f 5 69 99
f 5 99 98
f 5 98 104
f 5 104 120
f 5 120 123
f 5 123 145
f 5 145 125
f 5 125 105
f 5 105 77
f 5 77 76
f 5 76 73
f 5 73 72
f 5 72 70
f 5 70 38
f 5 38 23
f 5 23 22
f 5 22 7
f 5 7 6
f 7 22 8
f 8 22 23
f 8 23 24
f 8 24 25
f 8 25 9
f 9 25 12
f 10 26 11
f 10 13 26
f 11 26 14
f 12 25 27
f 12 27 26
f 12 26 13
f 14 26 28
f 14 28 29
f 14 29 30
f 14 30 15
f 15 30 31
f 15 31 16
f 16 31 32
f 16 32 33
f 16 33 17
f 17 33 34
f 17 34 18
f 18 34 35
f 18 35 36
f 18 36 19
f 19 37 20
f 19 36 37
f 23 38 39
f 23 39 24
f 24 40 25
f 24 39 41
f 24 41 42
f 24 42 40
f 25 40 43
f 25 43 44
f 25 44 27
f 26 27 45
f 26 45 46
f 26 46 47
f 26 47 48
f 26 48 49
f 26 49 50
f 26 50 28
f 27 51 45
f 27 44 52
f 27 52 51
f 28 50 53
f 28 53 29
f 29 53 30
f 30 53 54
f 30 54 31
f 31 54 55
f 31 55 32
f 32 55 56
f 32 56 57
f 32 57 33
f 33 58 59
f 33 59 60
f 33 60 34
f 33 57 56
f 33 56 61
f 33 61 62
f 33 62 58
f 34 60 35
f 35 60 63
f 35 63 36
f 36 64 65
f 36 65 37
f 36 63 66
f 36 66 67
f 36 67 68
f 36 68 69
f 36 69 64
f 38 70 71
f 38 71 39
f 39 71 70
f 39 70 72
f 39 72 73
f 39 73 41
f 40 42 74
f 40 74 75
f 40 75 43
f 41 73 76
f 41 76 77
f 41 77 78
f 41 78 42
f 42 78 77
f 42 77 105
f 42 105 124
f 42 124 127
f 42 127 106
f 42 106 80
f 42 80 46
f 42 46 79
f 42 79 43
f 42 43 75
f 42 75 74
f 43 79 52
f 43 52 44
f 45 51 46
f 46 52 79
f 46 80 47
f 46 51 52
f 47 81 82
f 47 82 48
f 47 80 81
f 48 82 83
f 48 83 84
f 48 84 50
f 48 50 49
f 50 84 85
f 50 85 53
f 53 85 54
f 54 85 86
f 54 86 87
f 54 87 55
f 55 87 86
f 55 86 88
f 55 88 56
f 56 89 61
f 56 88 90
f 56 90 62
f 56 62 89
f 58 91 92
f 58 92 67
f 58 67 59
f 58 62 91
f 59 66 63
f 59 63 60
f 59 67 66
f 61 89 62
f 62 90 93
f 62 93 94
f 62 94 95
f 62 95 96
f 62 96 97
f 62 97 91
f 67 92 68
f 68 98 99
f 68 99 69
f 68 92 100
f 68 100 101
f 68 101 102
f 68 102 103
f 68 103 104
f 68 104 98
f 80 106 107
f 80 107 108
f 80 108 81
f 81 108 83
f 81 83 82
f 83 108 109
f 83 109 86
f 83 86 85
f 83 85 84
f 86 90 88
f 86 109 110
f 86 110 111
f 86 111 90
f 90 111 112
f 90 112 113
f 90 113 114
f 90 114 115
f 90 115 94
f 90 94 93
f 91 97 100
f 91 100 92
f 94 115 114
f 94 114 116
f 94 116 117
f 94 117 118
f 94 118 95
f 95 102 96
f 95 118 119
f 95 119 102
f 96 102 101
f 96 101 100
f 96 100 97
f 102 119 103
f 103 120 104
f 103 119 121
f 103 121 122
f 103 122 123
f 103 123 120
f 105 125 144
f 105 144 143
f 105 143 149
f 105 149 148
f 105 148 147
f 105 147 135
f 105 135 134
f 105 134 133
f 105 133 146
f 105 146 130
f 105 130 112
f 105 112 129
f 105 129 110
f 105 110 128
f 105 128 107
f 105 107 126
f 105 126 124
f 106 127 107
f 107 128 108
f 107 127 126
f 108 128 109
f 109 128 110
f 110 129 111
f 111 129 112
f 112 130 114
f 112 114 131
f 112 131 113
f 113 131 114
f 114 130 116
f 116 130 132
f 116 132 133
f 116 133 134
f 116 134 135
f 116 135 136
f 116 136 137
f 116 137 138
f 116 138 139
f 116 139 117
f 117 139 121
f 117 121 118
f 118 121 119
f 121 139 138
f 121 138 140
f 121 140 141
f 121 141 122
f 122 140 142
f 122 142 143
f 122 143 144
f 122 144 125
f 122 125 145
f 122 145 123
f 122 141 140
f 124 126 127
f 130 146 132
f 132 146 133
f 135 147 136
f 136 147 148
f 136 148 140
f 136 140 137
f 137 140 138
f 140 148 149
f 140 149 143
f 140 143 142

