# https://github.com/mikedh/trimesh
v -0.03159846 -0.02198543 0.07172878
v -0.08149126 -0.02198543 0.07172878
v -0.03159846 -0.04522260 0.07172878
v -0.03159846 -0.02198543 -0.00045844
v -0.08153542 -0.02198543 0.06869397
v -0.08149126 -0.02199225 0.07172878
v -0.07811078 -0.04522260 0.07172878
v -0.03159846 -0.04522260 -0.00141603
v -0.07815493 -0.02716466 -0.00333120
v -0.07851310 -0.02604329 -0.00330174
v -0.07870935 -0.02551786 -0.00327228
v -0.07883201 -0.02198543 -0.00224839
v -0.08123613 -0.02808587 0.07172878
v -0.08128029 -0.02709642 0.07172878
v -0.08146182 -0.02298170 0.07172878
v -0.08171695 -0.02198543 0.04515210
v -0.07849347 -0.04455842 0.07172878
v -0.07822362 -0.04522260 0.06869397
v -0.07513752 -0.04522260 -0.00338276
v -0.07718838 -0.04135353 -0.00350799
v -0.07820890 -0.03420678 -0.00351536
v -0.07820890 -0.03319004 -0.00350799
v -0.07820890 -0.03216875 -0.00349326
v -0.07904789 -0.02706458 -0.00334593
v -0.07903317 -0.02604329 -0.00330174
v -0.07886145 -0.02551786 -0.00327228
v -0.07921471 -0.02511526 -0.00316178
v -0.07922943 -0.02198543 -0.00224839
v -0.08115272 -0.02910488 0.07172878
v -0.08106931 -0.03216875 0.03806596
v -0.08104969 -0.03216875 0.04419451
v -0.08076512 -0.03577397 0.04489428
v -0.08172186 -0.02198543 0.04012845
v -0.08169242 -0.02298170 0.02378320
v -0.07851800 -0.04451292 0.07172878
v -0.07856707 -0.04461983 0.06869397
v -0.07819909 -0.04522260 0.05848463
v -0.07540246 -0.04522260 -0.00338276
v -0.07718838 -0.04237481 -0.00347116
v -0.07820890 -0.03931095 -0.00347853
v -0.07820890 -0.03829193 -0.00350062
v -0.07820890 -0.03624936 -0.00352272
v -0.07912639 -0.03319004 -0.00344169
v -0.07954343 -0.02604329 -0.00325018
v -0.08024995 -0.02502200 -0.00280821
v -0.08033827 -0.02393020 -0.00250621
v -0.07978385 -0.02236301 -0.00226313
v -0.08017636 -0.02198543 -0.00197585
v -0.08036770 -0.03829193 0.06767746
v -0.08087796 -0.03219149 0.07172878
v -0.08100062 -0.03319004 0.03704945
v -0.08077984 -0.03585813 0.03908984
v -0.08077493 -0.03586950 0.04011372
v -0.08072587 -0.03638128 0.04011372
v -0.08071605 -0.03628575 0.04419451
v -0.08060811 -0.03727064 0.04521839
v -0.08169242 -0.02298170 0.02276669
v -0.08171695 -0.02198543 0.00334243
v -0.07877804 -0.04401934 0.07172878
v -0.07881729 -0.04410805 0.06869397
v -0.07880748 -0.04407165 0.05440385
v -0.07873879 -0.04394200 0.00642881
v -0.07817947 -0.04522260 0.05261390
v -0.07600595 -0.04522260 -0.00334593
v -0.07718347 -0.04336653 -0.00336803
v -0.07786546 -0.04237481 -0.00335330
v -0.07805680 -0.04135353 -0.00340486
v -0.07829231 -0.04036408 -0.00340486
v -0.07891542 -0.03829193 -0.00337540
v -0.07896939 -0.03727064 -0.00340486
v -0.07910186 -0.03420678 -0.00344169
v -0.07963666 -0.03319004 -0.00321335
v -0.08086815 -0.02502200 -0.00236625
v -0.08081909 -0.02422135 -0.00231469
v -0.08073568 -0.02354125 -0.00223366
v -0.08092703 -0.02198543 -0.00144550
v -0.08024504 -0.03931095 0.06869397
v -0.08035789 -0.03829193 0.06869397
v -0.08049527 -0.03829193 0.04521839
v -0.08030392 -0.03832378 0.07172878
v -0.08077984 -0.03590589 0.03399254
v -0.08091722 -0.03420678 0.03704945
v -0.08165808 -0.02298170 0.00336453
v -0.08077003 -0.03483684 0.00360761
v -0.08073077 -0.03640403 0.03500905
v -0.08062774 -0.03727064 0.04113024
v -0.08169733 -0.02198543 0.00234801
v -0.07904789 -0.04339610 0.07172878
v -0.07912149 -0.04339610 0.06869397
v -0.07912639 -0.04339610 0.06767746
v -0.07897430 -0.04339610 0.00642881
v -0.07873879 -0.04393518 0.00541229
v -0.07845422 -0.04445151 0.00642881
v -0.07802737 -0.04522260 0.00846920
v -0.07621692 -0.04522260 -0.00330910
v -0.07774771 -0.04300715 -0.00330174
v -0.07868482 -0.04072574 -0.00325018
v -0.07876332 -0.04004564 -0.00329437
v -0.07883201 -0.03931095 -0.00333120
v -0.07953362 -0.03624936 -0.00310285
v -0.07958269 -0.03522807 -0.00316915
v -0.07907242 -0.03522807 -0.00342696
v -0.07961212 -0.03420678 -0.00319862
v -0.08112819 -0.02502200 -0.00173277
v -0.08101043 -0.02393020 -0.00182853
v -0.08017636 -0.03319004 -0.00270509
v -0.08014201 -0.03420678 -0.00269036
v -0.08084853 -0.02584540 -0.00234415
v -0.08093684 -0.02198543 -0.00143076
v -0.08130482 -0.02198543 -0.00073835
v -0.08026467 -0.03931095 0.06358930
v -0.08006841 -0.04033224 0.06257279
v -0.08005860 -0.04033224 0.06461318
v -0.08005369 -0.04033224 0.06562970
v -0.08002916 -0.04033224 0.06971785
v -0.08001935 -0.04033224 0.07073437
v -0.08000463 -0.04033224 0.07172878
v -0.08018617 -0.03934507 0.07172878
v -0.08019108 -0.03931095 0.07172878
v -0.08050017 -0.03829193 0.04419451
v -0.08073568 -0.03519850 0.00330560
v -0.08063755 -0.03624936 0.00336453
v -0.08046092 -0.03829193 0.00949308
v -0.08085343 -0.03319004 -0.00071626
v -0.08078965 -0.03397932 -0.00071626
v -0.08063265 -0.03727064 0.03500905
v -0.08050508 -0.03829193 0.04113024
v -0.08165808 -0.02198543 0.00130204
v -0.08135879 -0.02604329 0.00030762
v -0.07941587 -0.04237481 0.07172878
v -0.07944531 -0.04237481 0.07073437
v -0.07946493 -0.04237481 0.06971785
v -0.07949437 -0.04237481 0.06767746
v -0.07950418 -0.04237481 0.06665357
v -0.07939134 -0.04237481 0.00642881
v -0.07894976 -0.04339610 0.00438841
v -0.07800284 -0.04522260 0.00438841
v -0.07801265 -0.04522260 0.00541229
v -0.07890070 -0.04348481 0.00345292
v -0.07891542 -0.04331422 -0.00071626
v -0.07872898 -0.04391926 0.00438841
v -0.07793905 -0.04522260 0.00030762
v -0.07652602 -0.04522260 -0.00319125
v -0.07665359 -0.04489051 -0.00325754
v -0.07751711 -0.04368953 -0.00317652
v -0.07785565 -0.04441512 -0.00245465
v -0.07815984 -0.04329147 -0.00271246
v -0.07837572 -0.04237481 -0.00291134
v -0.07856707 -0.04135353 -0.00314705
v -0.07934227 -0.03931095 -0.00285241
v -0.07942568 -0.03829193 -0.00296290
v -0.07898902 -0.04135353 -0.00263880
v -0.07974950 -0.03984775 -0.00226313
v -0.07979856 -0.03931095 -0.00234415
v -0.08006351 -0.03522807 -0.00266090
v -0.08136860 -0.02400071 -0.00071626
v -0.08136370 -0.02298170 -0.00071626
v -0.08131463 -0.02198543 -0.00071626
v -0.08068662 -0.03319004 -0.00193902
v -0.08080437 -0.03319004 -0.00142340
v -0.08134898 -0.02502200 -0.00071626
v -0.08033336 -0.03931095 0.04521839
v -0.07984763 -0.04126027 0.06257279
v -0.08034317 -0.03931095 0.03908984
v -0.07982309 -0.04113289 0.07073437
v -0.07999973 -0.04035726 0.07172878
v -0.08053452 -0.03727064 0.00438841
v -0.08073568 -0.03448883 -0.00071626
v -0.08045602 -0.03727064 0.00030762
v -0.08033336 -0.03829193 0.00030762
v -0.08041186 -0.03829193 0.00541229
v -0.08023523 -0.03931095 0.00541229
v -0.08026957 -0.03931095 0.00846920
v -0.08027939 -0.03931095 0.00949308
v -0.08034317 -0.03931095 0.03806596
v -0.08050508 -0.03829193 0.03806596
v -0.08078475 -0.03389743 -0.00133501
v -0.08158448 -0.02198543 0.00030762
v -0.08129010 -0.02604329 -0.00071626
v -0.07966119 -0.04159918 0.07172878
v -0.07967591 -0.04164240 0.07073437
v -0.07968572 -0.04166287 0.06971785
v -0.07971516 -0.04176977 0.06257279
v -0.07966609 -0.04161738 0.00745269
v -0.07966119 -0.04161965 0.00642881
v -0.07934227 -0.04237481 0.00234801
v -0.07867991 -0.04382372 -0.00071626
v -0.07932755 -0.04237481 0.00132414
v -0.07930793 -0.04237481 0.00030762
v -0.07927358 -0.04237481 -0.00071626
v -0.07881729 -0.04310268 -0.00173277
v -0.07859160 -0.04361446 -0.00173277
v -0.07835609 -0.04441512 -0.00071626
v -0.07789980 -0.04522260 -0.00071626
v -0.07718838 -0.04522260 -0.00263880
v -0.07728160 -0.04522260 -0.00255777
v -0.07771336 -0.04495647 -0.00227049
v -0.07872407 -0.04289570 -0.00225576
v -0.07881729 -0.04237481 -0.00240308
v -0.07986235 -0.03829193 -0.00245465
v -0.07908224 -0.04237481 -0.00173277
v -0.07941096 -0.04135353 -0.00173277
v -0.07965628 -0.04058699 -0.00173277
v -0.07981328 -0.04007748 -0.00173277
v -0.07997029 -0.03931095 -0.00173277
v -0.08011257 -0.03829193 -0.00173277
v -0.08066699 -0.03422725 -0.00170331
v -0.08157957 -0.02198543 0.00027816
v -0.08008313 -0.04033224 0.04521839
v -0.07981819 -0.04108967 0.07172878
v -0.08039714 -0.03829193 0.00438841
v -0.08041186 -0.03727064 -0.00071626
v -0.08028429 -0.03829193 -0.00071626
v -0.08011748 -0.03931095 -0.00071626
v -0.08015673 -0.03931095 0.00030762
v -0.08017636 -0.03931095 0.00132414
v -0.08001444 -0.04033224 0.00541229
v -0.08022051 -0.03931095 0.00438841
v -0.08001935 -0.04033224 0.00642881
v -0.08006841 -0.04033224 0.02378320
v -0.08007332 -0.04033224 0.02787136
v -0.07982309 -0.04110787 0.00642881
v -0.07963666 -0.04149682 0.00132414
v -0.07817947 -0.04441512 -0.00173277
v -0.07961703 -0.04127846 -0.00074572
v -0.07973478 -0.04081672 -0.00109930
v -0.07961703 -0.04144906 0.00030762
v -0.07775752 -0.04522260 -0.00154125
v -0.07736501 -0.04522260 -0.00246938
v -0.07762995 -0.04522260 -0.00204951
v -0.07986725 -0.04041867 -0.00074572
v -0.07993104 -0.04033224 0.00030762
v -0.07995557 -0.04033224 0.00132414
v -0.07981819 -0.04107148 0.00541229
v -0.07978875 -0.04101006 0.00234801
v -0.07977894 -0.04098732 0.00132414
v -0.07976913 -0.04093728 0.00030762
v -0.07779677 -0.04509294 -0.00173277
v -0.07975441 -0.04088724 -0.00042161
v -0.07772317 -0.04522260 -0.00173277
f 1 2 6
f 1 6 15
f 1 15 14
f 1 14 13
f 1 13 29
f 1 29 50
f 1 50 80
f 1 80 119
f 1 119 118
f 1 118 117
f 1 117 166
f 1 166 210
f 1 210 180
f 1 180 130
f 1 130 88
f 1 88 59
f 1 59 35
f 1 35 17
f 1 17 7
f 1 7 3
f 1 3 8
f 1 8 4
f 1 4 12
f 1 12 28
f 1 28 48
f 1 48 76
f 1 76 109
f 1 109 110
f 1 110 158
f 1 158 208
f 1 208 178
f 1 178 128
f 1 128 87
f 1 87 58
f 1 58 33
f 1 33 16
f 1 16 5
f 1 5 2
f 2 5 6
f 3 7 18
f 3 18 37
f 3 37 63
f 3 63 94
f 3 94 138
f 3 138 137
f 3 137 142
f 3 142 194
f 3 194 228
f 3 228 240
f 3 240 230
f 3 230 229
f 3 229 196
f 3 196 195
f 3 195 143
f 3 143 95
f 3 95 64
f 3 64 38
f 3 38 19
f 3 19 8
f 4 8 9
f 4 9 10
f 4 10 11
f 4 11 12
f 5 13 14
f 5 14 15
f 5 15 6
f 5 16 13
f 7 17 18
f 8 19 20
f 8 20 21
f 8 21 22
f 8 22 23
f 8 23 9
f 9 23 24
f 9 24 10
f 10 24 25
f 10 25 26
f 10 26 11
f 11 26 27
f 11 27 12
f 12 27 28
f 13 16 30
f 13 30 31
f 13 31 32
f 13 32 29
f 16 33 34
f 16 34 30
f 17 35 36
f 17 36 18
f 18 36 37
f 19 38 20
f 20 38 39
f 20 39 40
f 20 40 41
f 20 41 42
f 20 42 21
f 21 42 43
f 21 43 22
f 22 43 23
f 23 43 24
f 24 43 44
f 24 44 25
f 25 44 26
f 26 44 27
f 27 44 45
f 27 45 46
f 27 46 47
f 27 47 28
f 28 47 48
f 29 49 50
f 29 32 49
f 30 51 31
f 30 34 51
f 31 51 32
f 32 51 52
f 32 52 53
f 32 53 54
f 32 54 55
f 32 55 56
f 32 56 49
f 33 57 34
f 33 58 57
f 34 57 51
f 35 59 36
f 36 59 60
f 36 60 61
f 36 61 62
f 36 62 37
f 37 62 63
f 38 64 39
f 39 64 65
f 39 65 66
f 39 66 67
f 39 67 40
f 40 67 68
f 40 68 69
f 40 69 70
f 40 70 41
f 41 71 42
f 41 70 71
f 42 71 43
f 43 72 44
f 43 71 72
f 44 72 45
f 45 73 74
f 45 74 75
f 45 75 46
f 45 72 73
f 46 75 47
f 47 75 48
f 48 75 76
f 49 77 78
f 49 78 50
f 49 56 79
f 49 79 77
f 50 78 80
f 51 81 82
f 51 82 52
f 51 57 83
f 51 83 84
f 51 84 81
f 52 82 81
f 52 81 85
f 52 85 54
f 52 54 53
f 54 86 56
f 54 56 55
f 54 85 86
f 56 86 79
f 57 58 83
f 58 87 83
f 59 88 60
f 60 88 89
f 60 89 90
f 60 90 61
f 61 90 91
f 61 91 62
f 62 91 92
f 62 92 93
f 62 93 63
f 63 93 94
f 64 95 65
f 65 95 96
f 65 96 66
f 66 96 97
f 66 97 67
f 67 69 68
f 67 97 98
f 67 98 99
f 67 99 69
f 69 99 100
f 69 100 101
f 69 101 70
f 70 102 71
f 70 101 103
f 70 103 102
f 71 102 103
f 71 103 72
f 72 103 73
f 73 104 105
f 73 105 74
f 73 103 106
f 73 106 107
f 73 107 108
f 73 108 104
f 74 109 75
f 74 105 110
f 74 110 109
f 75 109 76
f 77 111 112
f 77 112 113
f 77 113 114
f 77 114 115
f 77 115 116
f 77 116 117
f 77 117 118
f 77 118 119
f 77 119 80
f 77 80 78
f 77 79 120
f 77 120 111
f 79 86 120
f 81 84 121
f 81 121 122
f 81 122 123
f 81 123 85
f 83 87 124
f 83 124 84
f 84 124 125
f 84 125 121
f 85 126 86
f 85 123 126
f 86 127 120
f 86 126 127
f 87 128 129
f 87 129 124
f 88 130 131
f 88 131 89
f 89 131 132
f 89 132 133
f 89 133 134
f 89 134 90
f 90 134 135
f 90 135 91
f 91 135 186
f 91 186 136
f 91 136 92
f 92 137 138
f 92 138 93
f 92 136 139
f 92 139 140
f 92 140 141
f 92 141 142
f 92 142 137
f 93 138 94
f 95 143 144
f 95 144 96
f 96 144 145
f 96 145 146
f 96 146 147
f 96 147 148
f 96 148 149
f 96 149 97
f 97 150 151
f 97 151 98
f 97 149 152
f 97 152 153
f 97 153 154
f 97 154 150
f 98 151 99
f 99 151 100
f 100 151 155
f 100 155 101
f 101 155 107
f 101 107 103
f 103 107 106
f 104 156 157
f 104 157 158
f 104 158 105
f 104 108 159
f 104 159 160
f 104 160 161
f 104 161 156
f 105 158 110
f 107 155 159
f 107 159 108
f 111 120 162
f 111 162 112
f 112 163 113
f 112 162 164
f 112 164 163
f 113 163 114
f 114 163 115
f 115 165 116
f 115 163 165
f 116 165 166
f 116 166 117
f 120 127 164
f 120 164 162
f 121 125 122
f 122 167 123
f 122 125 168
f 122 168 169
f 122 169 170
f 122 170 167
f 123 167 171
f 123 171 172
f 123 172 173
f 123 173 174
f 123 174 175
f 123 175 176
f 123 176 126
f 124 129 177
f 124 177 125
f 125 177 168
f 126 176 127
f 127 176 175
f 127 175 164
f 128 178 161
f 128 161 129
f 129 161 179
f 129 179 177
f 130 180 131
f 131 181 132
f 131 180 181
f 132 181 182
f 132 182 133
f 133 182 134
f 134 182 183
f 134 183 135
f 135 184 185
f 135 185 186
f 135 183 184
f 136 186 140
f 136 140 139
f 140 187 141
f 140 186 188
f 140 188 189
f 140 189 190
f 140 190 191
f 140 191 192
f 140 192 187
f 141 187 142
f 142 187 193
f 142 193 194
f 143 145 144
f 143 195 145
f 145 195 196
f 145 196 146
f 146 196 197
f 146 197 198
f 146 198 147
f 147 198 199
f 147 199 148
f 148 199 149
f 149 199 152
f 150 154 151
f 151 154 200
f 151 200 155
f 152 199 153
f 153 199 198
f 153 198 201
f 153 201 202
f 153 202 203
f 153 203 204
f 153 204 205
f 153 205 206
f 153 206 154
f 154 206 207
f 154 207 159
f 154 159 200
f 155 200 159
f 156 161 208
f 156 208 157
f 157 208 158
f 159 207 177
f 159 177 160
f 160 177 161
f 161 178 208
f 161 177 179
f 163 183 165
f 163 164 175
f 163 175 209
f 163 209 183
f 165 182 181
f 165 181 210
f 165 210 166
f 165 183 182
f 167 211 171
f 167 170 211
f 168 177 169
f 169 177 212
f 169 212 170
f 170 212 213
f 170 213 214
f 170 214 215
f 170 215 216
f 170 216 211
f 171 211 218
f 171 218 172
f 172 217 173
f 172 218 217
f 173 217 174
f 174 217 219
f 174 219 220
f 174 220 175
f 175 220 221
f 175 221 209
f 177 207 206
f 177 206 213
f 177 213 212
f 180 210 181
f 183 209 221
f 183 221 220
f 183 220 222
f 183 222 184
f 184 222 185
f 185 222 223
f 185 223 186
f 186 223 188
f 187 192 224
f 187 224 193
f 188 223 189
f 189 223 190
f 190 225 226
f 190 226 201
f 190 201 191
f 190 223 227
f 190 227 225
f 191 201 198
f 191 198 192
f 192 198 197
f 192 197 224
f 193 224 228
f 193 228 194
f 196 229 197
f 197 229 230
f 197 230 224
f 201 226 202
f 202 226 203
f 203 226 204
f 204 226 214
f 204 214 205
f 205 214 213
f 205 213 206
f 211 216 218
f 214 226 231
f 214 231 232
f 214 232 215
f 215 232 233
f 215 233 216
f 216 233 218
f 217 234 222
f 217 222 219
f 217 218 233
f 217 233 234
f 219 222 220
f 222 234 223
f 223 235 236
f 223 236 237
f 223 237 227
f 223 234 235
f 224 230 238
f 224 238 228
f 225 227 239
f 225 239 226
f 226 239 231
f 227 237 239
f 228 238 240
f 230 240 238
f 231 239 232
f 232 239 237
f 232 237 233
f 233 237 236
f 233 236 235
f 233 235 234

