# https://github.com/mikedh/trimesh
v -0.03457996 -0.05287312 0.07172878
v -0.03457996 -0.05528114 0.07713044
v -0.03457996 -0.05142358 0.07172878
v -0.03230270 -0.05275276 0.07172878
v 0.00039254 -0.05374084 0.07686464
v -0.00063201 -0.05378882 0.07686464
v -0.03023208 -0.05520197 0.07725964
v -0.03125232 -0.05522236 0.07722426
v -0.03457996 -0.05550827 0.07788589
v -0.03457996 -0.05142358 0.07667537
v -0.00884134 -0.05142358 0.07172878
v -0.03227257 -0.05275116 0.07172878
v 0.00141279 -0.05365847 0.07686464
v -0.00063201 -0.05408753 0.07762749
v -0.03457996 -0.05550547 0.07864215
v 0.00048725 -0.05408233 0.07788589
v 0.00021173 -0.05413631 0.07822657
v 0.00021173 -0.05413631 0.07848415
v -0.03457996 -0.05312624 0.07936303
v -0.03380079 -0.05309505 0.07941734
v -0.03312062 -0.05307066 0.07944697
v -0.02920753 -0.05292870 0.07959592
v -0.01720994 -0.05208177 0.07938607
v 0.00464141 -0.05142358 0.07985020
v -0.00063201 -0.05142358 0.07305122
v -0.00037372 -0.05142358 0.07309319
v 0.00141279 -0.05203499 0.07437530
v 0.00243303 -0.05196221 0.07449462
v 0.00220918 -0.05316302 0.07629106
v 0.00250191 -0.05342294 0.07677082
v 0.00345328 -0.05334137 0.07695763
v 0.00243303 -0.05384920 0.07788589
v 0.00141279 -0.05400915 0.07788589
v -0.03457996 -0.05550027 0.07890631
v 0.00141279 -0.05395317 0.07890631
v 0.00048725 -0.05401555 0.07885693
v -0.03457996 -0.05325819 0.07948729
v -0.03457996 -0.05363607 0.07982798
v -0.02920753 -0.05360488 0.08000985
v 0.00562292 -0.05142358 0.07989464
v -0.01652978 -0.05207217 0.07941981
v 0.00086607 -0.05142358 0.07336640
v 0.00243303 -0.05142358 0.07376716
v 0.00248899 -0.05142358 0.07378280
v 0.00345328 -0.05142358 0.07406506
v 0.00345328 -0.05186144 0.07465756
v 0.00345328 -0.05303626 0.07644742
v 0.00447353 -0.05290831 0.07668030
v 0.00447353 -0.05319062 0.07719052
v 0.00345328 -0.05361448 0.07788589
v 0.00243303 -0.05380602 0.07890631
v -0.03457996 -0.05533553 0.07943051
v 0.00243303 -0.05341094 0.07969220
v 0.00141279 -0.05347133 0.07969549
v -0.01696026 -0.05435944 0.07973417
v -0.03431306 -0.05526635 0.07961320
v -0.03329282 -0.05523596 0.07957123
v -0.03457996 -0.05388799 0.07988641
v -0.03457996 -0.05462575 0.08003207
v -0.01798051 -0.05360488 0.08012506
v 0.00549377 -0.05156354 0.07992509
v 0.00665608 -0.05142358 0.07988641
v 0.00445631 -0.05142358 0.07441562
v 0.00442617 -0.05175788 0.07489456
v 0.00533449 -0.05142358 0.07477442
v 0.00552390 -0.05142358 0.07486905
v 0.00753857 -0.05217054 0.07722014
v 0.00500733 -0.05310224 0.07735839
v 0.00345328 -0.05354530 0.07890631
v 0.00447353 -0.05332777 0.07788589
v 0.00512356 -0.05313823 0.07858866
v 0.00417649 -0.05315583 0.07949223
v 0.00345328 -0.05327219 0.07960744
v -0.03457996 -0.05527315 0.07962143
v 0.00243303 -0.05258441 0.07998434
v -0.01594002 -0.05360488 0.08011353
v 0.00345328 -0.05258441 0.07993743
v -0.03431306 -0.05462575 0.08002877
v -0.03457996 -0.05479810 0.07992920
v -0.01696026 -0.05360488 0.08013493
v 0.00651402 -0.05156354 0.07988970
v 0.00775381 -0.05142358 0.07973746
v 0.00570471 -0.05142358 0.07497274
v 0.00648819 -0.05142358 0.07543193
v 0.00804654 -0.05207417 0.07737485
v 0.00651402 -0.05266638 0.07788589
v 0.00561431 -0.05296789 0.07788589
v 0.00510634 -0.05313303 0.07788589
v 0.00449936 -0.05324100 0.07892030
v 0.00485665 -0.05304426 0.07926922
v 0.00808098 -0.05208737 0.07847921
v 0.00651402 -0.05260520 0.07890631
v 0.00724584 -0.05216454 0.07950128
v 0.00651402 -0.05228531 0.07959921
v 0.00756870 -0.05162832 0.07970125
v 0.00828761 -0.05142358 0.07965352
v 0.00749122 -0.05142358 0.07608780
v 0.00804654 -0.05142358 0.07645482
v 0.00848994 -0.05153315 0.07690661
v 0.00879128 -0.05142358 0.07698149
v 0.00939826 -0.05142358 0.07792209
v 0.00858464 -0.05185265 0.07788589
v 0.00807237 -0.05208417 0.07788589
v 0.00753857 -0.05229330 0.07788589
v 0.00931647 -0.05142358 0.07857385
v 0.00926911 -0.05142358 0.07884294
v 0.00847702 -0.05182505 0.07885446
v 0.00792600 -0.05201219 0.07915977
v 0.00756870 -0.05222692 0.07885446
v 0.00895917 -0.05142358 0.07926346
v 0.00848563 -0.05142358 0.07958193
v 0.00850285 -0.05142358 0.07676095
v 0.00857603 -0.05142358 0.07681279
f 1 2 9
f 1 9 15
f 1 15 34
f 1 34 52
f 1 52 74
f 1 74 79
f 1 79 59
f 1 59 58
f 1 58 38
f 1 38 37
f 1 37 19
f 1 19 10
f 1 10 3
f 1 3 11
f 1 11 12
f 1 12 4
f 1 4 5
f 1 5 6
f 1 6 7
f 1 7 8
f 1 8 2
f 2 8 9
f 3 10 24
f 3 24 40
f 3 40 62
f 3 62 82
f 3 82 96
f 3 96 111
f 3 111 110
f 3 110 106
f 3 106 105
f 3 105 101
f 3 101 100
f 3 100 113
f 3 113 112
f 3 112 98
f 3 98 97
f 3 97 84
f 3 84 83
f 3 83 66
f 3 66 65
f 3 65 63
f 3 63 45
f 3 45 44
f 3 44 43
f 3 43 42
f 3 42 26
f 3 26 25
f 3 25 11
f 4 12 5
f 5 11 13
f 5 13 14
f 5 14 6
f 5 12 11
f 6 14 7
f 7 9 8
f 7 14 9
f 9 14 16
f 9 16 17
f 9 17 18
f 9 18 15
f 10 19 20
f 10 20 21
f 10 21 22
f 10 22 23
f 10 23 24
f 11 25 13
f 13 25 26
f 13 26 27
f 13 27 28
f 13 28 29
f 13 29 30
f 13 30 31
f 13 31 32
f 13 32 33
f 13 33 14
f 14 33 16
f 15 18 34
f 16 33 17
f 17 33 18
f 18 33 35
f 18 35 36
f 18 36 34
f 19 37 20
f 20 37 38
f 20 38 21
f 21 38 22
f 22 38 39
f 22 39 40
f 22 40 24
f 22 24 41
f 22 41 23
f 23 41 24
f 26 42 27
f 27 42 28
f 28 42 43
f 28 43 44
f 28 44 45
f 28 45 46
f 28 46 47
f 28 47 30
f 28 30 29
f 30 47 31
f 31 47 48
f 31 48 49
f 31 49 32
f 32 49 50
f 32 50 51
f 32 51 33
f 33 51 35
f 34 36 52
f 35 51 53
f 35 53 54
f 35 54 55
f 35 55 56
f 35 56 36
f 36 56 57
f 36 57 52
f 38 58 39
f 39 58 59
f 39 59 60
f 39 60 61
f 39 61 40
f 40 61 62
f 45 63 46
f 46 63 64
f 46 64 47
f 47 64 48
f 48 64 65
f 48 65 66
f 48 66 67
f 48 67 49
f 49 67 68
f 49 68 50
f 50 69 51
f 50 68 70
f 50 70 71
f 50 71 69
f 51 69 72
f 51 72 73
f 51 73 53
f 52 57 56
f 52 56 74
f 53 75 76
f 53 76 54
f 53 73 77
f 53 77 75
f 54 76 55
f 55 76 78
f 55 78 79
f 55 79 74
f 55 74 56
f 59 79 78
f 59 78 80
f 59 80 60
f 60 80 61
f 61 75 81
f 61 81 62
f 61 80 75
f 62 81 82
f 63 65 64
f 66 83 67
f 67 83 84
f 67 84 85
f 67 85 68
f 68 86 87
f 68 87 88
f 68 88 70
f 68 85 86
f 69 71 89
f 69 89 90
f 69 90 72
f 70 88 71
f 71 90 89
f 71 88 87
f 71 87 86
f 71 86 91
f 71 91 92
f 71 92 90
f 72 90 93
f 72 93 73
f 73 93 94
f 73 94 77
f 75 80 76
f 75 77 81
f 76 80 78
f 77 94 81
f 81 94 95
f 81 95 96
f 81 96 82
f 84 97 85
f 85 97 98
f 85 98 99
f 85 99 100
f 85 100 101
f 85 101 102
f 85 102 103
f 85 103 104
f 85 104 86
f 86 104 91
f 90 92 93
f 91 103 102
f 91 102 101
f 91 101 105
f 91 105 106
f 91 106 107
f 91 107 108
f 91 108 109
f 91 109 92
f 91 104 103
f 92 109 108
f 92 108 93
f 93 108 110
f 93 110 111
f 93 111 96
f 93 96 94
f 94 96 95
f 98 112 99
f 99 112 113
f 99 113 100
f 106 110 108
f 106 108 107

