# https://github.com/mikedh/trimesh
v -0.03457996 -0.00331903 0.07172963
v -0.03457996 -0.00331903 0.07650407
v -0.03457996 -0.00023943 0.07172963
v -0.00705303 -0.00331903 0.07172963
v -0.03457996 -0.00012007 0.07958608
v -0.00705303 -0.00331903 0.07660728
v -0.03457996 0.00210829 0.07727947
v -0.03431321 0.00212125 0.07726412
v -0.03428088 -0.00021829 0.07172963
v -0.00705303 0.00112746 0.07172963
v -0.02963018 0.00100605 0.08044082
v -0.03457996 0.00033283 0.07995118
v -0.00705303 0.00152034 0.07989573
v -0.03457996 0.00224539 0.07788598
v -0.03431321 0.00226449 0.07788598
v -0.03329469 -0.00015076 0.07172963
v -0.01900310 0.00301410 0.07764799
v -0.01798458 0.00302978 0.07748591
v -0.01665081 0.00306321 0.07735880
v -0.00705303 0.00331762 0.07703636
v -0.01900310 0.00056474 0.07172963
v -0.01492095 0.00311641 0.07728715
v -0.01389973 0.00314164 0.07725047
v -0.02963018 0.00102583 0.08044082
v -0.03023105 0.00100195 0.08044338
v -0.01083879 0.00152034 0.08003648
v -0.00705303 0.00224130 0.08016699
v -0.00705303 0.00254141 0.08025827
v -0.03457996 0.00052177 0.08009704
v -0.03457996 0.00225971 0.07814957
v -0.02920984 0.00252641 0.07788598
v -0.01900310 0.00308571 0.07815895
v -0.01798458 0.00311504 0.07799688
v -0.00705303 0.00364843 0.07788598
v -0.01594216 0.00308503 0.07732895
v -0.03023105 0.00103879 0.08044338
v -0.03125227 0.00100400 0.08044167
v -0.00705303 0.00308230 0.07993582
v -0.01083879 0.00254141 0.08019770
v -0.02818863 0.00152034 0.08032566
v -0.03125227 0.00103060 0.08044167
v -0.03457996 0.00128297 0.08014311
v -0.03182889 0.00100809 0.08043911
v -0.03457996 0.00228290 0.07890706
v -0.01958511 0.00305843 0.07832188
v -0.00705303 0.00364229 0.07818625
v -0.01958511 0.00305843 0.07843192
v -0.01900310 0.00308571 0.07851893
v -0.00705303 0.00329579 0.07980531
v -0.02716742 0.00230950 0.07987270
v -0.03125227 0.00154080 0.08025059
v -0.03023105 0.00154898 0.08027021
v -0.03182889 0.00101491 0.08043911
v -0.03457996 0.00149851 0.08013970
v -0.03457996 0.00225221 0.07908620
v -0.02818863 0.00261712 0.07890706
v -0.00705303 0.00362660 0.07890706
v -0.00705303 0.00353793 0.07915786
v -0.01083879 0.00322213 0.07969782
v -0.02818863 0.00228154 0.07985052
v -0.03457996 0.00196914 0.07977375
v -0.03457996 0.00214581 0.07962873
v -0.03431321 0.00215194 0.07963811
f 1 2 5
f 1 5 12
f 1 12 29
f 1 29 42
f 1 42 54
f 1 54 61
f 1 61 62
f 1 62 55
f 1 55 44
f 1 44 30
f 1 30 14
f 1 14 7
f 1 7 3
f 1 3 9
f 1 9 16
f 1 16 21
f 1 21 10
f 1 10 4
f 1 4 6
f 1 6 2
f 2 6 5
f 3 7 8
f 3 8 9
f 4 10 20
f 4 20 34
f 4 34 46
f 4 46 57
f 4 57 58
f 4 58 49
f 4 49 38
f 4 38 28
f 4 28 27
f 4 27 13
f 4 13 6
f 5 11 12
f 5 6 11
f 6 13 11
f 7 14 15
f 7 15 8
f 8 16 9
f 8 15 17
f 8 17 18
f 8 18 19
f 8 19 16
f 10 21 22
f 10 22 23
f 10 23 20
f 11 24 36
f 11 36 25
f 11 25 12
f 11 13 26
f 11 26 27
f 11 27 28
f 11 28 24
f 12 25 29
f 13 27 26
f 14 30 15
f 15 31 17
f 15 30 32
f 15 32 31
f 16 19 21
f 17 33 34
f 17 34 18
f 17 31 33
f 18 34 19
f 19 34 35
f 19 35 21
f 20 23 34
f 21 35 22
f 22 35 34
f 22 34 23
f 24 28 36
f 25 36 41
f 25 41 37
f 25 37 29
f 28 38 39
f 28 39 40
f 28 40 41
f 28 41 36
f 29 37 43
f 29 43 42
f 30 44 32
f 31 32 33
f 32 45 34
f 32 34 33
f 32 44 45
f 34 45 47
f 34 47 48
f 34 48 46
f 37 41 53
f 37 53 43
f 38 49 39
f 39 49 50
f 39 50 51
f 39 51 52
f 39 52 40
f 40 52 53
f 40 53 41
f 42 43 53
f 42 53 54
f 44 55 56
f 44 56 45
f 45 56 47
f 46 48 57
f 47 56 48
f 48 56 57
f 49 58 59
f 49 59 50
f 50 60 51
f 50 59 60
f 51 54 53
f 51 53 52
f 51 60 54
f 54 60 61
f 55 62 56
f 56 62 57
f 57 59 58
f 57 62 59
f 59 62 63
f 59 63 60
f 60 63 61
f 61 63 62

