# https://github.com/mikedh/trimesh
v -0.06966747 -0.00298209 0.07172878
v -0.07671318 -0.00298209 0.07726827
v -0.07485948 -0.00193995 0.07723309
v -0.07276941 -0.00095759 0.07726484
v -0.07048857 -0.00002678 0.07744328
v -0.06899152 -0.00278263 0.07172878
v -0.03457996 -0.00298209 0.07172878
v -0.07680026 -0.00298209 0.07743299
v -0.07553958 -0.00211570 0.07762172
v -0.07344951 -0.00110294 0.07763631
v -0.07208516 -0.00046539 0.07788596
v -0.07107744 -0.00012677 0.07782505
v -0.07074154 0.00004950 0.07812446
v -0.07010705 0.00014794 0.07782505
v -0.06902055 0.00039172 0.07788596
v -0.06800039 0.00060046 0.07788596
v -0.06980847 0.00005414 0.07727341
v -0.06800039 -0.00249142 0.07172878
v -0.03457996 -0.00024016 0.07172878
v -0.03457996 -0.00298209 0.07652018
v -0.07694541 -0.00298209 0.07788596
v -0.07687076 -0.00292075 0.07788596
v -0.07608698 -0.00237701 0.07793143
v -0.07569302 -0.00203014 0.07830204
v -0.07517880 -0.00185748 0.07793143
v -0.07405082 -0.00130085 0.07794001
v -0.07365686 -0.00100965 0.07831663
v -0.07310946 -0.00086740 0.07794001
v -0.07077886 0.00006341 0.07890687
v -0.07004485 0.00025102 0.07890687
v -0.06648260 0.00101278 0.07838355
v -0.07208516 -0.00039014 0.07890687
v -0.07128894 -0.00010821 0.07890687
v -0.06688486 0.00084785 0.07798033
v -0.06596008 0.00091949 0.07775470
v -0.06902055 0.00014382 0.07715331
v -0.06698024 -0.00225949 0.07172878
v -0.06797136 -0.00248421 0.07172878
v -0.03457996 0.00210852 0.07727942
v -0.05470106 -0.00124725 0.07172878
v -0.06493993 0.00094063 0.07766634
v -0.06047779 0.00101690 0.07736607
v -0.03457996 -0.00012110 0.07958632
v -0.07457334 -0.00298209 0.08035586
v -0.07691223 -0.00298209 0.07890687
v -0.07685002 -0.00292848 0.07890687
v -0.07569302 -0.00203014 0.07856885
v -0.07416693 -0.00125550 0.07890687
v -0.07365686 -0.00101223 0.07890687
v -0.07310531 -0.00078390 0.07890687
v -0.07066275 0.00002734 0.07949024
v -0.06902055 0.00046027 0.07890687
v -0.06648260 0.00101278 0.07841014
v -0.06596008 0.00103752 0.07826515
v -0.07362783 -0.00102717 0.07942418
v -0.06593520 -0.00212858 0.07172878
v -0.06596008 -0.00213168 0.07172878
v -0.06800039 0.00025463 0.07704092
v -0.05473424 -0.00124931 0.07172878
v -0.05575439 -0.00132404 0.07172878
v -0.06391977 -0.00193325 0.07172878
v -0.06479893 -0.00201210 0.07172878
v -0.03457996 0.00224562 0.07788596
v -0.03457996 0.00033297 0.07995093
v -0.03839932 0.00033503 0.08026321
v -0.07310531 -0.00225898 0.08048369
v -0.07548982 -0.00298209 0.08037045
v -0.03570379 0.00098546 0.08044680
v -0.03839932 0.00084579 0.08049313
v -0.07678367 -0.00298209 0.07928434
v -0.07671732 -0.00298209 0.07947051
v -0.07561838 -0.00207756 0.07924917
v -0.07608698 -0.00236051 0.07890858
v -0.07522856 -0.00181006 0.07890858
v -0.07004485 0.00010156 0.07961978
v -0.06800039 0.00065612 0.07890687
v -0.07310531 -0.00093337 0.07957603
v -0.07199392 -0.00079627 0.07994836
v -0.07159167 -0.00102511 0.08044166
v -0.06688486 0.00087517 0.07881335
v -0.06596008 0.00094836 0.07906386
v -0.06596008 0.00103752 0.07855341
v -0.03457996 0.00228273 0.07890687
v -0.03457996 0.00226005 0.07815020
v -0.07493827 -0.00186109 0.07966611
v -0.07401764 -0.00159308 0.07988573
v -0.03457996 0.00052212 0.08009678
v -0.07310531 -0.00193995 0.08048369
v -0.07373150 -0.00224352 0.08046568
v -0.07558520 -0.00298209 0.08037045
v -0.03457996 0.00128285 0.08014311
v -0.03570379 0.00103546 0.08044680
v -0.03737917 0.00090300 0.08047683
v -0.03839932 0.00112256 0.08049313
v -0.07662609 -0.00298209 0.07956488
v -0.06902055 0.00021236 0.07976563
v -0.07106500 -0.00098800 0.08045882
v -0.06547074 -0.00000771 0.08043908
v -0.06800039 0.00031029 0.07983855
v -0.07373150 -0.00200489 0.08046568
v -0.06342214 0.00101175 0.07942075
v -0.03891355 0.00203121 0.07941732
v -0.03457996 0.00225232 0.07908703
v -0.07606625 -0.00284551 0.07987372
v -0.07582158 -0.00298209 0.08021689
v -0.07004485 -0.00094110 0.08046997
v -0.03457996 0.00149829 0.08014053
v -0.03737917 0.00110040 0.08047683
v -0.03457996 0.00196936 0.07977335
v -0.03457996 0.00214615 0.07962836
v -0.04656885 0.00103752 0.08045882
v -0.04554870 0.00104577 0.08046396
v -0.05881485 0.00113287 0.07963523
v -0.06587299 0.00034998 0.08001442
v -0.06698024 0.00038399 0.07987458
v -0.04724481 0.00101794 0.08044423
v -0.03533886 0.00212811 0.07960177
f 1 2 3
f 1 3 4
f 1 4 5
f 1 5 6
f 1 6 18
f 1 18 38
f 1 38 37
f 1 37 57
f 1 57 56
f 1 56 62
f 1 62 61
f 1 61 60
f 1 60 59
f 1 59 40
f 1 40 19
f 1 19 7
f 1 7 20
f 1 20 44
f 1 44 67
f 1 67 90
f 1 90 105
f 1 105 95
f 1 95 71
f 1 71 70
f 1 70 45
f 1 45 21
f 1 21 8
f 1 8 2
f 2 8 9
f 2 9 3
f 3 9 10
f 3 10 4
f 4 10 11
f 4 11 5
f 5 11 12
f 5 12 13
f 5 13 14
f 5 14 15
f 5 15 16
f 5 16 17
f 5 17 18
f 5 18 6
f 7 19 39
f 7 39 63
f 7 63 84
f 7 84 83
f 7 83 103
f 7 103 110
f 7 110 109
f 7 109 107
f 7 107 91
f 7 91 87
f 7 87 64
f 7 64 43
f 7 43 20
f 8 21 22
f 8 22 23
f 8 23 9
f 9 23 24
f 9 24 25
f 9 25 26
f 9 26 10
f 10 26 27
f 10 27 28
f 10 28 11
f 11 13 12
f 11 28 27
f 11 27 13
f 13 29 30
f 13 30 31
f 13 31 14
f 13 27 32
f 13 32 33
f 13 33 29
f 14 31 15
f 15 31 16
f 16 31 34
f 16 34 17
f 17 34 35
f 17 35 36
f 17 36 37
f 17 37 38
f 17 38 18
f 19 40 41
f 19 41 42
f 19 42 39
f 20 43 44
f 21 45 46
f 21 46 22
f 22 46 47
f 22 47 24
f 22 24 23
f 24 47 48
f 24 48 27
f 24 27 25
f 25 27 26
f 27 49 50
f 27 50 32
f 27 48 49
f 29 51 30
f 29 33 51
f 30 51 52
f 30 52 53
f 30 53 31
f 31 53 82
f 31 82 54
f 31 54 35
f 31 35 34
f 32 51 33
f 32 50 55
f 32 55 51
f 35 56 57
f 35 57 37
f 35 37 58
f 35 58 36
f 35 54 39
f 35 39 41
f 35 41 40
f 35 40 59
f 35 59 60
f 35 60 61
f 35 61 62
f 35 62 56
f 36 58 37
f 39 42 41
f 39 54 63
f 43 64 65
f 43 65 44
f 44 66 67
f 44 65 68
f 44 68 69
f 44 69 66
f 45 70 46
f 46 70 71
f 46 71 72
f 46 72 73
f 46 73 47
f 47 72 74
f 47 74 48
f 47 73 72
f 48 55 49
f 48 74 55
f 49 55 50
f 51 75 76
f 51 76 52
f 51 55 77
f 51 77 78
f 51 78 79
f 51 79 75
f 52 76 53
f 53 76 80
f 53 80 81
f 53 81 82
f 54 82 83
f 54 83 84
f 54 84 63
f 55 74 72
f 55 72 85
f 55 85 86
f 55 86 79
f 55 79 77
f 64 87 65
f 65 87 68
f 66 88 100
f 66 100 89
f 66 89 90
f 66 90 67
f 66 69 94
f 66 94 88
f 68 87 91
f 68 91 92
f 68 92 108
f 68 108 93
f 68 93 69
f 69 93 108
f 69 108 94
f 71 95 85
f 71 85 72
f 75 79 96
f 75 96 81
f 75 81 80
f 75 80 76
f 77 79 78
f 79 97 98
f 79 98 99
f 79 99 96
f 79 86 100
f 79 100 97
f 81 96 99
f 81 99 101
f 81 101 82
f 82 101 102
f 82 102 83
f 83 102 103
f 85 95 104
f 85 104 105
f 85 105 90
f 85 90 100
f 85 100 86
f 88 106 97
f 88 97 100
f 88 94 106
f 89 100 90
f 91 107 92
f 92 107 108
f 94 108 107
f 94 107 109
f 94 109 110
f 94 110 111
f 94 111 112
f 94 112 98
f 94 98 106
f 95 105 104
f 97 106 98
f 98 113 114
f 98 114 115
f 98 115 99
f 98 112 111
f 98 111 116
f 98 116 113
f 99 115 101
f 101 115 114
f 101 114 113
f 101 113 117
f 101 117 102
f 102 117 103
f 103 117 110
f 110 117 113
f 110 113 111
f 111 113 116

