# https://github.com/mikedh/trimesh
v -0.00164720 0.00400329 0.07788650
v -0.00164720 0.00377608 0.07722739
v -0.00201016 0.00376891 0.07722739
v -0.00266916 0.00398250 0.07788650
v -0.00266916 0.00394021 0.07890690
v -0.00164720 0.00392875 0.07890690
v -0.00062727 0.00396673 0.07788650
v -0.00062727 0.00373164 0.07722739
v -0.00303008 0.00371515 0.07722739
v -0.00368909 0.00393018 0.07788650
v -0.00368909 0.00388001 0.07890690
v -0.00675090 0.00330804 0.07982407
v -0.00573097 0.00334388 0.07987538
v -0.00368909 0.00342200 0.07990392
v -0.00266916 0.00345641 0.07990574
v -0.00164720 0.00344494 0.07989663
v -0.00062727 0.00340337 0.07985231
v -0.00062727 0.00386066 0.07890690
v 0.00039469 0.00375386 0.07890690
v 0.00039469 0.00384202 0.07788650
v 0.00109830 0.00348006 0.07722739
v -0.00471104 0.00386495 0.07788650
v -0.00705100 0.00338760 0.07722739
v -0.00573097 0.00373451 0.07890690
v -0.00705100 0.00329586 0.07980586
v -0.00705100 0.00308227 0.07993610
v -0.00705100 0.00254112 0.08025883
v -0.00675090 0.00254112 0.08028129
v -0.00573097 0.00254112 0.08032532
v -0.00471104 0.00337756 0.07989754
v -0.00471104 0.00254112 0.08032866
v -0.00368909 0.00254112 0.08031803
v -0.00266916 0.00254112 0.08029374
v -0.00164720 0.00254112 0.08026217
v -0.00062727 0.00254112 0.08021906
v 0.00039469 0.00254112 0.08015712
v 0.00141462 0.00254112 0.08008851
v 0.00039469 0.00334531 0.07978612
v 0.00141462 0.00326217 0.07970354
v 0.00243657 0.00316182 0.07957937
v 0.00310571 0.00309087 0.07947736
v 0.00141462 0.00357180 0.07890690
v 0.00400398 0.00306291 0.07847063
v 0.00141462 0.00362700 0.07788650
v 0.00397965 0.00305575 0.07736704
v 0.00345448 0.00310878 0.07724803
v 0.00334498 0.00311953 0.07722739
v -0.00573097 0.00377393 0.07788650
v -0.00705100 0.00362700 0.07890690
v -0.00705100 0.00031704 0.07722739
v -0.00705100 0.00364850 0.07788650
v -0.00705100 0.00353812 0.07915858
v -0.00705100 0.00224152 0.08016775
v 0.01162203 -0.00331903 0.08003386
v 0.00958014 -0.00154149 0.08012160
v 0.00855818 -0.00052012 0.08013101
v 0.00447643 0.00152046 0.08015743
v 0.00549636 0.00152046 0.08009306
v 0.00243657 0.00254112 0.07998407
v 0.00447643 0.00239920 0.07981709
v 0.00378296 0.00300844 0.07915069
v 0.00243657 0.00335176 0.07890690
v 0.00549636 0.00222647 0.07966651
v 0.00616145 0.00209745 0.07951835
v 0.00344839 0.00313602 0.07884922
v 0.00439735 0.00288587 0.07884922
v 0.00549636 0.00253395 0.07890690
v 0.00706174 0.00204943 0.07846486
v 0.00549636 0.00260132 0.07788650
v 0.00451699 0.00291956 0.07788650
v 0.00400601 0.00306291 0.07788650
v 0.00345448 0.00318476 0.07788650
v 0.00411956 0.00292960 0.07722739
v 0.00345448 0.00309803 0.07722739
v 0.00690967 0.00197775 0.07762480
v 0.00620808 0.00214547 0.07722739
v 0.00837772 -0.00331903 0.07722739
v 0.00854399 -0.00331903 0.07746420
v 0.01025334 -0.00331903 0.07956237
v -0.00705100 0.00099007 0.07944275
v -0.00705100 0.00152046 0.07989572
v 0.01064468 -0.00331903 0.07975425
v 0.01261560 -0.00331903 0.07989846
v 0.01162203 -0.00256214 0.07999955
v -0.00705100 0.00136206 0.07976548
v 0.00753825 0.00049981 0.08008851
v 0.00650818 0.00157351 0.07981922
v 0.00753825 0.00126530 0.07969656
v 0.00684275 0.00194908 0.07914523
v 0.00650818 0.00217558 0.07884557
v 0.00819117 0.00109185 0.07952442
v 0.00706174 0.00204943 0.07830547
v 0.00745715 0.00172187 0.07884557
v 0.00836150 0.00119506 0.07890690
v 0.00887247 0.00088542 0.07890690
v 0.00893939 0.00093416 0.07788650
v 0.00654874 0.00219564 0.07793356
v 0.00745715 0.00176703 0.07793356
v 0.00821753 0.00118646 0.07722739
v 0.00626283 0.00212397 0.07722739
v 0.01347737 -0.00331903 0.07722739
v 0.01330298 -0.00331903 0.07955023
v 0.01254463 -0.00264314 0.07959820
v 0.01039933 -0.00073085 0.07966651
v 0.00965314 -0.00044271 0.07986263
v 0.00854196 0.00052562 0.07977853
v 0.00935912 0.00020308 0.07962309
v 0.01004042 -0.00005065 0.07932405
v 0.00842841 0.00123018 0.07788650
v 0.00965314 0.00034858 0.07895305
v 0.01020061 0.00007550 0.07864368
v 0.00958014 0.00052562 0.07788650
v 0.01015803 0.00004038 0.07726716
v 0.00833514 0.00112124 0.07722739
v 0.00829256 0.00114561 0.07722739
v 0.01326243 -0.00297141 0.07722739
v 0.01361930 -0.00331903 0.07764848
v 0.01356861 -0.00331903 0.07891995
v 0.01318741 -0.00303735 0.07946067
v 0.01213909 -0.00204465 0.07942636
v 0.01126921 -0.00088710 0.07868315
v 0.01073390 -0.00032445 0.07788650
v 0.01022292 0.00009127 0.07788650
v 0.01133004 -0.00083478 0.07788650
v 0.01125299 -0.00090717 0.07722739
v 0.01120838 -0.00086918 0.07722739
v 0.01019859 -0.00001911 0.07722739
v 0.01008909 0.00005830 0.07722739
v 0.01325838 -0.00296568 0.07722739
v 0.01366189 -0.00331903 0.07788650
v 0.01360917 -0.00331903 0.07847913
v 0.01330907 -0.00288612 0.07788650
v 0.01326446 -0.00294704 0.07890690
v 0.01275956 -0.00243671 0.07890690
v 0.01225061 -0.00192639 0.07890690
v 0.01236214 -0.00181099 0.07788650
v 0.01184102 -0.00130066 0.07788650
v 0.01129151 -0.00094229 0.07722739
v 0.01324824 -0.00295349 0.07722739
v 0.01323607 -0.00293916 0.07722739
v 0.01287311 -0.00237507 0.07788650
v 0.01235605 -0.00194646 0.07722739
v 0.01229725 -0.00188195 0.07722739
v 0.01223845 -0.00182246 0.07722739
f 1 2 3
f 1 3 4
f 1 4 5
f 1 5 6
f 1 6 7
f 1 7 2
f 2 7 8
f 2 8 21
f 2 21 47
f 2 47 74
f 2 74 73
f 2 73 76
f 2 76 100
f 2 100 99
f 2 99 115
f 2 115 114
f 2 114 128
f 2 128 127
f 2 127 126
f 2 126 125
f 2 125 138
f 2 138 144
f 2 144 143
f 2 143 142
f 2 142 140
f 2 140 139
f 2 139 129
f 2 129 116
f 2 116 101
f 2 101 77
f 2 77 50
f 2 50 23
f 2 23 9
f 2 9 3
f 3 9 10
f 3 10 4
f 4 10 5
f 5 10 11
f 5 11 12
f 5 12 13
f 5 13 14
f 5 14 15
f 5 15 6
f 6 15 16
f 6 16 17
f 6 17 18
f 6 18 7
f 7 18 19
f 7 19 20
f 7 20 8
f 8 20 21
f 9 22 10
f 9 23 22
f 10 22 11
f 11 22 24
f 11 24 25
f 11 25 12
f 12 25 26
f 12 26 27
f 12 27 28
f 12 28 13
f 13 28 29
f 13 29 30
f 13 30 14
f 14 30 29
f 14 29 15
f 15 29 31
f 15 31 32
f 15 32 16
f 16 32 33
f 16 33 34
f 16 34 35
f 16 35 36
f 16 36 17
f 17 36 37
f 17 37 38
f 17 38 18
f 18 38 19
f 19 38 39
f 19 39 40
f 19 40 41
f 19 41 42
f 19 42 20
f 20 42 43
f 20 43 44
f 20 44 45
f 20 45 46
f 20 46 47
f 20 47 21
f 22 48 49
f 22 49 24
f 22 23 48
f 23 50 80
f 23 80 85
f 23 85 81
f 23 81 53
f 23 53 27
f 23 27 26
f 23 26 25
f 23 25 52
f 23 52 49
f 23 49 51
f 23 51 48
f 24 49 52
f 24 52 25
f 27 53 54
f 27 54 28
f 28 54 29
f 29 54 31
f 31 54 55
f 31 55 32
f 32 55 56
f 32 56 33
f 33 56 57
f 33 57 34
f 34 57 35
f 35 57 36
f 36 57 58
f 36 58 37
f 37 59 38
f 37 58 59
f 38 59 60
f 38 60 39
f 39 60 40
f 40 60 41
f 41 61 62
f 41 62 42
f 41 60 63
f 41 63 64
f 41 64 61
f 42 62 43
f 43 62 65
f 43 65 61
f 43 61 66
f 43 66 67
f 43 67 68
f 43 68 69
f 43 69 70
f 43 70 71
f 43 71 72
f 43 72 44
f 44 72 45
f 45 73 74
f 45 74 46
f 45 72 71
f 45 71 70
f 45 70 69
f 45 69 75
f 45 75 76
f 45 76 73
f 46 74 47
f 48 51 49
f 50 77 78
f 50 78 79
f 50 79 80
f 53 81 54
f 54 82 79
f 54 79 78
f 54 78 77
f 54 77 101
f 54 101 117
f 54 117 130
f 54 130 131
f 54 131 118
f 54 118 102
f 54 102 83
f 54 83 84
f 54 84 55
f 54 81 85
f 54 85 80
f 54 80 82
f 55 84 56
f 56 86 57
f 56 84 86
f 57 86 58
f 58 87 60
f 58 60 59
f 58 86 87
f 60 87 63
f 61 65 62
f 61 64 67
f 61 67 66
f 63 87 88
f 63 88 64
f 64 89 90
f 64 90 67
f 64 88 91
f 64 91 89
f 67 90 68
f 68 92 69
f 68 90 89
f 68 89 93
f 68 93 94
f 68 94 95
f 68 95 96
f 68 96 92
f 69 92 97
f 69 97 75
f 75 92 98
f 75 98 99
f 75 99 100
f 75 100 76
f 75 97 92
f 79 82 80
f 83 102 103
f 83 103 84
f 84 103 104
f 84 104 105
f 84 105 86
f 86 105 106
f 86 106 88
f 86 88 87
f 88 106 91
f 89 91 93
f 91 106 107
f 91 107 108
f 91 108 95
f 91 95 94
f 91 94 93
f 92 96 109
f 92 109 98
f 95 108 110
f 95 110 111
f 95 111 96
f 96 111 112
f 96 112 113
f 96 113 114
f 96 114 109
f 98 109 99
f 99 109 115
f 101 116 117
f 102 118 119
f 102 119 103
f 103 119 104
f 104 108 107
f 104 107 105
f 104 119 120
f 104 120 108
f 105 107 106
f 108 111 110
f 108 120 121
f 108 121 111
f 109 114 115
f 111 122 123
f 111 123 112
f 111 121 124
f 111 124 122
f 112 123 113
f 113 123 122
f 113 122 124
f 113 124 125
f 113 125 126
f 113 126 127
f 113 127 128
f 113 128 114
f 116 129 117
f 117 129 130
f 118 131 132
f 118 132 133
f 118 133 119
f 119 133 134
f 119 134 135
f 119 135 121
f 119 121 120
f 121 135 134
f 121 134 136
f 121 136 137
f 121 137 124
f 124 137 138
f 124 138 125
f 129 139 132
f 129 132 130
f 130 132 131
f 132 139 140
f 132 140 141
f 132 141 133
f 133 141 136
f 133 136 134
f 136 142 143
f 136 143 144
f 136 144 137
f 136 141 142
f 137 144 138
f 140 142 141

