# https://github.com/mikedh/trimesh
v 0.01617360 -0.03216609 0.03399040
v 0.01609410 -0.03114580 0.02480661
v 0.01604734 -0.03012297 0.02480661
v 0.01580885 -0.02498838 0.07172878
v 0.01586029 -0.02600867 0.07172878
v 0.01593979 -0.02808240 0.07172878
v 0.01597252 -0.02910268 0.07172878
v 0.01600058 -0.03012297 0.07172878
v 0.01601460 -0.03111264 0.07172878
v 0.01602396 -0.03315321 0.07172878
v 0.01613619 -0.03318637 0.04419215
v 0.01614554 -0.03318637 0.03908759
v 0.01613619 -0.03318637 0.03399040
v 0.01602396 -0.03318637 0.00438834
v 0.01601928 -0.03216609 0.00438834
v 0.01602864 -0.03012297 0.02072000
v 0.01598187 -0.03114580 0.00438834
v 0.01579015 -0.02604183 0.02480661
v 0.01557972 -0.02192498 0.07172878
v 0.01572468 -0.02501899 0.02480661
v 0.01565454 -0.02399871 0.02582457
v 0.01543008 -0.02093785 0.02480661
v 0.01518224 -0.01752245 0.02582457
v 0.01602396 -0.03318637 0.07172878
v 0.01604266 -0.03420665 0.06359246
v 0.01607540 -0.03420665 0.03908759
v 0.01607540 -0.03420665 0.03806963
v 0.01601928 -0.03455865 0.06393915
v 0.01596784 -0.03420665 0.00438834
v 0.01600993 -0.03318637 0.00337038
v 0.01597252 -0.03216609 0.00132708
v 0.01594446 -0.03114580 0.00132708
v 0.01597252 -0.03114580 0.00337038
v 0.01573871 -0.02706211 0.00030174
v 0.01584159 -0.02910268 0.00030174
v 0.01549087 -0.02093785 0.07172878
v 0.01512613 -0.01685671 0.02582457
v 0.01535526 -0.01991757 0.02480661
v 0.01600525 -0.03420665 0.07172878
v 0.01603799 -0.03420665 0.06461042
v 0.01598655 -0.03455865 0.07172878
v 0.01602396 -0.03455865 0.03944166
v 0.01602396 -0.03455865 0.03806963
v 0.01592108 -0.03455865 0.00473504
v 0.01591640 -0.03455865 0.00438834
v 0.01595382 -0.03420665 0.00337038
v 0.01597252 -0.03318637 0.00234504
v 0.01593043 -0.03318637 0.00132708
v 0.01590705 -0.03216609 0.00030174
v 0.01591640 -0.03114580 0.00030174
v 0.01588367 -0.03012297 0.00030174
v 0.01564051 -0.02706211 -0.00071622
v 0.01557037 -0.02604183 -0.00071622
v 0.01501858 -0.01889728 -0.00071622
v 0.01504196 -0.01889728 0.00030174
v 0.01539735 -0.01991757 0.07172878
v 0.01502325 -0.01583388 0.02582457
v 0.01502793 -0.01583388 0.03399040
v 0.01470059 -0.01481359 0.00540630
v -0.03159378 -0.03455865 0.07172878
v 0.01590238 -0.03455865 0.00337038
v 0.01585094 -0.03455865 0.00234504
v 0.01584159 -0.03420665 0.00132708
v 0.01583223 -0.03318637 0.00030174
v 0.01557972 -0.03216609 -0.00071622
v 0.01563583 -0.03114580 -0.00071622
v 0.01536929 -0.02706211 -0.00156453
v 0.01533188 -0.02604183 -0.00152027
v 0.01488764 -0.01889728 -0.00173418
v 0.01480815 -0.01685671 -0.00071622
v 0.01493908 -0.01787700 0.00030174
v 0.01479412 -0.01787700 -0.00173418
v 0.01469592 -0.01685671 -0.00173418
v 0.01529447 -0.01886923 0.07172878
v 0.01487361 -0.01481359 0.02480661
v 0.01487829 -0.01481359 0.02582457
v 0.01485958 -0.01481359 0.06665372
v 0.01508872 -0.01681845 0.07172878
v 0.01483153 -0.01685671 0.00030174
v 0.01469592 -0.01583388 -0.00071622
v 0.01459304 -0.01481359 0.00030174
v 0.01444340 -0.01379331 0.00030174
v 0.01454160 -0.01379331 0.00540630
v 0.01455096 -0.01379331 0.00643164
v -0.03159378 -0.00850058 0.07172878
v -0.03159378 -0.03455865 -0.00056869
v 0.01579482 -0.03455865 0.00132708
v 0.01571533 -0.03455865 0.00065581
v 0.01571533 -0.03420665 0.00030174
v 0.01542540 -0.03311240 -0.00077523
v 0.01524771 -0.03216609 -0.00128422
v 0.01528512 -0.03114580 -0.00133585
v 0.01540202 -0.03420665 -0.00054656
v 0.01506066 -0.02706211 -0.00207350
v 0.01506534 -0.02604183 -0.00202925
v 0.01447614 -0.01889728 -0.00261199
v 0.01443405 -0.01787700 -0.00261937
v 0.01438729 -0.01685671 -0.00257511
v 0.01431247 -0.01583388 -0.00247184
v 0.01419557 -0.01418612 -0.00229480
v 0.01456966 -0.01583388 -0.00173418
v 0.01467254 -0.01379331 0.02480661
v 0.01467721 -0.01379331 0.02582457
v 0.01448549 -0.01277302 0.07172878
v 0.01468189 -0.01379331 0.06665372
v 0.01467254 -0.01376015 0.07172878
v 0.01467721 -0.01379331 0.07172878
v 0.01496246 -0.01583388 0.07172878
v 0.01456031 -0.01481359 -0.00071622
v 0.01437794 -0.01379331 -0.00071622
v 0.01426103 -0.01286995 0.00030174
v 0.01432650 -0.01277302 0.00643164
v 0.01414880 -0.01235726 0.00030174
v 0.01287687 -0.00850058 0.07172878
v -0.03159378 -0.00850058 -0.00130635
v 0.01264307 -0.01889728 -0.00360045
v 0.01264307 -0.01991757 -0.00357095
v 0.01285817 -0.02671011 -0.00331277
v 0.01264307 -0.03455865 -0.00191860
v 0.01566389 -0.03455865 0.00030174
v 0.01520095 -0.03272469 -0.00123258
v 0.01448081 -0.02808240 -0.00250872
v 0.01455096 -0.02706211 -0.00258249
v 0.01536929 -0.03455865 -0.00049493
v 0.01514015 -0.03455865 -0.00083425
v 0.01501858 -0.03455865 -0.00101129
v 0.01455563 -0.02604183 -0.00259724
v 0.01400384 -0.01787700 -0.00313573
v 0.01396175 -0.01685671 -0.00309147
v 0.01321356 -0.01304085 -0.00331277
v 0.01383082 -0.01382392 -0.00268576
v 0.01348946 -0.01272966 -0.00284067
v 0.01337723 -0.01175019 -0.00259724
v 0.01324162 -0.01096202 -0.00239808
v 0.01371392 -0.01175019 -0.00173418
v 0.01412542 -0.01350508 -0.00196286
v 0.01424233 -0.01382392 -0.00166780
v 0.01441535 -0.01481359 -0.00173418
v 0.01439664 -0.01277302 0.01765874
v 0.01440132 -0.01277302 0.01868408
v 0.01442937 -0.01277302 0.02582457
v 0.01414413 -0.01134973 0.06563576
v 0.01426571 -0.01185987 0.06563576
v 0.01426571 -0.01195425 0.07172878
v 0.01422362 -0.01304595 -0.00071622
v 0.01418153 -0.01324236 -0.00128422
v 0.01419089 -0.01221187 0.00643164
v 0.01411139 -0.01253581 -0.00071622
v 0.01389629 -0.01175019 -0.00071622
v 0.01396175 -0.01175019 0.00030174
v 0.01405528 -0.01185222 0.00447686
v 0.01291896 -0.00856690 0.07172878
v 0.01288155 -0.00850058 0.07164764
v 0.00958016 -0.00850058 -0.00358570
v 0.01059957 -0.00970962 -0.00362996
v 0.01264307 -0.01787700 -0.00360783
v 0.01348946 -0.01889728 -0.00346030
v 0.01331176 -0.02604183 -0.00332752
v 0.01326968 -0.02671011 -0.00331277
v 0.01366248 -0.03455865 -0.00180057
v 0.01450419 -0.03455865 -0.00146125
v 0.01362975 -0.02705446 -0.00309884
v 0.01382147 -0.02604183 -0.00310622
v 0.01399916 -0.01889728 -0.00312835
v 0.01349414 -0.01787700 -0.00345292
v 0.01345205 -0.01685671 -0.00343079
v 0.01338658 -0.01583388 -0.00340866
v 0.01326968 -0.01379331 -0.00334965
v 0.01264307 -0.01379331 -0.00354882
v 0.01271789 -0.01272966 -0.00344554
v 0.01248407 -0.01175019 -0.00344554
v 0.01231573 -0.01072990 -0.00339391
v 0.01220818 -0.01003101 -0.00332752
v 0.01311069 -0.01235981 -0.00323900
v 0.01248875 -0.00969942 -0.00281854
v 0.01232041 -0.00868934 -0.00250872
v 0.01312939 -0.01028353 -0.00216203
v 0.01402722 -0.01284955 -0.00166780
v 0.01334917 -0.01066614 -0.00178582
v 0.01320889 -0.01004887 -0.00148338
v 0.01356895 -0.01072990 -0.00071622
v 0.01423297 -0.01209198 0.01868408
v 0.01391967 -0.01072990 0.06563576
v 0.01389161 -0.01072990 0.06971498
v 0.01411139 -0.01144410 0.07172878
v 0.01371392 -0.01072990 0.01051087
v 0.01402722 -0.01171958 0.00540630
v 0.01362507 -0.01072990 0.00030174
v 0.01319953 -0.00910510 0.07172878
v 0.01294234 -0.00858476 0.06971498
v 0.01289558 -0.00850058 0.06971498
v 0.01041252 -0.00850058 -0.00357095
v 0.01161898 -0.01072990 -0.00358570
v 0.01161898 -0.01175019 -0.00362258
v 0.01264307 -0.01583388 -0.00359307
v 0.01264307 -0.01481359 -0.00357832
v 0.01166574 -0.00969942 -0.00345292
v 0.01133373 -0.00868934 -0.00337916
v 0.01127762 -0.00850058 -0.00334965
v 0.01203516 -0.00934997 -0.00320212
v 0.01227832 -0.00850058 -0.00244971
v 0.01248407 -0.00850058 -0.00191860
v 0.01262436 -0.00868934 -0.00173418
v 0.01301716 -0.00970962 -0.00178582
v 0.01308263 -0.00938058 -0.00071622
v 0.01327435 -0.00989072 -0.00071622
v 0.01368118 -0.01072990 0.00438834
v 0.01370924 -0.01072990 0.00949291
v 0.01348478 -0.00970962 0.06461042
v 0.01348478 -0.00970962 0.06563576
v 0.01347543 -0.00970962 0.06971498
v 0.01313406 -0.00924539 0.00847495
v 0.01346140 -0.00970962 0.07172878
v 0.01386355 -0.01072990 0.07172878
v 0.01333047 -0.00975553 0.00847495
v 0.01330241 -0.00982950 0.00030174
v 0.01319953 -0.00909745 0.06971498
v 0.01289558 -0.00850058 0.06961909
v 0.01319953 -0.00910765 0.06154915
v 0.01274594 -0.00850058 0.00520714
v 0.01059957 -0.00868934 -0.00355619
v 0.01060424 -0.00850058 -0.00353406
v 0.01119344 -0.00850058 -0.00338653
v 0.01163301 -0.00850058 -0.00310622
v 0.01184344 -0.00868934 -0.00301770
v 0.01178732 -0.00850058 -0.00296607
v 0.01253084 -0.00850058 -0.00173418
v 0.01275062 -0.00868934 -0.00071622
v 0.01310133 -0.00931681 0.00030174
v 0.01333047 -0.00978614 0.00643164
v 0.01283947 -0.00868934 0.00540630
v 0.01273659 -0.00850058 0.00438834
v 0.01262436 -0.00850058 -0.00097440
v 0.01265242 -0.00850058 -0.00071622
f 1 2 3
f 1 3 4
f 1 4 5
f 1 5 6
f 1 6 7
f 1 7 8
f 1 8 9
f 1 9 10
f 1 10 11
f 1 11 12
f 1 12 13
f 1 13 14
f 1 14 15
f 1 15 2
f 2 16 3
f 2 15 17
f 2 17 16
f 3 16 18
f 3 18 4
f 4 19 36
f 4 36 56
f 4 56 74
f 4 74 78
f 4 78 108
f 4 108 107
f 4 107 106
f 4 106 104
f 4 104 144
f 4 144 185
f 4 185 214
f 4 214 213
f 4 213 189
f 4 189 152
f 4 152 114
f 4 114 85
f 4 85 60
f 4 60 41
f 4 41 39
f 4 39 24
f 4 24 10
f 4 10 9
f 4 9 8
f 4 8 7
f 4 7 6
f 4 6 5
f 4 18 20
f 4 20 21
f 4 21 22
f 4 22 23
f 4 23 19
f 10 24 11
f 11 24 25
f 11 25 12
f 12 26 27
f 12 27 13
f 12 25 28
f 12 28 26
f 13 27 29
f 13 29 14
f 14 29 46
f 14 46 30
f 14 30 15
f 15 30 31
f 15 31 32
f 15 32 33
f 15 33 17
f 16 17 34
f 16 34 18
f 17 33 35
f 17 35 34
f 18 34 20
f 19 23 37
f 19 37 36
f 20 22 21
f 20 34 22
f 22 38 23
f 22 34 38
f 23 38 34
f 23 34 37
f 24 39 40
f 24 40 25
f 25 40 41
f 25 41 28
f 26 42 43
f 26 43 27
f 26 28 42
f 27 43 44
f 27 44 29
f 28 41 60
f 28 60 86
f 28 86 119
f 28 119 160
f 28 160 161
f 28 161 126
f 28 126 125
f 28 125 124
f 28 124 120
f 28 120 88
f 28 88 87
f 28 87 62
f 28 62 61
f 28 61 45
f 28 45 44
f 28 44 43
f 28 43 42
f 29 44 45
f 29 45 61
f 29 61 46
f 30 46 47
f 30 47 31
f 31 48 49
f 31 49 50
f 31 50 32
f 31 47 48
f 32 50 51
f 32 51 35
f 32 35 33
f 34 35 52
f 34 52 53
f 34 53 54
f 34 54 55
f 34 55 37
f 35 51 52
f 36 37 56
f 37 57 58
f 37 58 56
f 37 55 59
f 37 59 57
f 39 41 40
f 46 61 62
f 46 62 63
f 46 63 48
f 46 48 47
f 48 63 64
f 48 64 49
f 49 64 65
f 49 65 66
f 49 66 50
f 50 66 52
f 50 52 51
f 52 66 67
f 52 67 68
f 52 68 69
f 52 69 53
f 53 69 54
f 54 70 71
f 54 71 55
f 54 69 72
f 54 72 73
f 54 73 70
f 55 71 59
f 56 58 74
f 57 75 76
f 57 76 58
f 57 59 75
f 58 76 77
f 58 77 78
f 58 78 74
f 59 71 79
f 59 79 80
f 59 80 81
f 59 81 82
f 59 82 83
f 59 83 84
f 59 84 75
f 60 85 115
f 60 115 86
f 62 87 63
f 63 87 88
f 63 88 89
f 63 89 64
f 64 89 65
f 65 90 91
f 65 91 92
f 65 92 66
f 65 89 93
f 65 93 90
f 66 92 67
f 67 92 94
f 67 94 95
f 67 95 96
f 67 96 97
f 67 97 69
f 67 69 68
f 69 97 98
f 69 98 72
f 70 80 79
f 70 79 71
f 70 73 80
f 72 98 73
f 73 98 99
f 73 99 100
f 73 100 101
f 73 101 80
f 75 102 103
f 75 103 76
f 75 84 102
f 76 103 104
f 76 104 105
f 76 105 77
f 77 105 106
f 77 106 107
f 77 107 108
f 77 108 78
f 80 109 81
f 80 101 109
f 81 109 82
f 82 109 110
f 82 110 111
f 82 111 83
f 83 112 84
f 83 111 113
f 83 113 112
f 84 112 102
f 85 114 153
f 85 153 191
f 85 191 218
f 85 218 220
f 85 220 232
f 85 232 234
f 85 234 233
f 85 233 227
f 85 227 202
f 85 202 201
f 85 201 226
f 85 226 224
f 85 224 199
f 85 199 223
f 85 223 222
f 85 222 192
f 85 192 154
f 85 154 115
f 86 115 116
f 86 116 117
f 86 117 118
f 86 118 119
f 88 120 89
f 89 120 93
f 90 93 121
f 90 121 91
f 91 121 122
f 91 122 123
f 91 123 94
f 91 94 92
f 93 120 124
f 93 124 125
f 93 125 126
f 93 126 121
f 94 123 127
f 94 127 128
f 94 128 96
f 94 96 95
f 96 128 97
f 97 128 129
f 97 129 98
f 98 129 130
f 98 130 99
f 99 130 131
f 99 131 100
f 100 131 130
f 100 130 132
f 100 132 133
f 100 133 134
f 100 134 135
f 100 135 136
f 100 136 137
f 100 137 138
f 100 138 101
f 101 138 109
f 102 112 139
f 102 139 103
f 103 139 140
f 103 140 141
f 103 141 142
f 103 142 143
f 103 143 104
f 104 143 142
f 104 142 144
f 104 106 105
f 109 138 110
f 110 145 111
f 110 138 137
f 110 137 146
f 110 146 145
f 111 145 113
f 112 147 139
f 112 113 147
f 113 145 148
f 113 148 149
f 113 149 150
f 113 150 151
f 113 151 147
f 114 152 153
f 115 154 155
f 115 155 116
f 116 155 156
f 116 156 157
f 116 157 158
f 116 158 159
f 116 159 117
f 117 159 118
f 118 159 119
f 119 159 160
f 121 126 161
f 121 161 122
f 122 161 162
f 122 162 163
f 122 163 123
f 123 163 164
f 123 164 127
f 127 164 128
f 128 164 157
f 128 157 165
f 128 165 166
f 128 166 167
f 128 167 168
f 128 168 129
f 129 168 130
f 130 168 169
f 130 169 170
f 130 170 171
f 130 171 172
f 130 172 173
f 130 173 174
f 130 174 132
f 132 174 133
f 133 174 175
f 133 175 134
f 134 175 176
f 134 176 177
f 134 177 135
f 135 178 136
f 135 177 179
f 135 179 180
f 135 180 181
f 135 181 149
f 135 149 178
f 136 178 146
f 136 146 137
f 139 147 182
f 139 182 140
f 140 182 141
f 141 182 142
f 142 183 184
f 142 184 185
f 142 185 144
f 142 182 186
f 142 186 183
f 145 146 148
f 146 178 148
f 147 151 187
f 147 187 182
f 148 178 149
f 149 181 150
f 150 181 188
f 150 188 187
f 150 187 151
f 152 189 190
f 152 190 191
f 152 191 153
f 154 192 155
f 155 192 193
f 155 193 194
f 155 194 156
f 156 194 195
f 156 195 165
f 156 165 157
f 157 164 163
f 157 163 158
f 158 163 159
f 159 163 162
f 159 162 161
f 159 161 160
f 165 195 196
f 165 196 169
f 165 169 166
f 166 169 167
f 167 169 168
f 169 196 194
f 169 194 193
f 169 193 171
f 169 171 170
f 171 193 172
f 172 193 197
f 172 197 173
f 173 197 198
f 173 198 199
f 173 199 200
f 173 200 175
f 173 175 174
f 175 200 176
f 176 201 177
f 176 200 201
f 177 201 202
f 177 202 203
f 177 203 204
f 177 204 180
f 177 180 179
f 180 204 203
f 180 203 205
f 180 205 206
f 180 206 181
f 181 206 188
f 182 187 207
f 182 207 208
f 182 208 186
f 183 209 210
f 183 210 211
f 183 211 184
f 183 186 212
f 183 212 209
f 184 211 213
f 184 213 214
f 184 214 185
f 186 208 215
f 186 215 212
f 187 188 207
f 188 206 216
f 188 216 207
f 189 213 211
f 189 211 210
f 189 210 217
f 189 217 190
f 190 218 191
f 190 217 219
f 190 219 220
f 190 220 218
f 192 221 193
f 192 222 221
f 193 221 222
f 193 222 197
f 194 196 195
f 197 222 223
f 197 223 198
f 198 223 199
f 199 224 200
f 200 224 225
f 200 225 201
f 201 225 226
f 202 227 203
f 203 227 228
f 203 228 205
f 205 228 229
f 205 229 216
f 205 216 206
f 207 230 215
f 207 215 208
f 207 216 230
f 209 219 217
f 209 217 210
f 209 212 219
f 212 215 230
f 212 230 216
f 212 216 229
f 212 229 231
f 212 231 220
f 212 220 219
f 220 231 229
f 220 229 232
f 224 226 225
f 227 233 228
f 228 234 229
f 228 233 234
f 229 234 232

