# https://github.com/mikedh/trimesh
v -0.00738179 -0.02155335 0.07578157
v -0.00738179 -0.03770103 0.07618219
v -0.00738179 -0.02155335 0.07172922
v -0.01369679 -0.02155335 0.07618219
v -0.00738179 -0.04577606 0.07618219
v -0.00738179 -0.04577606 0.07172922
v -0.03457996 -0.02155335 0.07172922
v -0.01856882 -0.02155335 0.07618219
v -0.02173431 -0.04577606 0.07618219
v -0.03457996 -0.04577606 0.07172922
v -0.03457996 -0.02155335 0.07548732
v -0.01896817 -0.02195177 0.07618219
v -0.02490246 -0.04127729 0.07618219
v -0.02614842 -0.04577606 0.07617608
v -0.03457996 -0.04577606 0.07614426
v -0.02510746 -0.02903787 0.07618219
v -0.02391741 -0.02725212 0.07618219
v -0.02500097 -0.04111839 0.07618219
v -0.02590615 -0.03923778 0.07618219
v -0.03057052 -0.04577606 0.07616213
v -0.02638803 -0.03614532 0.07618219
v -0.02639336 -0.03522754 0.07618219
v -0.02639336 -0.03420778 0.07618219
v -0.02638803 -0.03410107 0.07618219
v -0.02633212 -0.03318803 0.07618219
v -0.02622563 -0.03215405 0.07618219
v -0.02600466 -0.03114141 0.07618219
v -0.02559733 -0.03012640 0.07618219
v -0.02617771 -0.03809945 0.07618219
v -0.02631615 -0.03716270 0.07618219
f 1 2 5
f 1 5 6
f 1 6 3
f 1 3 7
f 1 7 11
f 1 11 8
f 1 8 4
f 1 4 2
f 2 4 8
f 2 8 12
f 2 12 17
f 2 17 16
f 2 16 28
f 2 28 27
f 2 27 26
f 2 26 25
f 2 25 24
f 2 24 23
f 2 23 22
f 2 22 21
f 2 21 30
f 2 30 29
f 2 29 19
f 2 19 18
f 2 18 13
f 2 13 9
f 2 9 5
f 3 6 10
f 3 10 7
f 5 9 14
f 5 14 20
f 5 20 15
f 5 15 10
f 5 10 6
f 7 10 15
f 7 15 11
f 8 11 12
f 9 13 14
f 11 15 16
f 11 16 17
f 11 17 12
f 13 18 14
f 14 18 19
f 14 19 20
f 15 20 21
f 15 21 22
f 15 22 23
f 15 23 24
f 15 24 25
f 15 25 26
f 15 26 27
f 15 27 28
f 15 28 16
f 19 29 20
f 20 29 30
f 20 30 21

