# https://github.com/mikedh/trimesh
v -0.08396213 -0.02731954 0.07890686
v -0.08382759 -0.02963216 0.07941967
v -0.08388833 -0.02731954 0.07956568
v -0.08395233 -0.02731954 0.07869493
v -0.08351998 -0.03829363 0.07890686
v -0.08326004 -0.03829363 0.07992787
v -0.08356765 -0.02731954 0.08007600
v -0.08290410 -0.03829363 0.08053140
v -0.08389355 -0.02731954 0.07788301
v -0.08388572 -0.02808400 0.07806269
v -0.08349842 -0.03727195 0.07788656
v -0.08345597 -0.03829363 0.07788656
v -0.08337695 -0.03931532 0.07788656
v -0.08344030 -0.03931532 0.07890686
v -0.08318820 -0.03931532 0.07992787
v -0.08280417 -0.04083222 0.08043642
v -0.08283422 -0.04015190 0.08046726
v -0.08287144 -0.03931532 0.08050305
v -0.08301774 -0.03114665 0.08060830
v -0.08305497 -0.02808400 0.08059448
v -0.08305692 -0.02731954 0.08058172
v -0.08292304 -0.03727195 0.08054628
v -0.08296288 -0.03523099 0.08057038
v -0.08298051 -0.03420930 0.08057924
v -0.08229540 -0.03931532 0.08069478
v -0.08381583 -0.02731954 0.07743010
v -0.08358071 -0.03523099 0.07788656
v -0.08310852 -0.03829363 0.07708704
v -0.08305954 -0.03931532 0.07709732
v -0.08299292 -0.04033219 0.07714977
v -0.08325286 -0.04033219 0.07788656
v -0.08331621 -0.04033219 0.07890686
v -0.08302296 -0.04042835 0.08002887
v -0.08295635 -0.04135388 0.07979993
v -0.08286426 -0.04209430 0.07958871
v -0.08272580 -0.04135388 0.08031026
v -0.08180166 -0.04395737 0.08045202
v -0.08189505 -0.04339484 0.08052148
v -0.08205963 -0.04237556 0.08060724
v -0.08221507 -0.04135388 0.08063417
v -0.08239664 -0.04042835 0.08061468
v -0.08229540 -0.03114665 0.08070399
v -0.08229540 -0.03829363 0.08070718
v -0.08229540 -0.02731954 0.08059803
v -0.08229540 -0.03012737 0.08068060
v -0.08229540 -0.02808400 0.08062283
v -0.08127460 -0.04339484 0.08065438
v -0.08025445 -0.04543821 0.08066217
v -0.08357875 -0.02731954 0.07708704
v -0.08307129 -0.03900521 0.07708704
v -0.08305039 -0.03931532 0.07708704
v -0.08304843 -0.03933695 0.07708704
v -0.08293871 -0.04033219 0.07708704
v -0.08291389 -0.04048845 0.07708704
v -0.08289953 -0.04135388 0.07725042
v -0.08283226 -0.04198131 0.07733760
v -0.08308566 -0.04135388 0.07788656
v -0.08314314 -0.04135388 0.07890686
v -0.08277805 -0.04277462 0.07913544
v -0.08187023 -0.04512329 0.07960927
v -0.08228691 -0.04339484 0.07992787
v -0.08260040 -0.04241162 0.07992858
v -0.08197212 -0.04434441 0.07994098
v -0.08166450 -0.04463769 0.08029006
v -0.08084094 -0.04609449 0.08048958
v -0.08098593 -0.04543821 0.08056330
v -0.07729066 -0.04959226 0.08050411
v -0.08190289 -0.02731954 0.08049383
v -0.07729066 -0.04951293 0.08050021
v -0.08028123 -0.04644307 0.08058102
v -0.07819456 -0.04950331 0.08052396
v -0.07729066 -0.05044567 0.08050199
v -0.07908474 -0.02731954 0.07708704
v -0.08276237 -0.04135388 0.07708704
v -0.08255599 -0.04219527 0.07708704
v -0.08203482 -0.04383477 0.07708704
v -0.08192509 -0.04441653 0.07720293
v -0.08180949 -0.04498867 0.07733902
v -0.08274735 -0.04266164 0.07768030
v -0.08288254 -0.04234191 0.07796701
v -0.08281136 -0.04290444 0.07836074
v -0.08290149 -0.04241162 0.07884023
v -0.08281136 -0.04290444 0.07845536
v -0.08264873 -0.04330349 0.07884023
v -0.08225426 -0.04441653 0.07890686
v -0.08191921 -0.04523628 0.07890686
v -0.08169259 -0.04574592 0.07890686
v -0.08085139 -0.04713060 0.07960466
v -0.08102577 -0.04644307 0.07993814
v -0.08151364 -0.04545264 0.07994098
v -0.08063913 -0.04677481 0.08028510
v -0.07976397 -0.04801767 0.08045166
v -0.07992072 -0.04747918 0.08052821
v -0.08176574 -0.02731954 0.08045450
v -0.07729066 -0.04179861 0.07708704
v -0.07918793 -0.04841432 0.08052006
v -0.07881762 -0.04915234 0.08049029
v -0.07784188 -0.05015719 0.08048994
v -0.07747549 -0.05083992 0.08025036
v -0.07729066 -0.05065000 0.08039886
v -0.08183366 -0.04441653 0.07708704
v -0.08187350 -0.04513531 0.07788656
v -0.08217327 -0.04441653 0.07788656
v -0.08260171 -0.04330349 0.07796701
v -0.08151233 -0.04521705 0.07708704
v -0.08098397 -0.04645749 0.07711539
v -0.08082788 -0.04707772 0.07729259
v -0.08165993 -0.04564495 0.07788656
v -0.08127656 -0.04645749 0.07788656
v -0.08132685 -0.04645749 0.07890686
v -0.07990700 -0.04841432 0.07983891
v -0.08043732 -0.04747437 0.07993814
v -0.08090886 -0.04722436 0.07890686
v -0.08061562 -0.04773400 0.07890686
v -0.07975548 -0.04902492 0.07943951
v -0.07915201 -0.04942879 0.07984848
v -0.07852241 -0.04983266 0.08025710
v -0.07729066 -0.05151783 0.07708704
v -0.07779682 -0.05114763 0.07956957
v -0.07729066 -0.05140004 0.07980631
v -0.07729066 -0.05117407 0.08006147
v -0.08101924 -0.04632768 0.07708704
v -0.08095915 -0.04645749 0.07708704
v -0.08053855 -0.04726042 0.07708704
v -0.08002194 -0.04811382 0.07708704
v -0.07995663 -0.04830854 0.07714765
v -0.07972805 -0.04898887 0.07754173
v -0.08059537 -0.04769553 0.07788656
v -0.08089123 -0.04718589 0.07788656
v -0.07975940 -0.04903214 0.07822252
v -0.08012579 -0.04849846 0.07890686
v -0.07976397 -0.04903694 0.07890686
v -0.07937864 -0.04954899 0.07890686
v -0.07886791 -0.05019806 0.07890686
v -0.07880521 -0.05012113 0.07957666
v -0.07729066 -0.05184958 0.07776217
v -0.07755386 -0.05131350 0.07708704
v -0.07788956 -0.05124619 0.07890686
v -0.07736577 -0.05175583 0.07890686
v -0.07729066 -0.05182554 0.07890686
v -0.07986128 -0.04836143 0.07708704
v -0.07898416 -0.04961390 0.07708704
v -0.07879411 -0.05011873 0.07727806
v -0.07886007 -0.05019566 0.07788656
v -0.07943546 -0.04943119 0.07788372
v -0.08002586 -0.04858981 0.07788372
v -0.07841204 -0.05070770 0.07788656
v -0.07839963 -0.05070770 0.07890686
v -0.07729066 -0.05187843 0.07788656
v -0.07740103 -0.05177025 0.07788656
v -0.07790197 -0.05126061 0.07788656
v -0.07781314 -0.05116686 0.07722490
v -0.07796336 -0.05086876 0.07708704
v -0.07729066 -0.05183516 0.07874596
v -0.07846168 -0.05031104 0.07708704
f 1 2 3
f 1 3 7
f 1 7 21
f 1 21 44
f 1 44 68
f 1 68 94
f 1 94 73
f 1 73 49
f 1 49 26
f 1 26 9
f 1 9 4
f 1 4 5
f 1 5 2
f 2 5 6
f 2 6 3
f 3 6 8
f 3 8 7
f 4 9 10
f 4 10 5
f 5 11 12
f 5 12 13
f 5 13 14
f 5 14 15
f 5 15 6
f 5 10 11
f 6 15 16
f 6 16 17
f 6 17 18
f 6 18 8
f 7 19 20
f 7 20 21
f 7 8 22
f 7 22 23
f 7 23 24
f 7 24 19
f 8 18 25
f 8 25 22
f 9 26 27
f 9 27 10
f 10 27 11
f 11 27 26
f 11 26 12
f 12 26 28
f 12 28 29
f 12 29 13
f 13 29 30
f 13 30 31
f 13 31 32
f 13 32 14
f 14 32 15
f 15 32 33
f 15 33 16
f 16 33 34
f 16 34 35
f 16 35 36
f 16 36 37
f 16 37 38
f 16 38 39
f 16 39 40
f 16 40 17
f 17 40 18
f 18 40 41
f 18 41 25
f 19 42 20
f 19 24 25
f 19 25 43
f 19 43 42
f 20 42 21
f 21 42 45
f 21 45 46
f 21 46 44
f 22 25 23
f 23 25 24
f 25 41 40
f 25 40 47
f 25 47 48
f 25 48 43
f 26 49 28
f 28 50 29
f 28 49 73
f 28 73 95
f 28 95 118
f 28 118 137
f 28 137 153
f 28 153 155
f 28 155 142
f 28 142 141
f 28 141 125
f 28 125 124
f 28 124 123
f 28 123 122
f 28 122 105
f 28 105 101
f 28 101 76
f 28 76 75
f 28 75 74
f 28 74 54
f 28 54 53
f 28 53 52
f 28 52 51
f 28 51 50
f 29 51 52
f 29 52 30
f 29 50 51
f 30 53 54
f 30 54 55
f 30 55 31
f 30 52 53
f 31 55 56
f 31 56 57
f 31 57 32
f 32 57 58
f 32 58 34
f 32 34 33
f 34 58 35
f 35 59 60
f 35 60 61
f 35 61 62
f 35 62 36
f 35 58 59
f 36 62 61
f 36 61 37
f 37 61 63
f 37 63 64
f 37 64 65
f 37 65 66
f 37 66 38
f 38 66 39
f 39 66 47
f 39 47 40
f 42 43 48
f 42 48 67
f 42 67 45
f 44 46 67
f 44 67 69
f 44 69 68
f 45 67 46
f 47 66 48
f 48 66 70
f 48 70 71
f 48 71 72
f 48 72 67
f 54 74 55
f 55 74 56
f 56 75 76
f 56 76 77
f 56 77 78
f 56 78 79
f 56 79 80
f 56 80 57
f 56 74 75
f 57 80 81
f 57 81 58
f 58 82 59
f 58 81 83
f 58 83 82
f 59 82 83
f 59 83 84
f 59 84 85
f 59 85 60
f 60 85 86
f 60 86 87
f 60 87 88
f 60 88 89
f 60 89 90
f 60 90 64
f 60 64 63
f 60 63 61
f 64 90 65
f 65 91 92
f 65 92 93
f 65 93 66
f 65 90 91
f 66 93 70
f 67 72 100
f 67 100 121
f 67 121 120
f 67 120 140
f 67 140 154
f 67 154 149
f 67 149 136
f 67 136 118
f 67 118 95
f 67 95 69
f 68 69 94
f 69 95 73
f 69 73 94
f 70 93 96
f 70 96 71
f 71 96 97
f 71 97 98
f 71 98 72
f 72 98 99
f 72 99 100
f 76 101 77
f 77 101 78
f 78 102 103
f 78 103 104
f 78 104 79
f 78 101 105
f 78 105 106
f 78 106 107
f 78 107 108
f 78 108 102
f 79 104 81
f 79 81 80
f 81 104 103
f 81 103 85
f 81 85 83
f 83 85 84
f 85 103 86
f 86 103 102
f 86 102 108
f 86 108 87
f 87 108 109
f 87 109 110
f 87 110 88
f 88 111 112
f 88 112 91
f 88 91 89
f 88 110 113
f 88 113 114
f 88 114 115
f 88 115 111
f 89 91 90
f 91 112 92
f 92 112 111
f 92 111 115
f 92 115 116
f 92 116 117
f 92 117 97
f 92 97 93
f 93 97 96
f 97 117 98
f 98 117 99
f 99 119 120
f 99 120 121
f 99 121 100
f 99 117 119
f 105 122 106
f 106 122 123
f 106 123 107
f 107 124 125
f 107 125 126
f 107 126 127
f 107 127 128
f 107 128 129
f 107 129 109
f 107 109 108
f 107 123 124
f 109 129 110
f 110 129 113
f 113 129 114
f 114 128 130
f 114 130 131
f 114 131 115
f 114 129 128
f 115 132 133
f 115 133 134
f 115 134 135
f 115 135 116
f 115 131 132
f 116 135 117
f 117 135 119
f 118 136 137
f 119 138 139
f 119 139 140
f 119 140 120
f 119 135 138
f 125 141 126
f 126 141 142
f 126 142 143
f 126 143 127
f 127 143 144
f 127 144 145
f 127 145 130
f 127 130 146
f 127 146 128
f 128 146 130
f 130 145 144
f 130 144 133
f 130 133 132
f 130 132 131
f 133 144 134
f 134 144 147
f 134 147 148
f 134 148 135
f 135 148 138
f 136 149 150
f 136 150 151
f 136 151 152
f 136 152 137
f 137 152 153
f 138 148 151
f 138 151 150
f 138 150 149
f 138 149 139
f 139 149 154
f 139 154 140
f 142 155 143
f 143 155 152
f 143 152 147
f 143 147 144
f 147 152 151
f 147 151 148
f 152 155 153

