# https://github.com/mikedh/trimesh
v 0.01534126 -0.04577898 0.07708824
v 0.01532660 -0.04582430 0.07708824
v 0.01533637 -0.04577898 0.07706464
v -0.01790209 -0.04577898 0.07708824
v 0.01523375 -0.04600112 0.07708824
v 0.01510670 -0.04577898 0.07665911
v -0.03457996 -0.04577898 0.07614446
v -0.03457996 -0.05142358 0.07667537
v -0.03431120 -0.05142358 0.07668377
v -0.02610665 -0.05142358 0.07693873
v -0.01834677 -0.05142358 0.07708824
v 0.01509204 -0.04619618 0.07708824
v 0.01503829 -0.04577898 0.07655629
v -0.03457996 -0.04577898 0.07172878
v -0.03457996 -0.05142358 0.07172878
v 0.00885189 -0.05142358 0.07708824
v 0.01470600 -0.04647965 0.07682017
v 0.01436883 -0.04712120 0.07708824
v 0.01411472 -0.04689464 0.07642880
v 0.01080652 -0.04639235 0.07172878
v 0.01111926 -0.04596355 0.07172878
v 0.01124142 -0.04577898 0.07173245
v 0.01108505 -0.04577898 0.07172878
v -0.00884239 -0.05142358 0.07172878
v 0.00879325 -0.05142358 0.07698175
v 0.00922327 -0.05126886 0.07708824
v 0.01433462 -0.04716430 0.07708824
v 0.01430530 -0.04719635 0.07708824
v 0.01373846 -0.04755774 0.07675931
v 0.01309832 -0.04794288 0.07640887
v 0.01023479 -0.04708418 0.07172878
v -0.00780644 -0.05139153 0.07172878
v -0.00062806 -0.05142358 0.07305081
v 0.00857824 -0.05142358 0.07681282
v 0.00805538 -0.05003605 0.07430936
v 0.00932588 -0.05121415 0.07708824
v 0.01336219 -0.04821088 0.07708824
v 0.01021524 -0.04709468 0.07172878
v 0.01271717 -0.04856840 0.07677138
v 0.01238488 -0.04909999 0.07708824
v 0.01231647 -0.04915966 0.07708824
v 0.01162257 -0.04953321 0.07684272
v 0.01114369 -0.05006147 0.07708824
v 0.01087981 -0.04989017 0.07655209
v 0.00937475 -0.05118487 0.07708824
v -0.00777712 -0.05139043 0.07172878
v -0.00037396 -0.05142358 0.07309330
v -0.00679003 -0.05135064 0.07172878
v 0.00804560 -0.05142358 0.07645503
v 0.00651611 -0.05090029 0.07455540
v 0.00549481 -0.04935307 0.07172878
v 0.00608609 -0.04907678 0.07172878
v 0.01222362 -0.04923205 0.07708824
v 0.01136358 -0.04989459 0.07708824
v 0.01094823 -0.05018691 0.07708824
v -0.00675582 -0.05134898 0.07172878
v -0.00576873 -0.05129317 0.07172878
v -0.00270485 -0.05111690 0.07172878
v -0.00198653 -0.05106661 0.07172878
v 0.00086723 -0.05142358 0.07336663
v 0.00748853 -0.05142358 0.07608780
v 0.00651611 -0.05120089 0.07506586
v 0.00589063 -0.05101744 0.07435920
v 0.00445886 -0.04979071 0.07172878
v -0.00147344 -0.05102020 0.07172878
v 0.00243582 -0.05142358 0.07376691
v 0.00648679 -0.05142358 0.07543099
v 0.00570493 -0.05142358 0.07497247
v 0.00552413 -0.05142358 0.07486860
v 0.00552902 -0.05135230 0.07474846
v 0.00533844 -0.05142358 0.07477417
v 0.00338381 -0.05017586 0.07172878
v 0.00339847 -0.05017144 0.07172878
v 0.00389691 -0.05000842 0.07172878
v -0.00062806 -0.05093123 0.07172878
v 0.00248957 -0.05142358 0.07378265
v 0.00445397 -0.05142358 0.07441533
v 0.00243093 -0.05043557 0.07172878
v 0.00335449 -0.05018415 0.07172878
v 0.00035902 -0.05077651 0.07172878
v 0.00345223 -0.05142358 0.07406489
v 0.00140964 -0.05060908 0.07172878
f 1 2 3
f 1 3 6
f 1 6 13
f 1 13 22
f 1 22 23
f 1 23 14
f 1 14 7
f 1 7 4
f 1 4 11
f 1 11 16
f 1 16 26
f 1 26 36
f 1 36 45
f 1 45 55
f 1 55 43
f 1 43 54
f 1 54 53
f 1 53 41
f 1 41 40
f 1 40 37
f 1 37 28
f 1 28 27
f 1 27 18
f 1 18 12
f 1 12 5
f 1 5 2
f 2 5 6
f 2 6 3
f 4 7 8
f 4 8 9
f 4 9 10
f 4 10 11
f 5 12 13
f 5 13 6
f 7 14 15
f 7 15 8
f 8 15 24
f 8 24 33
f 8 33 47
f 8 47 60
f 8 60 66
f 8 66 76
f 8 76 81
f 8 81 77
f 8 77 71
f 8 71 69
f 8 69 68
f 8 68 67
f 8 67 61
f 8 61 49
f 8 49 34
f 8 34 25
f 8 25 16
f 8 16 11
f 8 11 10
f 8 10 9
f 12 17 13
f 12 18 17
f 13 17 19
f 13 19 20
f 13 20 21
f 13 21 22
f 14 23 21
f 14 21 20
f 14 20 31
f 14 31 38
f 14 38 52
f 14 52 51
f 14 51 64
f 14 64 74
f 14 74 73
f 14 73 72
f 14 72 79
f 14 79 78
f 14 78 82
f 14 82 80
f 14 80 75
f 14 75 65
f 14 65 59
f 14 59 58
f 14 58 57
f 14 57 56
f 14 56 48
f 14 48 46
f 14 46 32
f 14 32 24
f 14 24 15
f 16 25 26
f 17 18 27
f 17 27 19
f 19 27 28
f 19 28 29
f 19 29 30
f 19 30 31
f 19 31 20
f 21 23 22
f 24 32 33
f 25 34 35
f 25 35 26
f 26 35 36
f 28 37 29
f 29 37 30
f 30 37 31
f 31 37 39
f 31 39 40
f 31 40 41
f 31 41 42
f 31 42 43
f 31 43 44
f 31 44 45
f 31 45 36
f 31 36 35
f 31 35 38
f 32 46 33
f 33 46 48
f 33 48 47
f 34 49 50
f 34 50 35
f 35 50 51
f 35 51 52
f 35 52 38
f 37 40 39
f 41 53 42
f 42 54 43
f 42 53 54
f 43 55 44
f 44 55 45
f 47 48 56
f 47 56 57
f 47 57 58
f 47 58 59
f 47 59 60
f 49 61 62
f 49 62 50
f 50 62 63
f 50 63 64
f 50 64 51
f 59 65 60
f 60 65 66
f 61 67 62
f 62 67 63
f 63 68 69
f 63 69 70
f 63 70 71
f 63 71 72
f 63 72 73
f 63 73 74
f 63 74 64
f 63 67 68
f 65 75 66
f 66 75 76
f 69 71 70
f 71 77 78
f 71 78 79
f 71 79 72
f 75 80 81
f 75 81 76
f 77 81 78
f 78 81 82
f 80 82 81

