# https://github.com/mikedh/trimesh
v -0.07077274 -0.05224421 0.07172878
v -0.07006836 -0.05263350 0.07172878
v -0.07087218 -0.05224421 0.07172964
v -0.03457996 -0.05224421 0.07172878
v -0.07004350 -0.05264642 0.07172878
v -0.07166772 -0.05415904 0.07526668
v -0.07234724 -0.05400006 0.07555407
v -0.07366485 -0.05312477 0.07528898
v -0.07480014 -0.05224421 0.07512770
v -0.03457996 -0.05224421 0.07708023
v -0.03457996 -0.05287339 0.07172878
v -0.06931426 -0.05297729 0.07172878
v -0.07184588 -0.05526704 0.07717975
v -0.06928939 -0.05298830 0.07172878
v -0.07381816 -0.05423756 0.07719862
v -0.07570755 -0.05312812 0.07732301
v -0.07482915 -0.05224421 0.07515344
v -0.03457996 -0.05289589 0.07885261
v -0.07435265 -0.05224421 0.08048516
v -0.03457996 -0.05528140 0.07713085
v -0.03533821 -0.05292702 0.07172878
v -0.07106278 -0.05581769 0.07788578
v -0.07252955 -0.05510088 0.07760869
v -0.06877975 -0.05320569 0.07172878
v -0.07001035 -0.05582774 0.07692496
v -0.06964573 -0.05619117 0.07730500
v -0.07395489 -0.05432423 0.07788578
v -0.07514819 -0.05355619 0.07788578
v -0.07574485 -0.05315542 0.07788578
v -0.07625449 -0.05277283 0.07788578
v -0.07688843 -0.05226241 0.07788578
v -0.07675998 -0.05224421 0.07727411
v -0.07670198 -0.05224421 0.07717718
v -0.07446453 -0.05400581 0.07788578
v -0.03457996 -0.05312621 0.07936305
v -0.07511090 -0.05224421 0.08048859
v -0.07414963 -0.05260668 0.08049202
v -0.07106278 -0.05391483 0.08049030
v -0.03457996 -0.05462589 0.08003220
v -0.03457996 -0.05388850 0.07988636
v -0.03457996 -0.05363664 0.07982802
v -0.03457996 -0.05325836 0.07948744
v -0.03533821 -0.05531253 0.07708538
v -0.03457996 -0.05550837 0.07788578
v -0.04612768 -0.05615239 0.07740966
v -0.04680720 -0.05617298 0.07734017
v -0.03942362 -0.05317457 0.07172878
v -0.07106278 -0.05577651 0.07890666
v -0.07262070 -0.05515068 0.07850174
v -0.07262070 -0.05515068 0.07828985
v -0.07214836 -0.05533934 0.07792353
v -0.07032939 -0.05608535 0.07788578
v -0.07301848 -0.05487344 0.07792353
v -0.06802565 -0.05346043 0.07172878
v -0.06981975 -0.05624241 0.07788578
v -0.06800079 -0.05346857 0.07172878
v -0.06701466 -0.05376879 0.07172878
v -0.06698151 -0.05377789 0.07172878
v -0.06902422 -0.05627928 0.07716345
v -0.06800079 -0.05671453 0.07788578
v -0.06902422 -0.05646458 0.07788578
v -0.07446867 -0.05401395 0.07890666
v -0.07514819 -0.05356433 0.07890666
v -0.07573656 -0.05315589 0.07890666
v -0.07687186 -0.05224421 0.07837735
v -0.07690915 -0.05224421 0.07788578
v -0.07624620 -0.05273453 0.07890666
v -0.07555425 -0.05224421 0.08047744
v -0.07505289 -0.05252289 0.08048859
v -0.07106278 -0.05438312 0.08049030
v -0.06800079 -0.05507407 0.08046285
v -0.06728812 -0.05510328 0.08045428
v -0.06728812 -0.05521772 0.08045428
v -0.06800079 -0.05523448 0.08046285
v -0.06187682 -0.05564627 0.08028270
v -0.06085753 -0.05564627 0.08026382
v -0.04452832 -0.05557636 0.07985976
v -0.04350489 -0.05554955 0.07983918
v -0.03457996 -0.05479827 0.07992925
v -0.03457996 -0.05550549 0.07864243
v -0.04475206 -0.05617202 0.07849059
v -0.04475206 -0.05617202 0.07826153
v -0.04350489 -0.05606811 0.07788578
v -0.04650887 -0.05622373 0.07780428
v -0.06289610 -0.05711052 0.07788578
v -0.05269500 -0.05391292 0.07172878
v -0.04761931 -0.05365339 0.07172878
v -0.06391952 -0.05679114 0.07686491
v -0.07183760 -0.05524740 0.07960926
v -0.07251712 -0.05510088 0.07918204
v -0.07214007 -0.05532737 0.07886805
v -0.06980318 -0.05623618 0.07873423
v -0.07010151 -0.05607817 0.07900703
v -0.06952972 -0.05615622 0.07941453
v -0.07301848 -0.05487009 0.07886805
v -0.07395489 -0.05432040 0.07890666
v -0.06599123 -0.05399767 0.07172878
v -0.06800079 -0.05640952 0.07698844
v -0.06698151 -0.05691899 0.07788578
v -0.06698151 -0.05686775 0.07890666
v -0.06800079 -0.05666282 0.07890666
v -0.07381816 -0.05423230 0.07961784
v -0.07569927 -0.05312860 0.07947114
v -0.07683042 -0.05224421 0.07890666
v -0.07583186 -0.05224421 0.08028270
v -0.07465098 -0.05310610 0.08044484
v -0.07412891 -0.05319899 0.08047401
v -0.07208620 -0.05421697 0.08047572
v -0.07304748 -0.05358013 0.08048430
v -0.06976589 -0.05519043 0.08046628
v -0.06902422 -0.05521389 0.08047143
v -0.06696079 -0.05559312 0.08035133
v -0.06391952 -0.05653257 0.07986663
v -0.06289610 -0.05653257 0.07985204
v -0.06187682 -0.05651725 0.07984175
v -0.03533821 -0.05529242 0.07964358
v -0.04860959 -0.05620410 0.07948573
v -0.03457996 -0.05527278 0.07962128
v -0.03457996 -0.05550023 0.07890666
v -0.04350489 -0.05603555 0.07890666
v -0.04445788 -0.05609924 0.07886119
v -0.04759030 -0.05627640 0.07890666
v -0.06187682 -0.05698602 0.07890666
v -0.04759030 -0.05629077 0.07788578
v -0.04554760 -0.05619692 0.07806508
v -0.06289610 -0.05702912 0.07890666
v -0.06391952 -0.05713541 0.07788578
v -0.05983411 -0.05420356 0.07172878
v -0.06493880 -0.05713015 0.07788578
v -0.06493880 -0.05678491 0.07686491
v -0.06289610 -0.05424235 0.07172878
v -0.06190996 -0.05424379 0.07172878
v -0.06187682 -0.05424379 0.07172878
v -0.06085753 -0.05422559 0.07172878
v -0.05986726 -0.05420452 0.07172878
v -0.07106278 -0.05539297 0.07980229
v -0.07267043 -0.05414994 0.08045685
v -0.07304748 -0.05438935 0.07994555
v -0.06912366 -0.05635972 0.07900703
v -0.06885019 -0.05624815 0.07957924
v -0.06595809 -0.05400485 0.07172878
v -0.06595809 -0.05667526 0.07686491
v -0.06595809 -0.05706311 0.07788578
v -0.06698151 -0.05646314 0.07982888
v -0.06800079 -0.05635780 0.07973194
v -0.06595809 -0.05698267 0.07890666
v -0.07505289 -0.05327943 0.07985805
v -0.07605974 -0.05248362 0.07983746
v -0.07655696 -0.05224421 0.07961441
v -0.07533464 -0.05282167 0.08015145
v -0.07618819 -0.05224421 0.07997043
v -0.07044955 -0.05505204 0.08041824
v -0.06800079 -0.05574490 0.08024238
v -0.06595809 -0.05651534 0.07986320
v -0.06493880 -0.05652779 0.07987435
v -0.04759030 -0.05617776 0.07944884
v -0.03457996 -0.05533551 0.07942997
v -0.04705166 -0.05616053 0.07942310
v -0.06391952 -0.05702768 0.07890666
v -0.06493880 -0.05701571 0.07890666
v -0.06524127 -0.05409679 0.07172878
v -0.06474406 -0.05414802 0.07172878
v -0.06394024 -0.05420452 0.07172878
v -0.06391952 -0.05420596 0.07172878
v -0.06292925 -0.05424139 0.07172878
v -0.07008079 -0.05551076 0.08001761
v -0.06525785 -0.05409487 0.07172878
f 1 2 3
f 1 3 9
f 1 9 17
f 1 17 33
f 1 33 32
f 1 32 66
f 1 66 65
f 1 65 104
f 1 104 149
f 1 149 151
f 1 151 105
f 1 105 68
f 1 68 36
f 1 36 19
f 1 19 10
f 1 10 4
f 1 4 11
f 1 11 21
f 1 21 47
f 1 47 87
f 1 87 86
f 1 86 128
f 1 128 135
f 1 135 134
f 1 134 133
f 1 133 132
f 1 132 131
f 1 131 165
f 1 165 164
f 1 164 163
f 1 163 162
f 1 162 161
f 1 161 167
f 1 167 141
f 1 141 97
f 1 97 58
f 1 58 57
f 1 57 56
f 1 56 54
f 1 54 24
f 1 24 14
f 1 14 12
f 1 12 5
f 1 5 2
f 2 5 3
f 3 6 7
f 3 7 8
f 3 8 9
f 3 5 6
f 4 10 18
f 4 18 35
f 4 35 42
f 4 42 41
f 4 41 40
f 4 40 39
f 4 39 79
f 4 79 118
f 4 118 157
f 4 157 119
f 4 119 80
f 4 80 44
f 4 44 20
f 4 20 11
f 5 12 6
f 6 13 7
f 6 12 14
f 6 14 13
f 7 13 15
f 7 15 8
f 8 15 16
f 8 16 17
f 8 17 9
f 10 19 18
f 11 20 21
f 13 22 23
f 13 23 15
f 13 14 24
f 13 24 25
f 13 25 26
f 13 26 22
f 15 27 16
f 15 23 27
f 16 28 29
f 16 29 30
f 16 30 31
f 16 31 32
f 16 32 33
f 16 33 17
f 16 27 34
f 16 34 28
f 18 19 35
f 19 36 37
f 19 37 38
f 19 38 39
f 19 39 40
f 19 40 41
f 19 41 42
f 19 42 35
f 20 43 21
f 20 44 45
f 20 45 46
f 20 46 43
f 21 43 46
f 21 46 47
f 22 48 49
f 22 49 50
f 22 50 51
f 22 51 23
f 22 26 52
f 22 52 48
f 23 51 50
f 23 50 53
f 23 53 27
f 24 26 25
f 24 54 26
f 26 55 52
f 26 54 56
f 26 56 57
f 26 57 58
f 26 58 59
f 26 59 60
f 26 60 61
f 26 61 55
f 27 62 34
f 27 53 50
f 27 50 62
f 28 63 29
f 28 34 62
f 28 62 63
f 29 63 64
f 29 64 30
f 30 64 31
f 31 65 66
f 31 66 32
f 31 64 67
f 31 67 65
f 36 68 69
f 36 69 37
f 37 69 70
f 37 70 38
f 38 70 74
f 38 74 71
f 38 71 72
f 38 72 39
f 39 73 74
f 39 74 75
f 39 75 76
f 39 76 77
f 39 77 78
f 39 78 79
f 39 72 73
f 44 80 81
f 44 81 82
f 44 82 83
f 44 83 45
f 45 83 84
f 45 84 85
f 45 85 46
f 46 86 87
f 46 87 47
f 46 85 88
f 46 88 86
f 48 89 90
f 48 90 91
f 48 91 49
f 48 52 92
f 48 92 93
f 48 93 94
f 48 94 89
f 49 91 90
f 49 90 95
f 49 95 96
f 49 96 62
f 49 62 50
f 52 55 92
f 55 61 92
f 58 97 59
f 59 97 98
f 59 98 99
f 59 99 60
f 60 99 100
f 60 100 101
f 60 101 92
f 60 92 61
f 62 96 102
f 62 102 103
f 62 103 63
f 63 103 64
f 64 103 67
f 65 67 104
f 67 103 104
f 68 105 106
f 68 106 69
f 69 106 107
f 69 107 108
f 69 108 109
f 69 109 70
f 70 109 108
f 70 108 110
f 70 110 111
f 70 111 74
f 71 74 73
f 71 73 72
f 74 111 112
f 74 112 75
f 75 112 113
f 75 113 114
f 75 114 115
f 75 115 76
f 76 115 77
f 77 115 78
f 78 116 79
f 78 115 117
f 78 117 116
f 79 116 118
f 80 119 81
f 81 119 120
f 81 120 121
f 81 121 122
f 81 122 123
f 81 123 85
f 81 85 82
f 82 124 125
f 82 125 83
f 82 85 124
f 83 125 124
f 83 124 84
f 84 124 85
f 85 123 126
f 85 126 127
f 85 127 88
f 86 88 128
f 88 127 129
f 88 129 130
f 88 130 131
f 88 131 132
f 88 132 133
f 88 133 134
f 88 134 135
f 88 135 128
f 89 94 136
f 89 136 137
f 89 137 138
f 89 138 102
f 89 102 90
f 90 102 96
f 90 96 95
f 92 101 139
f 92 139 94
f 92 94 93
f 94 139 101
f 94 101 140
f 94 140 136
f 97 141 98
f 98 141 142
f 98 142 99
f 99 142 143
f 99 143 100
f 100 144 145
f 100 145 140
f 100 140 101
f 100 143 146
f 100 146 144
f 102 106 147
f 102 147 103
f 102 138 106
f 103 148 149
f 103 149 104
f 103 147 106
f 103 106 150
f 103 150 148
f 105 151 150
f 105 150 106
f 106 138 137
f 106 137 107
f 107 137 108
f 108 137 110
f 110 152 145
f 110 145 144
f 110 144 153
f 110 153 112
f 110 112 111
f 110 137 152
f 112 153 154
f 112 154 155
f 112 155 113
f 113 155 126
f 113 126 114
f 114 126 115
f 115 126 117
f 116 117 118
f 117 156 118
f 117 126 156
f 118 156 158
f 118 158 157
f 119 157 158
f 119 158 120
f 120 158 121
f 121 158 122
f 122 158 123
f 123 158 156
f 123 156 126
f 126 155 159
f 126 159 127
f 127 159 129
f 129 159 160
f 129 160 146
f 129 146 143
f 129 143 130
f 130 161 162
f 130 162 163
f 130 163 164
f 130 164 165
f 130 165 131
f 130 143 142
f 130 142 161
f 136 140 166
f 136 166 152
f 136 152 137
f 140 145 166
f 141 167 142
f 142 167 161
f 144 146 154
f 144 154 153
f 145 152 166
f 146 160 154
f 148 150 151
f 148 151 149
f 154 160 155
f 155 160 159

