# https://github.com/mikedh/trimesh
v 0.01443096 -0.04467093 0.08007097
v 0.01443096 -0.04362983 0.07994113
v 0.01163247 -0.02155335 0.07674748
v 0.01332373 -0.04577606 0.08001381
v 0.01366395 -0.04577606 0.08000972
v 0.01443096 -0.04577606 0.07985865
v 0.01443096 -0.02155335 0.07716149
v 0.01163247 -0.02155335 0.07172878
v 0.01163247 -0.03618326 0.07854151
v 0.01265890 -0.04577606 0.07975658
v 0.01443096 -0.04577606 0.07586149
v 0.01443096 -0.02155335 0.07172878
v 0.01163247 -0.04518792 0.07172878
v 0.01163247 -0.03726942 0.07860929
v 0.01217869 -0.04577606 0.07951977
v 0.01238250 -0.04577606 0.07964879
v 0.01338427 -0.04577606 0.07447657
v 0.01406937 -0.04478477 0.07442186
v 0.01443096 -0.04520927 0.07532500
v 0.01443096 -0.04090733 0.07172878
v 0.01359930 -0.04237530 0.07172878
v 0.01163247 -0.04577606 0.07297570
v 0.01163247 -0.03829154 0.07864522
v 0.01208638 -0.04577606 0.07941525
v 0.01443096 -0.04451441 0.07470031
v 0.01406690 -0.04168044 0.07172878
v 0.01443096 -0.04102353 0.07173368
v 0.01437371 -0.04114211 0.07172878
v 0.01163247 -0.04577606 0.07847128
v 0.01163247 -0.03929470 0.07867298
v 0.01183710 -0.04577606 0.07890652
v 0.01163247 -0.03931130 0.07867298
v 0.01435262 -0.04118480 0.07172878
v 0.01436138 -0.04116820 0.07172878
f 1 2 3
f 1 3 4
f 1 4 5
f 1 5 6
f 1 6 11
f 1 11 19
f 1 19 25
f 1 25 27
f 1 27 20
f 1 20 12
f 1 12 7
f 1 7 2
f 2 7 3
f 3 7 12
f 3 12 8
f 3 8 13
f 3 13 22
f 3 22 29
f 3 29 32
f 3 32 30
f 3 30 23
f 3 23 14
f 3 14 9
f 3 9 4
f 4 10 16
f 4 16 15
f 4 15 24
f 4 24 31
f 4 31 29
f 4 29 22
f 4 22 17
f 4 17 11
f 4 11 6
f 4 6 5
f 4 9 10
f 8 12 20
f 8 20 28
f 8 28 34
f 8 34 33
f 8 33 26
f 8 26 21
f 8 21 13
f 9 14 15
f 9 15 16
f 9 16 10
f 11 17 18
f 11 18 19
f 13 21 18
f 13 18 17
f 13 17 22
f 14 23 15
f 15 23 24
f 18 25 19
f 18 21 26
f 18 26 25
f 20 27 28
f 23 30 24
f 24 30 32
f 24 32 31
f 25 26 33
f 25 33 34
f 25 34 28
f 25 28 27
f 29 31 32

