# https://github.com/mikedh/trimesh
v 0.01733700 -0.02910541 0.08049037
v 0.01727037 -0.02400131 0.08045778
v 0.01631195 -0.01175216 0.08047150
v 0.01713911 -0.02910541 0.08049037
v 0.01731496 -0.02984976 0.08047836
v 0.01774733 -0.03624704 0.08010700
v 0.01839963 -0.03522484 0.07964216
v 0.01842368 -0.03318732 0.07963873
v 0.01842318 -0.03216513 0.07963702
v 0.01725835 -0.02334958 0.08045091
v 0.01683751 -0.01277435 0.08027595
v 0.01625484 -0.01109699 0.08045349
v 0.01610904 -0.01175216 0.08047150
v 0.01443118 -0.04466812 0.08006926
v 0.01716466 -0.02984976 0.08047836
v 0.01468519 -0.04441428 0.08008470
v 0.01672628 -0.03931018 0.08012587
v 0.01672628 -0.04033238 0.08008213
v 0.01774733 -0.03726923 0.08006669
v 0.01838310 -0.03624704 0.07963359
v 0.01867369 -0.03522484 0.07890632
v 0.01867719 -0.03420608 0.07890632
v 0.01867519 -0.03318732 0.07890632
v 0.01864863 -0.03216513 0.07890632
v 0.01827088 -0.02631325 0.07943805
v 0.01756697 -0.01481530 0.07985400
v 0.01759903 -0.01583407 0.07987287
v 0.01751236 -0.01379311 0.07981541
v 0.01746777 -0.01277435 0.07976566
v 0.01682197 -0.01175216 0.08017733
v 0.01614612 -0.01109699 0.08045349
v 0.01668420 -0.01073340 0.08002810
v 0.01576536 -0.01073340 0.08034371
v 0.01443118 -0.04577606 0.07985829
v 0.01509451 -0.01073340 0.07996292
v 0.01485854 -0.01073340 0.07982827
v 0.01367767 -0.01073340 0.07738573
v 0.01367767 -0.02155217 0.07694062
v 0.01444621 -0.04577606 0.07985486
v 0.01570624 -0.04339209 0.07999036
v 0.01672628 -0.04135114 0.07994148
v 0.01749783 -0.04033238 0.07970563
v 0.01762659 -0.03931018 0.07979482
v 0.01782649 -0.03829828 0.07981712
v 0.01834453 -0.03726923 0.07957184
v 0.01863861 -0.03624704 0.07890632
v 0.01879493 -0.03522484 0.07788573
v 0.01877890 -0.03420608 0.07788573
v 0.01861657 -0.02910541 0.07788573
v 0.01796727 -0.01481530 0.07890632
v 0.01788560 -0.01379311 0.07890632
v 0.01739612 -0.01175216 0.07966618
v 0.01731196 -0.01096665 0.07954268
v 0.01682598 -0.01073340 0.07990889
v 0.01673881 -0.01073340 0.07998522
v 0.01443118 -0.04577606 0.07586257
v 0.01367767 -0.01073340 0.07172964
v 0.01367767 -0.02155217 0.07172964
v 0.01466816 -0.04577606 0.07975366
v 0.01476034 -0.04550165 0.07980683
v 0.01643019 -0.04339209 0.07961729
v 0.01572077 -0.04439027 0.07971420
v 0.01675384 -0.04230130 0.07969619
v 0.01735003 -0.04135114 0.07955468
v 0.01829743 -0.03796212 0.07948522
v 0.01854493 -0.03726923 0.07890632
v 0.01873481 -0.03624704 0.07788573
v 0.01847880 -0.03624704 0.07698350
v 0.01852088 -0.03522484 0.07696206
v 0.01850886 -0.03420608 0.07696892
v 0.01845675 -0.03012417 0.07708813
v 0.01843821 -0.02910541 0.07711643
v 0.01831346 -0.02298255 0.07728882
v 0.01803540 -0.01481530 0.07788573
v 0.01796577 -0.01379311 0.07788573
v 0.01777288 -0.01277435 0.07890632
v 0.01761306 -0.01175216 0.07890632
v 0.01734703 -0.01073340 0.07902810
v 0.01443118 -0.04520665 0.07532570
v 0.01456094 -0.04577606 0.07600665
v 0.01386655 -0.01073340 0.07172964
v 0.01443118 -0.04090521 0.07172964
v 0.01443118 -0.04102184 0.07173478
v 0.01443118 -0.04451376 0.07470134
v 0.01518970 -0.04577606 0.07937030
v 0.01539061 -0.04520665 0.07958642
v 0.01628490 -0.04403010 0.07949637
v 0.01725735 -0.04191025 0.07944319
v 0.01821978 -0.03864130 0.07928024
v 0.01837759 -0.03829828 0.07892604
v 0.01861506 -0.03726923 0.07788573
v 0.01830795 -0.03899804 0.07860014
v 0.01846977 -0.03829142 0.07788573
v 0.01834953 -0.03829142 0.07719877
v 0.01841466 -0.03726923 0.07706154
v 0.01595674 -0.03522484 0.07172964
v 0.01600834 -0.03420608 0.07172964
v 0.01602588 -0.03318732 0.07172964
v 0.01602337 -0.03216513 0.07172964
v 0.01601836 -0.03114637 0.07172964
v 0.01600233 -0.03012417 0.07172964
v 0.01597428 -0.02910541 0.07172964
v 0.01594121 -0.02808665 0.07172964
v 0.01586255 -0.02604570 0.07172964
v 0.01581395 -0.02502350 0.07172964
v 0.01759302 -0.01379311 0.07693461
v 0.01752238 -0.01277435 0.07700494
v 0.01743019 -0.01175216 0.07710957
v 0.01782799 -0.01277435 0.07788573
v 0.01764713 -0.01175216 0.07788573
v 0.01737258 -0.01073340 0.07888144
v 0.01507397 -0.04571089 0.07652981
v 0.01504190 -0.04577606 0.07655554
v 0.01730143 -0.01073340 0.07732312
v 0.01733250 -0.01093578 0.07723564
v 0.01410703 -0.01142286 0.07172964
v 0.01476185 -0.04033238 0.07172964
v 0.01518569 -0.04286041 0.07432483
v 0.01526535 -0.04577606 0.07922021
v 0.01675584 -0.04339209 0.07890632
v 0.01554792 -0.04550165 0.07895520
v 0.01607448 -0.04470242 0.07890632
v 0.01636706 -0.04419132 0.07890632
v 0.01731947 -0.04208176 0.07890632
v 0.01757398 -0.04135114 0.07890632
v 0.01788160 -0.04033238 0.07890632
v 0.01711556 -0.04259286 0.07890632
v 0.01813962 -0.03932733 0.07892604
v 0.01829042 -0.03894658 0.07731283
v 0.01799783 -0.04033238 0.07788573
v 0.01819623 -0.03956745 0.07788573
v 0.01831997 -0.03905978 0.07788573
v 0.01568970 -0.03726923 0.07172964
v 0.01584301 -0.03624704 0.07172964
v 0.01581195 -0.02499263 0.07172964
v 0.01558399 -0.02196036 0.07172964
v 0.01549331 -0.02093817 0.07172964
v 0.01539962 -0.01991940 0.07172964
v 0.01529792 -0.01889035 0.07172964
v 0.01510253 -0.01692143 0.07172964
v 0.01509101 -0.01681853 0.07172964
v 0.01496575 -0.01583407 0.07172964
v 0.01468068 -0.01379311 0.07172964
v 0.01467517 -0.01376224 0.07172964
v 0.01448729 -0.01277435 0.07172964
v 0.01739061 -0.01073340 0.07787973
v 0.01533900 -0.04577606 0.07706412
v 0.01511105 -0.04577606 0.07665846
v 0.01610955 -0.04367679 0.07652295
v 0.01631195 -0.04409185 0.07720391
v 0.01448128 -0.01274691 0.07172964
v 0.01426635 -0.01195454 0.07172964
v 0.01411455 -0.01144687 0.07172964
v 0.01508549 -0.03948169 0.07172964
v 0.01731396 -0.04204746 0.07722106
v 0.01695674 -0.04238362 0.07687458
v 0.01647177 -0.04336122 0.07686429
v 0.01542618 -0.04577606 0.07880769
v 0.01715514 -0.04269577 0.07788573
v 0.01550433 -0.04577606 0.07828796
v 0.01574381 -0.04543648 0.07788573
v 0.01612508 -0.04474701 0.07788573
v 0.01638760 -0.04423591 0.07788573
v 0.01681596 -0.04339209 0.07788573
v 0.01736256 -0.04218467 0.07788573
v 0.01767518 -0.04135114 0.07788573
v 0.01546325 -0.03829142 0.07172964
v 0.01547127 -0.03825712 0.07172964
v 0.01745123 -0.04135114 0.07700580
v 0.01759652 -0.04042842 0.07676309
v 0.01553940 -0.04577606 0.07788573
v 0.01524882 -0.03898775 0.07172964
v 0.01526085 -0.03895001 0.07172964
f 1 2 3
f 1 3 13
f 1 13 4
f 1 4 15
f 1 15 5
f 1 5 6
f 1 6 7
f 1 7 8
f 1 8 9
f 1 9 2
f 2 10 3
f 2 9 10
f 3 11 12
f 3 12 31
f 3 31 13
f 3 10 11
f 4 13 14
f 4 14 15
f 5 15 16
f 5 16 17
f 5 17 18
f 5 18 19
f 5 19 6
f 6 19 20
f 6 20 7
f 7 20 21
f 7 21 8
f 8 21 22
f 8 22 9
f 9 22 23
f 9 23 24
f 9 24 25
f 9 25 26
f 9 26 27
f 9 27 10
f 10 27 26
f 10 26 11
f 11 26 28
f 11 28 29
f 11 29 30
f 11 30 12
f 12 30 32
f 12 32 33
f 12 33 31
f 13 31 33
f 13 33 14
f 14 34 16
f 14 16 15
f 14 33 35
f 14 35 36
f 14 36 37
f 14 37 38
f 14 38 34
f 16 34 39
f 16 39 40
f 16 40 18
f 16 18 17
f 18 40 41
f 18 41 19
f 19 41 42
f 19 42 43
f 19 43 44
f 19 44 45
f 19 45 20
f 20 46 21
f 20 45 46
f 21 46 47
f 21 47 22
f 22 47 23
f 23 47 48
f 23 48 24
f 24 48 49
f 24 49 50
f 24 50 25
f 25 50 26
f 26 50 29
f 26 29 28
f 29 50 51
f 29 51 52
f 29 52 30
f 30 52 53
f 30 53 54
f 30 54 55
f 30 55 32
f 32 55 54
f 32 54 78
f 32 78 111
f 32 111 146
f 32 146 114
f 32 114 81
f 32 81 57
f 32 57 37
f 32 37 36
f 32 36 35
f 32 35 33
f 34 56 80
f 34 80 113
f 34 113 148
f 34 148 147
f 34 147 171
f 34 171 160
f 34 160 158
f 34 158 119
f 34 119 85
f 34 85 59
f 34 59 39
f 34 38 58
f 34 58 56
f 37 57 58
f 37 58 38
f 39 59 60
f 39 60 40
f 40 61 41
f 40 60 62
f 40 62 61
f 41 61 63
f 41 63 64
f 41 64 42
f 42 65 43
f 42 64 65
f 43 65 44
f 44 65 45
f 45 65 66
f 45 66 46
f 46 67 47
f 46 66 67
f 47 67 68
f 47 68 69
f 47 69 70
f 47 70 48
f 48 71 72
f 48 72 73
f 48 73 49
f 48 70 71
f 49 73 74
f 49 74 50
f 50 74 75
f 50 75 51
f 51 75 76
f 51 76 52
f 52 76 53
f 53 76 77
f 53 77 78
f 53 78 54
f 56 79 80
f 56 58 79
f 57 81 116
f 57 116 153
f 57 153 152
f 57 152 151
f 57 151 145
f 57 145 144
f 57 144 143
f 57 143 142
f 57 142 141
f 57 141 140
f 57 140 139
f 57 139 138
f 57 138 137
f 57 137 136
f 57 136 135
f 57 135 105
f 57 105 104
f 57 104 103
f 57 103 102
f 57 102 101
f 57 101 100
f 57 100 99
f 57 99 98
f 57 98 97
f 57 97 96
f 57 96 134
f 57 134 133
f 57 133 168
f 57 168 167
f 57 167 173
f 57 173 172
f 57 172 154
f 57 154 117
f 57 117 82
f 57 82 58
f 58 82 83
f 58 83 84
f 58 84 79
f 59 85 86
f 59 86 60
f 60 86 62
f 61 87 88
f 61 88 64
f 61 64 63
f 61 62 87
f 62 86 87
f 64 88 65
f 65 88 89
f 65 89 90
f 65 90 66
f 66 91 67
f 66 90 92
f 66 92 93
f 66 93 91
f 67 91 94
f 67 94 95
f 67 95 68
f 68 96 69
f 68 95 96
f 69 96 97
f 69 97 98
f 69 98 99
f 69 99 100
f 69 100 70
f 70 100 101
f 70 101 71
f 71 101 102
f 71 102 72
f 72 102 103
f 72 103 73
f 73 103 104
f 73 104 105
f 73 105 106
f 73 106 74
f 74 106 75
f 75 106 107
f 75 107 108
f 75 108 109
f 75 109 76
f 76 109 77
f 77 110 111
f 77 111 78
f 77 109 110
f 79 84 112
f 79 112 80
f 80 112 113
f 81 114 115
f 81 115 116
f 82 117 83
f 83 117 118
f 83 118 112
f 83 112 84
f 85 119 87
f 85 87 86
f 87 120 88
f 87 119 121
f 87 121 122
f 87 122 123
f 87 123 120
f 88 124 125
f 88 125 126
f 88 126 89
f 88 120 127
f 88 127 124
f 89 126 128
f 89 128 92
f 89 92 90
f 91 93 129
f 91 129 94
f 92 128 126
f 92 126 130
f 92 130 131
f 92 131 132
f 92 132 93
f 93 132 129
f 94 133 134
f 94 134 95
f 94 129 133
f 95 134 96
f 105 135 106
f 106 135 136
f 106 136 137
f 106 137 138
f 106 138 139
f 106 139 140
f 106 140 107
f 107 140 141
f 107 141 142
f 107 142 143
f 107 143 108
f 108 143 144
f 108 144 145
f 108 145 115
f 108 115 109
f 109 115 110
f 110 115 114
f 110 114 146
f 110 146 111
f 112 147 148
f 112 148 113
f 112 118 149
f 112 149 150
f 112 150 147
f 115 145 151
f 115 151 152
f 115 152 153
f 115 153 116
f 117 154 155
f 117 155 156
f 117 156 118
f 118 156 157
f 118 157 149
f 119 158 121
f 120 159 127
f 120 123 159
f 121 158 122
f 122 158 160
f 122 160 161
f 122 161 123
f 123 161 162
f 123 162 163
f 123 163 164
f 123 164 159
f 124 165 166
f 124 166 125
f 124 127 165
f 125 166 130
f 125 130 126
f 127 159 165
f 129 167 168
f 129 168 133
f 129 132 131
f 129 131 130
f 129 130 155
f 129 155 169
f 129 169 170
f 129 170 167
f 130 166 155
f 147 161 171
f 147 150 161
f 149 157 150
f 150 157 156
f 150 156 155
f 150 155 164
f 150 164 163
f 150 163 162
f 150 162 161
f 154 172 169
f 154 169 155
f 155 166 165
f 155 165 159
f 155 159 164
f 160 171 161
f 167 170 169
f 167 169 173
f 169 172 173

