# https://github.com/mikedh/trimesh
v 0.01602710 -0.03455865 0.03908922
v 0.01601778 -0.03455865 0.06461078
v 0.01597115 -0.03523029 0.06461078
v 0.01597115 -0.03523029 0.06359286
v 0.01584062 -0.03625196 0.06461078
v 0.01589657 -0.03523029 0.02378367
v 0.01591987 -0.03455865 0.00439172
v 0.01598980 -0.03455865 0.07172878
v 0.01595717 -0.03519831 0.07172878
v 0.01584528 -0.03621998 0.07172878
v 0.01569611 -0.03727185 0.06971508
v 0.01584528 -0.03523029 0.00847074
v 0.01584062 -0.03523029 0.00745283
v 0.01582197 -0.03523029 0.00439172
v 0.01590589 -0.03455865 0.00336643
v -0.03159380 -0.03455865 0.07172878
v 0.01584062 -0.03625196 0.07172878
v 0.01568678 -0.03727185 0.07172878
v 0.01546301 -0.03829352 0.07172878
v 0.01565881 -0.03625196 0.00847074
v 0.01566347 -0.03625196 0.00949603
v 0.01562152 -0.03625196 0.00439172
v 0.01580799 -0.03523029 0.00336643
v 0.01564482 -0.03625196 0.00642754
v 0.01576603 -0.03523029 0.00234852
v 0.01571009 -0.03523029 0.00132323
v 0.01579400 -0.03455865 0.00132323
v -0.03159380 -0.05271062 0.07172878
v -0.03159380 -0.03455865 -0.00056507
v 0.01525323 -0.03897582 0.07172878
v 0.01545369 -0.03829352 0.06971508
v 0.01538376 -0.03727185 0.00540963
v 0.01536511 -0.03727185 0.00439172
v 0.01559821 -0.03625196 0.00336643
v 0.01556091 -0.03625196 0.00234852
v 0.01550497 -0.03625196 0.00132323
v 0.01556091 -0.03523029 0.00030532
v 0.01571475 -0.03455865 0.00065200
v -0.00675541 -0.05135135 0.07073299
v -0.00675541 -0.05134780 0.07172878
v -0.03159380 -0.05213315 0.00336643
v -0.02819064 -0.05198034 0.00336643
v 0.01264259 -0.03455865 -0.00191491
v -0.03159380 -0.04952123 -0.00359668
v 0.01508074 -0.03948577 0.07172878
v 0.01521127 -0.03783688 0.00540963
v 0.01520661 -0.03781378 0.00439172
v 0.01519728 -0.03779424 0.00374262
v 0.01518796 -0.03776225 0.00305663
v 0.01530917 -0.03736247 0.00338856
v 0.01531383 -0.03719723 0.00234852
v 0.01528586 -0.03711727 0.00132323
v 0.01524857 -0.03697335 0.00057824
v 0.01566347 -0.03455865 0.00030532
v 0.01533714 -0.03628394 0.00026844
v 0.01516465 -0.03664464 -0.00010037
v 0.01523924 -0.03596411 -0.00029215
v 0.01531383 -0.03523029 -0.00041017
v -0.00270426 -0.05111681 0.07172878
v -0.00573446 -0.05129094 0.07172878
v -0.00165067 -0.05037588 0.00234852
v -0.03159380 -0.05186841 -0.00173788
v -0.01409318 -0.05107772 -0.00142070
v 0.01366353 -0.03455865 -0.00180426
v 0.01162164 -0.03829352 -0.00212882
v 0.01060069 -0.03937205 -0.00222471
v -0.00573446 -0.04787234 -0.00330163
v -0.00675541 -0.04777639 -0.00333113
v -0.01287643 -0.04849956 -0.00346390
v -0.01696022 -0.04849956 -0.00349341
v -0.02819064 -0.04952123 -0.00362618
v -0.03159380 -0.05059976 -0.00344177
v 0.01475907 -0.04033508 0.07172878
v 0.01467050 -0.03931341 0.00540963
v 0.01503412 -0.03834683 0.00540963
v 0.01502480 -0.03832550 0.00439172
v 0.01517398 -0.03770717 0.00234852
v 0.01503878 -0.03819757 0.00338856
v 0.01515067 -0.03762722 0.00132323
v 0.01508540 -0.03729850 0.00026844
v 0.01536977 -0.03455865 -0.00049868
v 0.01425559 -0.03895805 -0.00035116
v 0.01440011 -0.03829352 -0.00054294
v 0.01453530 -0.03731805 -0.00080111
v 0.01489893 -0.03628394 -0.00066833
v 0.01495487 -0.03523029 -0.00091913
v 0.01501547 -0.03455865 -0.00100764
v -0.00200031 -0.05106706 0.07172878
v -0.00471352 -0.05051980 -0.00071259
v -0.00062973 -0.05030125 0.00234852
v -0.03159380 -0.05173514 -0.00208456
v -0.01613041 -0.05106884 -0.00227634
v -0.01544978 -0.05105107 -0.00223946
v -0.03124882 -0.05185241 -0.00173788
v -0.01491833 -0.05109904 -0.00161986
v -0.01491833 -0.05103330 -0.00212882
v 0.01366353 -0.03523029 -0.00176738
v 0.01264259 -0.03829352 -0.00192966
v 0.01264259 -0.03727185 -0.00197392
v 0.01450733 -0.03455865 -0.00145759
v 0.01162164 -0.03931341 -0.00210669
v 0.01079649 -0.04033508 -0.00220258
v 0.01028835 -0.04033508 -0.00226159
v 0.01026504 -0.03975051 -0.00225421
v -0.00519835 -0.04797184 -0.00327212
v -0.00573446 -0.04840183 -0.00330163
v -0.00675541 -0.04849245 -0.00333113
v -0.01185548 -0.04849956 -0.00344915
v -0.01798117 -0.04952123 -0.00349341
v -0.02819064 -0.05041319 -0.00345653
v -0.03159380 -0.05090715 -0.00332376
v 0.01437214 -0.04114531 0.07172878
v 0.01432086 -0.04009521 0.00540963
v 0.01431153 -0.04007567 0.00439172
v 0.01465185 -0.03931341 0.00439172
v 0.01460523 -0.03931341 0.00336643
v 0.01487562 -0.03829352 0.00132323
v 0.01473576 -0.03829352 0.00030532
v 0.01404581 -0.03829352 -0.00105927
v 0.01433950 -0.03911796 0.00030532
v 0.01406445 -0.03962969 0.00030532
v 0.01319735 -0.04091788 -0.00029953
v 0.01334186 -0.04028000 -0.00066833
v 0.01318802 -0.03990154 -0.00126580
v 0.01413904 -0.03768940 -0.00119204
v 0.01424160 -0.03700888 -0.00129531
v 0.01433950 -0.03625196 -0.00136907
v 0.01444673 -0.03523029 -0.00143546
v -0.00147352 -0.05101909 0.07172878
v -0.00369257 -0.05043274 -0.00071259
v -0.00165067 -0.05030480 0.00030532
v -0.00165067 -0.05034567 0.00132323
v -0.00062973 -0.05025861 0.00132323
v 0.00039122 -0.05017687 0.00234852
v -0.00066702 -0.05093558 0.07172878
v -0.03159380 -0.05140999 -0.00282218
v -0.03022787 -0.05142065 -0.00272629
v -0.03159380 -0.05129094 -0.00296970
v -0.02920693 -0.05096756 -0.00321311
v -0.01584604 -0.05067438 -0.00267465
v -0.01389738 -0.05047893 -0.00273366
v -0.00503052 -0.05007560 -0.00230584
v -0.00469953 -0.05023373 -0.00179689
v -0.00573446 -0.05034567 -0.00173788
v 0.01366353 -0.03625196 -0.00170100
v 0.01374279 -0.03731805 -0.00152397
v 0.01353300 -0.03829352 -0.00149447
v 0.01264259 -0.03931341 -0.00175263
v 0.01162164 -0.04033508 -0.00195917
v 0.01054941 -0.04136386 -0.00212144
v 0.00997601 -0.04171034 -0.00223208
v 0.01017646 -0.04102982 -0.00226159
v -0.00519835 -0.04820461 -0.00327212
v -0.00573446 -0.04891178 -0.00326475
v -0.01696022 -0.04952123 -0.00347866
v -0.01696022 -0.05009514 -0.00330901
v -0.01593927 -0.05007027 -0.00329425
v -0.03104836 -0.05101731 -0.00325000
v -0.03159380 -0.05116301 -0.00312460
v 0.01435815 -0.04117196 0.07172878
v 0.01434883 -0.04117374 0.07073299
v 0.01416236 -0.04082726 0.02888798
v 0.01403648 -0.04060516 0.00540963
v 0.01402716 -0.04058739 0.00439172
v 0.01387332 -0.04135498 0.02888798
v 0.01427890 -0.04002237 0.00336643
v 0.01450733 -0.03931341 0.00234852
v 0.01422762 -0.03992109 0.00234852
v 0.01436747 -0.03937205 0.00138224
v 0.01333254 -0.03931341 -0.00136907
v 0.01413438 -0.03975051 0.00107982
v 0.01367752 -0.04033508 0.00030532
v 0.01298290 -0.04058206 -0.00097814
v 0.01327660 -0.04104581 0.00030532
v 0.01295493 -0.04155576 0.00030532
v 0.01240017 -0.04242284 0.00033482
v 0.01206452 -0.04279242 0.00001765
v 0.01229761 -0.04211190 -0.00049131
v 0.01208782 -0.04179918 -0.00116991
v 0.01230227 -0.04111866 -0.00136170
v 0.01264259 -0.04028000 -0.00146496
v -0.00267162 -0.05030480 -0.00071259
v -0.00002835 -0.05005072 -0.00025527
v -0.00062973 -0.05018754 0.00030532
v -0.00369257 -0.05019287 -0.00154610
v -0.00267162 -0.05011469 -0.00137645
v 0.00047047 -0.05011646 0.00125684
v 0.00102057 -0.05005960 0.00155189
v 0.00106253 -0.05006849 0.00234852
v 0.00141217 -0.05060864 0.07172878
v 0.00035859 -0.05077566 0.07172878
v -0.00062973 -0.05093024 0.07172878
v -0.01528195 -0.05004894 -0.00327950
v -0.01389738 -0.04996010 -0.00324262
v -0.00573446 -0.04952123 -0.00284430
v -0.00469953 -0.04959586 -0.00262302
v 0.00215340 -0.04907347 -0.00130269
v -0.00203761 -0.05005605 -0.00126580
v 0.01169623 -0.04141717 -0.00159773
v 0.01060069 -0.04237665 -0.00184852
v 0.00975223 -0.04237665 -0.00215832
v 0.00907160 -0.04289370 -0.00224683
v 0.00924409 -0.04237665 -0.00226896
v 0.00855880 -0.04311047 -0.00228372
v -0.01287643 -0.04988903 -0.00320574
v -0.01593927 -0.04952123 -0.00344915
v 0.00732341 -0.04413392 -0.00229847
v 0.00621854 -0.04509695 -0.00229109
v 0.00549596 -0.04580946 -0.00220995
v 0.00549596 -0.04645800 -0.00200342
v 0.00345406 -0.04747967 -0.00198129
v 0.00447501 -0.04747967 -0.00176738
v 0.00345406 -0.04834142 -0.00152397
v 0.01406445 -0.04168191 0.07172878
v 0.01407378 -0.04168369 0.07073299
v 0.01361225 -0.04135498 0.00540963
v 0.01358894 -0.04135498 0.00439172
v 0.01398987 -0.04053231 0.00336643
v 0.01323931 -0.04200885 0.00540963
v 0.01328126 -0.04206926 0.01255714
v 0.01343044 -0.04227892 0.03908922
v 0.01393392 -0.04043103 0.00234852
v 0.01336051 -0.04119151 0.00132323
v 0.01391061 -0.04024447 0.00138224
v 0.01304817 -0.04170146 0.00132323
v 0.01216242 -0.04293101 0.00069626
v 0.01110417 -0.04390116 -0.00018888
v 0.01136524 -0.04320464 -0.00071259
v 0.01190135 -0.04242284 -0.00078635
v 0.01118342 -0.04297543 -0.00128793
v 0.01138389 -0.04237665 -0.00142808
v -0.00135698 -0.04998320 -0.00109615
v 0.00034460 -0.04980552 -0.00064621
v 0.00141217 -0.04953011 -0.00071259
v 0.00247041 -0.04923694 -0.00077898
v 0.00243312 -0.04957098 0.00030532
v 0.00141217 -0.04982151 0.00030532
v 0.00068492 -0.04998675 0.00030532
v 0.00086207 -0.05002585 0.00087328
v 0.00017677 -0.05007737 0.00030532
v 0.00137953 -0.04994411 0.00125684
v 0.00243312 -0.04969180 0.00132323
v 0.00157533 -0.04995122 0.00234852
v 0.00243312 -0.05043451 0.07073299
v 0.00243312 -0.05043451 0.07172878
v 0.00283404 -0.04897752 -0.00116254
v 0.01054475 -0.04334857 -0.00143546
v 0.00948185 -0.04329882 -0.00195917
v 0.00855880 -0.04362042 -0.00217308
v 0.00800404 -0.04385851 -0.00223946
v 0.00654021 -0.04543633 -0.00212144
v 0.00753785 -0.04543810 -0.00181164
v 0.00659149 -0.04653973 -0.00161249
v 0.00541670 -0.04748500 -0.00147971
v 0.00447501 -0.04812287 -0.00136170
v 0.01359827 -0.04237665 0.07172878
v 0.01324863 -0.04302696 0.06971508
v 0.01365421 -0.04237665 0.06971508
v 0.01322066 -0.04198042 0.00439172
v 0.01318802 -0.04192356 0.00357296
v 0.01342578 -0.04129634 0.00234852
v 0.01290831 -0.04251879 0.00540963
v 0.01289899 -0.04249036 0.00439172
v 0.01298756 -0.04260586 0.01663616
v 0.01320667 -0.04297366 0.06053175
v 0.01311343 -0.04180629 0.00234852
v 0.01290831 -0.04230913 0.00328529
v 0.01234423 -0.04316200 0.00336643
v 0.01192466 -0.04367017 0.00336643
v 0.01126268 -0.04408417 0.00132323
v 0.01119741 -0.04400243 0.00048972
v 0.01013917 -0.04497613 -0.00027740
v 0.00981284 -0.04466874 -0.00095601
v 0.01017180 -0.04398822 -0.00128056
v 0.00322097 -0.04912322 -0.00048393
v 0.00351933 -0.04921562 0.00026844
v 0.00345406 -0.04938619 0.00132323
v 0.00243312 -0.04973267 0.00234852
v 0.00243312 -0.04976821 0.00439172
v 0.00243312 -0.04978064 0.00540963
v 0.00339812 -0.05017154 0.06971508
v 0.00341677 -0.05017332 0.07073299
v 0.00338413 -0.05017510 0.07172878
v 0.00502045 -0.04800560 -0.00124368
v 0.00351933 -0.04886736 -0.00077898
v 0.00951448 -0.04436313 -0.00143546
v 0.00855880 -0.04441643 -0.00187065
v 0.00761244 -0.04445197 -0.00215832
v 0.00847955 -0.04537236 -0.00141333
v 0.00753785 -0.04620391 -0.00139858
v 0.00629780 -0.04714918 -0.00137645
v 0.01111816 -0.04596226 0.07172878
v 0.01239085 -0.04424408 0.06461078
v 0.01324863 -0.04302874 0.06869717
v 0.01314607 -0.04185959 0.00289435
v 0.01239551 -0.04322419 0.00540963
v 0.01238618 -0.04321353 0.00439172
v 0.01247942 -0.04333613 0.01663616
v 0.01244679 -0.04332014 0.01357505
v 0.01233024 -0.04418189 0.05542744
v 0.01289899 -0.04349249 0.06461078
v 0.01141652 -0.04422809 0.00336643
v 0.01080115 -0.04459412 0.00132323
v 0.01196662 -0.04372170 0.00439172
v 0.01020910 -0.04504720 0.00030532
v 0.00916484 -0.04602978 0.00049710
v 0.00906228 -0.04594094 -0.00018151
v 0.00809261 -0.04598359 -0.00125843
v 0.00913221 -0.04499035 -0.00127318
v 0.00447501 -0.04847646 -0.00071259
v 0.00390160 -0.04898285 -0.00009299
v 0.00408808 -0.04906459 0.00058562
v 0.00419530 -0.04910901 0.00132323
v 0.00426989 -0.04913388 0.00234852
v 0.00345406 -0.04942528 0.00234852
v 0.00345406 -0.04947326 0.00439172
v 0.00345406 -0.04949102 0.00540963
v 0.00392491 -0.05001874 0.07073299
v 0.00389228 -0.05000808 0.07172878
v 0.00697843 -0.04693596 -0.00117729
v 0.00577101 -0.04786701 -0.00071259
v 0.00526286 -0.04812110 -0.00071259
v 0.01080115 -0.04639758 0.07172878
v 0.01194797 -0.04462610 0.04929784
v 0.01206918 -0.04382831 0.01357505
v 0.01198060 -0.04373236 0.00540963
v 0.01193864 -0.04462077 0.04827993
v 0.01092702 -0.04473804 0.00336643
v 0.01086642 -0.04466874 0.00234852
v 0.01145381 -0.04426540 0.00439172
v 0.01028835 -0.04512894 0.00132323
v 0.01147712 -0.04430094 0.00642754
v 0.01146780 -0.04428317 0.00540963
v 0.00976622 -0.04563888 0.00132323
v 0.00925808 -0.04611152 0.00132323
v 0.00855414 -0.04645977 0.00031270
v 0.00805065 -0.04697150 0.00079952
v 0.00792945 -0.04688976 0.00012091
v 0.00724882 -0.04711186 -0.00049868
v 0.00757048 -0.04671919 -0.00078635
v 0.00833037 -0.04617015 -0.00071259
v 0.00559385 -0.04828456 0.00020943
v 0.00444704 -0.04883005 0.00026844
v 0.00599944 -0.04798606 -0.00018888
v 0.00549596 -0.04851910 0.00132323
v 0.00470810 -0.04888868 0.00132323
v 0.00614862 -0.04807490 0.00048972
v 0.00478269 -0.04892244 0.00234852
v 0.00482931 -0.04894554 0.00336643
v 0.00431651 -0.04914987 0.00336643
v 0.00432583 -0.04915876 0.00439172
v 0.00447501 -0.04979308 0.06971508
v 0.00447501 -0.04979308 0.07073299
v 0.00447501 -0.04978242 0.07172878
v 0.00659149 -0.04736417 -0.00078635
v 0.01023707 -0.04708344 0.07172878
v 0.01143050 -0.04526575 0.04827993
v 0.01155637 -0.04438267 0.01357505
v 0.01041888 -0.04526220 0.00336643
v 0.01035828 -0.04519646 0.00234852
v 0.01096432 -0.04477535 0.00439172
v 0.01098296 -0.04479312 0.00540963
v 0.01102026 -0.04483754 0.00847074
v 0.01100627 -0.04482688 0.00745283
v 0.01099695 -0.04481089 0.00642754
v 0.00983615 -0.04570640 0.00234852
v 0.00859609 -0.04662146 0.00132323
v 0.00988277 -0.04577392 0.00336643
v 0.00932800 -0.04615771 0.00234852
v 0.00808329 -0.04699282 0.00132323
v 0.00753785 -0.04735173 0.00132323
v 0.00676864 -0.04783681 0.00132323
v 0.00757048 -0.04719004 0.00040121
v 0.00649826 -0.04779772 0.00020943
v 0.00625584 -0.04812998 0.00132323
v 0.00549596 -0.04857596 0.00234852
v 0.00549596 -0.04861683 0.00336643
v 0.00549596 -0.04865414 0.00439172
v 0.00549596 -0.04868613 0.00540963
v 0.00606470 -0.04903793 0.05875409
v 0.00549596 -0.04935421 0.06869717
v 0.00549596 -0.04935954 0.06971508
v 0.00546332 -0.04936665 0.07172878
v 0.01021842 -0.04709410 0.07172878
v 0.00640502 -0.04823659 0.00540963
v 0.00691782 -0.04791499 0.00540963
v 0.00907160 -0.04697150 0.02831264
v 0.00881520 -0.04681691 0.01255714
v 0.00951914 -0.04630697 0.01255714
v 0.00990607 -0.04580946 0.00439172
v 0.01012518 -0.04598003 0.01970465
v 0.01045618 -0.04529951 0.00439172
v 0.01107620 -0.04489262 0.01357505
v 0.00861940 -0.04666766 0.00234852
v 0.00811126 -0.04701059 0.00234852
v 0.00753785 -0.04739082 0.00234852
v 0.00680594 -0.04785990 0.00234852
v 0.00609268 -0.04905570 0.06461078
v 0.00611598 -0.04906992 0.06971508
v 0.00611598 -0.04907169 0.07073299
v 0.00549596 -0.04935243 0.07172878
v 0.00610666 -0.04906636 0.07172878
f 1 2 3
f 1 3 4
f 1 4 5
f 1 5 6
f 1 6 7
f 1 7 15
f 1 15 27
f 1 27 38
f 1 38 54
f 1 54 81
f 1 81 87
f 1 87 100
f 1 100 64
f 1 64 43
f 1 43 29
f 1 29 16
f 1 16 8
f 1 8 2
f 2 8 9
f 2 9 3
f 3 9 10
f 3 10 4
f 4 10 5
f 5 10 11
f 5 11 6
f 6 12 7
f 6 11 12
f 7 12 13
f 7 13 14
f 7 14 23
f 7 23 15
f 8 16 28
f 8 28 40
f 8 40 60
f 8 60 59
f 8 59 88
f 8 88 129
f 8 129 135
f 8 135 192
f 8 192 191
f 8 191 190
f 8 190 245
f 8 245 283
f 8 283 319
f 8 319 354
f 8 354 383
f 8 383 401
f 8 401 402
f 8 402 384
f 8 384 356
f 8 356 323
f 8 323 292
f 8 292 256
f 8 256 214
f 8 214 160
f 8 160 112
f 8 112 73
f 8 73 45
f 8 45 30
f 8 30 19
f 8 19 18
f 8 18 17
f 8 17 10
f 8 10 9
f 10 17 11
f 11 17 18
f 11 18 19
f 11 19 20
f 11 20 21
f 11 21 12
f 12 21 20
f 12 20 13
f 13 20 14
f 14 22 23
f 14 20 24
f 14 24 22
f 15 23 25
f 15 25 26
f 15 26 27
f 16 29 44
f 16 44 72
f 16 72 111
f 16 111 159
f 16 159 138
f 16 138 136
f 16 136 91
f 16 91 62
f 16 62 41
f 16 41 28
f 19 30 31
f 19 31 20
f 20 32 24
f 20 31 32
f 22 32 33
f 22 33 34
f 22 34 23
f 22 24 32
f 23 34 35
f 23 35 25
f 25 35 36
f 25 36 26
f 26 36 37
f 26 37 38
f 26 38 27
f 28 39 40
f 28 41 42
f 28 42 39
f 29 43 44
f 30 45 46
f 30 46 31
f 31 46 32
f 32 46 47
f 32 47 33
f 33 47 48
f 33 48 49
f 33 49 50
f 33 50 34
f 34 50 35
f 35 51 52
f 35 52 36
f 35 50 51
f 36 52 53
f 36 53 37
f 37 54 38
f 37 53 55
f 37 55 56
f 37 56 57
f 37 57 58
f 37 58 54
f 39 59 60
f 39 60 40
f 39 42 61
f 39 61 59
f 41 62 42
f 42 62 63
f 42 63 61
f 43 64 65
f 43 65 66
f 43 66 67
f 43 67 68
f 43 68 69
f 43 69 70
f 43 70 71
f 43 71 44
f 44 71 72
f 45 73 74
f 45 74 75
f 45 75 46
f 46 75 47
f 47 76 48
f 47 75 76
f 48 76 49
f 49 77 51
f 49 51 50
f 49 76 78
f 49 78 77
f 51 77 79
f 51 79 52
f 52 79 53
f 53 80 56
f 53 56 55
f 53 79 80
f 54 58 81
f 56 80 82
f 56 82 83
f 56 83 84
f 56 84 57
f 57 85 86
f 57 86 58
f 57 84 85
f 58 86 87
f 58 87 81
f 59 61 88
f 61 63 89
f 61 89 90
f 61 90 88
f 62 91 92
f 62 92 93
f 62 93 94
f 62 94 63
f 63 94 95
f 63 95 93
f 63 93 96
f 63 96 89
f 64 97 98
f 64 98 99
f 64 99 65
f 64 100 97
f 65 99 101
f 65 101 102
f 65 102 103
f 65 103 66
f 66 103 104
f 66 104 67
f 67 104 105
f 67 105 153
f 67 153 106
f 67 106 107
f 67 107 68
f 68 107 108
f 68 108 69
f 69 108 155
f 69 155 109
f 69 109 71
f 69 71 70
f 71 109 110
f 71 110 72
f 72 110 111
f 73 112 113
f 73 113 74
f 74 113 114
f 74 114 115
f 74 115 76
f 74 76 75
f 76 115 78
f 77 78 116
f 77 116 79
f 78 115 116
f 79 116 117
f 79 117 118
f 79 118 80
f 80 118 82
f 82 119 83
f 82 118 120
f 82 120 121
f 82 121 122
f 82 122 123
f 82 123 124
f 82 124 119
f 83 119 84
f 84 119 125
f 84 125 126
f 84 126 85
f 85 126 86
f 86 126 127
f 86 127 87
f 87 127 128
f 87 128 100
f 88 90 129
f 89 130 131
f 89 131 132
f 89 132 90
f 89 96 93
f 89 93 130
f 90 132 131
f 90 131 133
f 90 133 134
f 90 134 135
f 90 135 129
f 91 136 137
f 91 137 92
f 92 137 138
f 92 138 139
f 92 139 140
f 92 140 141
f 92 141 93
f 93 141 142
f 93 142 143
f 93 143 144
f 93 144 130
f 93 95 94
f 97 145 98
f 97 100 145
f 98 145 146
f 98 146 147
f 98 147 148
f 98 148 149
f 98 149 101
f 98 101 99
f 100 128 145
f 101 149 102
f 102 149 150
f 102 150 151
f 102 151 152
f 102 152 103
f 103 152 153
f 103 153 105
f 103 105 104
f 106 153 154
f 106 154 107
f 107 154 155
f 107 155 108
f 109 155 110
f 110 155 156
f 110 156 157
f 110 157 111
f 111 157 158
f 111 158 159
f 112 160 161
f 112 161 162
f 112 162 113
f 113 163 164
f 113 164 114
f 113 162 165
f 113 165 163
f 114 164 166
f 114 166 116
f 114 116 115
f 116 166 168
f 116 168 167
f 116 167 117
f 117 167 168
f 117 168 169
f 117 169 118
f 118 169 120
f 119 124 170
f 119 170 125
f 120 169 171
f 120 171 121
f 121 172 122
f 121 171 172
f 122 173 123
f 122 172 174
f 122 174 175
f 122 175 176
f 122 176 177
f 122 177 178
f 122 178 179
f 122 179 173
f 123 173 124
f 124 179 180
f 124 180 181
f 124 181 170
f 124 173 179
f 125 170 147
f 125 147 126
f 126 147 127
f 127 147 146
f 127 146 145
f 127 145 128
f 130 182 183
f 130 183 184
f 130 184 131
f 130 144 143
f 130 143 185
f 130 185 186
f 130 186 182
f 131 184 133
f 133 187 134
f 133 184 187
f 134 187 188
f 134 188 189
f 134 189 190
f 134 190 191
f 134 191 192
f 134 192 135
f 136 138 137
f 138 159 139
f 139 159 158
f 139 158 157
f 139 157 193
f 139 193 140
f 140 193 141
f 141 193 194
f 141 194 142
f 142 194 195
f 142 195 196
f 142 196 197
f 142 197 198
f 142 198 186
f 142 186 185
f 142 185 143
f 147 170 148
f 148 170 181
f 148 181 149
f 149 181 199
f 149 199 200
f 149 200 150
f 150 201 151
f 150 200 201
f 151 202 203
f 151 203 152
f 151 201 202
f 152 203 153
f 153 203 204
f 153 204 154
f 154 196 195
f 154 195 205
f 154 205 194
f 154 194 193
f 154 193 206
f 154 206 155
f 154 204 207
f 154 207 208
f 154 208 209
f 154 209 210
f 154 210 211
f 154 211 212
f 154 212 213
f 154 213 196
f 155 206 157
f 155 157 156
f 157 206 193
f 160 214 215
f 160 215 161
f 161 215 162
f 162 215 165
f 163 216 164
f 163 165 216
f 164 217 218
f 164 218 166
f 164 216 219
f 164 219 217
f 165 220 219
f 165 219 216
f 165 215 221
f 165 221 220
f 166 218 168
f 168 222 223
f 168 223 224
f 168 224 171
f 168 171 169
f 168 218 222
f 171 224 172
f 172 224 174
f 174 224 223
f 174 223 225
f 174 225 226
f 174 226 175
f 175 226 176
f 176 226 177
f 177 227 228
f 177 228 178
f 177 226 227
f 178 228 229
f 178 229 179
f 179 230 180
f 179 229 230
f 180 230 231
f 180 231 199
f 180 199 181
f 182 186 198
f 182 198 183
f 183 232 233
f 183 233 234
f 183 234 235
f 183 235 236
f 183 236 237
f 183 237 238
f 183 238 239
f 183 239 240
f 183 240 184
f 183 198 232
f 184 240 187
f 187 240 239
f 187 239 188
f 188 239 241
f 188 241 242
f 188 242 243
f 188 243 189
f 189 243 244
f 189 244 190
f 190 244 245
f 194 205 195
f 196 213 197
f 197 213 246
f 197 246 234
f 197 234 232
f 197 232 198
f 199 231 200
f 200 231 230
f 200 230 247
f 200 247 248
f 200 248 202
f 200 202 201
f 202 248 249
f 202 249 250
f 202 250 207
f 202 207 204
f 202 204 203
f 207 250 208
f 208 250 251
f 208 251 209
f 209 251 210
f 210 251 252
f 210 252 253
f 210 253 254
f 210 254 212
f 210 212 211
f 212 254 255
f 212 255 213
f 213 255 246
f 214 256 257
f 214 257 258
f 214 258 215
f 215 258 221
f 217 259 260
f 217 260 218
f 217 219 259
f 218 260 261
f 218 261 222
f 219 262 263
f 219 263 259
f 219 220 264
f 219 264 262
f 220 221 264
f 221 258 265
f 221 265 264
f 222 261 223
f 223 261 266
f 223 266 225
f 225 266 267
f 225 267 226
f 226 267 268
f 226 268 269
f 226 269 270
f 226 270 271
f 226 271 227
f 227 271 272
f 227 272 228
f 228 272 230
f 228 230 229
f 230 272 273
f 230 273 274
f 230 274 247
f 232 234 233
f 234 246 235
f 235 275 236
f 235 246 275
f 236 275 276
f 236 276 277
f 236 277 242
f 236 242 241
f 236 241 239
f 236 239 237
f 237 239 238
f 242 277 278
f 242 278 243
f 243 278 279
f 243 279 280
f 243 280 244
f 244 281 282
f 244 282 245
f 244 280 281
f 245 282 283
f 246 255 284
f 246 284 285
f 246 285 275
f 247 286 287
f 247 287 248
f 247 274 286
f 248 287 249
f 249 287 252
f 249 252 288
f 249 288 250
f 250 288 251
f 251 288 252
f 252 287 289
f 252 289 290
f 252 290 253
f 253 290 291
f 253 291 254
f 254 291 284
f 254 284 255
f 256 292 257
f 257 292 293
f 257 293 294
f 257 294 258
f 258 294 265
f 259 263 260
f 260 263 267
f 260 267 295
f 260 295 261
f 261 295 266
f 262 296 297
f 262 297 263
f 262 264 298
f 262 298 299
f 262 299 296
f 263 297 268
f 263 268 267
f 264 265 293
f 264 293 300
f 264 300 298
f 265 294 301
f 265 301 293
f 266 295 267
f 268 297 304
f 268 304 269
f 269 302 303
f 269 303 270
f 269 304 302
f 270 303 271
f 271 305 272
f 271 303 305
f 272 305 306
f 272 306 307
f 272 307 308
f 272 308 273
f 273 308 309
f 273 309 274
f 274 309 286
f 275 310 311
f 275 311 276
f 275 285 310
f 276 311 312
f 276 312 277
f 277 312 313
f 277 313 314
f 277 314 315
f 277 315 278
f 278 315 316
f 278 316 317
f 278 317 279
f 279 317 280
f 280 317 281
f 281 318 282
f 281 317 318
f 282 318 283
f 283 318 319
f 284 320 321
f 284 321 322
f 284 322 310
f 284 310 285
f 284 291 320
f 286 309 289
f 286 289 287
f 289 309 308
f 289 308 290
f 290 308 320
f 290 320 291
f 292 323 293
f 293 301 294
f 293 323 324
f 293 324 300
f 296 299 325
f 296 325 297
f 297 325 326
f 297 326 304
f 298 325 299
f 298 300 324
f 298 324 327
f 298 327 325
f 302 328 329
f 302 329 303
f 302 304 330
f 302 330 361
f 302 361 328
f 303 329 331
f 303 331 305
f 304 326 332
f 304 332 333
f 304 333 330
f 305 331 334
f 305 334 335
f 305 335 306
f 306 336 307
f 306 335 337
f 306 337 336
f 307 338 339
f 307 339 340
f 307 340 320
f 307 320 341
f 307 341 308
f 307 336 338
f 308 341 320
f 310 322 311
f 311 342 343
f 311 343 312
f 311 322 344
f 311 344 342
f 312 345 346
f 312 346 313
f 312 343 342
f 312 342 347
f 312 347 345
f 313 346 348
f 313 348 314
f 314 348 349
f 314 349 350
f 314 350 315
f 315 350 316
f 316 350 317
f 317 350 351
f 317 351 318
f 318 352 353
f 318 353 354
f 318 354 319
f 318 351 352
f 320 340 339
f 320 339 355
f 320 355 321
f 321 344 322
f 321 355 344
f 323 356 357
f 323 357 324
f 324 357 327
f 325 358 332
f 325 332 326
f 325 327 357
f 325 357 356
f 325 356 358
f 328 359 360
f 328 360 329
f 328 361 392
f 328 392 359
f 329 360 331
f 330 333 365
f 330 365 362
f 330 362 361
f 331 360 366
f 331 366 334
f 332 358 363
f 332 363 364
f 332 364 365
f 332 365 333
f 334 366 335
f 335 367 337
f 335 366 368
f 335 368 369
f 335 369 367
f 336 337 338
f 337 367 370
f 337 370 371
f 337 371 372
f 337 372 347
f 337 347 373
f 337 373 338
f 338 374 344
f 338 344 339
f 338 373 374
f 339 344 355
f 342 344 347
f 344 374 347
f 345 347 375
f 345 375 376
f 345 376 348
f 345 348 346
f 347 374 373
f 347 372 375
f 348 376 349
f 349 351 350
f 349 376 377
f 349 377 378
f 349 378 379
f 349 379 380
f 349 380 351
f 351 380 352
f 352 380 381
f 352 381 382
f 352 382 353
f 353 382 383
f 353 383 354
f 356 384 385
f 356 385 386
f 356 386 387
f 356 387 388
f 356 388 389
f 356 389 390
f 356 390 391
f 356 391 392
f 356 392 363
f 356 363 393
f 356 393 358
f 358 393 363
f 359 368 366
f 359 366 360
f 359 392 368
f 361 362 392
f 362 365 392
f 363 392 364
f 364 392 365
f 367 369 370
f 368 392 390
f 368 390 369
f 369 394 370
f 369 390 394
f 370 394 395
f 370 395 386
f 370 386 396
f 370 396 371
f 371 396 386
f 371 386 397
f 371 397 372
f 372 397 385
f 372 385 375
f 375 385 376
f 376 385 377
f 377 385 378
f 378 385 379
f 379 385 380
f 380 384 398
f 380 398 381
f 380 385 384
f 381 398 382
f 382 399 400
f 382 400 401
f 382 401 383
f 382 398 399
f 384 402 400
f 384 400 399
f 384 399 398
f 385 397 386
f 386 395 394
f 386 394 388
f 386 388 387
f 388 394 390
f 388 390 389
f 390 392 391
f 400 402 401

