# https://github.com/mikedh/trimesh
v 0.01553569 -0.04577843 0.07788649
v 0.01550295 -0.04577843 0.07828950
v 0.01532291 -0.04613489 0.07788649
v 0.01527053 -0.04606484 0.07721224
v 0.01532618 -0.04582444 0.07708853
v 0.01533927 -0.04577843 0.07708853
v 0.01542439 -0.04577843 0.07880904
v 0.01529017 -0.04608101 0.07864743
v 0.01493990 -0.04664554 0.07788649
v 0.01442923 -0.04727306 0.07788649
v 0.01434412 -0.04717276 0.07710977
v 0.01509376 -0.04619623 0.07708853
v 0.01522798 -0.04601096 0.07708853
v 0.01523452 -0.04600101 0.07708853
v -0.01790344 -0.04577843 0.07708853
v 0.01526398 -0.04577843 0.07922065
v 0.01434412 -0.04716820 0.07890691
v 0.01514941 -0.04588951 0.07932800
v 0.01422955 -0.04703266 0.07947439
v 0.01398403 -0.04778371 0.07788649
v 0.01336861 -0.04820856 0.07708997
v 0.01430811 -0.04719639 0.07708853
v 0.01433757 -0.04716406 0.07708853
v -0.01724873 -0.04595583 0.07708853
v 0.00676262 -0.05001281 0.07950453
v -0.01737967 -0.04577843 0.07721597
v 0.01518869 -0.04577843 0.07937019
v 0.01387601 -0.04767843 0.07890691
v 0.01360430 -0.04741565 0.07964087
v 0.01322457 -0.04806224 0.07948444
v 0.01336533 -0.04820980 0.07890691
v 0.01443578 -0.04645943 0.07962508
v 0.01347336 -0.04831922 0.07788649
v 0.01336533 -0.04821021 0.07708853
v 0.01295941 -0.04882987 0.07788649
v 0.01233744 -0.04917638 0.07713359
v 0.01238655 -0.04910011 0.07708853
v -0.01696066 -0.04602174 0.07708853
v 0.00648765 -0.05001281 0.07941784
v 0.00721764 -0.05001281 0.07960901
v -0.01696066 -0.04582941 0.07727281
v -0.01696066 -0.04577843 0.07730811
v 0.01466492 -0.04577843 0.07975482
v 0.01366322 -0.04645943 0.07997613
v 0.01264188 -0.04748031 0.08002062
v 0.01258623 -0.04844191 0.07965608
v 0.01220650 -0.04908436 0.07948788
v 0.01286121 -0.04872003 0.07890691
v 0.01235054 -0.04920954 0.07890691
v 0.01178422 -0.04972018 0.07890691
v 0.01244875 -0.04927876 0.07788649
v 0.01181368 -0.04978899 0.07788649
v 0.01128337 -0.05001281 0.07716861
v 0.01222615 -0.04923192 0.07708853
v 0.01231780 -0.04915980 0.07708853
v 0.00240555 -0.05001281 0.07708853
v 0.00619957 -0.05001281 0.07925423
v 0.00804585 -0.05001281 0.07977807
v -0.01609972 -0.04577843 0.07742350
v 0.01444233 -0.04577843 0.07985557
v 0.01366322 -0.04577843 0.08000971
v 0.01162054 -0.04850077 0.07997929
v 0.01155835 -0.04946320 0.07963197
v 0.01332278 -0.04577843 0.08001402
v 0.00957786 -0.04952123 0.07992934
v 0.00908683 -0.05001281 0.07991155
v 0.01121790 -0.05001281 0.07949247
v 0.01129646 -0.05001281 0.07935928
v 0.01144050 -0.05001281 0.07890691
v 0.01148633 -0.05001281 0.07850736
v 0.01151579 -0.05001281 0.07788649
v 0.01120808 -0.05001281 0.07708853
v 0.01136521 -0.04989427 0.07708853
v -0.01566434 -0.04577843 0.07747661
v 0.01059920 -0.04952123 0.07991069
v 0.01089709 -0.05001281 0.07960643
v 0.01013763 -0.05001281 0.07981711
v 0.01059920 -0.05001281 0.07970029
f 1 2 3
f 1 3 4
f 1 4 5
f 1 5 6
f 1 6 15
f 1 15 26
f 1 26 42
f 1 42 59
f 1 59 74
f 1 74 64
f 1 64 61
f 1 61 60
f 1 60 43
f 1 43 27
f 1 27 16
f 1 16 7
f 1 7 2
f 2 7 8
f 2 8 3
f 3 8 9
f 3 9 4
f 4 9 10
f 4 10 11
f 4 11 12
f 4 12 13
f 4 13 14
f 4 14 5
f 5 14 13
f 5 13 12
f 5 12 23
f 5 23 22
f 5 22 34
f 5 34 37
f 5 37 55
f 5 55 54
f 5 54 73
f 5 73 72
f 5 72 56
f 5 56 38
f 5 38 24
f 5 24 15
f 5 15 6
f 7 16 8
f 8 17 10
f 8 10 9
f 8 16 18
f 8 18 19
f 8 19 17
f 10 17 20
f 10 20 11
f 11 20 21
f 11 21 22
f 11 22 23
f 11 23 12
f 15 24 25
f 15 25 26
f 16 27 18
f 17 19 28
f 17 28 20
f 18 27 19
f 19 29 30
f 19 30 31
f 19 31 28
f 19 27 32
f 19 32 29
f 20 28 33
f 20 33 21
f 21 34 22
f 21 33 35
f 21 35 36
f 21 36 37
f 21 37 34
f 24 38 39
f 24 39 25
f 25 39 57
f 25 57 56
f 25 56 72
f 25 72 53
f 25 53 71
f 25 71 70
f 25 70 69
f 25 69 68
f 25 68 67
f 25 67 76
f 25 76 78
f 25 78 77
f 25 77 66
f 25 66 58
f 25 58 40
f 25 40 26
f 26 40 41
f 26 41 42
f 27 43 32
f 28 31 33
f 29 32 44
f 29 44 45
f 29 45 46
f 29 46 30
f 30 46 47
f 30 47 48
f 30 48 31
f 31 48 33
f 32 43 44
f 33 48 35
f 35 48 49
f 35 49 50
f 35 50 51
f 35 51 36
f 36 52 53
f 36 53 54
f 36 54 55
f 36 55 37
f 36 51 52
f 38 56 57
f 38 57 39
f 40 58 42
f 40 42 41
f 42 58 59
f 43 60 44
f 44 61 45
f 44 60 61
f 45 62 63
f 45 63 46
f 45 61 64
f 45 64 65
f 45 65 66
f 45 66 62
f 46 63 47
f 47 63 67
f 47 67 68
f 47 68 49
f 47 49 48
f 49 68 50
f 50 68 69
f 50 69 51
f 51 69 70
f 51 70 52
f 52 70 71
f 52 71 53
f 53 72 73
f 53 73 54
f 58 66 59
f 59 66 74
f 62 75 63
f 62 66 75
f 63 75 76
f 63 76 67
f 64 74 65
f 65 74 66
f 66 77 75
f 75 78 76
f 75 77 78

