# https://github.com/mikedh/trimesh
v 0.01239532 0.09246389 0.09708376
v 0.01272875 0.09216672 0.09708376
v -0.00231885 0.09246389 0.09708376
v 0.00045360 0.09246389 0.09873866
v 0.01471097 0.08533729 0.09774566
v 0.01292214 0.09188349 0.09708376
v 0.00152724 0.09165608 0.09871194
v 0.00187901 0.08546635 0.09708376
v 0.00268757 0.08533729 0.09821041
v -0.00130023 0.09246389 0.09808276
v -0.00047332 0.09246389 0.09849633
v 0.00357616 0.08533729 0.09870270
v 0.01471097 0.08533729 0.09708376
v 0.01471097 0.08662784 0.09708376
v 0.01304217 0.09168328 0.09708376
v 0.00356282 0.08656436 0.09867792
v 0.00200404 0.08533729 0.09708376
v 0.00217076 0.08533729 0.09740483
f 1 2 6
f 1 6 15
f 1 15 14
f 1 14 13
f 1 13 17
f 1 17 8
f 1 8 3
f 1 3 10
f 1 10 11
f 1 11 4
f 1 4 2
f 2 5 6
f 2 4 7
f 2 7 5
f 3 8 9
f 3 9 10
f 4 11 12
f 4 12 7
f 5 13 14
f 5 14 15
f 5 15 6
f 5 7 16
f 5 16 12
f 5 12 9
f 5 9 18
f 5 18 17
f 5 17 13
f 7 12 16
f 8 17 18
f 8 18 9
f 9 12 10
f 10 12 11

