# https://github.com/mikedh/trimesh
v -0.00993980 0.07206144 0.09708393
v -0.00907145 0.06928249 0.09708393
v -0.00993980 0.07213591 0.09714890
v -0.00993980 0.07826594 0.09708393
v -0.00993980 0.07223671 0.09723071
v -0.00993980 0.07220402 0.09720424
v -0.00887375 0.06905817 0.09708393
v -0.00993980 0.07320208 0.09778550
v -0.00993980 0.07292963 0.09765007
v -0.00993980 0.07776736 0.09763546
v -0.00201922 0.07703358 0.09804296
v -0.00201922 0.07719069 0.09777949
v -0.00201922 0.07740683 0.09739261
v -0.00201922 0.07754033 0.09708393
v -0.00865899 0.06898915 0.09708393
v -0.00865899 0.06924889 0.09715251
v -0.00967775 0.07312761 0.09779994
v -0.00993980 0.07370429 0.09787986
v -0.00993980 0.07721612 0.09798917
v -0.00201922 0.07641603 0.09853107
v -0.00201922 0.07682652 0.09821810
v -0.00201922 0.07282610 0.09708393
v -0.00201922 0.07329017 0.09785855
v -0.00201922 0.07353446 0.09813835
v -0.00201922 0.07396765 0.09842211
v -0.00201922 0.07438540 0.09864691
v -0.00254798 0.07434090 0.09862594
v -0.00356674 0.07434090 0.09857335
v -0.00458550 0.07434090 0.09849258
v -0.00560426 0.07434090 0.09840234
v -0.00993980 0.07535894 0.09809951
v -0.00993980 0.07637789 0.09815090
v -0.00201922 0.07594379 0.09873130
v -0.00201922 0.07514099 0.09881345
v -0.00201922 0.07535894 0.09883958
f 1 2 3
f 1 3 6
f 1 6 5
f 1 5 9
f 1 9 8
f 1 8 18
f 1 18 31
f 1 31 32
f 1 32 19
f 1 19 10
f 1 10 4
f 1 4 14
f 1 14 22
f 1 22 15
f 1 15 7
f 1 7 2
f 2 5 6
f 2 6 3
f 2 7 8
f 2 8 9
f 2 9 5
f 4 10 11
f 4 11 12
f 4 12 13
f 4 13 14
f 7 15 16
f 7 16 8
f 8 16 17
f 8 17 18
f 10 19 20
f 10 20 21
f 10 21 11
f 11 21 20
f 11 20 33
f 11 33 35
f 11 35 34
f 11 34 26
f 11 26 25
f 11 25 24
f 11 24 23
f 11 23 22
f 11 22 14
f 11 14 13
f 11 13 12
f 15 22 23
f 15 23 24
f 15 24 25
f 15 25 26
f 15 26 27
f 15 27 16
f 16 27 28
f 16 28 29
f 16 29 30
f 16 30 17
f 17 30 18
f 18 30 31
f 19 32 33
f 19 33 20
f 26 34 27
f 27 34 28
f 28 34 29
f 29 34 35
f 29 35 30
f 30 35 31
f 31 35 32
f 32 35 33

