# https://github.com/mikedh/trimesh
v -0.04023221 0.07955637 -0.00021071
v -0.04032996 0.07955637 -0.00019164
v -0.04113475 0.08453077 -0.00012491
v -0.04023221 0.08453077 -0.00022977
v -0.01273580 0.11507592 -0.00029649
v -0.00962743 0.11507592 -0.00025837
v -0.00962743 0.07956014 0.00370700
v -0.03933945 0.07955637 -0.00006772
v -0.04102723 0.07955637 -0.00004866
v -0.04111520 0.08555057 -0.00010585
v -0.04023221 0.08758642 -0.00020117
v -0.04023221 0.08657038 -0.00022024
v -0.04112497 0.08351474 -0.00010585
v -0.04161371 0.08249493 0.00018011
v -0.04163327 0.08351474 0.00018011
v -0.04164304 0.08453077 0.00018011
v -0.01375238 0.11507592 -0.00028696
v -0.01273580 0.11587289 -0.00009632
v -0.00967956 0.11596731 -0.00008679
v -0.00962743 0.11596731 -0.00008679
v -0.00962743 0.11592576 -0.00009632
v -0.02708842 0.07955637 0.00311601
v -0.02724807 0.07955637 0.00305882
v -0.00962743 0.07956014 0.09617821
v -0.04108913 0.07955637 -0.00002006
v -0.04106633 0.08657038 -0.00008679
v -0.04162349 0.08555057 0.00020871
v -0.04023221 0.08962603 -0.00014398
v -0.03920912 0.09267790 -0.00016305
v -0.03819581 0.09573733 -0.00015351
v -0.03615614 0.09979768 -0.00015351
v -0.04153552 0.07955637 0.00030403
v -0.04158765 0.07955637 0.00036122
v -0.04206335 0.08249493 0.00068531
v -0.04206987 0.08351474 0.00068531
v -0.04204706 0.08453077 0.00068531
v -0.01477221 0.11507592 -0.00024884
v -0.01375238 0.11580868 -0.00008679
v -0.02495426 0.11100424 -0.00018211
v -0.02088144 0.11304009 -0.00019164
v -0.01884503 0.11405989 -0.00019164
v -0.00967956 0.11647722 0.00022777
v -0.00962743 0.11647722 0.00022777
v -0.02708842 0.07955637 0.09664529
v -0.00962743 0.09259859 0.09708376
v -0.01133475 0.07956014 0.09708376
v -0.04100768 0.08758642 -0.00006772
v -0.04200145 0.08555057 0.00072344
v -0.04195257 0.08657038 0.00077110
v -0.04157461 0.08657038 0.00027543
v -0.04093274 0.08860245 -0.00002960
v -0.03995200 0.09267790 -0.00005819
v -0.03920912 0.09369771 -0.00012491
v -0.03717597 0.09878543 -0.00013445
v -0.03513956 0.10184107 -0.00013445
v -0.02801050 0.10896840 -0.00016305
v -0.04191347 0.07955637 0.00080923
v -0.04202751 0.08147512 0.00072344
v -0.04236311 0.08249493 0.00161946
v -0.04236311 0.08351474 0.00161946
v -0.04232402 0.08453077 0.00161946
v -0.01579205 0.11507592 -0.00017258
v -0.01477221 0.11572936 -0.00003913
v -0.01273580 0.11638279 0.00038982
v -0.01171923 0.11640546 0.00030403
v -0.02698741 0.10998444 -0.00016305
v -0.02400611 0.11209582 -0.00009632
v -0.02291785 0.11284745 -0.00005819
v -0.02088144 0.11379550 -0.00005819
v -0.01984532 0.11409766 -0.00008679
v -0.01782846 0.11484175 -0.00007726
v -0.01171923 0.11674161 0.00081876
v -0.01069939 0.11676050 0.00077110
v -0.00967956 0.11676050 0.00073297
v -0.00962743 0.11674539 0.00070438
v -0.02744356 0.07955637 0.09675967
v -0.00962743 0.11796538 0.09708376
v -0.02939852 0.07955637 0.09708376
v -0.02903034 0.07955637 0.09706470
v -0.02801050 0.07955637 0.09693125
v -0.04226536 0.08555057 0.00161946
v -0.04189718 0.08758642 0.00085689
v -0.04151597 0.08758642 0.00034216
v -0.04219043 0.08657038 0.00161946
v -0.04083825 0.08962603 0.00001807
v -0.03983145 0.09369771 -0.00000100
v -0.03896150 0.09573733 -0.00003913
v -0.03804592 0.09776562 -0.00004866
v -0.03716946 0.09972969 -0.00002960
v -0.03621805 0.10087792 -0.00006772
v -0.03513305 0.10281178 -0.00003913
v -0.03106674 0.10692879 -0.00012491
v -0.03417186 0.10391846 -0.00005819
v -0.04194280 0.07955637 0.00091409
v -0.04230772 0.08147512 0.00161946
v -0.04278017 0.08298595 0.00415501
v -0.04278017 0.08308415 0.00415501
v -0.04276388 0.08453077 0.00437425
v -0.04274107 0.08555057 0.00453630
v -0.01631337 0.11558961 0.00008479
v -0.01477221 0.11618261 0.00058999
v -0.01381754 0.11637146 0.00063765
v -0.01352104 0.11664341 0.00100941
v -0.01273580 0.11669629 0.00090455
v -0.02599690 0.11104201 -0.00007726
v -0.02495426 0.11182009 -0.00004866
v -0.03005017 0.10794482 -0.00010585
v -0.02909224 0.10902884 -0.00006772
v -0.02797140 0.10999199 -0.00003913
v -0.02370960 0.11266616 -0.00001053
v -0.02164713 0.11364819 0.00001807
v -0.01949017 0.11461512 0.00006573
v -0.01884503 0.11471333 -0.00001053
v -0.01171923 0.11699090 0.00160993
v -0.01069939 0.11703622 0.00160993
v -0.00962743 0.11676050 0.00073297
v -0.00967956 0.11796916 0.09708376
v -0.00962743 0.11797671 0.09704564
v -0.04254232 0.07955637 0.09708376
v -0.04184179 0.08860245 0.00095221
v -0.04144103 0.08860245 0.00043748
v -0.04207964 0.08758642 0.00161946
v -0.04179618 0.08929743 0.00103800
v -0.04268568 0.08647596 0.00477460
v -0.04229795 0.08860245 0.00365934
v -0.04077309 0.09029457 0.00006573
v -0.04067860 0.09097067 0.00012292
v -0.03974999 0.09430205 0.00006573
v -0.03869432 0.09724060 0.00009432
v -0.03781785 0.09878543 0.00001807
v -0.03770707 0.09934443 0.00006573
v -0.03682734 0.10057576 0.00000853
v -0.03479093 0.10361252 0.00001807
v -0.03201816 0.10683814 0.00002760
v -0.03163042 0.10748402 0.00006573
v -0.03096574 0.10787306 0.00002760
v -0.04208616 0.07955637 0.00161946
v -0.04220346 0.08045531 0.00161946
v -0.04284859 0.08351474 0.00568968
v -0.04285185 0.08453077 0.00568968
v -0.04271175 0.08045909 0.00574688
v -0.04278669 0.08080280 0.00610910
v -0.04285837 0.08249493 0.00670962
v -0.04278669 0.08555057 0.00505103
v -0.04278017 0.08606803 0.00517495
v -0.01782846 0.11535165 0.00035169
v -0.01886458 0.11526856 0.00063765
v -0.01853550 0.11563871 0.00100941
v -0.01782846 0.11572180 0.00086642
v -0.01671413 0.11578979 0.00056140
v -0.01579205 0.11600131 0.00058999
v -0.01419876 0.11659808 0.00114286
v -0.01273580 0.11688892 0.00160993
v -0.02567433 0.11162746 0.00000853
v -0.03005017 0.10866624 0.00002760
v -0.02879574 0.10965583 0.00000853
v -0.02439058 0.11248486 0.00011339
v -0.02232810 0.11349711 0.00011339
v -0.02016788 0.11446026 0.00018011
v -0.01984532 0.11487574 0.00054233
v -0.01375238 0.11700978 0.00262987
v -0.01171923 0.11720241 0.00262987
v -0.01069939 0.11725530 0.00262987
v -0.00967956 0.11726662 0.00262987
v -0.00962743 0.11703622 0.00160993
v -0.00962743 0.11814291 0.09633072
v -0.00967956 0.11814291 0.09633072
v -0.01069939 0.11810136 0.09633072
v -0.01076130 0.11792006 0.09708376
v -0.04260422 0.08019091 0.09708376
v -0.04258468 0.07955637 0.09633072
v -0.04107936 0.09063829 0.00051374
v -0.04215459 0.08962603 0.00365934
v -0.04197538 0.09064584 0.00365934
v -0.04172450 0.08998108 0.00137163
v -0.04071118 0.09411319 0.00125724
v -0.04079915 0.09342954 0.00100941
v -0.04089690 0.09267790 0.00087596
v -0.04101745 0.09166187 0.00072344
v -0.04254557 0.08758642 0.00466975
v -0.04242176 0.08860245 0.00466975
v -0.04046029 0.09267790 0.00037076
v -0.04057759 0.09166187 0.00020871
v -0.04040490 0.09374304 0.00063765
v -0.04005301 0.09467220 0.00053280
v -0.03962292 0.09498569 0.00016105
v -0.03946978 0.09573733 0.00029450
v -0.03993571 0.09573733 0.00080923
v -0.03979887 0.09642098 0.00098081
v -0.03899734 0.09776562 0.00072344
v -0.03855747 0.09776562 0.00020871
v -0.03882465 0.09851725 0.00093315
v -0.03750506 0.10002430 0.00026590
v -0.03659600 0.10125185 0.00012292
v -0.03571301 0.10244541 0.00005620
v -0.03454330 0.10428484 0.00014198
v -0.03261116 0.10644155 0.00008479
v -0.03231466 0.10712142 0.00027543
v -0.03124269 0.10816011 0.00032309
v -0.03056171 0.10845850 0.00008479
v -0.04235660 0.07955637 0.00365934
v -0.04237289 0.07955637 0.00378326
v -0.04287792 0.08351474 0.00670962
v -0.04287140 0.08453077 0.00670962
v -0.04282904 0.08555057 0.00568968
v -0.04257816 0.07955637 0.00569922
v -0.04266287 0.07955637 0.00670962
v -0.04274759 0.08033067 0.00670962
v -0.04278017 0.07955637 0.08307153
v -0.04284859 0.08045531 0.08409147
v -0.04290724 0.08147512 0.08409147
v -0.04286162 0.08249493 0.00772956
v -0.04278994 0.08626822 0.00568968
v -0.04275085 0.08677435 0.00568968
v -0.02147444 0.11460002 0.00104754
v -0.01921647 0.11554806 0.00131444
v -0.01782846 0.11598242 0.00160993
v -0.01681188 0.11622416 0.00160993
v -0.01477221 0.11654898 0.00134303
v -0.01477221 0.11687381 0.00262987
v -0.02760322 0.11055100 0.00005620
v -0.02635205 0.11140839 0.00015152
v -0.02947346 0.10941410 0.00012292
v -0.02495426 0.11232622 0.00027543
v -0.02495426 0.11279835 0.00078064
v -0.02401262 0.11307408 0.00054233
v -0.02291785 0.11335736 0.00025637
v -0.02291785 0.11379550 0.00077110
v -0.01375238 0.11714576 0.00364981
v -0.01140318 0.11764433 0.00609957
v -0.00967956 0.11740638 0.00364981
v -0.00962743 0.11726662 0.00262987
v -0.00962743 0.11814291 0.09424319
v -0.00967956 0.11814291 0.09429085
v -0.00967956 0.11809758 0.06373083
v -0.01171923 0.11799938 0.06170049
v -0.01273580 0.11794272 0.07493109
v -0.01171923 0.11800315 0.09633072
v -0.01149767 0.11788229 0.09708376
v -0.04262703 0.08045531 0.09708376
v -0.04266287 0.08045531 0.09633072
v -0.04260748 0.07955637 0.09530126
v -0.04227840 0.08962603 0.00466975
v -0.04210245 0.09064584 0.00466975
v -0.04182224 0.09143903 0.00365934
v -0.04177337 0.09122373 0.00308741
v -0.04154529 0.09267790 0.00365934
v -0.04123576 0.09369771 0.00365934
v -0.04072095 0.09516322 0.00329712
v -0.04056130 0.09474396 0.00160993
v -0.04020615 0.09573733 0.00161946
v -0.04264658 0.08758642 0.00568968
v -0.04250647 0.08860245 0.00568968
v -0.03986077 0.09657206 0.00161946
v -0.03964573 0.09708197 0.00161946
v -0.03934597 0.09776562 0.00161946
v -0.03891262 0.09869855 0.00161946
v -0.03865848 0.09920468 0.00161946
v -0.03778201 0.10046622 0.00095221
v -0.03792863 0.09972969 0.00060906
v -0.03685340 0.10184107 0.00084736
v -0.03640702 0.10184107 0.00034216
v -0.03546865 0.10312150 0.00023731
v -0.03515585 0.10390713 0.00052327
v -0.03484632 0.10467765 0.00080923
v -0.03365380 0.10646798 0.00103800
v -0.03269587 0.10754067 0.00096175
v -0.03198557 0.10785039 0.00063765
v -0.03165975 0.10852649 0.00099988
v -0.04291376 0.08249493 0.08511141
v -0.04289095 0.08351474 0.08613134
v -0.04284534 0.08555057 0.00670962
v -0.04277365 0.07955637 0.08409147
v -0.04279320 0.07978677 0.08409147
v -0.04278994 0.08083679 0.09123103
v -0.04286814 0.08147512 0.08715128
v -0.04289421 0.08249493 0.08715128
v -0.04279972 0.08637775 0.00670962
v -0.04276062 0.08688766 0.00670962
v -0.04268242 0.08758642 0.00670962
v -0.02431564 0.11348200 0.00138116
v -0.02291785 0.11415810 0.00160993
v -0.02217822 0.11447160 0.00160993
v -0.02166668 0.11467556 0.00160993
v -0.02088144 0.11498150 0.00160993
v -0.02363792 0.11364442 0.00098081
v -0.01980296 0.11540075 0.00162899
v -0.01942500 0.11560849 0.00199122
v -0.01884503 0.11592576 0.00262987
v -0.01782846 0.11623171 0.00262987
v -0.01673368 0.11648100 0.00271566
v -0.01573014 0.11645833 0.00167666
v -0.01634269 0.11660941 0.00310648
v -0.01477221 0.11698334 0.00364981
v -0.02828419 0.11033571 0.00021824
v -0.02598061 0.11202405 0.00057093
v -0.02871103 0.11063031 0.00089502
v -0.02561243 0.11261705 0.00098081
v -0.01375238 0.11734972 0.00670009
v -0.01273580 0.11750836 0.00670009
v -0.01326690 0.11763300 0.01120879
v -0.00967956 0.11790495 0.02199916
v -0.00967956 0.11771610 0.00873997
v -0.01069939 0.11764433 0.00608050
v -0.00962743 0.11740638 0.00364981
v -0.00962743 0.11809758 0.06373083
v -0.01273580 0.11790495 0.06475077
v -0.01375238 0.11781808 0.07493109
v -0.01273580 0.11787096 0.09633072
v -0.01310073 0.11771232 0.09708376
v -0.01264457 0.11776898 0.09708376
v -0.04268568 0.08147512 0.09708376
v -0.04272478 0.08147512 0.09633072
v -0.04262703 0.07955637 0.09440524
v -0.04236311 0.08962603 0.00568968
v -0.04187112 0.09174119 0.00462209
v -0.04175056 0.09214156 0.00424080
v -0.04218717 0.09064584 0.00568968
v -0.04171146 0.09194893 0.00365934
v -0.04166910 0.09264013 0.00462209
v -0.04135957 0.09369771 0.00466975
v -0.04076331 0.09529541 0.00397390
v -0.04057759 0.09567690 0.00364981
v -0.04015076 0.09674959 0.00365934
v -0.04254883 0.08860245 0.00670962
v -0.03961640 0.09802246 0.00365934
v -0.03927103 0.09878543 0.00365934
v -0.03879207 0.09945774 0.00283958
v -0.03833591 0.09979768 0.00161946
v -0.03787324 0.10062864 0.00161946
v -0.03668723 0.10237742 0.00107613
v -0.03608120 0.10274757 0.00065672
v -0.03576841 0.10353698 0.00091409
v -0.03459543 0.10535375 0.00129537
v -0.03569998 0.10444725 0.00292537
v -0.03481374 0.10561437 0.00365934
v -0.03437387 0.10612427 0.00365934
v -0.03386559 0.10670594 0.00365934
v -0.03340617 0.10721962 0.00365934
v -0.03289462 0.10772197 0.00365934
v -0.03234398 0.10823188 0.00365934
v -0.03190737 0.10875689 0.00466975
v -0.03134044 0.10926679 0.00466975
v -0.03075721 0.10964828 0.00365934
v -0.03015117 0.11015441 0.00365934
v -0.02959075 0.11053589 0.00304929
v -0.02832329 0.11137062 0.00263940
v -0.02883484 0.11074363 0.00161946
v -0.04278017 0.08708407 0.09592084
v -0.04278017 0.08708407 0.09579693
v -0.04267265 0.07955637 0.09123103
v -0.04274759 0.08032689 0.09123103
v -0.04281275 0.08147512 0.09123103
v -0.04278017 0.08291418 0.09586365
v -0.04278017 0.08351474 0.09598757
v -0.04278017 0.08411907 0.09599710
v -0.02579163 0.11271526 0.00160993
v -0.02486954 0.11325160 0.00167666
v -0.02447204 0.11356132 0.00206748
v -0.02396375 0.11371240 0.00167666
v -0.02235417 0.11454714 0.00221046
v -0.02196970 0.11477376 0.00258221
v -0.02088144 0.11520057 0.00262987
v -0.02010272 0.11549140 0.00262987
v -0.01959443 0.11567270 0.00262987
v -0.01884503 0.11606930 0.00364981
v -0.01782846 0.11636013 0.00364981
v -0.01684772 0.11671517 0.00569922
v -0.01579205 0.11692669 0.00568968
v -0.01579205 0.11699468 0.00670009
v -0.02812128 0.11125353 0.00161946
v -0.02750547 0.11151415 0.00110473
v -0.02629666 0.11242065 0.00160993
v -0.01681188 0.11680960 0.00772003
v -0.01477221 0.11743660 0.02199916
v -0.01681188 0.11679449 0.00670009
v -0.00962743 0.11790495 0.02199916
v -0.00962743 0.11771610 0.00873997
v -0.00962743 0.11763678 0.00608050
v -0.01445616 0.11765944 0.06475077
v -0.01453110 0.11767833 0.07493109
v -0.01429977 0.11763300 0.09531079
v -0.01375238 0.11771987 0.09531079
v -0.01427044 0.11762545 0.09584459
v -0.01379799 0.11769343 0.09624494
v -0.01348846 0.11767455 0.09699798
v -0.01356014 0.11763678 0.09708376
v -0.04271826 0.08222676 0.09708376
v -0.04276062 0.08254025 0.09625447
v -0.04272804 0.08250248 0.09708376
v -0.04240221 0.08962603 0.00670962
v -0.04177989 0.09227376 0.00492711
v -0.04196886 0.09166187 0.00568968
v -0.04221323 0.09064584 0.00670962
v -0.04169191 0.09289320 0.00568968
v -0.04145406 0.09369771 0.00568968
v -0.04111194 0.09471752 0.00568968
v -0.04083499 0.09549182 0.00569922
v -0.04064601 0.09600550 0.00569922
v -0.04060040 0.09588086 0.00466975
v -0.04025502 0.09674959 0.00466975
v -0.03967831 0.09817354 0.00466975
v -0.03939484 0.09878543 0.00466975
v -0.03887026 0.09958616 0.00365934
v -0.03773639 0.10141427 0.00297303
v -0.03756696 0.10113854 0.00161946
v -0.03686970 0.10266448 0.00263940
v -0.03653409 0.10317438 0.00263940
v -0.03561853 0.10434149 0.00224859
v -0.03553055 0.10422440 0.00161946
v -0.03598345 0.10394868 0.00261081
v -0.03664488 0.10333302 0.00365934
v -0.03623108 0.10387314 0.00365934
v -0.03544910 0.10515734 0.00569922
v -0.03494081 0.10575034 0.00569922
v -0.03448791 0.10626402 0.00569922
v -0.03355605 0.10737448 0.00671915
v -0.03304776 0.10789572 0.00671915
v -0.03253622 0.10840184 0.00671915
v -0.03248083 0.10834896 0.00569922
v -0.03197254 0.10881354 0.00569922
v -0.03089406 0.10978047 0.00569922
v -0.03030757 0.11029038 0.00569922
v -0.02964289 0.11057744 0.00365934
v -0.02903034 0.11103446 0.00365934
v -0.02844385 0.11146505 0.00365934
v -0.02781501 0.11169923 0.00263940
v -0.02761299 0.11158591 0.00161946
v -0.04276713 0.08351474 0.09650230
v -0.04273455 0.08351474 0.09708376
v -0.04274759 0.08664593 0.09628306
v -0.04271500 0.08748821 0.09628306
v -0.02643025 0.11249996 0.00235344
v -0.02509111 0.11333847 0.00262987
v -0.02458282 0.11362175 0.00262987
v -0.02393768 0.11392770 0.00262987
v -0.02253663 0.11462268 0.00289677
v -0.02190127 0.11498905 0.00364981
v -0.01978341 0.11574069 0.00364981
v -0.02062078 0.11568026 0.00670009
v -0.01986161 0.11594088 0.00670009
v -0.01884503 0.11625060 0.00670009
v -0.01740162 0.11662830 0.00605191
v -0.02708842 0.11192207 0.00161946
v -0.01760689 0.11668118 0.01180931
v -0.01746027 0.11664341 0.00670009
v -0.01838562 0.11662830 0.02218980
v -0.01681188 0.11700601 0.02605985
v -0.01681188 0.11720997 0.07493109
v -0.01496445 0.11756501 0.06475077
v -0.01579205 0.11735350 0.09123103
v -0.01480805 0.11751591 0.09531079
v -0.01579205 0.11726285 0.09633072
v -0.01467772 0.11751591 0.09624494
v -0.01416618 0.11760278 0.09651183
v -0.01552161 0.11722508 0.09708376
v -0.04252277 0.08860245 0.09530126
v -0.04196886 0.09165810 0.09633072
v -0.04199167 0.09166187 0.00670962
v -0.04181572 0.09237574 0.09530126
v -0.04181898 0.09242862 0.00670962
v -0.04169843 0.09293475 0.00670962
v -0.04148012 0.09369771 0.00670962
v -0.04114127 0.09474396 0.00670962
v -0.04086106 0.09556359 0.00671915
v -0.04067534 0.09606971 0.00671915
v -0.04034300 0.09674959 0.00569922
v -0.03970764 0.09823775 0.00541325
v -0.03951866 0.09869478 0.00572781
v -0.03891914 0.09986944 0.00576594
v -0.03892891 0.09967304 0.00466975
v -0.03858354 0.10009985 0.00365934
v -0.03817951 0.10081749 0.00365934
v -0.03778852 0.10149359 0.00365934
v -0.03747247 0.10200727 0.00365934
v -0.03696418 0.10282311 0.00365934
v -0.03763539 0.10226788 0.00671915
v -0.03723462 0.10286088 0.00671915
v -0.03673937 0.10346899 0.00588986
v -0.03641028 0.10402422 0.00671915
v -0.03590199 0.10471920 0.00671915
v -0.03550449 0.10522911 0.00671915
v -0.03499620 0.10579944 0.00671915
v -0.03454330 0.10632823 0.02199916
v -0.03355279 0.10738204 0.02809019
v -0.03253947 0.10840562 0.00773909
v -0.03093316 0.10981069 0.00671915
v -0.03145122 0.10936877 0.00773909
v -0.03034341 0.11032059 0.00671915
v -0.02979928 0.11068319 0.00569922
v -0.02521492 0.11341024 0.00364981
v -0.02650845 0.11254907 0.00302069
v -0.02708842 0.11214870 0.00265847
v -0.02856766 0.11154437 0.00592799
v -0.02721549 0.11236021 0.00569922
v -0.04270197 0.08451944 0.09708376
v -0.04258142 0.08756375 0.09708376
v -0.04249019 0.08832294 0.09708376
v -0.04217087 0.09037389 0.09708376
v -0.04212526 0.09064206 0.09708376
v -0.04199493 0.09139370 0.09708376
v -0.02604577 0.11277947 0.00265847
v -0.02470663 0.11368596 0.00364981
v -0.02393768 0.11407500 0.00364981
v -0.02317199 0.11444893 0.00364981
v -0.02266371 0.11468689 0.00364981
v -0.02113233 0.11548385 0.00670009
v -0.02142231 0.11560472 0.02809019
v -0.01986161 0.11597864 0.00977897
v -0.01884503 0.11633369 0.01180931
v -0.01884503 0.11626948 0.00772003
v -0.01796856 0.11649988 0.00670009
v -0.01811844 0.11654520 0.01180931
v -0.02088144 0.11579357 0.02809019
v -0.02088144 0.11595598 0.07596056
v -0.01863324 0.11671895 0.07493109
v -0.01782846 0.11698334 0.07493109
v -0.01681188 0.11708155 0.09327091
v -0.01681188 0.11706644 0.09429085
v -0.01681188 0.11701356 0.09633072
v -0.01835955 0.11661319 0.09687406
v -0.01579205 0.11716464 0.09708376
v -0.04194606 0.09165810 0.09708376
v -0.04184179 0.09214156 0.09708376
v -0.04180921 0.09236063 0.09633072
v -0.04146709 0.09370149 0.09633072
v -0.04115430 0.09471752 0.09633072
v -0.04039838 0.09674959 0.00671915
v -0.04066230 0.09604327 0.09633072
v -0.03973044 0.09829063 0.00609957
v -0.03948933 0.09880053 0.00671915
v -0.03870735 0.10032269 0.00615676
v -0.03792211 0.10175798 0.00671915
v -0.03838478 0.10082127 0.09633072
v -0.03789930 0.10166355 0.09633072
v -0.03684037 0.10331791 0.09708376
v -0.03673937 0.10347277 0.09708376
v -0.03552078 0.10522911 0.02300957
v -0.03454330 0.10632446 0.02707026
v -0.03351369 0.10733671 0.09633072
v -0.03300866 0.10784284 0.09633072
v -0.03248734 0.10835274 0.09633072
v -0.03144144 0.10935367 0.09633072
v -0.03146751 0.10936877 0.02300957
v -0.03094293 0.10980691 0.00773909
v -0.03095596 0.10981447 0.02300957
v -0.02983512 0.11070963 0.00671915
v -0.03034667 0.11032437 0.02300957
v -0.02983838 0.11074363 0.02300957
v -0.02917696 0.11125353 0.02300957
v -0.02726436 0.11239421 0.00671915
v -0.02675282 0.11268504 0.00670009
v -0.02597735 0.11311940 0.00670009
v -0.02482067 0.11375395 0.00670009
v -0.02909224 0.11121576 0.00671915
v -0.02858395 0.11155570 0.00671915
v -0.02801050 0.11192585 0.00671915
v -0.02393768 0.11422231 0.00670009
v -0.02334468 0.11452447 0.00670009
v -0.02283313 0.11476998 0.00670009
v -0.02190127 0.11517790 0.00670009
v -0.02190127 0.11519302 0.00772003
v -0.02190127 0.11521568 0.00977897
v -0.02347827 0.11458868 0.01180931
v -0.02411037 0.11446026 0.02605985
v -0.02158848 0.11568403 0.07596056
v -0.02139950 0.11558961 0.09686453
v -0.02112907 0.11564248 0.09708376
v -0.01856482 0.11649610 0.09708376
v -0.01804350 0.11664719 0.09708376
v -0.01654470 0.11699468 0.09708376
v -0.04167236 0.09283276 0.09708376
v -0.04145080 0.09370149 0.09708376
v -0.04113475 0.09471752 0.09708376
v -0.04066230 0.09603194 0.09708376
v -0.03995852 0.09776562 0.00671915
v -0.04044726 0.09656073 0.09708376
v -0.04036906 0.09674959 0.09633072
v -0.03972719 0.09828308 0.09688359
v -0.03973044 0.09829063 0.00671915
v -0.03898430 0.09979768 0.00671915
v -0.03870735 0.10032269 0.00671915
v -0.03843366 0.10082882 0.00671915
v -0.03867151 0.10025471 0.09708376
v -0.03836198 0.10082127 0.09708376
v -0.03788627 0.10164845 0.09708376
v -0.03724765 0.10267581 0.09708376
v -0.03664488 0.10360119 0.09708376
v -0.03636141 0.10397890 0.09708376
v -0.03585312 0.10463611 0.09708376
v -0.03543932 0.10514601 0.09708376
v -0.03493104 0.10575790 0.09708376
v -0.03449769 0.10627158 0.09708376
v -0.03386559 0.10694390 0.09708376
v -0.03348763 0.10732160 0.09708376
v -0.03284575 0.10794860 0.09708376
v -0.03245802 0.10832630 0.09708376
v -0.03194973 0.10881732 0.09708376
v -0.03141538 0.10932722 0.09708376
v -0.03104068 0.10966716 0.09708376
v -0.03093316 0.10979180 0.09633072
v -0.02867518 0.11162368 0.02402951
v -0.03030757 0.11030171 0.09633072
v -0.02864586 0.11160858 0.07595103
v -0.02801050 0.11208071 0.07595103
v -0.02731649 0.11242820 0.01180931
v -0.02492168 0.11385593 0.01180931
v -0.02597735 0.11315340 0.00772003
v -0.02536480 0.11349333 0.00772003
v -0.02485325 0.11377661 0.00772003
v -0.02393768 0.11426386 0.00772003
v -0.02338378 0.11454714 0.00772003
v -0.02287223 0.11478131 0.00772003
v -0.02289504 0.11478887 0.00873997
v -0.02398656 0.11436584 0.01180931
v -0.02495426 0.11399946 0.02605985
v -0.02413318 0.11440361 0.07493109
v -0.02362163 0.11466422 0.07493109
v -0.02356624 0.11465289 0.08920069
v -0.02291785 0.11496639 0.08920069
v -0.02345546 0.11458490 0.09695031
v -0.02162106 0.11546496 0.09708376
v -0.02356950 0.11464534 0.09022063
v -0.03981190 0.09805645 0.09708376
v -0.03960663 0.09848704 0.09708376
v -0.03894194 0.09974480 0.09708376
v -0.03074744 0.10991267 0.09708376
v -0.02732627 0.11243198 0.01383966
v -0.02743705 0.11249618 0.07595103
v -0.03028150 0.11028660 0.09708376
v -0.02979928 0.11069075 0.09633072
v -0.02862305 0.11159347 0.08715128
v -0.02607836 0.11330826 0.07493109
v -0.02556681 0.11360664 0.07493109
v -0.02495426 0.11395036 0.07493109
v -0.02549513 0.11356510 0.09698844
v -0.02328603 0.11465667 0.09708376
v -0.02860350 0.11157836 0.09327091
v -0.02739143 0.11245464 0.08919116
v -0.02708842 0.11264727 0.08920069
v -0.02687989 0.11277947 0.08920069
v -0.02977322 0.11066808 0.09708376
v -0.02909224 0.11120065 0.09633072
v -0.02959075 0.11080406 0.09708376
v -0.02870451 0.11144994 0.09708376
v -0.02681146 0.11274547 0.09708376
v -0.02559288 0.11349711 0.09708376
v -0.02858395 0.11155947 0.09633072
v -0.02801050 0.11195984 0.09633072
v -0.02733604 0.11242442 0.09633072
v -0.02708842 0.11257551 0.09679780
v -0.02841778 0.11165390 0.09708376
v -0.02708842 0.11256795 0.09708376
v -0.02732301 0.11241309 0.09708376
f 1 2 3
f 1 3 4
f 1 4 5
f 1 5 6
f 1 6 7
f 1 7 8
f 1 8 23
f 1 23 22
f 1 22 44
f 1 44 76
f 1 76 80
f 1 80 79
f 1 79 78
f 1 78 119
f 1 119 171
f 1 171 242
f 1 242 314
f 1 314 351
f 1 351 273
f 1 273 209
f 1 209 207
f 1 207 206
f 1 206 202
f 1 202 201
f 1 201 137
f 1 137 94
f 1 94 57
f 1 57 33
f 1 33 32
f 1 32 25
f 1 25 9
f 1 9 2
f 2 9 3
f 3 10 11
f 3 11 12
f 3 12 4
f 3 9 13
f 3 13 14
f 3 14 15
f 3 15 16
f 3 16 10
f 4 12 5
f 5 17 18
f 5 18 19
f 5 19 20
f 5 20 21
f 5 21 6
f 5 12 17
f 6 21 20
f 6 20 43
f 6 43 75
f 6 75 116
f 6 116 165
f 6 165 232
f 6 232 305
f 6 305 379
f 6 379 378
f 6 378 377
f 6 377 306
f 6 306 233
f 6 233 166
f 6 166 118
f 6 118 77
f 6 77 45
f 6 45 24
f 6 24 7
f 7 22 23
f 7 23 8
f 7 24 44
f 7 44 22
f 9 25 13
f 10 26 11
f 10 16 27
f 10 27 26
f 11 28 29
f 11 29 12
f 11 26 28
f 12 29 30
f 12 30 31
f 12 31 17
f 13 25 14
f 14 32 33
f 14 33 34
f 14 34 15
f 14 25 32
f 15 34 16
f 16 34 35
f 16 35 36
f 16 36 27
f 17 37 38
f 17 38 18
f 17 31 39
f 17 39 40
f 17 40 41
f 17 41 37
f 18 38 42
f 18 42 19
f 19 42 43
f 19 43 20
f 24 45 46
f 24 46 44
f 26 47 28
f 26 27 47
f 27 36 48
f 27 48 49
f 27 49 50
f 27 50 51
f 27 51 47
f 28 47 52
f 28 52 53
f 28 53 29
f 29 53 30
f 30 54 31
f 30 53 54
f 31 54 55
f 31 55 56
f 31 56 39
f 33 57 58
f 33 58 34
f 34 58 59
f 34 59 35
f 35 59 60
f 35 60 36
f 36 60 61
f 36 61 48
f 37 41 62
f 37 62 63
f 37 63 38
f 38 63 64
f 38 64 65
f 38 65 42
f 39 56 66
f 39 66 67
f 39 67 40
f 40 67 41
f 41 67 68
f 41 68 69
f 41 69 70
f 41 70 71
f 41 71 62
f 42 65 72
f 42 72 73
f 42 73 74
f 42 74 75
f 42 75 43
f 44 46 76
f 45 77 117
f 45 117 169
f 45 169 239
f 45 239 311
f 45 311 310
f 45 310 387
f 45 387 456
f 45 456 522
f 45 522 571
f 45 571 570
f 45 570 569
f 45 569 568
f 45 568 622
f 45 622 637
f 45 637 647
f 45 647 646
f 45 646 653
f 45 653 654
f 45 654 652
f 45 652 645
f 45 645 644
f 45 644 642
f 45 642 630
f 45 630 627
f 45 627 600
f 45 600 599
f 45 599 598
f 45 598 597
f 45 597 596
f 45 596 595
f 45 595 594
f 45 594 593
f 45 593 592
f 45 592 591
f 45 591 590
f 45 590 589
f 45 589 588
f 45 588 537
f 45 537 536
f 45 536 587
f 45 587 586
f 45 586 585
f 45 585 584
f 45 584 626
f 45 626 625
f 45 625 624
f 45 624 577
f 45 577 575
f 45 575 574
f 45 574 573
f 45 573 572
f 45 572 524
f 45 524 523
f 45 523 501
f 45 501 500
f 45 500 499
f 45 499 498
f 45 498 497
f 45 497 496
f 45 496 430
f 45 430 390
f 45 390 388
f 45 388 312
f 45 312 240
f 45 240 170
f 45 170 119
f 45 119 78
f 45 78 46
f 46 78 79
f 46 79 80
f 46 80 76
f 47 51 52
f 48 61 81
f 48 81 49
f 49 82 83
f 49 83 50
f 49 81 84
f 49 84 82
f 50 83 51
f 51 85 52
f 51 83 85
f 52 85 86
f 52 86 87
f 52 87 53
f 53 87 54
f 54 87 88
f 54 88 89
f 54 89 90
f 54 90 91
f 54 91 55
f 55 92 56
f 55 91 93
f 55 93 92
f 56 92 66
f 57 94 95
f 57 95 58
f 58 95 59
f 59 95 96
f 59 96 97
f 59 97 60
f 60 97 98
f 60 98 61
f 61 98 99
f 61 99 81
f 62 71 63
f 63 100 64
f 63 71 100
f 64 101 102
f 64 102 103
f 64 103 104
f 64 104 72
f 64 72 65
f 64 100 101
f 66 105 106
f 66 106 67
f 66 92 107
f 66 107 108
f 66 108 109
f 66 109 105
f 67 106 110
f 67 110 68
f 68 110 69
f 69 110 111
f 69 111 112
f 69 112 113
f 69 113 70
f 70 113 71
f 71 113 100
f 72 104 114
f 72 114 115
f 72 115 73
f 73 115 74
f 74 115 165
f 74 165 116
f 74 116 75
f 77 118 117
f 81 99 84
f 82 84 120
f 82 120 83
f 83 120 121
f 83 121 85
f 84 122 123
f 84 123 120
f 84 99 124
f 84 124 125
f 84 125 122
f 85 126 86
f 85 121 126
f 86 126 127
f 86 127 128
f 86 128 129
f 86 129 87
f 87 129 130
f 87 130 88
f 88 130 89
f 89 91 90
f 89 130 131
f 89 131 132
f 89 132 91
f 91 132 133
f 91 133 93
f 92 93 134
f 92 134 135
f 92 135 136
f 92 136 108
f 92 108 107
f 93 133 135
f 93 135 134
f 94 137 138
f 94 138 95
f 95 138 96
f 96 139 140
f 96 140 97
f 96 138 141
f 96 141 142
f 96 142 143
f 96 143 139
f 97 140 98
f 98 140 144
f 98 144 145
f 98 145 99
f 99 145 124
f 100 113 112
f 100 112 146
f 100 146 147
f 100 147 148
f 100 148 149
f 100 149 150
f 100 150 151
f 100 151 101
f 101 151 103
f 101 103 102
f 103 152 153
f 103 153 104
f 103 151 152
f 104 153 114
f 105 109 106
f 106 109 154
f 106 154 110
f 108 136 155
f 108 155 156
f 108 156 109
f 109 156 154
f 110 154 157
f 110 157 158
f 110 158 111
f 111 158 112
f 112 158 159
f 112 159 160
f 112 160 147
f 112 147 146
f 114 153 161
f 114 161 162
f 114 162 163
f 114 163 115
f 115 163 164
f 115 164 232
f 115 232 165
f 117 118 166
f 117 166 167
f 117 167 168
f 117 168 169
f 119 170 171
f 120 123 121
f 121 123 172
f 121 172 126
f 122 125 123
f 123 125 173
f 123 173 174
f 123 174 175
f 123 175 176
f 123 176 177
f 123 177 178
f 123 178 179
f 123 179 172
f 124 145 180
f 124 180 125
f 125 180 181
f 125 181 243
f 125 243 173
f 126 172 127
f 127 172 179
f 127 179 178
f 127 178 182
f 127 182 183
f 127 183 128
f 128 183 182
f 128 182 184
f 128 184 185
f 128 185 186
f 128 186 129
f 129 131 130
f 129 186 187
f 129 187 188
f 129 188 189
f 129 189 190
f 129 190 191
f 129 191 131
f 131 191 190
f 131 190 192
f 131 192 193
f 131 193 194
f 131 194 132
f 132 194 195
f 132 195 133
f 133 195 196
f 133 196 197
f 133 197 135
f 135 197 198
f 135 198 199
f 135 199 200
f 135 200 156
f 135 156 155
f 135 155 136
f 137 201 138
f 138 201 202
f 138 202 141
f 139 143 203
f 139 203 140
f 140 203 204
f 140 204 205
f 140 205 144
f 141 206 207
f 141 207 142
f 141 202 206
f 142 207 208
f 142 208 209
f 142 209 210
f 142 210 211
f 142 211 212
f 142 212 143
f 143 212 203
f 144 205 145
f 145 205 213
f 145 213 214
f 145 214 180
f 147 160 148
f 148 160 215
f 148 215 216
f 148 216 217
f 148 217 218
f 148 218 152
f 148 152 149
f 149 151 150
f 149 152 151
f 152 218 219
f 152 219 220
f 152 220 161
f 152 161 153
f 154 156 221
f 154 221 222
f 154 222 157
f 156 200 223
f 156 223 221
f 157 222 224
f 157 224 225
f 157 225 226
f 157 226 227
f 157 227 158
f 158 227 228
f 158 228 159
f 159 228 160
f 160 228 215
f 161 220 229
f 161 229 162
f 162 229 230
f 162 230 163
f 163 230 231
f 163 231 164
f 164 231 305
f 164 305 232
f 166 233 234
f 166 234 167
f 167 234 168
f 168 234 235
f 168 235 236
f 168 236 237
f 168 237 238
f 168 238 239
f 168 239 169
f 170 240 241
f 170 241 171
f 171 241 242
f 173 243 244
f 173 244 174
f 174 244 245
f 174 245 246
f 174 246 175
f 175 246 247
f 175 247 176
f 176 247 248
f 176 248 249
f 176 249 250
f 176 250 251
f 176 251 189
f 176 189 188
f 176 188 177
f 177 188 185
f 177 185 184
f 177 184 178
f 178 184 182
f 180 214 181
f 181 214 252
f 181 252 253
f 181 253 315
f 181 315 243
f 185 188 186
f 186 188 187
f 189 192 190
f 189 251 254
f 189 254 255
f 189 255 256
f 189 256 192
f 192 256 257
f 192 257 258
f 192 258 259
f 192 259 260
f 192 260 193
f 193 260 259
f 193 259 261
f 193 261 194
f 194 261 262
f 194 262 263
f 194 263 195
f 195 263 196
f 196 263 264
f 196 264 265
f 196 265 266
f 196 266 267
f 196 267 198
f 196 198 197
f 198 267 268
f 198 268 199
f 199 223 200
f 199 268 269
f 199 269 223
f 203 212 211
f 203 211 270
f 203 270 204
f 204 270 271
f 204 271 272
f 204 272 205
f 205 272 213
f 207 209 208
f 209 273 274
f 209 274 210
f 210 274 275
f 210 275 211
f 211 275 276
f 211 276 277
f 211 277 270
f 213 272 278
f 213 278 279
f 213 279 214
f 214 279 280
f 214 280 252
f 215 281 282
f 215 282 283
f 215 283 284
f 215 284 285
f 215 285 216
f 215 228 286
f 215 286 281
f 216 285 287
f 216 287 288
f 216 288 289
f 216 289 290
f 216 290 217
f 217 290 218
f 218 290 291
f 218 291 220
f 218 220 292
f 218 292 219
f 219 292 220
f 220 291 293
f 220 293 294
f 220 294 229
f 221 223 295
f 221 295 222
f 222 295 296
f 222 296 224
f 223 269 297
f 223 297 295
f 224 296 298
f 224 298 225
f 225 298 286
f 225 286 226
f 226 286 227
f 227 286 228
f 229 294 299
f 229 299 300
f 229 300 230
f 230 300 301
f 230 301 302
f 230 302 303
f 230 303 304
f 230 304 231
f 231 304 305
f 233 235 234
f 233 306 235
f 235 306 377
f 235 377 302
f 235 302 236
f 236 307 237
f 236 302 301
f 236 301 307
f 237 307 308
f 237 308 238
f 238 309 310
f 238 310 311
f 238 311 239
f 238 308 309
f 240 312 313
f 240 313 241
f 241 313 275
f 241 275 314
f 241 314 242
f 243 315 318
f 243 318 244
f 244 316 317
f 244 317 245
f 244 318 316
f 245 317 319
f 245 319 246
f 246 319 247
f 247 319 317
f 247 317 320
f 247 320 321
f 247 321 248
f 248 321 322
f 248 322 249
f 249 322 323
f 249 323 251
f 249 251 250
f 251 323 324
f 251 324 254
f 252 280 325
f 252 325 253
f 253 325 315
f 254 324 326
f 254 326 255
f 255 326 256
f 256 326 327
f 256 327 257
f 257 327 328
f 257 328 258
f 258 328 329
f 258 329 259
f 259 329 330
f 259 330 331
f 259 331 261
f 261 332 263
f 261 263 262
f 261 331 332
f 263 332 333
f 263 333 264
f 264 333 265
f 265 333 266
f 266 334 335
f 266 335 336
f 266 336 337
f 266 337 338
f 266 338 267
f 266 333 334
f 267 269 268
f 267 338 339
f 267 339 340
f 267 340 269
f 269 340 341
f 269 341 342
f 269 342 343
f 269 343 344
f 269 344 345
f 269 345 346
f 269 346 347
f 269 347 348
f 269 348 297
f 270 277 349
f 270 349 271
f 271 349 272
f 272 349 350
f 272 350 278
f 273 351 352
f 273 352 274
f 274 352 275
f 275 353 276
f 275 352 314
f 275 313 353
f 276 353 277
f 277 353 354
f 277 354 355
f 277 355 356
f 277 356 349
f 278 350 279
f 279 350 280
f 280 350 325
f 281 357 358
f 281 358 359
f 281 359 360
f 281 360 282
f 281 286 298
f 281 298 357
f 282 360 361
f 282 361 283
f 283 361 284
f 284 361 285
f 285 361 287
f 287 361 362
f 287 362 363
f 287 363 364
f 287 364 288
f 288 364 365
f 288 365 289
f 289 365 366
f 289 366 290
f 290 366 367
f 290 367 291
f 291 367 293
f 293 367 294
f 294 367 368
f 294 368 369
f 294 369 370
f 294 370 299
f 295 297 298
f 295 298 296
f 297 348 371
f 297 371 372
f 297 372 298
f 298 372 373
f 298 373 357
f 299 370 301
f 299 301 300
f 301 374 375
f 301 375 308
f 301 308 307
f 301 370 376
f 301 376 374
f 302 377 378
f 302 378 303
f 303 378 304
f 304 378 379
f 304 379 305
f 308 375 380
f 308 380 381
f 308 381 382
f 308 382 383
f 308 383 309
f 309 383 382
f 309 382 384
f 309 384 385
f 309 385 386
f 309 386 310
f 310 386 387
f 312 388 313
f 313 389 354
f 313 354 353
f 313 388 390
f 313 390 389
f 314 352 351
f 315 325 391
f 315 391 318
f 316 318 392
f 316 392 317
f 317 392 320
f 318 393 392
f 318 391 394
f 318 394 393
f 320 392 395
f 320 395 396
f 320 396 321
f 321 396 322
f 322 396 397
f 322 397 398
f 322 398 399
f 322 399 400
f 322 400 401
f 322 401 324
f 322 324 323
f 324 401 402
f 324 402 326
f 325 350 391
f 326 402 327
f 327 402 403
f 327 403 404
f 327 404 328
f 328 404 405
f 328 405 329
f 329 405 330
f 330 406 331
f 330 405 406
f 331 406 405
f 331 405 407
f 331 407 408
f 331 408 409
f 331 409 410
f 331 410 334
f 331 334 333
f 331 333 332
f 334 410 409
f 334 409 335
f 335 409 411
f 335 411 412
f 335 412 413
f 335 413 414
f 335 414 336
f 336 414 415
f 336 415 337
f 337 415 338
f 338 415 416
f 338 416 339
f 339 416 417
f 339 417 418
f 339 418 419
f 339 419 420
f 339 420 340
f 340 420 341
f 341 420 342
f 342 420 421
f 342 421 343
f 343 421 422
f 343 422 423
f 343 423 344
f 344 423 345
f 345 424 346
f 345 423 424
f 346 424 425
f 346 425 426
f 346 426 347
f 347 427 428
f 347 428 371
f 347 371 348
f 347 426 427
f 349 356 429
f 349 429 430
f 349 430 431
f 349 431 432
f 349 432 391
f 349 391 350
f 354 389 429
f 354 429 355
f 355 429 356
f 357 373 433
f 357 433 434
f 357 434 358
f 358 434 359
f 359 434 435
f 359 435 436
f 359 436 360
f 360 436 437
f 360 437 361
f 361 437 362
f 362 437 363
f 363 437 438
f 363 438 364
f 364 438 365
f 365 438 439
f 365 439 366
f 366 439 440
f 366 440 441
f 366 441 442
f 366 442 443
f 366 443 367
f 367 443 368
f 368 443 376
f 368 376 369
f 369 376 370
f 371 428 372
f 372 428 444
f 372 444 373
f 373 444 427
f 373 427 433
f 374 445 375
f 374 376 446
f 374 446 445
f 375 447 448
f 375 448 449
f 375 449 450
f 375 450 380
f 375 445 447
f 376 443 446
f 380 450 381
f 381 450 449
f 381 449 451
f 381 451 382
f 382 452 453
f 382 453 384
f 382 451 452
f 384 453 454
f 384 454 455
f 384 455 385
f 385 455 386
f 386 456 387
f 386 455 456
f 389 390 429
f 390 430 429
f 391 432 457
f 391 457 458
f 391 458 394
f 392 393 395
f 393 394 459
f 393 459 395
f 394 458 460
f 394 460 459
f 395 459 461
f 395 461 462
f 395 462 463
f 395 463 396
f 396 463 464
f 396 464 397
f 397 464 465
f 397 465 398
f 398 465 466
f 398 466 399
f 399 466 467
f 399 467 402
f 399 402 401
f 399 401 400
f 402 467 468
f 402 468 403
f 403 468 469
f 403 469 470
f 403 470 471
f 403 471 404
f 404 471 472
f 404 472 405
f 405 472 473
f 405 473 474
f 405 474 475
f 405 475 476
f 405 476 412
f 405 412 407
f 407 412 408
f 408 411 409
f 408 412 411
f 412 476 477
f 412 477 478
f 412 478 479
f 412 479 480
f 412 480 481
f 412 481 413
f 413 481 482
f 413 482 414
f 414 482 415
f 415 482 416
f 416 482 483
f 416 483 417
f 417 483 484
f 417 484 485
f 417 485 418
f 418 485 486
f 418 486 419
f 419 487 422
f 419 422 421
f 419 421 420
f 419 486 488
f 419 488 487
f 422 487 423
f 423 487 489
f 423 489 490
f 423 490 424
f 424 490 425
f 425 490 426
f 426 491 492
f 426 492 493
f 426 493 427
f 426 490 494
f 426 494 495
f 426 495 491
f 427 493 433
f 427 444 428
f 430 496 431
f 431 496 432
f 432 496 497
f 432 497 498
f 432 498 499
f 432 499 500
f 432 500 501
f 432 501 458
f 432 458 457
f 433 493 502
f 433 502 434
f 434 502 491
f 434 491 435
f 435 491 503
f 435 503 504
f 435 504 505
f 435 505 436
f 436 505 506
f 436 506 437
f 437 506 438
f 438 506 507
f 438 507 440
f 438 440 439
f 440 507 508
f 440 508 447
f 440 447 509
f 440 509 441
f 441 509 447
f 441 447 510
f 441 510 511
f 441 511 442
f 442 512 443
f 442 511 512
f 443 512 446
f 445 513 447
f 445 446 513
f 446 512 513
f 447 508 514
f 447 514 515
f 447 515 516
f 447 516 517
f 447 517 448
f 447 513 510
f 448 517 449
f 449 517 451
f 451 518 519
f 451 519 452
f 451 517 518
f 452 519 453
f 453 520 521
f 453 521 522
f 453 522 455
f 453 455 454
f 453 519 520
f 455 522 456
f 458 501 523
f 458 523 524
f 458 524 525
f 458 525 460
f 459 460 461
f 460 525 526
f 460 526 462
f 460 462 461
f 462 526 463
f 463 526 527
f 463 527 464
f 464 527 465
f 465 527 466
f 466 528 467
f 466 527 529
f 466 529 528
f 467 528 530
f 467 530 468
f 468 530 469
f 469 530 531
f 469 531 532
f 469 532 470
f 470 532 471
f 471 473 472
f 471 532 473
f 473 532 474
f 474 532 477
f 474 477 475
f 475 477 476
f 477 532 533
f 477 533 534
f 477 534 535
f 477 535 536
f 477 536 537
f 477 537 478
f 478 480 479
f 478 537 480
f 480 537 538
f 480 538 481
f 481 538 482
f 482 538 484
f 482 484 483
f 484 538 539
f 484 539 485
f 485 539 540
f 485 540 541
f 485 541 486
f 486 541 542
f 486 542 543
f 486 543 544
f 486 544 488
f 487 488 489
f 488 545 489
f 488 544 546
f 488 546 545
f 489 547 490
f 489 545 546
f 489 546 548
f 489 548 549
f 489 549 550
f 489 550 547
f 490 547 494
f 491 502 492
f 491 495 551
f 491 551 552
f 491 552 553
f 491 553 554
f 491 554 503
f 492 502 493
f 494 547 555
f 494 555 556
f 494 556 557
f 494 557 551
f 494 551 495
f 503 554 558
f 503 558 559
f 503 559 504
f 504 559 505
f 505 559 560
f 505 560 506
f 506 560 561
f 506 561 507
f 507 561 562
f 507 562 563
f 507 563 508
f 508 563 564
f 508 564 565
f 508 565 566
f 508 566 515
f 508 515 514
f 510 513 511
f 511 513 512
f 515 566 567
f 515 567 521
f 515 521 516
f 516 521 517
f 517 521 518
f 518 521 519
f 519 521 520
f 521 567 568
f 521 568 569
f 521 569 570
f 521 570 571
f 521 571 522
f 524 572 525
f 525 572 573
f 525 573 526
f 526 573 527
f 527 573 574
f 527 574 575
f 527 575 529
f 528 576 530
f 528 529 577
f 528 577 578
f 528 578 579
f 528 579 576
f 529 575 577
f 530 576 580
f 530 580 531
f 531 581 532
f 531 580 579
f 531 579 581
f 532 581 582
f 532 582 583
f 532 583 533
f 533 583 534
f 534 579 584
f 534 584 585
f 534 585 586
f 534 586 535
f 534 583 582
f 534 582 579
f 535 586 587
f 535 587 536
f 537 588 538
f 538 588 589
f 538 589 590
f 538 590 591
f 538 591 592
f 538 592 593
f 538 593 539
f 539 593 540
f 540 593 594
f 540 594 541
f 541 594 595
f 541 595 542
f 542 595 596
f 542 596 597
f 542 597 598
f 542 598 543
f 543 598 599
f 543 599 600
f 543 600 601
f 543 601 546
f 543 546 544
f 546 601 548
f 547 550 602
f 547 602 555
f 548 601 549
f 549 601 603
f 549 603 604
f 549 604 550
f 550 604 605
f 550 605 602
f 551 557 606
f 551 606 607
f 551 607 608
f 551 608 552
f 552 608 553
f 553 608 609
f 553 609 610
f 553 610 554
f 554 610 611
f 554 611 558
f 555 602 556
f 556 602 606
f 556 606 557
f 558 611 612
f 558 612 559
f 559 612 560
f 560 612 613
f 560 613 561
f 561 613 614
f 561 614 564
f 561 564 562
f 562 564 563
f 564 614 613
f 564 613 615
f 564 615 565
f 565 616 617
f 565 617 618
f 565 618 566
f 565 615 607
f 565 607 616
f 566 618 619
f 566 619 620
f 566 620 567
f 567 621 622
f 567 622 568
f 567 620 623
f 567 623 621
f 576 579 580
f 577 624 579
f 577 579 578
f 579 624 625
f 579 625 626
f 579 626 584
f 579 582 581
f 600 627 601
f 601 627 603
f 602 616 628
f 602 628 606
f 602 605 629
f 602 629 616
f 603 627 630
f 603 630 631
f 603 631 604
f 604 631 632
f 604 632 605
f 605 632 629
f 606 628 616
f 606 616 607
f 607 615 610
f 607 610 609
f 607 609 608
f 610 615 611
f 611 615 612
f 612 615 613
f 616 629 633
f 616 633 634
f 616 634 635
f 616 635 617
f 617 635 636
f 617 636 619
f 617 619 618
f 619 636 623
f 619 623 620
f 621 623 636
f 621 636 637
f 621 637 622
f 629 632 638
f 629 638 639
f 629 639 640
f 629 640 641
f 629 641 633
f 630 642 631
f 631 643 638
f 631 638 632
f 631 642 644
f 631 644 645
f 631 645 643
f 633 641 636
f 633 636 634
f 634 636 635
f 636 646 647
f 636 647 637
f 636 641 646
f 638 643 648
f 638 648 649
f 638 649 639
f 639 649 650
f 639 650 640
f 640 650 641
f 641 650 651
f 641 651 646
f 643 645 652
f 643 652 648
f 646 651 653
f 648 652 649
f 649 652 654
f 649 654 650
f 650 654 653
f 650 653 651

