# https://github.com/mikedh/trimesh
v 0.00472037 0.11534401 0.10040589
v 0.00472037 0.11533429 0.10030939
v 0.00472037 0.11498155 0.10134554
v 0.00560129 0.11474686 0.10116068
v 0.00616638 0.11460243 0.10096526
v 0.00560129 0.11493294 0.10040589
v 0.00620044 0.11461631 0.09965062
v 0.00472037 0.11523291 0.09942015
v 0.00472037 0.11467464 0.10166052
v 0.00698228 0.11342062 0.10188187
v 0.00657511 0.11402610 0.10142381
v 0.00746532 0.11374836 0.10120294
v 0.00672992 0.11437606 0.10040589
v 0.00622057 0.11462742 0.10040589
v 0.00814497 0.11355255 0.10089180
v 0.00657201 0.11436079 0.09934189
v 0.00606420 0.11455521 0.09897218
v 0.00818987 0.11358171 0.09979227
v 0.00472037 0.11463437 0.09708376
v 0.00472037 0.11419969 0.10192796
v 0.00490306 0.11438301 0.10187130
v 0.00630262 0.11362615 0.10197501
v 0.00818677 0.11256099 0.10194572
v 0.00937578 0.11266654 0.10110211
v 0.00773780 0.11381918 0.10049376
v 0.00818987 0.11358171 0.10021287
v 0.01122897 0.11153472 0.10094030
v 0.01001209 0.11241795 0.10040589
v 0.00950428 0.11274847 0.10040589
v 0.00766658 0.11377613 0.09942688
v 0.00802576 0.11348589 0.09911334
v 0.00645125 0.11374836 0.09708376
v 0.00560129 0.11419414 0.09708376
v 0.01124290 0.11154722 0.09979323
v 0.00991610 0.11235963 0.09938799
v 0.00940675 0.11268876 0.09938799
v 0.00858001 0.11322758 0.09942688
v 0.00472037 0.11188468 0.09708376
v 0.00472037 0.11400388 0.10197598
v 0.00763871 0.11270820 0.10197837
v 0.00560129 0.11372058 0.10198894
v 0.01236070 0.11061260 0.10106225
v 0.01069330 0.11171665 0.10113332
v 0.01629620 0.10541181 0.10193420
v 0.01480839 0.10799624 0.10140460
v 0.01376181 0.10899612 0.10136235
v 0.01271059 0.10998906 0.10129416
v 0.01125065 0.11155278 0.10040589
v 0.01069330 0.11194440 0.10040589
v 0.01243037 0.11066954 0.10040589
v 0.01176000 0.11117782 0.10040589
v 0.00763871 0.11305677 0.09708376
v 0.00695906 0.11345533 0.09708376
v 0.00883856 0.11233602 0.09708376
v 0.00832921 0.11264710 0.09708376
v 0.01163460 0.11113893 0.09942784
v 0.01109892 0.11144168 0.09911478
v 0.01073355 0.11180136 0.09942784
v 0.01348623 0.10970021 0.09938799
v 0.01284373 0.11020987 0.09938799
v 0.01337786 0.10960578 0.09870714
v 0.01014059 0.11148612 0.09708376
v 0.01000745 0.11157777 0.09708376
v 0.00963124 0.11182774 0.09708376
v 0.00564619 0.11101950 0.09708376
v 0.00472037 0.11276791 0.10040589
v 0.00472037 0.11348727 0.10196349
v 0.00560129 0.11338729 0.10198894
v 0.01343205 0.10964883 0.10113139
v 0.01403584 0.10928776 0.10040589
v 0.01352649 0.10973215 0.10040589
v 0.01293817 0.11024181 0.10040589
v 0.01629620 0.10540626 0.10193420
v 0.01884143 0.10184278 0.10147902
v 0.01989110 0.10115813 0.10126296
v 0.01889252 0.10289404 0.10131385
v 0.01856585 0.10388004 0.10117173
v 0.01781498 0.10484799 0.10124663
v 0.01672505 0.10583399 0.10149054
v 0.01582245 0.10696302 0.10144253
v 0.01550817 0.10768516 0.10119045
v 0.01027993 0.11138335 0.09708376
v 0.01460712 0.10877809 0.10040589
v 0.01511648 0.10830593 0.10040589
v 0.01399559 0.10922249 0.09938799
v 0.01404513 0.10824343 0.09708376
v 0.01353578 0.10875032 0.09708376
v 0.01283599 0.10938219 0.09708376
v 0.01169807 0.11029320 0.09708376
v 0.01132186 0.11059038 0.09708376
v 0.01086669 0.11093896 0.09708376
v 0.01451733 0.10871282 0.09938799
v 0.01502669 0.10820594 0.09938799
v 0.01603920 0.10718939 0.09938799
v 0.01695573 0.10115813 0.09708376
v 0.01784285 0.10115813 0.10040637
v 0.00472037 0.11309565 0.10143149
v 0.01814939 0.10115813 0.10106609
v 0.01879653 0.10115813 0.10133306
v 0.01629156 0.10540626 0.10193420
v 0.01449720 0.10867394 0.10113908
v 0.02019455 0.10115813 0.10105409
v 0.02036175 0.10132478 0.10088796
v 0.01969758 0.10184278 0.10118613
v 0.01948083 0.10257741 0.10105601
v 0.01838626 0.10447581 0.10098783
v 0.01747128 0.10557846 0.10111795
v 0.01647425 0.10664084 0.10118421
v 0.01613209 0.10726160 0.10040589
v 0.01562429 0.10779765 0.10040589
v 0.01417518 0.10811011 0.09708376
v 0.01651759 0.10667972 0.09938799
v 0.01640303 0.10654363 0.09875371
v 0.01962482 0.10115813 0.09708376
v 0.02047477 0.10115813 0.10072375
v 0.02053515 0.10115813 0.10035692
v 0.02042213 0.10141921 0.10020856
v 0.01957373 0.10270657 0.10040589
v 0.01924241 0.10321623 0.10040589
v 0.01840484 0.10449525 0.10040589
v 0.01803482 0.10500491 0.10040589
v 0.01752547 0.10565484 0.10040589
v 0.01602372 0.10613256 0.09708376
v 0.01837387 0.10444526 0.09977306
v 0.01702695 0.10603674 0.09938799
v 0.01614758 0.10599786 0.09708376
v 0.01699753 0.10499936 0.09708376
v 0.01648818 0.10562290 0.09708376
v 0.01920835 0.10185111 0.09708376
v 0.02032150 0.10125396 0.09902163
v 0.02034782 0.10115813 0.09897266
v 0.02053515 0.10115813 0.10011492
v 0.02042213 0.10141921 0.09970008
v 0.01918203 0.10312457 0.09938799
v 0.01863088 0.10391615 0.09941583
v 0.01738458 0.10449108 0.09708376
v 0.01709971 0.10486604 0.09708376
v 0.01912784 0.10198443 0.09708376
v 0.01952573 0.10261491 0.09938799
v 0.02007224 0.10179139 0.09937166
v 0.02039581 0.10115813 0.09911190
v 0.01899470 0.10218440 0.09708376
v 0.01861849 0.10274823 0.09708376
v 0.02051348 0.10115813 0.09954115
f 1 2 8
f 1 8 19
f 1 19 38
f 1 38 66
f 1 66 97
f 1 97 67
f 1 67 39
f 1 39 20
f 1 20 9
f 1 9 3
f 1 3 4
f 1 4 5
f 1 5 6
f 1 6 7
f 1 7 2
f 2 7 8
f 3 9 10
f 3 10 4
f 4 10 11
f 4 11 12
f 4 12 5
f 5 13 14
f 5 14 6
f 5 12 15
f 5 15 13
f 6 14 7
f 7 16 17
f 7 17 8
f 7 14 13
f 7 13 18
f 7 18 16
f 8 17 19
f 9 20 21
f 9 21 10
f 10 12 11
f 10 21 22
f 10 22 23
f 10 23 24
f 10 24 12
f 12 24 15
f 13 15 25
f 13 25 26
f 13 26 18
f 15 24 27
f 15 27 28
f 15 28 29
f 15 29 26
f 15 26 25
f 16 18 17
f 17 18 30
f 17 30 31
f 17 31 32
f 17 32 33
f 17 33 19
f 18 26 29
f 18 29 28
f 18 28 34
f 18 34 35
f 18 35 36
f 18 36 37
f 18 37 31
f 18 31 30
f 19 33 32
f 19 32 53
f 19 53 52
f 19 52 55
f 19 55 54
f 19 54 64
f 19 64 63
f 19 63 62
f 19 62 82
f 19 82 91
f 19 91 90
f 19 90 89
f 19 89 88
f 19 88 87
f 19 87 86
f 19 86 111
f 19 111 123
f 19 123 126
f 19 126 128
f 19 128 127
f 19 127 137
f 19 137 136
f 19 136 143
f 19 143 142
f 19 142 138
f 19 138 129
f 19 129 114
f 19 114 95
f 19 95 65
f 19 65 38
f 20 39 22
f 20 22 21
f 22 40 23
f 22 39 41
f 22 41 40
f 23 42 43
f 23 43 24
f 23 40 44
f 23 44 45
f 23 45 46
f 23 46 47
f 23 47 42
f 24 43 27
f 27 48 49
f 27 49 28
f 27 43 42
f 27 42 50
f 27 50 51
f 27 51 48
f 28 49 34
f 31 52 53
f 31 53 32
f 31 37 36
f 31 36 54
f 31 54 55
f 31 55 52
f 34 56 57
f 34 57 58
f 34 58 35
f 34 49 48
f 34 48 51
f 34 51 50
f 34 50 59
f 34 59 60
f 34 60 61
f 34 61 56
f 35 62 63
f 35 63 64
f 35 64 36
f 35 58 62
f 36 64 54
f 38 65 66
f 39 67 68
f 39 68 41
f 40 41 44
f 41 68 73
f 41 73 44
f 42 47 69
f 42 69 70
f 42 70 71
f 42 71 72
f 42 72 50
f 44 73 74
f 44 74 75
f 44 75 76
f 44 76 77
f 44 77 78
f 44 78 79
f 44 79 80
f 44 80 45
f 45 80 81
f 45 81 69
f 45 69 46
f 46 69 47
f 50 72 59
f 56 61 57
f 57 82 62
f 57 62 58
f 57 61 82
f 59 61 60
f 59 72 71
f 59 71 70
f 59 70 83
f 59 83 84
f 59 84 85
f 59 85 61
f 61 86 87
f 61 87 88
f 61 88 89
f 61 89 90
f 61 90 91
f 61 91 82
f 61 85 92
f 61 92 93
f 61 93 94
f 61 94 86
f 65 95 96
f 65 96 66
f 66 96 97
f 67 97 98
f 67 98 99
f 67 99 100
f 67 100 68
f 68 100 73
f 69 81 101
f 69 101 83
f 69 83 70
f 73 100 74
f 74 99 75
f 74 100 99
f 75 99 98
f 75 98 96
f 75 96 95
f 75 95 114
f 75 114 131
f 75 131 141
f 75 141 144
f 75 144 132
f 75 132 116
f 75 116 115
f 75 115 102
f 75 102 103
f 75 103 104
f 75 104 76
f 76 104 77
f 77 104 105
f 77 105 106
f 77 106 78
f 78 106 107
f 78 107 79
f 79 107 108
f 79 108 80
f 80 108 81
f 81 84 101
f 81 108 109
f 81 109 110
f 81 110 84
f 83 101 84
f 84 110 93
f 84 93 92
f 84 92 85
f 86 94 111
f 93 110 94
f 94 110 109
f 94 109 112
f 94 112 113
f 94 113 111
f 96 98 97
f 102 115 103
f 103 105 104
f 103 115 116
f 103 116 117
f 103 117 106
f 103 106 105
f 106 117 118
f 106 118 119
f 106 119 120
f 106 120 121
f 106 121 122
f 106 122 107
f 107 122 109
f 107 109 108
f 109 122 112
f 111 113 123
f 112 122 124
f 112 124 125
f 112 125 113
f 113 126 123
f 113 125 127
f 113 127 128
f 113 128 126
f 114 129 130
f 114 130 131
f 116 132 133
f 116 133 117
f 117 133 120
f 117 120 119
f 117 119 118
f 120 133 124
f 120 124 121
f 121 124 122
f 124 133 134
f 124 134 135
f 124 135 136
f 124 136 137
f 124 137 125
f 125 137 127
f 129 138 130
f 130 139 140
f 130 140 133
f 130 133 141
f 130 141 131
f 130 138 142
f 130 142 143
f 130 143 134
f 130 134 139
f 132 144 133
f 133 144 141
f 133 140 139
f 133 139 134
f 134 143 136
f 134 136 135

