# https://github.com/mikedh/trimesh
v -0.04211728 0.07955357 0.00192751
v -0.04210420 0.07943333 0.00192751
v -0.04234625 0.07943053 0.00365306
v -0.04235934 0.07955357 0.00365306
v -0.00858322 0.07955637 0.00371954
v 0.01859207 0.07955637 0.00231193
v -0.03770146 0.07955357 0.00192751
v -0.04220233 0.07841267 0.00365306
v -0.04193411 0.07841267 0.00192751
v -0.04257522 0.07955357 0.00569366
v -0.04237242 0.07955357 0.00377445
v -0.00858322 0.07955637 0.03145261
v -0.04266681 0.07955357 0.00670818
v 0.02332190 0.07955637 0.00231193
v -0.03310247 0.07637695 0.00193329
v -0.03042681 0.06466039 0.00192751
v -0.04237896 0.07841267 0.00568788
v -0.04264718 0.07943053 0.00670818
v -0.04255560 0.07943053 0.00568788
v -0.04152197 0.07639094 0.00192751
v -0.04177710 0.07679920 0.00303741
v -0.04198645 0.07739202 0.00365306
v -0.04181635 0.07561076 0.00595379
v 0.02396956 0.07955637 0.03145261
v -0.04254905 0.07955357 0.03145261
v -0.04241167 0.07841267 0.03145261
v -0.04254251 0.07943053 0.03145261
v 0.02368171 0.07955637 0.00275705
v 0.02332190 0.07953959 0.00231193
v -0.02443438 0.06466039 0.00195641
v -0.03605943 0.06466039 0.00192751
v -0.00028147 0.05251319 0.00231193
v -0.00077212 0.05239574 0.00231193
v -0.00255153 0.05200146 0.00231193
v -0.00389263 0.05173860 0.00231193
v -0.00491318 0.05158481 0.00231193
v -0.00609073 0.05141983 0.00231193
v -0.00630007 0.05139746 0.00231193
v -0.00664680 0.05136670 0.00231193
v -0.00764117 0.05128560 0.00231193
v -0.00858322 0.05124366 0.00231193
v -0.04246401 0.07841267 0.00670818
v -0.04203878 0.07637416 0.00670818
v -0.04246401 0.07841267 0.00772270
v -0.04206495 0.07637416 0.03145261
v -0.04229392 0.07770800 0.03145261
v -0.04126683 0.07535910 0.00192751
v -0.04127337 0.07433844 0.00365306
v -0.04172477 0.07497600 0.00670818
v -0.04184906 0.07548493 0.00670818
v 0.02396956 0.07951722 0.03145261
v 0.02412656 0.07955637 0.02095191
v 0.02404152 0.07955637 0.00365306
v 0.02360975 0.07841267 0.00283219
v 0.02324994 0.07739481 0.00240153
v 0.02319106 0.07738922 0.00231193
v 0.02304060 0.07637136 0.00231193
v 0.02275930 0.07535630 0.00231193
v 0.02232099 0.07402525 0.00231193
v 0.02205931 0.07328143 0.00231193
v 0.02170604 0.07229993 0.00231193
v 0.02143782 0.07160644 0.00231193
v 0.02043036 0.06958470 0.00231193
v 0.02014251 0.06907577 0.00231193
v 0.01933785 0.06773074 0.00231193
v 0.01925281 0.06759372 0.00231193
v 0.01850702 0.06640249 0.00231193
v 0.01817338 0.06589356 0.00231193
v 0.01640052 0.06351110 0.00231193
v 0.01595566 0.06298260 0.00231193
v 0.01561548 0.06259111 0.00231193
v 0.01531455 0.06224716 0.00231193
v 0.01462765 0.06146420 0.00231193
v 0.01403233 0.06082664 0.00231193
v 0.01375102 0.06053582 0.00231193
v 0.01357439 0.06035406 0.00231193
v 0.01341738 0.06019746 0.00231193
v 0.01248843 0.05933340 0.00231193
v 0.01189311 0.05883845 0.00231193
v 0.01122583 0.05832953 0.00231193
v 0.00839316 0.05634414 0.00231193
v 0.00719598 0.05556956 0.00231193
v 0.00710439 0.05551084 0.00231193
v 0.00700627 0.05546330 0.00231193
v 0.00497826 0.05453213 0.00231193
v 0.00355865 0.05388338 0.00231193
v 0.00280633 0.05354503 0.00231193
v 0.00232877 0.05334649 0.00231193
v 0.00153719 0.05306126 0.00231193
v 0.00120355 0.05294382 0.00231193
v 0.00050356 0.05273130 0.00231193
v 0.00016992 0.05263063 0.00231193
v -0.02217740 0.05339123 0.00290157
v -0.02262880 0.05358417 0.00290157
v -0.02444092 0.05441468 0.00290157
v -0.02459793 0.05448739 0.00290157
v -0.02613528 0.05536543 0.00290157
v -0.02675677 0.05575691 0.00290157
v -0.02934738 0.05742072 0.00290157
v -0.02973336 0.05770035 0.00290157
v -0.03064923 0.05847214 0.00290157
v -0.03078661 0.05858958 0.00290157
v -0.03158473 0.05929146 0.00290157
v -0.03187258 0.05954872 0.00290157
v -0.03224547 0.05989826 0.00290157
v -0.03278191 0.06040719 0.00290157
v -0.03329218 0.06092451 0.00290157
v -0.03364545 0.06129642 0.00290157
v -0.03473141 0.06250722 0.00290157
v -0.03613794 0.06475546 0.00192751
v -0.00017026 0.05247683 0.00263276
v -0.00255153 0.05194553 0.00263276
v -0.00356554 0.05174140 0.00263276
v -0.00458608 0.05159320 0.00263276
v -0.00592064 0.05139186 0.00282641
v -0.00653558 0.05134712 0.00254605
v -0.00764117 0.05123807 0.00263276
v -0.00858322 0.05119332 0.00263276
v -0.01171027 0.05118494 0.00290157
v -0.01273082 0.05122408 0.00290157
v -0.01368594 0.05130797 0.00290157
v -0.01434668 0.05138347 0.00290157
v -0.01454948 0.05141144 0.00290157
v -0.01680646 0.05180572 0.00290157
v -0.01782700 0.05203781 0.00290157
v -0.01922044 0.05239294 0.00290157
v -0.01957370 0.05249081 0.00290157
v -0.02067275 0.05285434 0.00290157
v -0.02088209 0.05292424 0.00290157
v -0.04206495 0.07637416 0.00772270
v -0.04226775 0.07739202 0.00772270
v -0.04227429 0.07739202 0.00874300
v -0.04207149 0.07637416 0.00874300
v -0.04186869 0.07541782 0.03145261
v -0.04095936 0.07429650 0.00192751
v -0.04110328 0.07434124 0.00262698
v -0.04092010 0.07325067 0.00362126
v -0.04123412 0.07331778 0.00670818
v -0.04154159 0.07433844 0.00670818
v -0.04156122 0.07433844 0.00976041
v -0.04173131 0.07495363 0.00976041
v -0.04186215 0.07547934 0.00772270
v 0.02396302 0.07943333 0.03145261
v 0.02412002 0.07943333 0.02095191
v 0.02416582 0.07955637 0.01078070
v 0.02412656 0.07955637 0.00454907
v 0.02402844 0.07943333 0.00365306
v 0.02354433 0.07739481 0.00291024
v 0.02347891 0.07667616 0.00302007
v 0.02322377 0.07635458 0.00266167
v 0.02290322 0.07535630 0.00263276
v 0.02247145 0.07362258 0.00297961
v 0.02220977 0.07329821 0.00263565
v 0.02184342 0.07229993 0.00263276
v 0.02149670 0.07135477 0.00272814
v 0.02139203 0.07076195 0.00312991
v 0.02039765 0.06867590 0.00308366
v 0.01914814 0.06713792 0.00257206
v 0.01818647 0.06588797 0.00232638
v 0.01861824 0.06621514 0.00265299
v 0.01623042 0.06269458 0.00325130
v 0.01606033 0.06289591 0.00263276
v 0.01841544 0.06556639 0.00300562
v 0.01428746 0.06055819 0.00308655
v 0.01258001 0.05925511 0.00263276
v 0.01197815 0.05874897 0.00263276
v 0.01146788 0.05837147 0.00263276
v 0.01029033 0.05746546 0.00293047
v 0.00845858 0.05630220 0.00263276
v 0.00758196 0.05574293 0.00259229
v 0.00720252 0.05546330 0.00290734
v 0.00669225 0.05525917 0.00259229
v 0.00516798 0.05444824 0.00299984
v 0.00554087 0.05469990 0.00264721
v 0.00498480 0.05452933 0.00232060
v 0.00291754 0.05351427 0.00263276
v 0.00240727 0.05330175 0.00263276
v 0.00152411 0.05296898 0.00263276
v 0.00050356 0.05265580 0.00263276
v -0.02245216 0.05344436 0.00307788
v -0.02453905 0.05444265 0.00296226
v -0.02647547 0.05550525 0.00323107
v -0.02956327 0.05751859 0.00306632
v -0.03163053 0.05851129 0.00611565
v -0.03268378 0.05949279 0.00606941
v -0.03371741 0.06048828 0.00604917
v -0.03471179 0.06152012 0.00607519
v -0.03568000 0.06259111 0.00614167
v -0.03566037 0.06363134 0.00309811
v -0.03641924 0.06512737 0.00192751
v 0.00017646 0.05239574 0.00569077
v -0.00388609 0.05138068 0.00604050
v -0.00662063 0.05125764 0.00365306
v -0.00458608 0.05125484 0.00670818
v -0.00764117 0.05115138 0.00365306
v -0.00858322 0.05110105 0.00365306
v -0.00866826 0.05116816 0.00290157
v -0.00940750 0.05116256 0.00290157
v -0.01273082 0.05111782 0.00365306
v -0.01375136 0.05118494 0.00365306
v -0.01449060 0.05138907 0.00296226
v -0.01680646 0.05164633 0.00365306
v -0.01782700 0.05187842 0.00365306
v -0.01944286 0.05242091 0.00302874
v -0.02009052 0.05252996 0.00365306
v -0.02088209 0.05279561 0.00365306
v -0.04186215 0.07546815 0.00874300
v -0.04182944 0.07525843 0.03145261
v -0.04078927 0.07326745 0.00289867
v -0.04035095 0.07254320 0.00192751
v -0.04071731 0.07286758 0.00325997
v -0.04077618 0.07271098 0.00393920
v -0.04090702 0.07238661 0.00670818
v -0.04075002 0.07176583 0.01179811
v -0.04075656 0.07175185 0.01281552
v -0.04124066 0.07331778 0.00772270
v -0.04127337 0.07331778 0.01485612
v -0.04132571 0.07331778 0.03145261
v -0.04160047 0.07433844 0.03145261
v 0.02387797 0.07841267 0.03145261
v 0.02388451 0.07841267 0.03113756
v 0.02374713 0.07739481 0.03145261
v 0.02397610 0.07841267 0.02095191
v 0.02414619 0.07943333 0.01078070
v 0.02412002 0.07943333 0.00467047
v 0.02413311 0.07955637 0.00467047
v 0.02386489 0.07841267 0.00365306
v 0.02342657 0.07583167 0.00514449
v 0.02330882 0.07543739 0.00475140
v 0.02296864 0.07433844 0.00467047
v 0.02248454 0.07264946 0.00490748
v 0.02282472 0.07433844 0.00365306
v 0.02368171 0.07739481 0.00365306
v 0.02235370 0.07295986 0.00365306
v 0.02054812 0.06816697 0.00574858
v 0.02033223 0.06779506 0.00545376
v 0.01951449 0.06743154 0.00287266
v 0.02012943 0.06730011 0.00574858
v 0.01958645 0.06627666 0.00569077
v 0.01929860 0.06576214 0.00569077
v 0.01838927 0.06458209 0.00508379
v 0.01637435 0.06252120 0.00393053
v 0.01746031 0.06345797 0.00491326
v 0.01651173 0.06237300 0.00467047
v 0.01621080 0.06169070 0.00569077
v 0.01518371 0.06067563 0.00546532
v 0.01323421 0.05957668 0.00316748
v 0.01300524 0.05873779 0.00569077
v 0.01249497 0.05835189 0.00569077
v 0.01163143 0.05823165 0.00365306
v 0.01092490 0.05771993 0.00365306
v 0.01130433 0.05746826 0.00588442
v 0.00993052 0.05666851 0.00569077
v 0.00942025 0.05636371 0.00569077
v 0.00813148 0.05550804 0.00634977
v 0.00662029 0.05472228 0.00670818
v 0.00609039 0.05449018 0.00670818
v 0.00457920 0.05385542 0.00670818
v 0.00385304 0.05355062 0.00670818
v 0.00334277 0.05334649 0.00670818
v 0.00254465 0.05305008 0.00670818
v 0.00152411 0.05272571 0.00670818
v -0.02189610 0.05317032 0.00365306
v -0.02250450 0.05341639 0.00365306
v -0.02484652 0.05428325 0.00670818
v -0.02544184 0.05449298 0.00772270
v -0.02596519 0.05476422 0.00772270
v -0.02683527 0.05531230 0.00670818
v -0.02734555 0.05558913 0.00670818
v -0.02800628 0.05598062 0.00670818
v -0.02870627 0.05640286 0.00670818
v -0.02921655 0.05673003 0.00670818
v -0.02996233 0.05723896 0.00670818
v -0.03047260 0.05759689 0.00670818
v -0.03167632 0.05847493 0.00670818
v -0.03218005 0.05892234 0.00670818
v -0.03274920 0.05943127 0.00670818
v -0.03106138 0.05802473 0.00670818
v -0.03325947 0.05990385 0.00670818
v -0.03378937 0.06041278 0.00670818
v -0.03429965 0.06094967 0.00670818
v -0.03475758 0.06145860 0.00670818
v -0.03569963 0.06256315 0.00670818
v -0.03610522 0.06314199 0.00670818
v -0.03656316 0.06380471 0.00670818
v -0.03689680 0.06431644 0.00670818
v -0.03772763 0.06663459 0.00296515
v -0.03714540 0.06615362 0.00192751
v -0.03526786 0.06205422 0.00670818
v -0.03668092 0.06549369 0.00192751
v 0.00075870 0.05251319 0.00670818
v 0.00024843 0.05237896 0.00670818
v -0.00051698 0.05218042 0.00670818
v -0.00153099 0.05192876 0.00670818
v -0.00334965 0.05149533 0.00670818
v -0.00385992 0.05137508 0.00670818
v -0.00397768 0.05140305 0.00754060
v -0.00408889 0.05142821 0.00821984
v -0.00449449 0.05135271 0.00781808
v -0.00560663 0.05115977 0.00670818
v -0.00866826 0.05110105 0.00365306
v -0.00764117 0.05109545 0.00569077
v -0.00858322 0.05107867 0.00474851
v -0.01069627 0.05098919 0.00568788
v -0.01171027 0.05110943 0.00365306
v -0.01171027 0.05103114 0.00568788
v -0.01273082 0.05113740 0.00670818
v -0.01534106 0.05141703 0.00737874
v -0.01536722 0.05141983 0.00422535
v -0.01536722 0.05141983 0.00405193
v -0.01680646 0.05167150 0.00772270
v -0.01782700 0.05186444 0.00772270
v -0.01884100 0.05209374 0.00772270
v -0.01979613 0.05232863 0.00772270
v -0.02028678 0.05246565 0.00670818
v -0.02088209 0.05264461 0.00670818
v -0.02189610 0.05299975 0.00670818
v -0.04026591 0.07230272 0.00192751
v -0.03980143 0.07064451 0.00290157
v -0.03984722 0.07048512 0.00365306
v -0.04070422 0.07187768 0.00670818
v -0.04071731 0.07185251 0.00772270
v -0.04048834 0.07128207 0.00772270
v -0.04017432 0.07026421 0.01383582
v -0.04018741 0.07026421 0.01485612
v -0.04028554 0.07026421 0.02298961
v -0.04061918 0.07113666 0.02502733
v -0.04078927 0.07164559 0.02502733
v -0.04099207 0.07229993 0.02400703
v -0.04110982 0.07261591 0.03145261
v 0.02383872 0.07809669 0.03145261
v 0.02379947 0.07739481 0.02298961
v 0.02368825 0.07707883 0.03145261
v 0.02347237 0.07554086 0.01179811
v 0.02394993 0.07841267 0.00467047
v 0.02343966 0.07578134 0.00569077
v 0.02332845 0.07527241 0.00569077
v 0.02109764 0.06924635 0.00670818
v 0.02037148 0.06770278 0.00613011
v 0.02250416 0.07257956 0.00569077
v 0.01934440 0.06568943 0.00636133
v 0.01892571 0.06517770 0.00569077
v 0.01846777 0.06447024 0.00569077
v 0.01810142 0.06395851 0.00569077
v 0.01759115 0.06329578 0.00569077
v 0.01717901 0.06278406 0.00569077
v 0.01667528 0.06220522 0.00569077
v 0.01627622 0.06162079 0.00630642
v 0.01528838 0.06057776 0.00614167
v 0.01562856 0.06105034 0.00575725
v 0.01481082 0.06025339 0.00575725
v 0.01414354 0.05966896 0.00569077
v 0.01363327 0.05924672 0.00569077
v 0.01422859 0.05959066 0.00637290
v 0.01310337 0.05865669 0.00670818
v 0.01259310 0.05827360 0.00670818
v 0.01166414 0.05778704 0.00560117
v 0.01188657 0.05777026 0.00670818
v 0.01137629 0.05742072 0.00670818
v 0.01068939 0.05699288 0.00670818
v 0.01004828 0.05659860 0.00670818
v 0.00953800 0.05629381 0.00670818
v 0.00773242 0.05527315 0.00669662
v 0.01087256 0.05670766 0.01281842
v 0.01036229 0.05641684 0.01281842
v 0.00662029 0.05470830 0.00772270
v 0.00763429 0.05518926 0.00772270
v 0.00826232 0.05543534 0.00976041
v 0.00829503 0.05542415 0.01078070
v 0.01116695 0.05653429 0.02197221
v 0.01118658 0.05652590 0.02298961
v 0.01120620 0.05651472 0.02420935
v 0.00966884 0.05589114 0.02197221
v 0.00966884 0.05591071 0.02298961
v 0.01111461 0.05654827 0.02909985
v 0.01060434 0.05638049 0.02909985
v 0.00966884 0.05611205 0.02909985
v -0.02272692 0.05332971 0.00670818
v -0.02330916 0.05351147 0.00772270
v -0.02393719 0.05378271 0.00772270
v -0.02393719 0.05385542 0.00670818
v -0.02493811 0.05424690 0.00772270
v -0.02630538 0.05455729 0.01688227
v -0.02614837 0.05464118 0.01281552
v -0.02611566 0.05466635 0.01179811
v -0.02695303 0.05523400 0.00874300
v -0.02690723 0.05526756 0.00772270
v -0.02741097 0.05554999 0.00772270
v -0.02800628 0.05591071 0.00772270
v -0.02875861 0.05637210 0.00772270
v -0.02926888 0.05669648 0.00772270
v -0.02999504 0.05720540 0.00772270
v -0.03004737 0.05708796 0.01078070
v -0.03154548 0.05756054 0.02706214
v -0.03278845 0.05939492 0.00772270
v -0.03060344 0.05749902 0.01078070
v -0.03066232 0.05745428 0.01281552
v -0.03329873 0.05987030 0.00772270
v -0.03381554 0.06037923 0.00772270
v -0.03433235 0.06093290 0.00772270
v -0.03469217 0.06052743 0.03145261
v -0.03571271 0.06254637 0.00772270
v -0.03616410 0.06314199 0.00874300
v -0.03613794 0.06314199 0.00772270
v -0.03484263 0.06070919 0.03145261
v -0.03659587 0.06375718 0.00874300
v -0.03692297 0.06428848 0.00772270
v -0.03742670 0.06509102 0.00772270
v -0.03773417 0.06559156 0.00772270
v -0.03771455 0.06562791 0.00695675
v -0.03745287 0.06524761 0.00665326
v -0.03767529 0.06569223 0.00628040
v -0.03860425 0.06788734 0.00365306
v -0.03777343 0.06672686 0.00290157
v -0.03734820 0.06645842 0.00192751
v 0.00966884 0.05624627 0.03145261
v 0.00864830 0.05600858 0.03145261
v -0.00458608 0.05154007 0.00976041
v -0.00476926 0.05139186 0.00855223
v 0.00763429 0.05580725 0.03145261
v 0.00581563 0.05548567 0.03145261
v 0.00494555 0.05534585 0.03145261
v 0.00457920 0.05528713 0.03145261
v 0.00387921 0.05518367 0.03145261
v -0.00560663 0.05124645 0.00772270
v -0.01069627 0.05124925 0.01179811
v -0.00662063 0.05111782 0.00670818
v -0.01069627 0.05102554 0.00670818
v -0.01171027 0.05104792 0.00670818
v -0.01375136 0.05126323 0.00772270
v -0.02088209 0.05288789 0.02910274
v -0.02189610 0.05306686 0.03011726
v -0.02291664 0.05327938 0.03011726
v -0.01973071 0.05233143 0.01078070
v -0.02364280 0.05338843 0.02298961
v -0.02030640 0.05246565 0.00772270
v -0.02189610 0.05292145 0.01078070
v -0.02289702 0.05327099 0.01078070
v -0.02279889 0.05331293 0.00772270
v -0.03989956 0.07135197 0.00192751
v -0.03941545 0.07026980 0.00192751
v -0.03910798 0.06924635 0.00262987
v -0.03916032 0.06924635 0.00290157
v -0.03929770 0.06924635 0.00365306
v -0.03975564 0.06968257 0.00610409
v -0.04046217 0.07128207 0.00670818
v -0.04004348 0.07026421 0.00670818
v -0.04006311 0.07026421 0.00772270
v -0.03986685 0.06944489 0.01587064
v -0.03990610 0.06935261 0.02298961
v -0.04029208 0.07026421 0.02400703
v -0.04030516 0.07026421 0.03145261
v -0.04061918 0.07113386 0.02604762
v -0.04101169 0.07229993 0.03145261
v 0.02351816 0.07619519 0.03145261
v 0.02338733 0.07505150 0.01281842
v 0.02338078 0.07503193 0.01179811
v 0.02356396 0.07637416 0.00569077
v 0.02063970 0.06822289 0.00670818
v 0.02135932 0.06980841 0.00772270
v 0.02248454 0.07161483 0.02706214
v 0.02012943 0.06717428 0.00670818
v 0.01956682 0.06608931 0.00670240
v 0.01935094 0.06567545 0.00703768
v 0.01850702 0.06337128 0.03145261
v 0.01905655 0.06516093 0.00772270
v 0.01855282 0.06434440 0.00772270
v 0.01853319 0.06437796 0.00670818
v 0.01816684 0.06386903 0.00670818
v 0.01765657 0.06320351 0.00670818
v 0.01725751 0.06269458 0.00670818
v 0.01630893 0.06159283 0.00698565
v 0.01590987 0.06119295 0.00667060
v 0.01530801 0.06055539 0.00670818
v 0.01435288 0.05949000 0.00874300
v 0.01430709 0.05952914 0.00772270
v 0.01383607 0.05924112 0.00671107
v 0.01374448 0.05908453 0.00772270
v 0.01374448 0.05901462 0.00874300
v 0.01314916 0.05862314 0.00772270
v 0.01263889 0.05823445 0.00772270
v 0.01199124 0.05768917 0.00874300
v 0.01193890 0.05772832 0.00772270
v 0.01148751 0.05735081 0.00874300
v 0.01082023 0.05673842 0.01179811
v 0.01040808 0.05640007 0.01383293
v 0.01091181 0.05667970 0.01383293
v 0.01157909 0.05728091 0.01078070
v 0.01162489 0.05724735 0.01179811
v 0.01170339 0.05707398 0.01587064
v 0.01095107 0.05665174 0.01485323
v 0.01098377 0.05662936 0.01587064
v 0.01170339 0.05681951 0.02197221
v 0.01170339 0.05679155 0.02298961
v 0.01161180 0.05672723 0.02392321
v 0.01161180 0.05671605 0.02512560
v 0.01120620 0.05651472 0.02485390
v 0.01119312 0.05652031 0.02553314
v 0.01170339 0.05680833 0.02909985
v 0.01170339 0.05687544 0.03145261
v 0.01093144 0.05659581 0.03145261
v 0.01077443 0.05654547 0.03145261
v -0.02338112 0.05348351 0.00976041
v -0.02639042 0.05452653 0.01891420
v -0.02635117 0.05454052 0.01789968
v -0.02699228 0.05495996 0.01587064
v -0.02699228 0.05500191 0.01485612
v -0.02768573 0.05539339 0.01485612
v -0.02745676 0.05552482 0.00874300
v -0.02800628 0.05585479 0.00874300
v -0.02879786 0.05634414 0.00874300
v -0.02934738 0.05664335 0.00976041
v -0.02938009 0.05661818 0.01078070
v -0.03004737 0.05704322 0.01179811
v -0.03100904 0.05719702 0.02604762
v -0.03103521 0.05717744 0.02706214
v -0.03163053 0.05749063 0.03145261
v -0.03214080 0.05792965 0.03145261
v -0.03271649 0.05844697 0.03113756
v -0.03208192 0.05803591 0.02706214
v -0.03024363 0.05674122 0.02298961
v -0.03288004 0.05859518 0.03145261
v -0.03322677 0.05893912 0.03145261
v -0.03372395 0.05944805 0.03145261
v -0.03560804 0.06166833 0.03145261
v -0.03660896 0.06373481 0.00976041
v -0.03693605 0.06426611 0.00874300
v -0.03745287 0.06503789 0.00976041
v -0.03776688 0.06553843 0.00976041
v -0.03812669 0.06618718 0.00976041
v -0.03850612 0.06705963 0.00670818
v -0.03795006 0.06609769 0.00665326
v -0.03853229 0.06801317 0.00290157
v -0.03874818 0.06762728 0.00607230
v -0.03888556 0.06839627 0.00365306
v -0.03879397 0.06856964 0.00262987
v -0.03796314 0.06714631 0.00262409
v -0.03764259 0.06676601 0.00228303
v -0.03850612 0.06806071 0.00262987
v -0.03759679 0.06684431 0.00192751
v -0.00458608 0.05190918 0.01281842
v -0.00764117 0.05220559 0.01789968
v -0.00512906 0.05142821 0.00923147
v 0.00285867 0.05504944 0.03145261
v -0.01171027 0.05127162 0.01179811
v -0.01069627 0.05119332 0.01078070
v -0.00985890 0.05140025 0.01254094
v -0.01348314 0.05245446 0.02443191
v -0.01578591 0.05270054 0.02808244
v -0.01680646 0.05265021 0.02808244
v -0.01782700 0.05264182 0.02808244
v -0.01273082 0.05117655 0.00772270
v -0.02088209 0.05293263 0.03011726
v -0.02189610 0.05310600 0.03113756
v -0.02291664 0.05330175 0.03113756
v -0.02350542 0.05343877 0.03113756
v -0.02353813 0.05343038 0.03011726
v -0.02291664 0.05320947 0.02298961
v -0.02364934 0.05338843 0.02197221
v -0.02404840 0.05359536 0.03011726
v -0.02495119 0.05389736 0.02910274
v -0.02415961 0.05357019 0.02298961
v -0.02290356 0.05325701 0.01179811
v -0.02363626 0.05339123 0.02095480
v -0.02361663 0.05339403 0.01993450
v -0.02414653 0.05357299 0.02095480
v -0.02495119 0.05387779 0.02095480
v -0.03893135 0.06923237 0.00192751
v -0.03910144 0.06822289 0.00670818
v -0.03953321 0.06912331 0.00670818
v -0.03977526 0.06963503 0.00670818
v -0.03959863 0.06901984 0.01179811
v -0.03960517 0.06899747 0.01281552
v -0.03920611 0.06822289 0.01078070
v -0.03930424 0.06822289 0.01688227
v -0.03940891 0.06822289 0.02502733
v -0.03968368 0.06881571 0.02502733
v -0.03990610 0.06933863 0.02400703
v -0.04004348 0.06959589 0.03145261
v -0.04061918 0.07112547 0.03145261
v 0.02343312 0.07580651 0.03145261
v 0.02334807 0.07527241 0.02706214
v 0.02056120 0.06729731 0.03145261
v 0.02039765 0.06694218 0.03145261
v 0.02004438 0.06618718 0.03145261
v 0.02306677 0.07433844 0.03145261
v 0.02279201 0.07331778 0.03145261
v 0.02252378 0.07240059 0.03145261
v 0.02237332 0.07189166 0.03145261
v 0.02216398 0.07128207 0.03145261
v 0.02205276 0.07096888 0.03145261
v 0.02169950 0.07000974 0.03145261
v 0.02135932 0.06912331 0.03145261
v 0.02129390 0.06896392 0.03145261
v 0.02120231 0.06874301 0.03145261
v 0.02097989 0.06822289 0.03145261
v 0.02334807 0.07545417 0.03145261
v 0.01957336 0.06524761 0.03145261
v 0.01939019 0.06489807 0.03145261
v 0.01930514 0.06474148 0.03145261
v 0.01897804 0.06416264 0.03145261
v 0.01828460 0.06301615 0.03145261
v 0.01816684 0.06288193 0.03011726
v 0.01768928 0.06212133 0.03113756
v 0.01733602 0.06157605 0.03145261
v 0.01821918 0.06381310 0.00874300
v 0.01819955 0.06383268 0.00772270
v 0.01768928 0.06316995 0.00772270
v 0.01730331 0.06263865 0.00839904
v 0.01681920 0.06212133 0.00772270
v 0.01632855 0.06156486 0.00772270
v 0.01426130 0.05855323 0.02240865
v 0.01485661 0.05998494 0.00874300
v 0.01539960 0.06046312 0.00976041
v 0.01332579 0.05848612 0.01179811
v 0.01213516 0.05759689 0.01179811
v 0.01235104 0.05744030 0.01687938
v 0.01239030 0.05740954 0.01789968
v 0.01170339 0.05712991 0.01485323
v 0.01256693 0.05731167 0.02197221
v 0.01259964 0.05729768 0.02298961
v 0.01267160 0.05726972 0.02604473
v 0.01269123 0.05727252 0.02706214
v 0.01170339 0.05676918 0.02604473
v 0.01269123 0.05728091 0.02808244
v 0.01267160 0.05728650 0.02909985
v 0.01261272 0.05730887 0.03145261
v -0.02593248 0.05427766 0.02095480
v -0.02641659 0.05451255 0.01993450
v -0.02699228 0.05478659 0.02095480
v -0.02699228 0.05488446 0.01789968
v -0.02784928 0.05529832 0.01993450
v -0.02832684 0.05561150 0.01891420
v -0.02829413 0.05563108 0.01789968
v -0.02826142 0.05565345 0.01688227
v -0.02815675 0.05572056 0.01383582
v -0.02955019 0.05651192 0.01620592
v -0.02902683 0.05613721 0.01688227
v -0.02971373 0.05639447 0.02197221
v -0.03033522 0.05666572 0.02706214
v -0.03087166 0.05692577 0.03145261
v -0.03253986 0.05828199 0.03145261
v -0.03271649 0.05844138 0.03145261
v -0.02973990 0.05637770 0.02298961
v -0.03585009 0.06201787 0.03145261
v -0.03678559 0.06348314 0.02706214
v -0.03670709 0.06359499 0.01891420
v -0.03758371 0.06483935 0.02197221
v -0.03779305 0.06550208 0.01179811
v -0.03817903 0.06618718 0.01179811
v -0.03855192 0.06698413 0.00976041
v -0.03879397 0.06754339 0.00772270
v -0.03877434 0.06757135 0.00670818
v -0.03871546 0.06871784 0.00207492
v -0.03859771 0.06857243 0.00192751
v -0.03842108 0.06825086 0.00192751
v -0.03776034 0.06710996 0.00192751
v -0.03806127 0.06762169 0.00192751
v 0.00152411 0.05489844 0.03145261
v -0.00858322 0.05211891 0.01789968
v -0.01242989 0.05340521 0.03145261
v -0.01274390 0.05337165 0.03145261
v -0.00958414 0.05145897 0.01285310
v -0.01884100 0.05274808 0.02910274
v -0.01884100 0.05267537 0.02808244
v -0.01986155 0.05279841 0.02910274
v -0.01476536 0.05265859 0.02706214
v -0.01578591 0.05282637 0.02910274
v -0.01680646 0.05277045 0.02910274
v -0.01782700 0.05273969 0.02910274
v -0.02088209 0.05300534 0.03145261
v -0.02158208 0.05308364 0.03145261
v -0.02189610 0.05312278 0.03145261
v -0.02293627 0.05332412 0.03145261
v -0.02348579 0.05344716 0.03145261
v -0.02396336 0.05360934 0.03145261
v -0.02401569 0.05361214 0.03113756
v -0.02415961 0.05357019 0.02197221
v -0.02495119 0.05394770 0.03145261
v -0.02495119 0.05391134 0.03011726
v -0.02596519 0.05426648 0.02910274
v -0.02652780 0.05446222 0.02706214
v -0.02495119 0.05386381 0.02298961
v -0.02495119 0.05386381 0.02197221
v -0.02595211 0.05426927 0.02197221
v -0.03876780 0.06890520 0.00192751
v -0.03913415 0.06822289 0.00772270
v -0.03955284 0.06910373 0.00772270
v -0.03957901 0.06906459 0.00976041
v -0.03918649 0.06822289 0.00976041
v -0.03882668 0.06746789 0.01078070
v -0.03865659 0.06678279 0.01993450
v -0.03894443 0.06723020 0.02604762
v -0.03895098 0.06722181 0.02706214
v -0.03897060 0.06720783 0.03011726
v -0.03944817 0.06822289 0.03113756
v -0.03970330 0.06878216 0.03145261
v 0.01817993 0.06285676 0.03145261
v 0.01769582 0.06212133 0.03145261
v 0.01640706 0.06045752 0.03145261
v 0.01637435 0.06048828 0.02808244
v 0.01712667 0.06184170 0.01993450
v 0.01734910 0.06257713 0.01078070
v 0.01640706 0.06147818 0.01078070
v 0.01531455 0.05953753 0.02400991
v 0.01432017 0.05850010 0.02502733
v 0.01374448 0.05812260 0.02298961
v 0.01307720 0.05765841 0.02197221
v 0.01534072 0.05950957 0.02502733
v 0.01541268 0.05943127 0.02808244
v 0.01310337 0.05763045 0.02298961
v 0.01320150 0.05756054 0.02706214
v 0.01320150 0.05756054 0.02808244
v 0.01318187 0.05756893 0.02909985
v 0.01312954 0.05760528 0.03113756
v 0.01311645 0.05761087 0.03145261
v -0.02649509 0.05447620 0.02320639
v -0.02699228 0.05476422 0.02197221
v -0.02851656 0.05550525 0.02555048
v -0.02835955 0.05559473 0.01993450
v -0.02902683 0.05594706 0.02197221
v -0.03042681 0.05660420 0.03145261
v -0.03611831 0.06240656 0.03145261
v -0.03679213 0.06346916 0.02808244
v -0.03717811 0.06416264 0.02400703
v -0.03722390 0.06416264 0.02706214
v -0.03739399 0.06433042 0.03145261
v -0.03764259 0.06472750 0.03145261
v -0.03785193 0.06507983 0.03145261
v -0.03787810 0.06533989 0.02197221
v -0.03834258 0.06618718 0.02095480
v -0.03856500 0.06696176 0.01078070
v -0.03880705 0.06751543 0.00874300
v -0.01342426 0.05332412 0.03145261
v -0.02056154 0.05299975 0.03145261
v -0.01375136 0.05330175 0.03145261
v -0.01986155 0.05299975 0.03145261
v -0.02592594 0.05430562 0.03145261
v -0.02606987 0.05432240 0.03020975
v -0.02650163 0.05447340 0.02992650
v -0.02651472 0.05447061 0.02910274
v -0.02702499 0.05470830 0.02910274
v -0.02703153 0.05470830 0.02808244
v -0.02652780 0.05445942 0.02604762
v -0.02652126 0.05446222 0.02502733
v -0.03835566 0.06618718 0.02197221
v -0.03868276 0.06674085 0.02400703
v -0.03870892 0.06669051 0.02910274
v -0.03880051 0.06683872 0.03145261
v -0.03897714 0.06720783 0.03145261
v -0.03944817 0.06822289 0.03145261
v 0.01610613 0.06010519 0.03145261
v 0.01594258 0.05997096 0.02909985
v 0.01592295 0.05997935 0.02808244
v 0.01433980 0.05848332 0.02604473
v 0.01374448 0.05797999 0.02706214
v 0.01374448 0.05801354 0.02604473
v 0.01543231 0.05940890 0.02909985
v 0.01374448 0.05796600 0.02808244
v 0.01436597 0.05846934 0.03113756
v 0.01435942 0.05847214 0.03145261
v 0.01374448 0.05802752 0.03113756
v 0.01374448 0.05803871 0.03145261
v 0.01331925 0.05774789 0.03145261
v -0.02703153 0.05472507 0.02502733
v -0.02701845 0.05473626 0.02400703
v -0.02852310 0.05549686 0.02622972
v -0.02991654 0.05627982 0.03145261
v -0.03681176 0.06342721 0.03145261
v -0.03696222 0.06365931 0.03145261
v -0.03794351 0.06523922 0.03145261
v -0.02643621 0.05450137 0.03145261
v -0.02647547 0.05448459 0.03060573
v -0.02699228 0.05472787 0.03145261
v -0.02800628 0.05520045 0.03145261
v -0.02800628 0.05519765 0.02910274
v -0.02703807 0.05471668 0.02604762
v -0.03845379 0.06615921 0.03145261
v -0.03863696 0.06650875 0.03145261
v 0.01596875 0.05994859 0.03145261
v 0.01545847 0.05938933 0.03113756
v 0.01437251 0.05845536 0.02808244
v 0.01487624 0.05892234 0.02808244
v 0.01488278 0.05890277 0.02909985
v 0.01437251 0.05845536 0.02909985
v 0.01486970 0.05888040 0.03145261
v -0.02800628 0.05521163 0.02706214
v -0.02854272 0.05548567 0.02808244
v -0.02906608 0.05577090 0.03145261
v -0.02855581 0.05548008 0.03145261
v -0.02854927 0.05548287 0.02910274
v -0.02800628 0.05520045 0.02808244
v 0.01545847 0.05938933 0.03145261
v 0.01505941 0.05903979 0.03145261
v 0.01487624 0.05888320 0.03113756
f 1 2 3
f 1 3 4
f 1 4 5
f 1 5 6
f 1 6 14
f 1 14 7
f 1 7 16
f 1 16 31
f 1 31 110
f 1 110 190
f 1 190 290
f 1 290 288
f 1 288 415
f 1 415 540
f 1 540 657
f 1 657 658
f 1 658 656
f 1 656 655
f 1 655 686
f 1 686 568
f 1 568 441
f 1 441 440
f 1 440 318
f 1 318 210
f 1 210 135
f 1 135 47
f 1 47 20
f 1 20 9
f 1 9 2
f 2 8 3
f 2 9 8
f 3 10 11
f 3 11 4
f 3 8 10
f 4 11 5
f 5 12 24
f 5 24 52
f 5 52 145
f 5 145 226
f 5 226 146
f 5 146 53
f 5 53 28
f 5 28 14
f 5 14 6
f 5 11 10
f 5 10 13
f 5 13 12
f 7 15 16
f 7 14 15
f 8 17 18
f 8 18 19
f 8 19 10
f 8 9 20
f 8 20 21
f 8 21 22
f 8 22 23
f 8 23 17
f 10 19 13
f 12 13 25
f 12 25 27
f 12 27 26
f 12 26 46
f 12 46 45
f 12 45 134
f 12 134 208
f 12 208 219
f 12 219 218
f 12 218 330
f 12 330 454
f 12 454 580
f 12 580 452
f 12 452 579
f 12 579 697
f 12 697 751
f 12 751 750
f 12 750 749
f 12 749 779
f 12 779 778
f 12 778 771
f 12 771 729
f 12 729 728
f 12 728 727
f 12 727 770
f 12 770 769
f 12 769 723
f 12 723 645
f 12 645 525
f 12 525 405
f 12 405 401
f 12 401 524
f 12 524 523
f 12 523 522
f 12 522 643
f 12 643 642
f 12 642 518
f 12 518 517
f 12 517 641
f 12 641 722
f 12 722 768
f 12 768 789
f 12 789 790
f 12 790 775
f 12 775 774
f 12 774 772
f 12 772 738
f 12 738 679
f 12 679 676
f 12 676 675
f 12 675 674
f 12 674 673
f 12 673 672
f 12 672 671
f 12 671 735
f 12 735 737
f 12 737 736
f 12 736 734
f 12 734 662
f 12 662 661
f 12 661 659
f 12 659 544
f 12 544 424
f 12 424 423
f 12 423 422
f 12 422 421
f 12 421 420
f 12 420 417
f 12 417 416
f 12 416 502
f 12 502 501
f 12 501 500
f 12 500 627
f 12 627 716
f 12 716 764
f 12 764 763
f 12 763 761
f 12 761 786
f 12 786 794
f 12 794 793
f 12 793 780
f 12 780 752
f 12 752 700
f 12 700 605
f 12 605 699
f 12 699 698
f 12 698 602
f 12 602 465
f 12 465 601
f 12 601 600
f 12 600 599
f 12 599 598
f 12 598 585
f 12 585 584
f 12 584 583
f 12 583 596
f 12 596 595
f 12 595 594
f 12 594 593
f 12 593 592
f 12 592 591
f 12 591 590
f 12 590 589
f 12 589 588
f 12 588 587
f 12 587 586
f 12 586 597
f 12 597 581
f 12 581 455
f 12 455 333
f 12 333 222
f 12 222 331
f 12 331 220
f 12 220 143
f 12 143 51
f 12 51 24
f 13 19 18
f 13 18 26
f 13 26 27
f 13 27 25
f 14 28 29
f 14 29 30
f 14 30 15
f 15 30 16
f 16 30 32
f 16 32 33
f 16 33 34
f 16 34 35
f 16 35 36
f 16 36 37
f 16 37 38
f 16 38 39
f 16 39 40
f 16 40 41
f 16 41 31
f 17 42 18
f 17 23 43
f 17 43 42
f 18 42 44
f 18 44 45
f 18 45 46
f 18 46 26
f 20 47 48
f 20 48 21
f 21 48 22
f 22 48 23
f 23 49 50
f 23 50 43
f 23 48 49
f 24 51 52
f 28 53 54
f 28 54 55
f 28 55 56
f 28 56 29
f 29 56 30
f 30 56 57
f 30 57 58
f 30 58 59
f 30 59 60
f 30 60 61
f 30 61 62
f 30 62 63
f 30 63 64
f 30 64 65
f 30 65 66
f 30 66 67
f 30 67 68
f 30 68 69
f 30 69 70
f 30 70 71
f 30 71 72
f 30 72 73
f 30 73 74
f 30 74 75
f 30 75 76
f 30 76 77
f 30 77 78
f 30 78 79
f 30 79 80
f 30 80 81
f 30 81 82
f 30 82 83
f 30 83 84
f 30 84 85
f 30 85 86
f 30 86 87
f 30 87 88
f 30 88 89
f 30 89 90
f 30 90 91
f 30 91 92
f 30 92 32
f 31 93 94
f 31 94 95
f 31 95 96
f 31 96 97
f 31 97 98
f 31 98 99
f 31 99 100
f 31 100 101
f 31 101 102
f 31 102 103
f 31 103 104
f 31 104 105
f 31 105 106
f 31 106 107
f 31 107 108
f 31 108 109
f 31 109 110
f 31 41 93
f 32 111 33
f 32 92 111
f 33 111 112
f 33 112 34
f 34 112 113
f 34 113 35
f 35 113 36
f 36 113 114
f 36 114 37
f 37 115 116
f 37 116 38
f 37 114 115
f 38 116 117
f 38 117 39
f 39 117 40
f 40 117 118
f 40 118 41
f 41 118 119
f 41 119 120
f 41 120 121
f 41 121 122
f 41 122 123
f 41 123 124
f 41 124 125
f 41 125 126
f 41 126 127
f 41 127 128
f 41 128 129
f 41 129 93
f 42 43 130
f 42 130 131
f 42 131 132
f 42 132 44
f 43 50 130
f 44 132 45
f 45 132 133
f 45 133 134
f 47 135 136
f 47 136 48
f 48 136 137
f 48 137 138
f 48 138 139
f 48 139 49
f 49 139 140
f 49 140 141
f 49 141 142
f 49 142 50
f 50 142 130
f 51 143 144
f 51 144 52
f 52 144 145
f 53 146 147
f 53 147 148
f 53 148 54
f 54 148 55
f 55 57 56
f 55 148 57
f 57 148 149
f 57 149 150
f 57 150 58
f 58 150 151
f 58 151 59
f 59 152 153
f 59 153 60
f 59 151 152
f 60 153 61
f 61 153 154
f 61 154 62
f 62 154 155
f 62 155 156
f 62 156 157
f 62 157 63
f 63 157 64
f 64 157 65
f 65 158 66
f 65 157 158
f 66 158 67
f 67 159 68
f 67 158 160
f 67 160 159
f 68 159 69
f 69 161 162
f 69 162 70
f 69 159 163
f 69 163 161
f 70 162 164
f 70 164 71
f 71 164 72
f 72 164 73
f 73 164 74
f 74 164 75
f 75 164 76
f 76 164 77
f 77 164 78
f 78 165 166
f 78 166 79
f 78 164 165
f 79 166 80
f 80 166 167
f 80 167 81
f 81 168 169
f 81 169 170
f 81 170 82
f 81 167 168
f 82 170 83
f 83 170 171
f 83 171 172
f 83 172 84
f 84 172 173
f 84 173 174
f 84 174 175
f 84 175 85
f 85 175 86
f 86 176 87
f 86 175 174
f 86 174 176
f 87 176 177
f 87 177 88
f 88 177 178
f 88 178 89
f 89 178 90
f 90 179 91
f 90 178 179
f 91 179 92
f 92 179 111
f 93 129 180
f 93 180 94
f 94 180 95
f 95 180 181
f 95 181 96
f 96 181 97
f 97 181 182
f 97 182 98
f 98 182 183
f 98 183 99
f 99 183 100
f 100 183 184
f 100 184 101
f 101 184 102
f 102 184 103
f 103 184 104
f 104 184 185
f 104 185 105
f 105 185 106
f 106 185 186
f 106 186 107
f 107 186 187
f 107 187 108
f 108 187 109
f 109 187 188
f 109 188 189
f 109 189 110
f 110 189 190
f 111 179 191
f 111 191 192
f 111 192 112
f 112 192 113
f 113 192 114
f 114 192 115
f 115 193 116
f 115 192 194
f 115 194 193
f 116 193 195
f 116 195 117
f 117 195 196
f 117 196 118
f 118 196 197
f 118 197 198
f 118 198 119
f 119 199 120
f 119 198 199
f 120 199 200
f 120 200 121
f 121 200 201
f 121 201 122
f 122 201 123
f 123 201 202
f 123 202 124
f 124 202 203
f 124 203 125
f 125 203 204
f 125 204 126
f 126 204 127
f 127 204 128
f 128 204 129
f 129 204 205
f 129 205 206
f 129 206 180
f 130 142 133
f 130 133 132
f 130 132 131
f 133 142 207
f 133 207 134
f 134 207 208
f 135 209 137
f 135 137 136
f 135 210 209
f 137 209 211
f 137 211 212
f 137 212 138
f 138 212 213
f 138 213 214
f 138 214 215
f 138 215 216
f 138 216 139
f 139 216 140
f 140 216 217
f 140 217 218
f 140 218 141
f 141 218 219
f 141 219 207
f 141 207 142
f 143 220 221
f 143 221 144
f 144 221 222
f 144 222 223
f 144 223 145
f 145 224 225
f 145 225 226
f 145 223 224
f 146 226 225
f 146 225 147
f 147 225 227
f 147 227 149
f 147 149 148
f 149 228 229
f 149 229 230
f 149 230 231
f 149 231 232
f 149 232 152
f 149 152 151
f 149 151 150
f 149 227 233
f 149 233 228
f 152 231 234
f 152 234 156
f 152 156 154
f 152 154 153
f 152 232 231
f 154 156 155
f 156 235 236
f 156 236 157
f 156 234 231
f 156 231 235
f 157 237 158
f 157 236 238
f 157 238 239
f 157 239 240
f 157 240 241
f 157 241 163
f 157 163 237
f 158 237 160
f 159 160 163
f 160 237 163
f 161 163 242
f 161 242 164
f 161 164 162
f 163 241 243
f 163 243 242
f 164 242 244
f 164 244 245
f 164 245 246
f 164 246 247
f 164 247 165
f 165 247 166
f 166 247 248
f 166 248 249
f 166 249 250
f 166 250 167
f 167 250 251
f 167 251 168
f 168 251 169
f 169 251 252
f 169 252 170
f 170 252 253
f 170 253 171
f 171 253 254
f 171 254 255
f 171 255 173
f 171 173 172
f 173 255 256
f 173 256 257
f 173 257 176
f 173 176 174
f 176 257 258
f 176 258 259
f 176 259 177
f 177 259 260
f 177 260 178
f 178 260 261
f 178 261 262
f 178 262 179
f 179 262 191
f 180 206 263
f 180 263 264
f 180 264 181
f 181 265 266
f 181 266 267
f 181 267 268
f 181 268 269
f 181 269 182
f 181 264 265
f 182 269 270
f 182 270 271
f 182 271 272
f 182 272 183
f 183 272 273
f 183 273 274
f 183 274 184
f 184 275 276
f 184 276 277
f 184 277 185
f 184 274 278
f 184 278 275
f 185 277 279
f 185 279 186
f 186 279 280
f 186 280 187
f 187 280 281
f 187 281 282
f 187 282 188
f 188 283 284
f 188 284 285
f 188 285 286
f 188 286 287
f 188 287 288
f 188 288 189
f 188 282 289
f 188 289 283
f 189 288 290
f 189 290 190
f 191 262 291
f 191 291 292
f 191 292 293
f 191 293 294
f 191 294 192
f 192 294 295
f 192 295 296
f 192 296 194
f 193 194 195
f 194 296 297
f 194 297 298
f 194 298 299
f 194 299 300
f 194 300 195
f 195 300 196
f 196 301 198
f 196 198 197
f 196 300 302
f 196 302 303
f 196 303 304
f 196 304 301
f 198 301 305
f 198 305 199
f 199 305 304
f 199 304 306
f 199 306 200
f 200 306 307
f 200 307 308
f 200 308 309
f 200 309 310
f 200 310 202
f 200 202 201
f 202 310 309
f 202 309 308
f 202 308 311
f 202 311 312
f 202 312 313
f 202 313 203
f 203 313 314
f 203 314 315
f 203 315 205
f 203 205 204
f 205 315 316
f 205 316 206
f 206 316 317
f 206 317 263
f 207 219 208
f 209 210 211
f 210 318 211
f 211 318 319
f 211 319 212
f 212 319 320
f 212 320 321
f 212 321 213
f 213 321 322
f 213 322 214
f 214 322 323
f 214 323 324
f 214 324 325
f 214 325 326
f 214 326 215
f 215 326 327
f 215 327 328
f 215 328 216
f 216 328 217
f 217 328 329
f 217 329 218
f 218 329 330
f 220 331 221
f 221 331 222
f 222 332 223
f 222 333 332
f 223 332 334
f 223 334 224
f 224 335 225
f 224 334 335
f 225 335 227
f 227 335 233
f 228 233 335
f 228 335 336
f 228 336 337
f 228 337 229
f 229 337 231
f 229 231 230
f 231 338 339
f 231 339 235
f 231 337 340
f 231 340 338
f 235 339 236
f 236 339 238
f 238 339 341
f 238 341 239
f 239 341 240
f 240 341 342
f 240 342 241
f 241 342 343
f 241 343 344
f 241 344 345
f 241 345 243
f 242 243 244
f 243 345 244
f 244 345 346
f 244 346 347
f 244 347 245
f 245 347 348
f 245 348 349
f 245 349 350
f 245 350 246
f 246 349 351
f 246 351 247
f 246 350 349
f 247 351 352
f 247 352 353
f 247 353 248
f 248 353 354
f 248 354 355
f 248 355 249
f 249 356 252
f 249 252 357
f 249 357 251
f 249 251 250
f 249 355 356
f 251 357 252
f 252 356 358
f 252 358 359
f 252 359 360
f 252 360 361
f 252 361 253
f 253 361 362
f 253 362 254
f 254 362 255
f 255 363 256
f 255 362 364
f 255 364 365
f 255 365 363
f 256 366 257
f 256 363 367
f 256 367 368
f 256 368 369
f 256 369 370
f 256 370 371
f 256 371 372
f 256 372 366
f 257 366 372
f 257 372 258
f 258 372 259
f 259 372 373
f 259 373 260
f 260 373 261
f 261 373 374
f 261 374 375
f 261 375 376
f 261 376 262
f 262 376 377
f 262 377 291
f 263 317 378
f 263 378 264
f 264 378 379
f 264 379 380
f 264 380 381
f 264 381 382
f 264 382 265
f 265 382 266
f 266 383 384
f 266 384 385
f 266 385 267
f 266 382 383
f 267 385 386
f 267 386 387
f 267 387 268
f 268 387 269
f 269 387 388
f 269 388 270
f 270 388 271
f 271 388 389
f 271 389 390
f 271 390 391
f 271 391 272
f 272 391 273
f 273 391 392
f 273 392 274
f 274 392 393
f 274 393 278
f 275 394 395
f 275 395 276
f 275 278 393
f 275 393 396
f 275 396 397
f 275 397 394
f 276 395 277
f 277 395 279
f 279 395 398
f 279 398 280
f 280 399 281
f 280 398 399
f 281 399 400
f 281 400 282
f 282 400 401
f 282 401 289
f 283 402 403
f 283 403 404
f 283 404 284
f 283 289 401
f 283 401 405
f 283 405 402
f 284 404 285
f 285 406 407
f 285 407 286
f 285 404 406
f 286 407 408
f 286 408 409
f 286 409 410
f 286 410 411
f 286 411 412
f 286 412 287
f 287 412 413
f 287 413 414
f 287 414 288
f 288 414 415
f 291 377 292
f 292 377 416
f 292 416 293
f 293 416 294
f 294 416 295
f 295 297 296
f 295 416 297
f 297 416 417
f 297 417 298
f 298 418 419
f 298 419 299
f 298 417 420
f 298 420 421
f 298 421 422
f 298 422 423
f 298 423 424
f 298 424 418
f 299 419 425
f 299 425 300
f 300 425 426
f 300 426 427
f 300 427 302
f 301 304 305
f 302 427 304
f 302 304 303
f 304 428 429
f 304 429 306
f 304 427 428
f 306 429 307
f 307 430 308
f 307 429 430
f 308 430 431
f 308 431 432
f 308 432 311
f 311 432 312
f 312 432 433
f 312 433 313
f 313 433 434
f 313 434 314
f 314 434 435
f 314 435 436
f 314 436 315
f 315 436 437
f 315 437 316
f 316 437 438
f 316 438 317
f 317 438 439
f 317 439 379
f 317 379 378
f 318 440 319
f 319 440 441
f 319 441 442
f 319 442 443
f 319 443 444
f 319 444 320
f 320 444 445
f 320 445 321
f 321 445 446
f 321 446 323
f 321 323 322
f 323 446 447
f 323 447 448
f 323 448 324
f 324 448 449
f 324 449 325
f 325 449 326
f 326 449 450
f 326 450 451
f 326 451 327
f 327 451 452
f 327 452 453
f 327 453 328
f 328 454 329
f 328 453 454
f 329 454 330
f 332 333 455
f 332 455 456
f 332 456 334
f 334 456 457
f 334 457 335
f 335 458 336
f 335 457 458
f 336 457 337
f 336 458 457
f 337 457 340
f 338 459 339
f 338 340 460
f 338 460 461
f 338 461 459
f 339 462 341
f 339 459 462
f 340 457 461
f 340 461 460
f 341 462 463
f 341 463 464
f 341 464 465
f 341 465 466
f 341 466 467
f 341 467 468
f 341 468 343
f 341 343 342
f 343 468 344
f 344 468 469
f 344 469 470
f 344 470 345
f 345 470 471
f 345 471 346
f 346 471 348
f 346 348 347
f 348 471 472
f 348 472 473
f 348 473 349
f 349 474 475
f 349 475 476
f 349 476 354
f 349 354 352
f 349 352 351
f 349 473 474
f 352 354 353
f 354 476 477
f 354 477 355
f 355 477 476
f 355 476 478
f 355 478 479
f 355 479 480
f 355 480 481
f 355 481 356
f 356 481 482
f 356 482 483
f 356 483 358
f 358 483 359
f 359 484 360
f 359 483 482
f 359 482 484
f 360 484 485
f 360 485 361
f 361 485 362
f 362 485 364
f 363 365 486
f 363 486 368
f 363 368 367
f 364 487 365
f 364 485 488
f 364 488 489
f 364 489 490
f 364 490 487
f 365 487 491
f 365 491 486
f 368 486 492
f 368 492 370
f 368 370 369
f 370 492 493
f 370 493 494
f 370 494 495
f 370 495 371
f 371 495 372
f 372 495 496
f 372 496 497
f 372 497 373
f 373 497 498
f 373 498 375
f 373 375 374
f 375 498 499
f 375 499 500
f 375 500 501
f 375 501 376
f 376 501 502
f 376 502 377
f 377 502 416
f 379 503 380
f 379 439 503
f 380 382 381
f 380 503 504
f 380 504 505
f 380 505 382
f 382 505 383
f 383 505 506
f 383 506 384
f 384 506 507
f 384 507 386
f 384 386 385
f 386 507 508
f 386 508 509
f 386 509 388
f 386 388 387
f 388 509 510
f 388 510 389
f 389 510 390
f 390 510 511
f 390 511 391
f 391 512 392
f 391 511 512
f 392 512 393
f 393 512 513
f 393 513 514
f 393 514 396
f 394 515 516
f 394 516 517
f 394 517 518
f 394 518 519
f 394 519 520
f 394 520 395
f 394 397 521
f 394 521 515
f 395 520 519
f 395 519 398
f 396 514 397
f 397 514 521
f 398 519 522
f 398 522 399
f 399 522 523
f 399 523 524
f 399 524 400
f 400 524 401
f 402 405 525
f 402 525 403
f 403 525 526
f 403 526 404
f 404 526 406
f 406 526 407
f 407 526 527
f 407 527 528
f 407 528 408
f 408 528 529
f 408 529 409
f 409 529 530
f 409 530 531
f 409 531 410
f 410 531 532
f 410 532 412
f 410 412 411
f 412 532 531
f 412 531 413
f 413 533 414
f 413 531 534
f 413 534 535
f 413 535 536
f 413 536 533
f 414 537 538
f 414 538 415
f 414 533 539
f 414 539 537
f 415 538 540
f 418 541 542
f 418 542 543
f 418 543 419
f 418 424 544
f 418 544 541
f 419 543 425
f 425 543 426
f 426 545 546
f 426 546 427
f 426 543 547
f 426 547 548
f 426 548 549
f 426 549 550
f 426 550 551
f 426 551 545
f 427 546 428
f 428 546 429
f 429 552 430
f 429 546 545
f 429 545 552
f 430 552 545
f 430 545 553
f 430 553 431
f 431 553 554
f 431 554 432
f 432 554 555
f 432 555 433
f 433 555 556
f 433 556 557
f 433 557 558
f 433 558 434
f 434 558 435
f 435 559 436
f 435 558 557
f 435 557 560
f 435 560 561
f 435 561 562
f 435 562 559
f 436 559 437
f 437 563 438
f 437 559 564
f 437 564 565
f 437 565 563
f 438 563 566
f 438 566 567
f 438 567 503
f 438 503 439
f 441 568 536
f 441 536 442
f 442 536 443
f 443 536 444
f 444 536 535
f 444 535 445
f 445 535 534
f 445 534 569
f 445 569 570
f 445 570 571
f 445 571 447
f 445 447 446
f 447 571 448
f 448 571 449
f 449 571 572
f 449 572 573
f 449 573 574
f 449 574 575
f 449 575 576
f 449 576 577
f 449 577 450
f 450 577 578
f 450 578 451
f 451 578 579
f 451 579 452
f 452 580 453
f 453 580 454
f 455 581 582
f 455 582 456
f 456 582 461
f 456 461 457
f 459 583 584
f 459 584 585
f 459 585 462
f 459 461 583
f 461 586 587
f 461 587 588
f 461 588 589
f 461 589 590
f 461 590 591
f 461 591 592
f 461 592 593
f 461 593 594
f 461 594 595
f 461 595 596
f 461 596 583
f 461 582 581
f 461 581 597
f 461 597 586
f 462 585 598
f 462 598 463
f 463 598 599
f 463 599 464
f 464 599 600
f 464 600 601
f 464 601 465
f 465 602 467
f 465 467 466
f 467 602 603
f 467 603 604
f 467 604 605
f 467 605 606
f 467 606 607
f 467 607 468
f 468 607 469
f 469 607 470
f 470 607 608
f 470 608 471
f 471 608 609
f 471 609 610
f 471 610 472
f 472 611 474
f 472 474 473
f 472 610 611
f 474 612 613
f 474 613 475
f 474 611 614
f 474 614 612
f 475 612 615
f 475 615 479
f 475 479 478
f 475 478 476
f 475 613 612
f 479 615 480
f 480 615 481
f 481 616 482
f 481 615 616
f 482 616 489
f 482 489 488
f 482 488 484
f 484 488 485
f 486 491 492
f 487 490 491
f 489 616 617
f 489 617 618
f 489 618 619
f 489 619 490
f 490 619 618
f 490 618 620
f 490 620 491
f 491 620 492
f 492 620 493
f 493 620 621
f 493 621 494
f 494 621 622
f 494 622 495
f 495 622 496
f 496 622 623
f 496 623 624
f 496 624 497
f 497 624 499
f 497 499 498
f 499 624 625
f 499 625 626
f 499 626 627
f 499 627 500
f 503 567 628
f 503 628 504
f 504 628 629
f 504 629 630
f 504 630 631
f 504 631 505
f 505 631 506
f 506 631 508
f 506 508 507
f 508 631 632
f 508 632 633
f 508 633 634
f 508 634 635
f 508 635 636
f 508 636 509
f 509 636 510
f 510 636 511
f 511 636 513
f 511 513 512
f 513 637 514
f 513 636 635
f 513 635 634
f 513 634 638
f 513 638 637
f 514 637 639
f 514 639 521
f 515 521 516
f 516 521 640
f 516 640 641
f 516 641 517
f 518 642 519
f 519 642 643
f 519 643 522
f 521 639 644
f 521 644 640
f 525 645 646
f 525 646 647
f 525 647 526
f 526 647 527
f 527 647 648
f 527 648 528
f 528 648 649
f 528 649 529
f 529 649 650
f 529 650 530
f 530 650 651
f 530 651 652
f 530 652 531
f 531 652 653
f 531 653 534
f 533 536 539
f 534 653 569
f 536 654 655
f 536 655 656
f 536 656 539
f 536 568 654
f 537 657 538
f 537 539 657
f 538 657 540
f 539 656 658
f 539 658 657
f 541 544 659
f 541 659 542
f 542 660 543
f 542 659 661
f 542 661 662
f 542 662 548
f 542 548 660
f 543 660 663
f 543 663 547
f 545 551 664
f 545 664 665
f 545 665 666
f 545 666 553
f 547 663 660
f 547 660 548
f 548 662 667
f 548 667 549
f 549 667 668
f 549 668 669
f 549 669 550
f 550 669 670
f 550 670 551
f 551 670 664
f 553 671 672
f 553 672 554
f 553 666 671
f 554 672 673
f 554 673 555
f 555 673 674
f 555 674 675
f 555 675 556
f 556 675 676
f 556 676 677
f 556 677 560
f 556 560 557
f 559 562 678
f 559 678 566
f 559 566 564
f 560 677 679
f 560 679 680
f 560 680 561
f 561 680 681
f 561 681 562
f 562 681 682
f 562 682 683
f 562 683 684
f 562 684 678
f 563 565 566
f 564 566 565
f 566 678 684
f 566 684 567
f 567 684 685
f 567 685 628
f 568 686 654
f 569 687 570
f 569 653 652
f 569 652 687
f 570 688 571
f 570 687 688
f 571 688 689
f 571 689 572
f 572 689 690
f 572 690 574
f 572 574 573
f 574 690 691
f 574 691 692
f 574 692 575
f 575 692 576
f 576 692 693
f 576 693 694
f 576 694 695
f 576 695 696
f 576 696 577
f 577 696 697
f 577 697 578
f 578 697 579
f 602 698 603
f 603 698 604
f 604 698 699
f 604 699 605
f 605 700 701
f 605 701 702
f 605 702 607
f 605 607 606
f 607 702 703
f 607 703 608
f 608 703 609
f 609 703 701
f 609 701 704
f 609 704 610
f 610 704 611
f 611 704 705
f 611 705 614
f 612 706 707
f 612 707 708
f 612 708 615
f 612 614 705
f 612 705 709
f 612 709 710
f 612 710 706
f 615 708 616
f 616 708 617
f 617 708 618
f 618 708 620
f 620 708 711
f 620 711 621
f 621 711 712
f 621 712 622
f 622 712 623
f 623 625 624
f 623 712 713
f 623 713 625
f 625 713 626
f 626 713 714
f 626 714 627
f 627 714 715
f 627 715 716
f 628 685 717
f 628 717 629
f 629 717 630
f 630 718 719
f 630 719 632
f 630 632 631
f 630 717 718
f 632 719 720
f 632 720 633
f 633 720 721
f 633 721 638
f 633 638 634
f 637 638 639
f 638 721 639
f 639 721 644
f 640 644 722
f 640 722 641
f 644 721 719
f 644 719 722
f 645 723 646
f 646 723 724
f 646 724 725
f 646 725 647
f 647 725 648
f 648 725 726
f 648 726 727
f 648 727 728
f 648 728 729
f 648 729 730
f 648 730 649
f 649 730 731
f 649 731 650
f 650 731 692
f 650 692 732
f 650 732 651
f 651 732 733
f 651 733 652
f 652 733 687
f 654 686 655
f 662 734 668
f 662 668 667
f 664 670 735
f 664 735 671
f 664 671 665
f 665 671 666
f 668 734 736
f 668 736 669
f 669 736 737
f 669 737 670
f 670 737 735
f 676 679 677
f 679 738 739
f 679 739 680
f 680 739 740
f 680 740 681
f 681 740 741
f 681 741 682
f 682 741 742
f 682 742 743
f 682 743 744
f 682 744 683
f 683 744 684
f 684 744 745
f 684 745 685
f 685 745 717
f 687 690 688
f 687 733 690
f 688 690 689
f 690 733 691
f 691 733 732
f 691 732 692
f 692 731 746
f 692 746 747
f 692 747 693
f 693 747 694
f 694 747 748
f 694 748 695
f 695 748 749
f 695 749 750
f 695 750 696
f 696 750 751
f 696 751 697
f 700 752 701
f 701 703 702
f 701 752 753
f 701 753 754
f 701 754 704
f 704 754 705
f 705 754 709
f 706 755 756
f 706 756 757
f 706 757 707
f 706 710 758
f 706 758 755
f 707 757 711
f 707 711 708
f 709 754 710
f 710 754 758
f 711 757 712
f 712 757 756
f 712 756 759
f 712 759 713
f 713 759 760
f 713 760 714
f 714 760 761
f 714 761 762
f 714 762 715
f 715 762 763
f 715 763 764
f 715 764 716
f 717 745 765
f 717 765 766
f 717 766 718
f 718 766 719
f 719 767 768
f 719 768 722
f 719 721 720
f 719 766 765
f 719 765 767
f 723 769 724
f 724 769 770
f 724 770 726
f 724 726 725
f 726 770 727
f 729 771 730
f 730 771 731
f 731 771 746
f 738 772 773
f 738 773 740
f 738 740 739
f 740 774 775
f 740 775 742
f 740 742 741
f 740 773 774
f 742 775 743
f 743 775 776
f 743 776 777
f 743 777 744
f 744 777 745
f 745 777 765
f 746 771 778
f 746 778 747
f 747 778 748
f 748 778 779
f 748 779 749
f 752 780 753
f 753 780 781
f 753 781 758
f 753 758 754
f 755 782 756
f 755 758 783
f 755 783 782
f 756 782 759
f 758 781 784
f 758 784 782
f 758 782 783
f 759 782 785
f 759 785 760
f 760 785 786
f 760 786 761
f 761 763 762
f 765 777 787
f 765 787 767
f 767 787 788
f 767 788 768
f 768 788 789
f 772 774 773
f 775 790 776
f 776 790 791
f 776 791 792
f 776 792 777
f 777 792 787
f 780 793 781
f 781 793 794
f 781 794 782
f 781 782 784
f 782 794 795
f 782 795 785
f 785 795 786
f 786 795 794
f 787 792 788
f 788 791 789
f 788 792 791
f 789 791 790

