# https://github.com/mikedh/trimesh
v -0.01897598 0.08860275 0.09708376
v -0.01889436 0.08758396 0.09708376
v -0.01871428 0.08758396 0.09729577
v -0.01877460 0.08860275 0.09729206
v -0.01896090 0.08962027 0.09708376
v -0.01875863 0.08656518 0.09708376
v -0.01862911 0.08656518 0.09724993
v -0.01814563 0.08656518 0.09775911
v -0.01813143 0.08758396 0.09780525
v -0.01878170 0.08962027 0.09724295
v -0.01835765 0.09572918 0.09708376
v -0.01871339 0.08634201 0.09708376
v -0.01850669 0.08554766 0.09709608
v -0.01806046 0.08554766 0.09760525
v -0.01755214 0.08554766 0.09797438
v -0.01740488 0.08418214 0.09792053
v -0.01744036 0.08452888 0.09794204
v -0.01800901 0.08860275 0.09780154
v -0.01763642 0.08656518 0.09795806
v -0.01782537 0.09572918 0.09726758
v -0.01789013 0.09674797 0.09708376
v -0.01851201 0.08552749 0.09708376
v -0.01680606 0.08554766 0.09816859
v -0.01680606 0.08452888 0.09814233
v -0.01683268 0.08418214 0.09810791
v -0.01821039 0.08451375 0.09708376
v -0.01788392 0.08418214 0.09734829
v -0.01762222 0.08758396 0.09792320
v -0.01680606 0.08656518 0.09812334
v -0.01749891 0.08860275 0.09789026
v -0.01738358 0.08928236 0.09786830
v -0.01629596 0.09213949 0.09785955
v -0.01171572 0.09471040 0.09838327
v -0.00994146 0.09546692 0.09857940
v -0.01782537 0.09674797 0.09710068
v -0.01782537 0.09679210 0.09708376
v -0.01578853 0.08418214 0.09832704
v -0.01578853 0.08452888 0.09833030
v -0.01578853 0.08554766 0.09831517
v -0.01807377 0.08418214 0.09708376
v -0.01578853 0.08656518 0.09826710
v -0.01069730 0.09471040 0.09854172
v -0.01273503 0.09369162 0.09830256
v -0.00994146 0.09572918 0.09852154
v -0.00994146 0.09471040 0.09859943
v -0.00991485 0.09246353 0.09708376
v -0.01776416 0.09679714 0.09708376
v -0.00994146 0.09635331 0.09820226
v -0.00994146 0.09651344 0.09811384
v -0.01476922 0.08418214 0.09823446
v -0.01351038 0.08418214 0.09708376
v -0.00994146 0.09444814 0.09855819
v -0.00994146 0.09706318 0.09708376
v -0.00994146 0.09695223 0.09738479
v -0.00994146 0.09687153 0.09754576
v -0.00994146 0.09362731 0.09823980
v -0.00994146 0.09337010 0.09813328
v -0.00994146 0.09306875 0.09795213
v -0.00994146 0.09301957 0.09789961
v -0.00994146 0.09266527 0.09744102
v -0.01411895 0.08418214 0.09796533
v -0.01367627 0.08418214 0.09733984
f 1 2 3
f 1 3 4
f 1 4 5
f 1 5 11
f 1 11 21
f 1 21 36
f 1 36 47
f 1 47 53
f 1 53 46
f 1 46 51
f 1 51 40
f 1 40 26
f 1 26 22
f 1 22 12
f 1 12 6
f 1 6 2
f 2 6 7
f 2 7 3
f 3 7 8
f 3 8 4
f 4 8 9
f 4 9 10
f 4 10 5
f 5 10 11
f 6 12 7
f 7 12 13
f 7 13 14
f 7 14 8
f 8 15 9
f 8 14 16
f 8 16 17
f 8 17 15
f 9 18 11
f 9 11 10
f 9 15 19
f 9 19 18
f 11 20 21
f 11 18 20
f 12 22 13
f 13 22 14
f 14 22 16
f 15 23 19
f 15 17 24
f 15 24 23
f 16 25 17
f 16 22 26
f 16 26 27
f 16 27 40
f 16 40 51
f 16 51 62
f 16 62 61
f 16 61 50
f 16 50 37
f 16 37 25
f 17 25 24
f 18 19 28
f 18 28 29
f 18 29 30
f 18 30 31
f 18 31 32
f 18 32 20
f 19 23 28
f 20 32 33
f 20 33 34
f 20 34 35
f 20 35 21
f 21 35 36
f 23 24 37
f 23 37 38
f 23 38 39
f 23 39 29
f 23 29 28
f 24 25 37
f 26 40 27
f 29 41 42
f 29 42 43
f 29 43 32
f 29 32 31
f 29 31 30
f 29 39 41
f 32 43 33
f 33 42 34
f 33 43 42
f 34 44 35
f 34 42 45
f 34 45 46
f 34 46 44
f 35 44 36
f 36 44 48
f 36 48 49
f 36 49 47
f 37 50 45
f 37 45 38
f 38 45 39
f 39 45 42
f 39 42 41
f 44 46 48
f 45 52 46
f 45 50 52
f 46 53 54
f 46 54 55
f 46 55 49
f 46 49 48
f 46 52 56
f 46 56 57
f 46 57 58
f 46 58 59
f 46 59 60
f 46 60 51
f 47 49 55
f 47 55 54
f 47 54 53
f 50 61 52
f 51 60 59
f 51 59 58
f 51 58 62
f 52 61 56
f 56 61 57
f 57 61 58
f 58 61 62

