# https://github.com/mikedh/trimesh
v -0.03523609 0.09767130 0.09708376
v -0.03514091 0.09801786 0.09708376
v -0.03461679 0.08418238 0.09708376
v -0.03412215 0.08418238 0.09719395
v -0.03412215 0.08452894 0.09719463
v -0.03412215 0.08554799 0.09719541
v -0.03310339 0.08758401 0.09726201
v -0.03208463 0.09267510 0.09725358
v -0.03514091 0.09776619 0.09708636
v -0.02699350 0.10082333 0.09716932
v -0.02597473 0.10184237 0.09715498
v -0.02495731 0.10285935 0.09713431
v -0.02393855 0.10387839 0.09710962
v -0.02340504 0.10441061 0.09708376
v -0.03056319 0.08418238 0.09708376
v -0.03310339 0.08418238 0.09722254
v -0.02154312 0.10525637 0.09708376
f 1 2 14
f 1 14 17
f 1 17 15
f 1 15 3
f 1 3 4
f 1 4 5
f 1 5 6
f 1 6 7
f 1 7 8
f 1 8 9
f 1 9 2
f 2 9 8
f 2 8 10
f 2 10 11
f 2 11 12
f 2 12 13
f 2 13 14
f 3 15 16
f 3 16 4
f 4 16 7
f 4 7 5
f 5 7 6
f 7 16 17
f 7 17 8
f 8 17 11
f 8 11 10
f 11 17 12
f 12 17 13
f 13 17 14
f 15 17 16

