# https://github.com/mikedh/trimesh
v 0.01101912 0.05619087 0.09938781
v 0.01101912 0.05621584 0.09978342
v 0.01101912 0.05636091 0.09860480
v 0.01128093 0.05645842 0.09876440
v 0.01133170 0.05640847 0.09938781
v 0.01101912 0.05628124 0.10028447
v 0.01129686 0.05643107 0.10012003
v 0.01101912 0.05704583 0.09708376
v 0.01147007 0.05734192 0.09708376
v 0.01160347 0.05742991 0.09708376
v 0.01197877 0.05770103 0.09708376
v 0.01269452 0.05826228 0.09708376
v 0.01335551 0.05845135 0.09836927
v 0.01398167 0.05880451 0.09938781
v 0.01397868 0.05881164 0.10040586
v 0.01114256 0.05658446 0.10079954
v 0.01101912 0.05644177 0.10068299
v 0.01346900 0.05836811 0.10040586
v 0.01338140 0.05844065 0.10104039
v 0.01101912 0.06012679 0.09708376
v 0.01285877 0.05841330 0.09708376
v 0.01386520 0.05893531 0.09836927
v 0.01453018 0.05931345 0.09938781
v 0.01453914 0.05932058 0.10040586
v 0.01101912 0.05652976 0.10085516
v 0.01504783 0.05979622 0.10040586
v 0.01441470 0.05942760 0.10107666
v 0.01373181 0.05907800 0.10126867
v 0.01101912 0.05707675 0.10117774
v 0.01101912 0.05935625 0.10037346
v 0.01506873 0.06521614 0.09708376
v 0.01346402 0.05899001 0.09708376
v 0.01437887 0.05944425 0.09836927
v 0.01503987 0.05982000 0.09938781
v 0.01556249 0.06030516 0.10040586
v 0.01543507 0.06043477 0.10109359
v 0.01572277 0.06116844 0.10142440
v 0.01475914 0.06008993 0.10131413
v 0.01533154 0.06155252 0.10195253
v 0.01273035 0.05906373 0.10158883
v 0.01101912 0.05723133 0.10124594
v 0.01101912 0.05929561 0.10052193
v 0.01840558 0.06833753 0.10059786
v 0.01836477 0.06833753 0.10040586
v 0.01594077 0.06624709 0.09708376
v 0.01427335 0.05955602 0.09782711
v 0.01450928 0.06016722 0.09708376
v 0.01604530 0.06088306 0.09938781
v 0.01553661 0.06033013 0.09938781
v 0.01607218 0.06083074 0.10040586
v 0.01642060 0.06146453 0.10107570
v 0.01677797 0.06216015 0.10127254
v 0.01507073 0.06155252 0.10195253
v 0.01374972 0.06008161 0.10174505
v 0.01807906 0.06472386 0.10191287
v 0.01849617 0.06540283 0.10199074
v 0.01883762 0.06623758 0.10202024
v 0.01803527 0.06619239 0.10202459
v 0.01101912 0.05851794 0.10126818
v 0.01507073 0.06174040 0.10195253
v 0.01101912 0.05903757 0.10094173
v 0.01823436 0.06787378 0.10110036
v 0.01886450 0.06833753 0.10144713
v 0.01771970 0.06833753 0.09708376
v 0.01467054 0.06035034 0.09708376
v 0.01540023 0.06046687 0.09866235
v 0.01652811 0.06134086 0.10040586
v 0.01647933 0.06139199 0.09938781
v 0.01743399 0.06247289 0.09957691
v 0.01703779 0.06192709 0.10040586
v 0.01739517 0.06252521 0.10102298
v 0.01917509 0.06592960 0.10179825
v 0.01940405 0.06660858 0.10195737
v 0.01960315 0.06721027 0.10199219
v 0.02018849 0.06833753 0.10197429
v 0.01885355 0.06720432 0.10201879
v 0.01822341 0.06686067 0.10199751
v 0.01101912 0.05886159 0.10113664
v 0.01892224 0.06833753 0.10150081
v 0.01852206 0.06753965 0.10177939
v 0.02054686 0.06833753 0.09708376
v 0.01635589 0.06153231 0.09878375
v 0.01735436 0.06359897 0.09708376
v 0.01704874 0.06212805 0.09929785
v 0.01746585 0.06243484 0.10040586
v 0.01730458 0.06263817 0.09889837
v 0.01747879 0.06375117 0.09708376
v 0.01790087 0.06430172 0.09708376
v 0.01825228 0.06477261 0.09708376
v 0.01824531 0.06377020 0.09914357
v 0.01835282 0.06361561 0.09982211
v 0.01833988 0.06363583 0.10092771
v 0.01850613 0.06415546 0.10116372
v 0.01886549 0.06511983 0.10151629
v 0.01945581 0.06551580 0.10111923
v 0.02031292 0.06779768 0.10190997
v 0.02041446 0.06833753 0.10195737
v 0.02000930 0.06833753 0.10197816
v 0.01996848 0.06833753 0.10197816
v 0.01920097 0.06790589 0.10198832
v 0.01941699 0.06833753 0.10190949
v 0.02111030 0.06833753 0.09948211
v 0.02109736 0.06831970 0.09946519
v 0.02056876 0.06734701 0.09938781
v 0.02029799 0.06683808 0.09938781
v 0.01958622 0.06675365 0.09708376
v 0.01797454 0.06310549 0.10040586
v 0.01851608 0.06514837 0.09708376
v 0.01873907 0.06547775 0.09708376
v 0.01945681 0.06655269 0.09708376
v 0.01913129 0.06499735 0.09938781
v 0.01946378 0.06550628 0.09938781
v 0.01990179 0.06619239 0.09938781
v 0.01952450 0.06540521 0.10040586
v 0.01919898 0.06489627 0.10040586
v 0.01871120 0.06415546 0.10040586
v 0.01835282 0.06361561 0.10040586
v 0.02000930 0.06619239 0.10040586
v 0.02034378 0.06674414 0.10040586
v 0.02052894 0.06743263 0.10123094
v 0.02070116 0.06817463 0.10151194
v 0.02076587 0.06833753 0.10150952
v 0.02118795 0.06833753 0.10035798
v 0.02063048 0.06725426 0.10040586
v 0.02118596 0.06833753 0.10038603
v 0.02088333 0.06833753 0.10128947
v 0.02118695 0.06833753 0.10037394
v 0.02117899 0.06831970 0.10037394
f 1 2 6
f 1 6 17
f 1 17 25
f 1 25 29
f 1 29 41
f 1 41 59
f 1 59 78
f 1 78 61
f 1 61 42
f 1 42 30
f 1 30 20
f 1 20 8
f 1 8 3
f 1 3 4
f 1 4 5
f 1 5 2
f 2 5 7
f 2 7 6
f 3 8 4
f 4 8 9
f 4 9 10
f 4 10 11
f 4 11 12
f 4 12 13
f 4 13 14
f 4 14 5
f 5 14 15
f 5 15 7
f 6 7 16
f 6 16 17
f 7 15 18
f 7 18 19
f 7 19 16
f 8 20 31
f 8 31 45
f 8 45 64
f 8 64 81
f 8 81 106
f 8 106 110
f 8 110 109
f 8 109 108
f 8 108 89
f 8 89 88
f 8 88 87
f 8 87 83
f 8 83 65
f 8 65 47
f 8 47 32
f 8 32 21
f 8 21 12
f 8 12 11
f 8 11 10
f 8 10 9
f 12 21 13
f 13 21 22
f 13 22 23
f 13 23 14
f 14 23 24
f 14 24 15
f 15 24 19
f 15 19 18
f 16 25 17
f 16 19 25
f 19 24 26
f 19 26 27
f 19 27 28
f 19 28 29
f 19 29 25
f 20 30 31
f 21 32 22
f 22 32 33
f 22 33 23
f 23 33 34
f 23 34 35
f 23 35 26
f 23 26 24
f 26 35 36
f 26 36 27
f 27 36 37
f 27 37 38
f 27 38 28
f 28 38 39
f 28 39 40
f 28 40 29
f 29 40 41
f 30 42 43
f 30 43 31
f 31 43 44
f 31 44 45
f 32 46 33
f 32 47 46
f 33 46 48
f 33 48 49
f 33 49 34
f 34 49 35
f 35 49 50
f 35 50 36
f 36 50 51
f 36 51 37
f 37 51 52
f 37 52 39
f 37 39 38
f 39 53 54
f 39 54 40
f 39 52 55
f 39 55 56
f 39 56 57
f 39 57 58
f 39 58 53
f 40 59 41
f 40 54 53
f 40 53 60
f 40 60 59
f 42 61 62
f 42 62 43
f 43 62 63
f 43 63 79
f 43 79 101
f 43 101 99
f 43 99 98
f 43 98 75
f 43 75 97
f 43 97 122
f 43 122 126
f 43 126 125
f 43 125 127
f 43 127 123
f 43 123 102
f 43 102 81
f 43 81 64
f 43 64 44
f 44 64 45
f 46 47 65
f 46 65 66
f 46 66 48
f 48 67 50
f 48 50 49
f 48 66 65
f 48 65 68
f 48 68 69
f 48 69 70
f 48 70 67
f 50 67 71
f 50 71 51
f 51 71 52
f 52 71 55
f 53 58 60
f 55 72 56
f 55 71 72
f 56 72 73
f 56 73 74
f 56 74 57
f 57 74 75
f 57 75 76
f 57 76 58
f 58 76 77
f 58 77 60
f 59 60 77
f 59 77 78
f 61 78 62
f 62 78 63
f 63 78 80
f 63 80 79
f 65 82 68
f 65 83 82
f 67 70 71
f 68 82 84
f 68 84 69
f 69 85 70
f 69 84 86
f 69 86 87
f 69 87 88
f 69 88 89
f 69 89 90
f 69 90 91
f 69 91 85
f 70 85 71
f 71 85 92
f 71 92 93
f 71 93 94
f 71 94 72
f 72 94 95
f 72 95 96
f 72 96 73
f 73 96 74
f 74 96 97
f 74 97 75
f 75 98 76
f 76 98 99
f 76 99 100
f 76 100 77
f 77 100 101
f 77 101 80
f 77 80 78
f 79 80 101
f 81 102 103
f 81 103 104
f 81 104 105
f 81 105 106
f 82 86 84
f 82 83 87
f 82 87 86
f 85 91 107
f 85 107 92
f 89 108 90
f 90 108 109
f 90 109 110
f 90 110 91
f 91 110 111
f 91 111 112
f 91 112 113
f 91 113 114
f 91 114 115
f 91 115 116
f 91 116 117
f 91 117 107
f 92 107 117
f 92 117 116
f 92 116 115
f 92 115 114
f 92 114 118
f 92 118 95
f 92 95 93
f 93 95 94
f 95 118 119
f 95 119 120
f 95 120 96
f 96 120 121
f 96 121 122
f 96 122 97
f 99 101 100
f 102 123 124
f 102 124 105
f 102 105 104
f 102 104 103
f 105 124 119
f 105 119 118
f 105 118 113
f 105 113 106
f 106 113 112
f 106 112 110
f 110 112 111
f 113 118 114
f 119 124 120
f 120 124 125
f 120 125 126
f 120 126 121
f 121 126 122
f 123 127 128
f 123 128 124
f 124 128 125
f 125 128 127

