# https://github.com/mikedh/trimesh
v 0.01111567 0.10096209 0.09708376
v 0.01069099 0.10095377 0.09708376
v 0.01069099 0.10023172 0.09779864
v 0.01171167 0.10095626 0.09708376
v 0.00757345 0.10086892 0.09708376
v 0.01069099 0.09972263 0.09807592
v 0.01171167 0.10019762 0.09778024
v 0.01171167 0.10075579 0.09727087
v 0.00967272 0.10021758 0.09776960
v 0.00865445 0.09967105 0.09812684
v 0.00967272 0.09970849 0.09811334
v 0.01210016 0.10093630 0.09708376
v 0.00661791 0.10080570 0.09708376
v 0.01171167 0.09968852 0.09804341
v 0.00865445 0.09878596 0.09844297
v 0.01272994 0.09957040 0.09800742
v 0.01272994 0.10007949 0.09767881
v 0.01295917 0.10081568 0.09708376
v -0.00152823 0.09813629 0.09879755
v -0.00050996 0.09814544 0.09881616
v 0.00763618 0.09878596 0.09846117
v 0.00359207 0.10033570 0.09708376
v 0.01272994 0.09878596 0.09820822
v -0.00050996 0.09763634 0.09897913
v 0.00050831 0.09753486 0.09896482
v 0.00152657 0.09744751 0.09893087
v 0.00225287 0.09736516 0.09890020
v 0.01384955 0.09888745 0.09804464
v 0.01357689 0.09942150 0.09794096
v 0.01425734 0.09929506 0.09785978
v 0.01362032 0.10057195 0.09708376
v -0.00254650 0.09804977 0.09870533
v -0.00540585 0.09733189 0.09891697
v -0.00458304 0.09741008 0.09896073
v -0.00356477 0.09747912 0.09899059
v -0.00152823 0.09762719 0.09898056
v 0.00297917 0.10021009 0.09708376
v -0.00421144 0.09830765 0.09793115
v -0.00356477 0.09837669 0.09805527
v -0.00254650 0.09845738 0.09819616
v 0.01374821 0.09776778 0.09812418
v 0.01470856 0.09784847 0.09804709
v 0.00225287 0.09721460 0.09890020
v -0.00356477 0.09674876 0.09914517
v -0.00254650 0.09674876 0.09913107
v -0.00254650 0.09573140 0.09914763
v 0.01470856 0.09827521 0.09799556
v 0.01458550 0.09861627 0.09796305
v 0.01470856 0.09898977 0.09778351
v 0.01470856 0.09978585 0.09729132
v 0.01470856 0.10007949 0.09708376
v 0.01430319 0.10029078 0.09708376
v 0.01376268 0.10051538 0.09708376
v -0.00356477 0.09798822 0.09856444
v -0.00608390 0.09724621 0.09887382
v -0.00568817 0.09684359 0.09901451
v -0.00458304 0.09674876 0.09911430
v -0.00254650 0.09753985 0.09898895
v -0.00457097 0.09863956 0.09708376
v -0.00764025 0.09744502 0.09814770
v -0.00662198 0.09757479 0.09830126
v 0.01470856 0.09668055 0.09802950
v 0.00004502 0.09311689 0.09888998
v -0.00356477 0.09573140 0.09917278
v -0.00458304 0.09573140 0.09916358
v 0.01470856 0.09873855 0.09787042
v 0.01470856 0.09385142 0.09708376
v -0.00662198 0.09710978 0.09881064
v -0.00737965 0.09639356 0.09892433
v -0.00662198 0.09660152 0.09897995
v -0.00560130 0.09573140 0.09912002
v -0.00867783 0.09771371 0.09708376
v -0.00837621 0.09733355 0.09799024
v 0.01470856 0.09665226 0.09802685
v -0.00012872 0.09311689 0.09888998
v 0.00045281 0.09246389 0.09873866
v 0.00043350 0.09273674 0.09878835
v 0.01470856 0.09562992 0.09773545
v 0.01239454 0.09246389 0.09708376
v -0.00967679 0.09657241 0.09816242
v -0.00993739 0.09651584 0.09811416
v -0.00768851 0.09673878 0.09869122
v -0.00754615 0.09573140 0.09893271
v -0.00662198 0.09573140 0.09904109
v -0.00967679 0.09573140 0.09859245
v -0.00865852 0.09573140 0.09878119
v -0.00743274 0.09517157 0.09890490
v -0.00662198 0.09511251 0.09893926
v -0.00933656 0.09740176 0.09708376
v -0.00905666 0.09721543 0.09776674
v 0.01470856 0.09564739 0.09774118
v -0.00993739 0.09445035 0.09855830
v -0.00993739 0.09362848 0.09823971
v -0.00993739 0.09337227 0.09813338
v -0.00993739 0.09307114 0.09795241
v -0.00993739 0.09302123 0.09789986
v -0.00993739 0.09266686 0.09744100
v -0.00993739 0.09246389 0.09710278
v -0.00993739 0.09246389 0.09708376
v -0.00993739 0.09687270 0.09754569
v -0.00993739 0.09635612 0.09820250
v -0.00993739 0.09573140 0.09852170
v -0.00993739 0.09471238 0.09859940
v -0.00993739 0.09546937 0.09857936
v -0.00993739 0.09706237 0.09708376
v -0.00993739 0.09705155 0.09711546
v -0.00993739 0.09695339 0.09738476
f 1 2 3
f 1 3 4
f 1 4 12
f 1 12 18
f 1 18 31
f 1 31 53
f 1 53 52
f 1 52 51
f 1 51 67
f 1 67 79
f 1 79 99
f 1 99 105
f 1 105 89
f 1 89 72
f 1 72 59
f 1 59 37
f 1 37 22
f 1 22 13
f 1 13 5
f 1 5 2
f 2 5 3
f 3 6 7
f 3 7 8
f 3 8 4
f 3 5 9
f 3 9 10
f 3 10 11
f 3 11 6
f 4 8 12
f 5 13 9
f 6 14 7
f 6 11 15
f 6 15 14
f 7 14 16
f 7 16 17
f 7 17 18
f 7 18 12
f 7 12 8
f 9 13 19
f 9 19 10
f 10 19 20
f 10 20 11
f 11 21 15
f 11 20 21
f 13 22 19
f 14 23 16
f 14 15 23
f 15 21 20
f 15 20 24
f 15 24 25
f 15 25 26
f 15 26 27
f 15 27 23
f 16 23 28
f 16 28 29
f 16 29 17
f 17 29 30
f 17 30 18
f 18 30 31
f 19 32 33
f 19 33 34
f 19 34 35
f 19 35 20
f 19 22 32
f 20 35 36
f 20 36 24
f 22 37 38
f 22 38 39
f 22 39 40
f 22 40 32
f 23 41 42
f 23 42 28
f 23 27 43
f 23 43 41
f 24 36 44
f 24 44 45
f 24 45 25
f 25 45 26
f 26 45 27
f 27 45 46
f 27 46 43
f 28 42 47
f 28 47 48
f 28 48 30
f 28 30 29
f 30 48 49
f 30 49 50
f 30 50 51
f 30 51 52
f 30 52 53
f 30 53 31
f 32 40 54
f 32 54 55
f 32 55 33
f 33 55 56
f 33 56 34
f 34 56 57
f 34 57 35
f 35 57 44
f 35 44 58
f 35 58 36
f 36 58 44
f 37 59 38
f 38 59 60
f 38 60 39
f 39 60 61
f 39 61 55
f 39 55 54
f 39 54 40
f 41 62 42
f 41 43 62
f 42 62 74
f 42 74 91
f 42 91 78
f 42 78 67
f 42 67 51
f 42 51 50
f 42 50 49
f 42 49 66
f 42 66 47
f 43 46 63
f 43 63 62
f 44 64 45
f 44 57 65
f 44 65 64
f 45 64 46
f 46 64 63
f 47 66 48
f 48 66 49
f 55 61 60
f 55 60 68
f 55 68 69
f 55 69 70
f 55 70 56
f 56 70 57
f 57 71 65
f 57 70 71
f 59 72 60
f 60 72 73
f 60 73 68
f 62 63 74
f 63 75 76
f 63 76 77
f 63 77 74
f 63 64 75
f 64 65 75
f 65 71 75
f 67 78 79
f 68 73 80
f 68 80 81
f 68 81 82
f 68 82 69
f 69 83 84
f 69 84 70
f 69 82 85
f 69 85 86
f 69 86 83
f 70 84 71
f 71 84 87
f 71 87 88
f 71 88 75
f 72 89 90
f 72 90 73
f 73 90 81
f 73 81 80
f 74 77 76
f 74 76 91
f 75 88 87
f 75 87 92
f 75 92 76
f 76 79 91
f 76 92 93
f 76 93 94
f 76 94 95
f 76 95 96
f 76 96 97
f 76 97 98
f 76 98 99
f 76 99 79
f 78 91 79
f 81 100 107
f 81 107 106
f 81 106 105
f 81 105 99
f 81 99 98
f 81 98 97
f 81 97 96
f 81 96 95
f 81 95 94
f 81 94 93
f 81 93 92
f 81 92 103
f 81 103 104
f 81 104 102
f 81 102 101
f 81 101 82
f 81 90 100
f 82 101 102
f 82 102 85
f 83 86 103
f 83 103 84
f 84 103 87
f 85 102 104
f 85 104 86
f 86 104 103
f 87 103 92
f 89 105 106
f 89 106 107
f 89 107 90
f 90 107 100

