# https://github.com/mikedh/trimesh
v 0.01986037 0.07955637 0.00060258
v 0.02075606 0.07955637 0.00064067
v 0.01918054 0.07955637 0.00094538
v 0.01796810 0.09625961 -0.00004495
v 0.01831628 0.09625961 -0.00013064
v 0.01884228 0.09572987 -0.00018779
v 0.02126469 0.08758262 0.00005980
v 0.02138544 0.08707086 0.00007884
v 0.02138874 0.08707086 0.00007884
v 0.02087846 0.07955637 0.00065019
v 0.01763480 0.09625961 0.00014550
v 0.01603034 0.07955637 0.00291653
v 0.01884228 0.09625961 -0.00019730
v 0.01986037 0.09369265 -0.00013064
v 0.02087846 0.09063682 -0.00005447
v 0.02087846 0.08961821 -0.00001638
v 0.02145408 0.08758262 0.00005980
v 0.02196354 0.08758262 0.00026929
v 0.02145243 0.07955637 0.00094538
v 0.01750165 0.09625961 0.00025025
v 0.01603034 0.08147260 0.00281178
v 0.01707407 0.09625961 0.00073589
v 0.01729241 0.09625961 0.00047879
v 0.01603034 0.07955637 0.09666478
v 0.01926738 0.09625961 -0.00014017
v 0.02151363 0.09063682 0.00000266
v 0.02156325 0.08961821 0.00001219
v 0.02155084 0.08859960 0.00003123
v 0.02206030 0.08859960 0.00024073
v 0.02270209 0.08656401 0.00084064
v 0.02152272 0.07955637 0.00098347
v 0.01603034 0.08214458 0.00278321
v 0.01673829 0.09625961 0.00125010
v 0.01603034 0.08350982 0.00273560
v 0.02173858 0.07955637 0.09708376
v 0.01603034 0.08222960 0.09708376
v 0.01963707 0.09625961 -0.00006399
v 0.01972639 0.09572987 -0.00008304
v 0.02056005 0.09369265 -0.00002590
v 0.02145160 0.09139873 0.00004075
v 0.02207271 0.08961821 0.00032643
v 0.02268885 0.08859960 0.00075494
v 0.02272111 0.08758262 0.00077398
v 0.02321154 0.08656401 0.00142151
v 0.02327605 0.07955637 0.00224043
v 0.01603034 0.09625797 0.00241184
v 0.01603034 0.09625961 0.00244993
v 0.01603034 0.08422922 0.00271656
v 0.02433384 0.07955637 0.09708376
v 0.01603034 0.09625961 0.09708376
v 0.02045832 0.09447909 0.00002171
v 0.01988188 0.09625961 0.00008837
v 0.02033096 0.09515761 0.00009789
v 0.02132423 0.09207889 0.00010741
v 0.02176587 0.09170611 0.00050735
v 0.02260367 0.08961821 0.00083112
v 0.02322809 0.08856526 0.00169766
v 0.02323057 0.08758262 0.00150721
v 0.02352747 0.08656401 0.00193572
v 0.02355063 0.08554540 0.00194524
v 0.02388806 0.08249121 0.00264990
v 0.02383265 0.08147260 0.00269751
v 0.02375243 0.08045399 0.00271656
v 0.02368213 0.07955637 0.00275465
v 0.02438263 0.07970188 0.09708376
v 0.02433384 0.07955637 0.09705519
v 0.02201730 0.09625961 0.09708376
v 0.02023585 0.09572987 0.00022168
v 0.02016886 0.09625961 0.00040261
v 0.02088342 0.09472761 0.00058353
v 0.02165919 0.09267404 0.00071685
v 0.02249781 0.09045370 0.00097395
v 0.02301388 0.08961821 0.00161195
v 0.02340011 0.08888245 0.00221187
v 0.02343650 0.08820392 0.00208807
v 0.02346958 0.08758262 0.00201189
v 0.02392445 0.08554540 0.00263085
v 0.02395092 0.08452679 0.00263085
v 0.02437106 0.08249121 0.00364975
v 0.02429827 0.08147260 0.00364975
v 0.02417008 0.08045399 0.00364975
v 0.02404933 0.07955637 0.00364975
v 0.02444963 0.07991770 0.09679809
v 0.02444963 0.07991770 0.09686475
v 0.02440910 0.08045399 0.09708376
v 0.02432640 0.07955637 0.07799131
v 0.02211489 0.09602253 0.09708376
v 0.02183783 0.09572987 0.00670645
v 0.02161866 0.09625961 0.00670645
v 0.02037066 0.09625961 0.00065971
v 0.02063862 0.09572987 0.00073589
v 0.02141604 0.09429597 0.00105965
v 0.02150701 0.09369265 0.00092634
v 0.02240187 0.09113222 0.00110727
v 0.02268554 0.09073001 0.00151673
v 0.02254081 0.09165543 0.00180240
v 0.02309327 0.09063682 0.00263085
v 0.02333064 0.08966399 0.00258324
v 0.02349026 0.08935497 0.00288796
v 0.02354484 0.08856526 0.00258324
v 0.02368709 0.08758262 0.00263085
v 0.02381776 0.08656401 0.00263085
v 0.02429001 0.08452679 0.00364975
v 0.02435865 0.08350982 0.00364975
v 0.02435617 0.08147260 0.00772535
v 0.02431730 0.08147260 0.00466865
v 0.02424700 0.08045399 0.00466865
v 0.02447692 0.08247813 0.06989725
v 0.02447940 0.08176853 0.06958301
v 0.02447113 0.08144644 0.06872599
v 0.02413948 0.07955637 0.00466865
v 0.02413039 0.07955637 0.00454486
v 0.02416512 0.07955637 0.01078205
v 0.02430489 0.08045399 0.01078205
v 0.02445211 0.08045399 0.09688379
v 0.02447195 0.08179306 0.09569349
v 0.02447195 0.08216584 0.09607439
v 0.02441489 0.08127803 0.09708376
v 0.02231090 0.09553530 0.09708376
v 0.02240683 0.09420440 0.00619224
v 0.02181136 0.09572987 0.00568755
v 0.02159716 0.09625961 0.00568755
v 0.02160543 0.09625961 0.00601131
v 0.02241924 0.09525408 0.09708376
v 0.02051870 0.09625961 0.00086921
v 0.02130852 0.09497613 0.00131676
v 0.02183452 0.09369265 0.00161195
v 0.02244488 0.09229144 0.00203094
v 0.02217691 0.09264788 0.00165957
v 0.02281622 0.09165543 0.00263085
v 0.02339928 0.09003513 0.00331647
v 0.02352996 0.08966399 0.00364975
v 0.02375739 0.08859960 0.00364975
v 0.02392611 0.08758262 0.00364975
v 0.02417670 0.08554540 0.00364975
v 0.02400633 0.08758262 0.00466865
v 0.02402701 0.08758262 0.01383875
v 0.02419738 0.08656401 0.06679294
v 0.02438098 0.08452679 0.07085901
v 0.02445045 0.08408043 0.09531259
v 0.02445955 0.08328582 0.07048764
v 0.02445045 0.08408697 0.09586489
v 0.02444880 0.08108673 0.09686475
v 0.02436940 0.08451208 0.09708376
v 0.02291133 0.09267404 0.00670645
v 0.02340673 0.09107500 0.00568755
v 0.02236961 0.09408505 0.00466865
v 0.02223398 0.09460989 0.00578278
v 0.02251931 0.09495324 0.09708376
v 0.02213391 0.09471126 0.00466865
v 0.02205534 0.09471126 0.00364975
v 0.02173197 0.09572987 0.00466865
v 0.02140115 0.09625961 0.00311650
v 0.02144994 0.09625961 0.00375450
v 0.02065433 0.09625961 0.00112631
v 0.02113402 0.09568899 0.00164052
v 0.02142927 0.09532111 0.00200237
v 0.02152769 0.09466711 0.00164052
v 0.02234067 0.09296997 0.00233566
v 0.02253337 0.09264788 0.00265942
v 0.02243991 0.09328880 0.00302127
v 0.02271449 0.09267404 0.00364975
v 0.02344808 0.09019536 0.00399256
v 0.02348943 0.09036868 0.00466865
v 0.02383430 0.08859960 0.00466865
v 0.02388972 0.08859960 0.01078205
v 0.02389468 0.08859960 0.01180095
v 0.02410392 0.08758262 0.08512360
v 0.02421971 0.08656401 0.08512360
v 0.02430820 0.08554540 0.09708376
v 0.02323635 0.09165543 0.00670645
v 0.02350266 0.09056651 0.00568755
v 0.02248871 0.09346375 0.00364975
v 0.02233322 0.09397223 0.00364975
v 0.02288734 0.09369265 0.09708376
v 0.02345883 0.09127937 0.09225590
v 0.02360521 0.09063682 0.09225590
v 0.02139867 0.09625961 0.00309745
v 0.02086688 0.09625961 0.00161195
v 0.02120928 0.09625961 0.00253563
v 0.02184114 0.09471126 0.00263085
v 0.02221579 0.09365504 0.00265942
v 0.02379792 0.08961821 0.09225590
v 0.02396332 0.08859960 0.09327479
v 0.02410806 0.08758262 0.09327479
v 0.02421144 0.08656401 0.09327479
v 0.02427512 0.08581354 0.09708376
v 0.02309989 0.09267404 0.09708376
v 0.02357544 0.09063682 0.09633149
v 0.02379295 0.08961821 0.09327479
v 0.02374995 0.08961821 0.09633149
v 0.02411467 0.08683215 0.09708376
v 0.02335628 0.09137421 0.09708376
v 0.02342823 0.09115838 0.09686475
v 0.02350018 0.09063682 0.09708376
f 1 2 10
f 1 10 19
f 1 19 31
f 1 31 45
f 1 45 64
f 1 64 82
f 1 82 112
f 1 112 111
f 1 111 113
f 1 113 86
f 1 86 66
f 1 66 49
f 1 49 35
f 1 35 24
f 1 24 12
f 1 12 3
f 1 3 4
f 1 4 5
f 1 5 6
f 1 6 7
f 1 7 8
f 1 8 9
f 1 9 2
f 2 9 10
f 3 11 4
f 3 12 11
f 4 11 20
f 4 20 23
f 4 23 22
f 4 22 33
f 4 33 47
f 4 47 50
f 4 50 67
f 4 67 89
f 4 89 123
f 4 123 122
f 4 122 154
f 4 154 153
f 4 153 178
f 4 178 180
f 4 180 179
f 4 179 155
f 4 155 125
f 4 125 90
f 4 90 69
f 4 69 52
f 4 52 37
f 4 37 25
f 4 25 13
f 4 13 5
f 5 13 6
f 6 13 14
f 6 14 15
f 6 15 16
f 6 16 7
f 7 16 8
f 8 16 15
f 8 15 9
f 9 15 17
f 9 17 18
f 9 18 10
f 10 18 19
f 11 12 20
f 12 21 22
f 12 22 23
f 12 23 20
f 12 24 36
f 12 36 50
f 12 50 47
f 12 47 46
f 12 46 48
f 12 48 34
f 12 34 32
f 12 32 21
f 13 25 26
f 13 26 14
f 14 26 15
f 15 26 27
f 15 27 28
f 15 28 17
f 17 28 29
f 17 29 18
f 18 29 30
f 18 30 31
f 18 31 19
f 21 32 22
f 22 32 34
f 22 34 33
f 24 35 36
f 25 37 38
f 25 38 26
f 26 38 39
f 26 39 40
f 26 40 41
f 26 41 29
f 26 29 27
f 27 29 28
f 29 41 42
f 29 42 43
f 29 43 30
f 30 43 44
f 30 44 45
f 30 45 31
f 33 46 47
f 33 34 48
f 33 48 46
f 35 49 65
f 35 65 85
f 35 85 118
f 35 118 144
f 35 144 170
f 35 170 187
f 35 187 192
f 35 192 195
f 35 195 193
f 35 193 188
f 35 188 175
f 35 175 149
f 35 149 124
f 35 124 119
f 35 119 87
f 35 87 67
f 35 67 50
f 35 50 36
f 37 51 39
f 37 39 38
f 37 52 53
f 37 53 51
f 39 51 40
f 40 51 54
f 40 54 55
f 40 55 56
f 40 56 41
f 41 56 42
f 42 56 57
f 42 57 58
f 42 58 44
f 42 44 43
f 44 58 59
f 44 59 60
f 44 60 61
f 44 61 45
f 45 61 62
f 45 62 63
f 45 63 64
f 49 66 65
f 51 53 54
f 52 68 53
f 52 69 68
f 53 68 70
f 53 70 71
f 53 71 54
f 54 71 55
f 55 71 72
f 55 72 56
f 56 72 73
f 56 73 57
f 57 73 74
f 57 74 75
f 57 75 76
f 57 76 58
f 58 76 59
f 59 76 77
f 59 77 78
f 59 78 60
f 60 78 61
f 61 78 79
f 61 79 80
f 61 80 62
f 62 80 63
f 63 80 64
f 64 80 81
f 64 81 82
f 65 83 84
f 65 84 85
f 65 66 86
f 65 86 83
f 67 87 88
f 67 88 89
f 68 69 90
f 68 90 91
f 68 91 92
f 68 92 70
f 70 93 71
f 70 92 93
f 71 93 94
f 71 94 72
f 72 94 73
f 73 94 95
f 73 95 96
f 73 96 97
f 73 97 98
f 73 98 74
f 74 98 99
f 74 99 100
f 74 100 101
f 74 101 102
f 74 102 75
f 75 102 77
f 75 77 76
f 77 102 103
f 77 103 104
f 77 104 78
f 78 104 79
f 79 105 106
f 79 106 107
f 79 107 80
f 79 104 108
f 79 108 109
f 79 109 110
f 79 110 105
f 80 107 111
f 80 111 112
f 80 112 81
f 81 112 82
f 83 110 109
f 83 109 84
f 83 86 113
f 83 113 114
f 83 114 105
f 83 105 110
f 84 115 85
f 84 109 116
f 84 116 117
f 84 117 115
f 85 115 118
f 87 119 88
f 88 120 121
f 88 121 122
f 88 122 123
f 88 123 89
f 88 119 124
f 88 124 120
f 90 125 91
f 91 125 92
f 92 126 127
f 92 127 128
f 92 128 129
f 92 129 94
f 92 94 93
f 92 125 126
f 94 129 96
f 94 96 95
f 96 129 128
f 96 128 97
f 97 128 130
f 97 130 131
f 97 131 99
f 97 99 98
f 99 131 132
f 99 132 133
f 99 133 134
f 99 134 100
f 100 134 101
f 101 134 102
f 102 134 135
f 102 135 103
f 103 135 136
f 103 136 137
f 103 137 138
f 103 138 139
f 103 139 140
f 103 140 104
f 104 140 141
f 104 141 108
f 105 114 107
f 105 107 106
f 107 114 111
f 108 141 140
f 108 140 142
f 108 142 117
f 108 117 109
f 109 117 116
f 111 114 113
f 115 117 143
f 115 143 118
f 117 142 143
f 118 143 144
f 120 145 146
f 120 146 147
f 120 147 148
f 120 148 121
f 120 124 149
f 120 149 145
f 121 148 147
f 121 147 150
f 121 150 151
f 121 151 152
f 121 152 153
f 121 153 154
f 121 154 122
f 125 155 126
f 126 155 156
f 126 156 157
f 126 157 158
f 126 158 159
f 126 159 127
f 127 159 128
f 128 159 130
f 130 160 161
f 130 161 131
f 130 159 160
f 131 162 163
f 131 163 132
f 131 161 162
f 132 163 164
f 132 164 133
f 133 164 165
f 133 165 136
f 133 136 134
f 134 136 135
f 136 165 166
f 136 166 167
f 136 167 137
f 137 167 168
f 137 168 169
f 137 169 138
f 138 169 140
f 138 140 139
f 140 169 142
f 142 169 170
f 142 170 144
f 142 144 143
f 145 171 146
f 145 149 171
f 146 167 172
f 146 172 165
f 146 165 164
f 146 164 162
f 146 162 173
f 146 173 174
f 146 174 147
f 146 171 149
f 146 149 175
f 146 175 176
f 146 176 177
f 146 177 167
f 147 174 151
f 147 151 150
f 151 174 178
f 151 178 153
f 151 153 152
f 155 179 156
f 156 179 180
f 156 180 157
f 157 159 158
f 157 180 178
f 157 178 181
f 157 181 182
f 157 182 159
f 159 182 161
f 159 161 160
f 161 182 181
f 161 181 178
f 161 178 174
f 161 174 173
f 161 173 162
f 162 164 163
f 165 172 166
f 166 172 167
f 167 177 183
f 167 183 184
f 167 184 168
f 168 184 185
f 168 185 169
f 169 185 186
f 169 186 170
f 170 186 185
f 170 185 187
f 175 188 189
f 175 189 177
f 175 177 176
f 177 189 190
f 177 190 183
f 183 190 184
f 184 190 191
f 184 191 187
f 184 187 185
f 187 191 192
f 188 193 194
f 188 194 189
f 189 194 195
f 189 195 191
f 189 191 190
f 191 195 192
f 193 195 194

