# https://github.com/mikedh/trimesh
v -0.00993980 0.11836100 0.10040586
v -0.00993980 0.11813715 0.10142459
v -0.00993980 0.11796135 0.09708426
v -0.01069696 0.11833122 0.10040586
v -0.01069696 0.11811026 0.10142459
v -0.00993980 0.11804204 0.10157975
v -0.01069696 0.11774135 0.10202825
v -0.00993980 0.11421751 0.09708426
v -0.01075854 0.11792580 0.09708426
v -0.01149746 0.11788641 0.09708426
v -0.01171639 0.11827261 0.10040586
v -0.01171639 0.11803244 0.10142459
v -0.01171639 0.11769427 0.10198684
v -0.00993980 0.11775384 0.10203474
v -0.02088215 0.11508310 0.10214998
v -0.01069696 0.11711978 0.10217343
v -0.00993980 0.11598135 0.10142459
v -0.03023491 0.10854748 0.10124449
v -0.02759625 0.10854748 0.09708426
v -0.01171639 0.11786624 0.09708426
v -0.01264232 0.11777689 0.09708426
v -0.01273354 0.11816502 0.10040586
v -0.01477241 0.11774327 0.10118014
v -0.01275635 0.11785759 0.10151090
v -0.01243250 0.11765392 0.10195242
v -0.01986500 0.11577480 0.10203174
v -0.00993980 0.11759340 0.10207215
v -0.02180807 0.11509270 0.10209560
v -0.02392220 0.11409454 0.10211855
v -0.02291873 0.11406380 0.10217143
v -0.00993980 0.11711978 0.10217991
v -0.00993980 0.11629358 0.10191051
v -0.03052227 0.10854748 0.10139516
v -0.00993980 0.11640502 0.10207913
v -0.03223500 0.10854748 0.09708426
v -0.01309844 0.11771829 0.09708426
v -0.01375297 0.11802475 0.10040586
v -0.01552501 0.11768370 0.10103995
v -0.01782842 0.11690170 0.10135924
v -0.02141125 0.11559899 0.10194194
v -0.02088215 0.11566144 0.10198285
v -0.02291873 0.11476511 0.10207664
v -0.02495531 0.11374581 0.10205968
v -0.02495531 0.11304642 0.10215347
v -0.00993980 0.11693436 0.10215596
v -0.03228746 0.10854748 0.10191750
v -0.03146416 0.10854748 0.10178828
v -0.03310848 0.10854748 0.09996983
v -0.03194993 0.10882320 0.09708426
v -0.01355684 0.11764336 0.09708426
v -0.01557062 0.11768563 0.09968597
v -0.01477241 0.11787969 0.10040586
v -0.01568009 0.11771253 0.10040586
v -0.01618866 0.11760397 0.10040586
v -0.01680899 0.11746083 0.10040586
v -0.01782842 0.11721585 0.10040586
v -0.01953431 0.11667017 0.10105242
v -0.01884557 0.11677104 0.10122005
v -0.02180807 0.11572100 0.10137920
v -0.02250822 0.11563454 0.10101002
v -0.02357326 0.11464406 0.10199782
v -0.02552090 0.11358825 0.10196190
v -0.03048122 0.11038433 0.10190852
v -0.02980388 0.11060241 0.10197038
v -0.03257481 0.10854748 0.10191750
v -0.03323847 0.10854748 0.10040586
v -0.03242657 0.10932180 0.10040586
v -0.03141627 0.10933237 0.09708426
v -0.01552044 0.11722929 0.09708426
v -0.01578956 0.11717069 0.09708426
v -0.01654216 0.11700161 0.09708426
v -0.01680899 0.11734746 0.09938763
v -0.01782842 0.11709960 0.09938763
v -0.01884557 0.11693148 0.10040586
v -0.01960045 0.11669227 0.10040586
v -0.02010902 0.11652222 0.10040586
v -0.02088215 0.11625707 0.10040586
v -0.02189930 0.11590353 0.10040586
v -0.02256067 0.11565855 0.10040586
v -0.02306925 0.11542991 0.10040586
v -0.02393588 0.11502257 0.10040586
v -0.02456305 0.11463253 0.10105442
v -0.02392220 0.11478913 0.10140614
v -0.02425060 0.11445384 0.10173390
v -0.02590632 0.11373524 0.10137022
v -0.02654945 0.11359498 0.10099455
v -0.02777414 0.11271018 0.10119860
v -0.02962599 0.11158328 0.10104494
v -0.03076173 0.11065813 0.10122953
v -0.03268428 0.10854748 0.10181822
v -0.03307199 0.10854748 0.10102848
v -0.03182906 0.10970896 0.10125248
v -0.03191800 0.10978677 0.10040586
v -0.03103997 0.10966861 0.09708426
v -0.01804279 0.11665288 0.09708426
v -0.01856733 0.11650205 0.09708426
v -0.01950466 0.11666056 0.09965803
v -0.02251278 0.11563742 0.09975880
v -0.02460182 0.11465078 0.09968746
v -0.02464971 0.11467576 0.10040586
v -0.02515828 0.11441638 0.10040586
v -0.02597246 0.11396677 0.10040586
v -0.02658138 0.11361419 0.10040586
v -0.02708996 0.11330197 0.10040586
v -0.02790870 0.11279280 0.10040586
v -0.02841727 0.11247288 0.10040586
v -0.02902847 0.11205786 0.10040586
v -0.02966248 0.11161306 0.10040586
v -0.03017334 0.11122206 0.10040586
v -0.03082103 0.11071193 0.10040586
v -0.03133188 0.11029595 0.10040586
v -0.03282340 0.10868486 0.10142459
v -0.03296024 0.10854748 0.10142459
v -0.03070472 0.11062546 0.09958270
v -0.03090541 0.10978293 0.09708426
v -0.02113073 0.11564895 0.09708426
v -0.02161878 0.11547218 0.09708426
v -0.02328363 0.11466327 0.09708426
v -0.02559160 0.11350371 0.09708426
v -0.02654489 0.11359402 0.09978026
v -0.02961687 0.11157944 0.09971540
v -0.03074349 0.10991647 0.09708426
v -0.02681400 0.11275149 0.09708426
v -0.02828956 0.11239218 0.09938763
v -0.02801132 0.11194066 0.09708426
v -0.02856779 0.11155254 0.09708426
v -0.02870235 0.11145839 0.09708426
v -0.02977195 0.11067350 0.09708426
v -0.03028281 0.11029210 0.09708426
v -0.02732258 0.11241620 0.09708426
v -0.02694628 0.11266694 0.09708426
f 1 2 6
f 1 6 14
f 1 14 27
f 1 27 31
f 1 31 45
f 1 45 34
f 1 34 32
f 1 32 17
f 1 17 8
f 1 8 3
f 1 3 4
f 1 4 5
f 1 5 2
f 2 5 7
f 2 7 6
f 3 8 19
f 3 19 35
f 3 35 49
f 3 49 68
f 3 68 94
f 3 94 115
f 3 115 122
f 3 122 129
f 3 129 128
f 3 128 127
f 3 127 126
f 3 126 125
f 3 125 130
f 3 130 131
f 3 131 123
f 3 123 119
f 3 119 118
f 3 118 117
f 3 117 116
f 3 116 96
f 3 96 95
f 3 95 71
f 3 71 70
f 3 70 69
f 3 69 50
f 3 50 36
f 3 36 21
f 3 21 20
f 3 20 10
f 3 10 9
f 3 9 4
f 4 9 10
f 4 10 11
f 4 11 5
f 5 11 12
f 5 12 13
f 5 13 7
f 6 7 14
f 7 13 15
f 7 15 16
f 7 16 14
f 8 17 18
f 8 18 19
f 10 20 11
f 11 20 21
f 11 21 22
f 11 22 12
f 12 22 23
f 12 23 24
f 12 24 25
f 12 25 13
f 13 25 26
f 13 26 15
f 14 16 27
f 15 26 28
f 15 28 29
f 15 29 30
f 15 30 16
f 16 31 27
f 16 30 31
f 17 32 18
f 18 33 47
f 18 47 46
f 18 46 65
f 18 65 90
f 18 90 113
f 18 113 91
f 18 91 66
f 18 66 48
f 18 48 35
f 18 35 19
f 18 32 34
f 18 34 33
f 21 36 22
f 22 36 37
f 22 37 38
f 22 38 23
f 23 38 39
f 23 39 25
f 23 25 24
f 25 39 40
f 25 40 41
f 25 41 26
f 26 41 28
f 28 41 40
f 28 40 42
f 28 42 29
f 29 42 43
f 29 43 44
f 29 44 30
f 30 44 31
f 31 44 46
f 31 46 45
f 33 34 47
f 34 45 46
f 34 46 47
f 35 48 49
f 36 50 51
f 36 51 37
f 37 51 52
f 37 52 38
f 38 52 53
f 38 53 54
f 38 54 55
f 38 55 56
f 38 56 57
f 38 57 58
f 38 58 39
f 39 58 40
f 40 58 57
f 40 57 59
f 40 59 60
f 40 60 61
f 40 61 42
f 42 61 43
f 43 61 62
f 43 62 63
f 43 63 64
f 43 64 44
f 44 64 65
f 44 65 46
f 48 66 67
f 48 67 68
f 48 68 49
f 50 69 51
f 51 70 71
f 51 71 72
f 51 72 73
f 51 73 56
f 51 56 55
f 51 55 54
f 51 54 53
f 51 53 52
f 51 69 70
f 56 73 74
f 56 74 57
f 57 74 75
f 57 75 76
f 57 76 77
f 57 77 78
f 57 78 60
f 57 60 59
f 60 79 80
f 60 80 81
f 60 81 82
f 60 82 83
f 60 83 61
f 60 78 79
f 61 83 84
f 61 84 62
f 62 84 85
f 62 85 86
f 62 86 87
f 62 87 63
f 63 87 88
f 63 88 89
f 63 89 90
f 63 90 65
f 63 65 64
f 66 91 92
f 66 92 67
f 67 92 93
f 67 93 68
f 68 93 94
f 71 95 72
f 72 95 73
f 73 95 96
f 73 96 97
f 73 97 74
f 74 97 75
f 75 97 76
f 76 97 77
f 77 97 98
f 77 98 78
f 78 98 79
f 79 98 80
f 80 98 99
f 80 99 81
f 81 99 100
f 81 100 82
f 82 84 83
f 82 100 101
f 82 101 86
f 82 86 84
f 84 86 85
f 86 101 102
f 86 102 103
f 86 103 104
f 86 104 105
f 86 105 106
f 86 106 88
f 86 88 87
f 88 106 107
f 88 107 108
f 88 108 109
f 88 109 110
f 88 110 89
f 89 110 111
f 89 111 93
f 89 93 92
f 89 92 90
f 90 92 112
f 90 112 113
f 91 113 112
f 91 112 92
f 93 111 114
f 93 114 94
f 94 114 115
f 96 116 97
f 97 116 98
f 98 116 117
f 98 117 99
f 99 117 118
f 99 118 119
f 99 119 120
f 99 120 101
f 99 101 100
f 101 120 102
f 102 120 103
f 103 120 104
f 104 120 105
f 105 120 106
f 106 121 107
f 106 120 121
f 107 121 108
f 108 121 109
f 109 121 110
f 110 121 111
f 111 121 114
f 114 121 115
f 115 121 122
f 119 123 120
f 120 123 124
f 120 124 121
f 121 125 126
f 121 126 127
f 121 127 128
f 121 128 129
f 121 129 122
f 121 124 130
f 121 130 125
f 123 131 124
f 124 131 130

