# https://github.com/mikedh/trimesh
v 0.01772092 0.06833753 0.09708376
v 0.02054837 0.06833753 0.09708376
v 0.01836607 0.06833753 0.10040546
v 0.02178333 0.08533563 0.09708424
v 0.02174620 0.07965629 0.09708376
v 0.02130785 0.06953730 0.09708376
v 0.02111124 0.06833753 0.09948268
v 0.01840684 0.06833753 0.10059806
v 0.02271247 0.08533563 0.10040546
v 0.02431661 0.08533563 0.09708424
v 0.02436758 0.07965629 0.09708376
v 0.02139668 0.06872193 0.09985543
v 0.02236004 0.07158406 0.09708376
v 0.02118988 0.06833753 0.10035802
v 0.01886631 0.06833753 0.10144705
v 0.02311442 0.08533563 0.10127073
v 0.02510521 0.08533563 0.09938830
v 0.02515910 0.08452525 0.09938830
v 0.02436904 0.08451027 0.09708424
v 0.02419574 0.07872776 0.09708376
v 0.02441491 0.08127705 0.09708424
v 0.02440909 0.08045169 0.09708424
v 0.02438215 0.07970122 0.09708424
v 0.02236441 0.07088517 0.10040546
v 0.02209135 0.07026781 0.10040546
v 0.02139668 0.06872193 0.10001210
v 0.02249985 0.07191021 0.09708376
v 0.02231926 0.07099000 0.09938782
v 0.02118770 0.06833753 0.10038533
v 0.02158091 0.06916789 0.10037336
v 0.02137119 0.06877517 0.10069149
v 0.01892384 0.06833753 0.10150071
v 0.02393360 0.08533563 0.10161139
v 0.01941753 0.06833753 0.10190939
v 0.02506589 0.08533563 0.10040546
v 0.02508628 0.08147008 0.09938830
v 0.02507390 0.08452525 0.10040546
v 0.02394379 0.07739487 0.09708376
v 0.02503749 0.08045169 0.09938830
v 0.02487802 0.07943331 0.09938782
v 0.02452414 0.07841325 0.09866531
v 0.02252096 0.07149920 0.09938782
v 0.02255592 0.07139436 0.10040546
v 0.02250786 0.07151750 0.10109538
v 0.02342534 0.07383217 0.09989137
v 0.02349524 0.07534145 0.09708376
v 0.02383165 0.07535975 0.09938782
v 0.02088405 0.06833753 0.10128942
v 0.02153722 0.06945410 0.10120653
v 0.02393360 0.08452525 0.10169523
v 0.02455035 0.08533563 0.10133398
v 0.01996948 0.06833753 0.10197839
v 0.02023162 0.06924942 0.10197264
v 0.02498798 0.08533563 0.10059087
v 0.02498871 0.08147008 0.10040546
v 0.02469089 0.08452525 0.10131194
v 0.02445496 0.07785913 0.09885025
v 0.02492026 0.08045169 0.10040546
v 0.02478336 0.07943331 0.10040546
v 0.02491298 0.07965629 0.09938830
v 0.02464793 0.07841325 0.09938782
v 0.02448409 0.07773766 0.10014434
v 0.02342534 0.07383217 0.09990718
v 0.02287849 0.07230625 0.10040546
v 0.02339986 0.07390372 0.10058656
v 0.02350762 0.07458099 0.10105322
v 0.02263965 0.07230625 0.10125876
v 0.02140469 0.07069214 0.10194101
v 0.02167629 0.07031773 0.10149736
v 0.02412583 0.07637981 0.09938782
v 0.02385350 0.07535975 0.10040546
v 0.02076755 0.06833753 0.10150933
v 0.02041584 0.06833753 0.10195731
v 0.02393360 0.08147008 0.10159174
v 0.02470472 0.08533563 0.10125588
v 0.02137993 0.07181869 0.10193622
v 0.02139959 0.07181869 0.10193622
v 0.02140906 0.07128620 0.10194101
v 0.02001099 0.06833753 0.10197839
v 0.02052871 0.06924942 0.10197264
v 0.02465084 0.08147008 0.10119743
v 0.02461516 0.08045169 0.10115287
v 0.02448190 0.07774598 0.09938782
v 0.02435229 0.07723678 0.09938782
v 0.02456637 0.07965629 0.10107957
v 0.02463264 0.07965629 0.10091667
v 0.02448919 0.07866952 0.10097416
v 0.02442220 0.07799225 0.10082324
v 0.02456929 0.07836333 0.10045193
v 0.02435448 0.07739819 0.10045193
v 0.02412365 0.07637981 0.10040546
v 0.02354039 0.07428146 0.10031011
v 0.02326078 0.07342448 0.10031011
v 0.02361394 0.07535975 0.10120366
v 0.02044206 0.06847898 0.10196928
v 0.02118915 0.07001322 0.10188592
v 0.02374355 0.07637981 0.10130235
v 0.02291490 0.07535975 0.10161426
v 0.02019011 0.06833753 0.10197455
v 0.02455181 0.07943331 0.10105945
f 1 2 7
f 1 7 14
f 1 14 29
f 1 29 48
f 1 48 72
f 1 72 73
f 1 73 99
f 1 99 79
f 1 79 52
f 1 52 34
f 1 34 32
f 1 32 15
f 1 15 8
f 1 8 3
f 1 3 4
f 1 4 5
f 1 5 11
f 1 11 20
f 1 20 38
f 1 38 46
f 1 46 27
f 1 27 13
f 1 13 6
f 1 6 2
f 2 6 7
f 3 8 4
f 4 9 16
f 4 16 33
f 4 33 51
f 4 51 75
f 4 75 54
f 4 54 35
f 4 35 17
f 4 17 10
f 4 10 11
f 4 11 5
f 4 8 9
f 6 12 7
f 6 13 12
f 7 12 14
f 8 15 16
f 8 16 9
f 10 17 18
f 10 18 19
f 10 19 11
f 11 19 21
f 11 21 22
f 11 22 23
f 11 23 20
f 12 24 25
f 12 25 26
f 12 26 14
f 12 13 27
f 12 27 28
f 12 28 24
f 14 26 30
f 14 30 31
f 14 31 29
f 15 32 16
f 16 32 34
f 16 34 33
f 17 35 18
f 18 36 22
f 18 22 21
f 18 21 19
f 18 35 37
f 18 37 36
f 20 23 38
f 22 36 23
f 23 36 39
f 23 39 40
f 23 40 41
f 23 41 38
f 24 28 27
f 24 27 42
f 24 42 43
f 24 43 44
f 24 44 25
f 25 44 31
f 25 31 30
f 25 30 26
f 27 45 42
f 27 46 47
f 27 47 45
f 29 31 48
f 31 49 48
f 31 44 49
f 33 34 50
f 33 50 51
f 34 52 53
f 34 53 50
f 35 54 37
f 36 55 39
f 36 37 55
f 37 56 55
f 37 54 56
f 38 57 46
f 38 41 57
f 39 58 59
f 39 59 60
f 39 60 40
f 39 55 58
f 40 61 57
f 40 57 41
f 40 60 59
f 40 59 62
f 40 62 61
f 42 45 43
f 43 45 63
f 43 63 64
f 43 64 44
f 44 64 65
f 44 65 66
f 44 66 67
f 44 67 68
f 44 68 69
f 44 69 49
f 45 47 70
f 45 70 71
f 45 71 63
f 46 57 70
f 46 70 47
f 48 49 72
f 49 69 73
f 49 73 72
f 50 74 56
f 50 56 75
f 50 75 51
f 50 53 76
f 50 76 77
f 50 77 78
f 50 78 68
f 50 68 74
f 52 79 80
f 52 80 53
f 53 80 77
f 53 77 76
f 54 75 56
f 55 81 82
f 55 82 58
f 55 56 81
f 56 74 81
f 57 83 84
f 57 84 70
f 57 61 83
f 58 82 85
f 58 85 86
f 58 86 87
f 58 87 59
f 59 87 88
f 59 88 89
f 59 89 62
f 61 62 83
f 62 90 91
f 62 91 71
f 62 71 70
f 62 70 84
f 62 84 83
f 62 89 88
f 62 88 90
f 63 71 92
f 63 92 65
f 63 65 93
f 63 93 64
f 64 93 65
f 65 92 71
f 65 71 66
f 66 94 67
f 66 71 91
f 66 91 88
f 66 88 94
f 67 94 68
f 68 78 80
f 68 80 95
f 68 95 73
f 68 73 96
f 68 96 69
f 68 94 97
f 68 97 98
f 68 98 74
f 69 96 73
f 73 95 99
f 74 82 81
f 74 98 97
f 74 97 82
f 77 80 78
f 79 99 80
f 80 99 95
f 82 97 85
f 85 100 86
f 85 97 100
f 86 100 87
f 87 100 97
f 87 97 94
f 87 94 88
f 88 91 90

