# https://github.com/mikedh/trimesh
v -0.03013175 0.06028846 0.09834212
v -0.03193662 0.05940773 0.09708388
v -0.03210148 0.05940773 0.09834163
v -0.03013175 0.06009892 0.10041240
v -0.02487985 0.05940773 0.09708388
v -0.03184550 0.05932018 0.09708388
v -0.03013175 0.05700454 0.10031478
v -0.03013175 0.05699218 0.10040599
v -0.03013175 0.05718892 0.10142264
v -0.03013175 0.05721983 0.10148624
v -0.03013175 0.05795222 0.10207198
v -0.03013175 0.05800990 0.10210403
v -0.03013175 0.05903484 0.10205719
v -0.03013175 0.05905956 0.10205127
v -0.03013175 0.05978063 0.10136841
v -0.03013175 0.05980226 0.10134326
v -0.00993980 0.05364542 0.09708388
v -0.03141815 0.05894523 0.09708388
v -0.03013175 0.05721880 0.09945048
v -0.02935513 0.05664195 0.09938836
v -0.02952217 0.05652761 0.10040599
v -0.03004714 0.05692728 0.10040599
v -0.02938767 0.05662752 0.10142412
v -0.02866312 0.05641842 0.10200098
v -0.02977815 0.05734138 0.10204387
v -0.02901238 0.05701072 0.10211044
v -0.03008836 0.05799445 0.10210698
v -0.02900371 0.05809643 0.10210747
v -0.00993980 0.05148738 0.10198224
v -0.00993980 0.05172121 0.10160803
v -0.00993980 0.05181907 0.10144729
v -0.00993980 0.05038209 0.09708388
v -0.03126413 0.05881131 0.09708388
v -0.03113180 0.05870109 0.09708388
v -0.03075434 0.05839001 0.09708388
v -0.02999942 0.05777299 0.09708388
v -0.02961979 0.05746705 0.09708388
v -0.02902974 0.05705501 0.09708388
v -0.02884535 0.05629069 0.09938836
v -0.02764789 0.05540275 0.09964079
v -0.02901021 0.05617429 0.10040599
v -0.02649164 0.05447464 0.10093749
v -0.02768477 0.05537494 0.10123134
v -0.02887789 0.05626493 0.10142412
v -0.02748302 0.05551915 0.10191026
v -0.02563260 0.05438914 0.10201922
v -0.02680402 0.05527399 0.10206853
v -0.02597318 0.05495775 0.10212079
v -0.02791905 0.05711373 0.10211044
v -0.00993980 0.05091568 0.10200788
v -0.00993980 0.04976610 0.10040599
v -0.01069689 0.04981143 0.10040599
v -0.01477086 0.05029145 0.09962945
v -0.01033679 0.05042021 0.09708388
v -0.02837244 0.05661207 0.09708388
v -0.02691466 0.05569220 0.09708388
v -0.02643958 0.05450039 0.10015898
v -0.02825746 0.05566439 0.10040599
v -0.02786265 0.05628244 0.09708388
v -0.02649164 0.05447464 0.10083790
v -0.02450889 0.05343116 0.10098729
v -0.02597318 0.05430261 0.10133587
v -0.02631159 0.05459722 0.10161641
v -0.02242419 0.05243609 0.10093355
v -0.02189704 0.05231557 0.10115591
v -0.02093387 0.05210749 0.10150399
v -0.02130916 0.05250099 0.10189695
v -0.02063017 0.05234648 0.10199605
v -0.01986657 0.05222699 0.10204634
v -0.00993980 0.05071378 0.10199802
v -0.00993980 0.04997212 0.10116232
v -0.01171864 0.05014620 0.10132206
v -0.01375345 0.05025746 0.10114013
v -0.01477086 0.05032132 0.10106075
v -0.01545419 0.05037077 0.10098236
v -0.01477086 0.05020595 0.10040599
v -0.01553879 0.05034089 0.09976997
v -0.01375345 0.05092186 0.09708388
v -0.02653937 0.05546455 0.09708388
v -0.02689514 0.05477027 0.10046121
v -0.02612720 0.05522248 0.09708388
v -0.02597101 0.05513183 0.09708388
v -0.02512498 0.05465799 0.09708388
v -0.02411625 0.05413162 0.09708388
v -0.02440694 0.05348369 0.10003128
v -0.02450889 0.05343116 0.10070970
v -0.02088181 0.05178302 0.10040599
v -0.01955853 0.05136686 0.10107061
v -0.02242419 0.05243609 0.10077331
v -0.01988609 0.05168310 0.10141574
v -0.01884699 0.05157700 0.10177714
v -0.01823958 0.05147914 0.10190878
v -0.01756059 0.05139055 0.10196055
v -0.01681001 0.05134008 0.10199358
v -0.01579260 0.05130814 0.10200541
v -0.00993980 0.05037077 0.10196203
v -0.00993980 0.05005556 0.10144631
v -0.01070774 0.05013590 0.10151089
v -0.01037583 0.05038004 0.10195611
v -0.01560387 0.05033059 0.10040599
v -0.01884699 0.05128033 0.10126783
v -0.01611149 0.05045111 0.10040599
v -0.01477086 0.05108050 0.09708388
v -0.01884699 0.05114333 0.10040599
v -0.01948043 0.05138746 0.09981040
v -0.01809641 0.05186336 0.09708388
v -0.01782742 0.05179229 0.09708388
v -0.01712673 0.05160893 0.09708388
v -0.01635228 0.05141013 0.09708388
v -0.01598784 0.05132772 0.09708388
v -0.01581430 0.05128857 0.09708388
v -0.02331794 0.05373195 0.09708388
v -0.02238514 0.05245361 0.10009488
v -0.02401429 0.05323029 0.10038430
v -0.02282334 0.05264314 0.10042276
v -0.02198599 0.05225274 0.10042276
v -0.02170614 0.05229703 0.09963537
v -0.02010736 0.05150592 0.10040599
v -0.01959974 0.05135244 0.10040599
v -0.02088614 0.05270083 0.09708388
v -0.02026138 0.05247833 0.09708388
v -0.01974943 0.05232484 0.09708388
v -0.01884482 0.05206526 0.09708388
v -0.02309233 0.05362276 0.09708388
v -0.02295784 0.05355889 0.09708388
v -0.02258038 0.05338171 0.09708388
v -0.02189704 0.05309535 0.09708388
f 1 2 3
f 1 3 4
f 1 4 5
f 1 5 2
f 2 6 7
f 2 7 3
f 2 5 17
f 2 17 32
f 2 32 54
f 2 54 78
f 2 78 103
f 2 103 111
f 2 111 110
f 2 110 109
f 2 109 108
f 2 108 107
f 2 107 106
f 2 106 123
f 2 123 122
f 2 122 121
f 2 121 120
f 2 120 127
f 2 127 126
f 2 126 125
f 2 125 124
f 2 124 112
f 2 112 84
f 2 84 83
f 2 83 82
f 2 82 81
f 2 81 79
f 2 79 56
f 2 56 59
f 2 59 55
f 2 55 38
f 2 38 37
f 2 37 36
f 2 36 35
f 2 35 34
f 2 34 33
f 2 33 18
f 2 18 6
f 3 7 8
f 3 8 9
f 3 9 10
f 3 10 11
f 3 11 12
f 3 12 13
f 3 13 14
f 3 14 15
f 3 15 16
f 3 16 4
f 4 16 5
f 5 16 17
f 6 18 19
f 6 19 7
f 7 19 20
f 7 20 21
f 7 21 22
f 7 22 8
f 8 22 9
f 9 22 21
f 9 21 23
f 9 23 10
f 10 23 24
f 10 24 25
f 10 25 11
f 11 25 12
f 12 25 26
f 12 26 27
f 12 27 13
f 13 27 28
f 13 28 29
f 13 29 14
f 14 29 15
f 15 29 16
f 16 29 30
f 16 30 31
f 16 31 17
f 17 31 30
f 17 30 29
f 17 29 50
f 17 50 70
f 17 70 96
f 17 96 97
f 17 97 71
f 17 71 51
f 17 51 32
f 18 33 19
f 19 33 34
f 19 34 35
f 19 35 36
f 19 36 37
f 19 37 20
f 20 37 38
f 20 38 39
f 20 39 40
f 20 40 21
f 21 40 41
f 21 41 42
f 21 42 43
f 21 43 23
f 23 43 44
f 23 44 45
f 23 45 24
f 24 45 46
f 24 46 47
f 24 47 25
f 25 47 26
f 26 47 48
f 26 48 27
f 27 48 28
f 28 48 49
f 28 49 50
f 28 50 29
f 32 51 52
f 32 52 53
f 32 53 54
f 38 55 40
f 38 40 39
f 40 56 57
f 40 57 58
f 40 58 41
f 40 55 59
f 40 59 56
f 41 58 42
f 42 60 86
f 42 86 61
f 42 61 62
f 42 62 63
f 42 63 43
f 42 58 60
f 43 63 44
f 44 63 45
f 45 63 46
f 46 61 64
f 46 64 65
f 46 65 66
f 46 66 67
f 46 67 68
f 46 68 69
f 46 69 48
f 46 48 47
f 46 63 62
f 46 62 61
f 48 69 50
f 48 50 49
f 50 69 70
f 51 71 52
f 52 71 72
f 52 72 73
f 52 73 74
f 52 74 75
f 52 75 76
f 52 76 77
f 52 77 53
f 53 77 54
f 54 77 78
f 56 79 57
f 57 60 80
f 57 80 58
f 57 79 81
f 57 81 82
f 57 82 83
f 57 83 84
f 57 84 85
f 57 85 86
f 57 86 60
f 58 80 60
f 61 86 89
f 61 89 64
f 64 87 88
f 64 88 65
f 64 89 87
f 65 88 66
f 66 88 90
f 66 90 67
f 67 90 91
f 67 91 68
f 68 91 92
f 68 92 69
f 69 92 93
f 69 93 94
f 69 94 95
f 69 95 70
f 70 95 96
f 71 97 72
f 72 97 98
f 72 98 73
f 73 98 74
f 74 98 99
f 74 99 93
f 74 93 75
f 75 100 76
f 75 93 92
f 75 92 101
f 75 101 88
f 75 88 102
f 75 102 100
f 76 100 77
f 77 103 78
f 77 100 102
f 77 102 104
f 77 104 105
f 77 105 106
f 77 106 107
f 77 107 108
f 77 108 109
f 77 109 110
f 77 110 111
f 77 111 103
f 84 112 113
f 84 113 85
f 85 113 114
f 85 114 86
f 86 114 113
f 86 113 115
f 86 115 89
f 87 116 113
f 87 113 117
f 87 117 105
f 87 105 118
f 87 118 88
f 87 89 116
f 88 118 119
f 88 119 104
f 88 104 102
f 88 101 92
f 88 92 91
f 88 91 90
f 89 115 113
f 89 113 116
f 93 99 94
f 94 99 96
f 94 96 95
f 96 99 97
f 97 99 98
f 104 119 105
f 105 119 118
f 105 117 120
f 105 120 121
f 105 121 122
f 105 122 123
f 105 123 106
f 112 124 113
f 113 124 125
f 113 125 126
f 113 126 117
f 117 127 120
f 117 126 127

