# https://github.com/mikedh/trimesh
v 0.01603034 0.09625961 0.09708376
v -0.00962743 0.09625961 0.09708376
v 0.01603034 0.08222960 0.09708376
v 0.01603034 0.09625961 0.00244889
v -0.00962743 0.09259392 0.09708376
v -0.00962743 0.09625961 0.00360954
v 0.01275531 0.07972150 0.09708376
v 0.01603034 0.07955637 0.09666593
v 0.01603034 0.09625797 0.00241175
v 0.01600523 0.09625961 0.00243960
v 0.00032325 0.07955637 0.09708376
v -0.00962743 0.07955637 0.09617381
v 0.01220026 0.09625961 0.00222604
v -0.00962743 0.09567918 0.00360954
v 0.01218519 0.07955637 0.09708376
v 0.01603034 0.07955637 0.00292243
v 0.01476704 0.08961821 0.00244889
v 0.01374736 0.09267404 0.00231889
v 0.01374736 0.09369265 0.00230961
v 0.01603034 0.08452679 0.00270887
v 0.01578421 0.08452679 0.00262531
v 0.01476704 0.07955637 0.00264388
v -0.00962743 0.07955637 0.00370239
v 0.01273019 0.09471126 0.00226318
v 0.01578421 0.07955637 0.00281101
v 0.01603034 0.08045399 0.00286672
v 0.01603034 0.08350982 0.00273673
v 0.01578421 0.08249121 0.00268102
v 0.01578421 0.08147260 0.00271816
v 0.01578421 0.08045399 0.00276458
v 0.01603034 0.08147260 0.00281101
v 0.01603034 0.08214458 0.00278315
f 1 2 5
f 1 5 11
f 1 11 15
f 1 15 7
f 1 7 3
f 1 3 8
f 1 8 16
f 1 16 26
f 1 26 31
f 1 31 32
f 1 32 27
f 1 27 20
f 1 20 9
f 1 9 4
f 1 4 10
f 1 10 13
f 1 13 6
f 1 6 2
f 2 6 14
f 2 14 23
f 2 23 12
f 2 12 5
f 3 7 8
f 4 9 10
f 5 12 11
f 6 13 14
f 7 15 8
f 8 15 11
f 8 11 12
f 8 12 23
f 8 23 22
f 8 22 25
f 8 25 16
f 9 17 18
f 9 18 19
f 9 19 13
f 9 13 10
f 9 20 21
f 9 21 22
f 9 22 17
f 13 19 18
f 13 18 24
f 13 24 22
f 13 22 23
f 13 23 14
f 16 25 26
f 17 22 18
f 18 22 24
f 20 27 28
f 20 28 21
f 21 28 22
f 22 28 29
f 22 29 30
f 22 30 25
f 25 31 26
f 25 30 31
f 27 32 28
f 28 32 29
f 29 32 31
f 29 31 30

