# https://github.com/mikedh/trimesh
v -0.02693423 0.07202692 0.09708388
v -0.00550298 0.06008272 0.09708388
v -0.04109746 0.07202692 0.09708388
v -0.03843902 0.07202692 0.09834133
v -0.02918153 0.05940831 0.09834133
v -0.00560402 0.06004566 0.09708388
v -0.04088144 0.07139204 0.09708388
v -0.04087447 0.07141674 0.09735064
v -0.04107656 0.07202692 0.09735064
v -0.04094067 0.07202692 0.09834133
v -0.03209780 0.05940831 0.09834133
v -0.02488204 0.05940831 0.09708388
v -0.01273616 0.05946266 0.09708388
v -0.00683394 0.05987150 0.09708388
v -0.04075253 0.07101531 0.09708388
v -0.04069329 0.07090661 0.09735064
v -0.04098597 0.07202692 0.09805045
v -0.04079782 0.07163290 0.09834133
v -0.03242531 0.05971340 0.09834133
v -0.03193753 0.05940831 0.09708388
v -0.04070375 0.07088314 0.09708388
v -0.04040411 0.07026679 0.09735064
v -0.04022990 0.07026679 0.09834133
v -0.04059922 0.07110548 0.09834133
v -0.03235563 0.05980480 0.09708388
v -0.03245319 0.05974058 0.09834133
v -0.04042153 0.07026679 0.09708388
v -0.04027171 0.06995305 0.09708388
v -0.03982225 0.06902049 0.09708388
v -0.03989542 0.06922059 0.09725130
v -0.03985012 0.06950962 0.09834133
v -0.03287477 0.06031493 0.09708388
v -0.03294794 0.06023588 0.09834133
v -0.03325107 0.06068919 0.09708388
v -0.03970030 0.06878087 0.09708388
v -0.03956442 0.06899208 0.09834133
v -0.03346012 0.06075466 0.09834133
v -0.03351238 0.06095599 0.09708388
v -0.03951912 0.06849677 0.09708388
v -0.03874563 0.06765932 0.09834133
v -0.03910799 0.06823245 0.09834133
v -0.03536597 0.06299651 0.09834133
v -0.03535552 0.06297057 0.09708388
v -0.03484682 0.06238633 0.09708388
v -0.03450886 0.06200837 0.09708388
v -0.03438691 0.06187620 0.09708388
v -0.03387822 0.06133272 0.09708388
v -0.03850871 0.06698738 0.09708388
v -0.03883274 0.06752469 0.09735064
v -0.03841812 0.06716401 0.09834133
v -0.03577013 0.06349306 0.09834133
v -0.03671783 0.06460348 0.09708388
v -0.03578756 0.06348070 0.09708388
v -0.03763417 0.06574973 0.09708388
v -0.03756798 0.06588560 0.09834133
v -0.03848780 0.06701456 0.09735064
v -0.03789897 0.06638214 0.09834133
v -0.03635896 0.06424157 0.09834133
v -0.03698960 0.06507903 0.09834133
f 1 2 6
f 1 6 14
f 1 14 13
f 1 13 12
f 1 12 20
f 1 20 25
f 1 25 32
f 1 32 34
f 1 34 38
f 1 38 47
f 1 47 46
f 1 46 45
f 1 45 44
f 1 44 43
f 1 43 53
f 1 53 52
f 1 52 54
f 1 54 48
f 1 48 39
f 1 39 35
f 1 35 29
f 1 29 28
f 1 28 27
f 1 27 21
f 1 21 15
f 1 15 7
f 1 7 3
f 1 3 9
f 1 9 17
f 1 17 10
f 1 10 4
f 1 4 2
f 2 5 6
f 2 4 5
f 3 7 8
f 3 8 9
f 4 10 18
f 4 18 24
f 4 24 23
f 4 23 31
f 4 31 36
f 4 36 41
f 4 41 40
f 4 40 50
f 4 50 57
f 4 57 55
f 4 55 59
f 4 59 58
f 4 58 51
f 4 51 42
f 4 42 37
f 4 37 33
f 4 33 26
f 4 26 19
f 4 19 11
f 4 11 5
f 5 11 20
f 5 20 12
f 5 12 13
f 5 13 14
f 5 14 6
f 7 15 8
f 8 15 16
f 8 16 17
f 8 17 9
f 10 17 16
f 10 16 18
f 11 19 20
f 15 21 16
f 16 21 22
f 16 22 23
f 16 23 24
f 16 24 18
f 19 25 20
f 19 26 25
f 21 27 22
f 22 27 28
f 22 28 29
f 22 29 30
f 22 30 31
f 22 31 23
f 25 26 32
f 26 33 34
f 26 34 32
f 29 35 30
f 30 35 31
f 31 35 36
f 33 37 34
f 34 37 38
f 35 39 40
f 35 40 41
f 35 41 36
f 37 42 43
f 37 43 44
f 37 44 45
f 37 45 46
f 37 46 47
f 37 47 38
f 39 48 49
f 39 49 40
f 40 49 50
f 42 51 52
f 42 52 53
f 42 53 43
f 48 54 55
f 48 55 56
f 48 56 49
f 49 56 55
f 49 55 57
f 49 57 50
f 51 58 54
f 51 54 52
f 54 58 59
f 54 59 55

