# https://github.com/mikedh/trimesh
v 0.01745932 0.10115520 0.09826309
v 0.01764645 0.10115520 0.09938764
v 0.01992574 0.10115520 0.09826309
v 0.02253662 0.08533730 0.09826309
v 0.02268932 0.08533730 0.10019795
v 0.02271253 0.08533730 0.10040612
v 0.01772505 0.10115520 0.09980326
v 0.02034866 0.10115520 0.09897238
v 0.02007469 0.10090124 0.09826309
v 0.02465722 0.08533730 0.09826309
v 0.02311374 0.08533730 0.10127055
v 0.01784332 0.10115520 0.10040648
v 0.02009191 0.10087182 0.09826309
v 0.02039657 0.10115520 0.09911164
v 0.02135843 0.09923661 0.09902001
v 0.02050660 0.10057451 0.09867835
v 0.02464674 0.08554634 0.09826309
v 0.02473506 0.08554634 0.09840596
v 0.02474330 0.08533730 0.09840343
v 0.02393413 0.08533730 0.10161185
v 0.02340567 0.08701587 0.10194846
v 0.01815096 0.10115520 0.10106599
v 0.02067801 0.09978323 0.09826309
v 0.02051409 0.10115520 0.09954133
v 0.02219754 0.09773147 0.09935914
v 0.02237269 0.09717865 0.09900052
v 0.02152011 0.09855682 0.09867727
v 0.02111441 0.09891607 0.09826309
v 0.02336525 0.09267562 0.09826309
v 0.02443266 0.08904285 0.09890347
v 0.02509137 0.08554634 0.09938764
v 0.02510559 0.08533730 0.09938764
v 0.02482189 0.08533730 0.09860655
v 0.02455018 0.08533730 0.10133441
v 0.02348352 0.08701587 0.10194846
v 0.02340567 0.08714129 0.10194846
v 0.01986061 0.09980491 0.10148810
v 0.01879695 0.10115520 0.10133332
v 0.02053579 0.10115520 0.10011497
v 0.02245503 0.09736912 0.09967951
v 0.02260624 0.09680237 0.09935914
v 0.02300071 0.09573081 0.09938764
v 0.02250444 0.09649886 0.09872272
v 0.02213241 0.09679618 0.09826309
v 0.02209573 0.09687515 0.09826309
v 0.02168779 0.09774076 0.09826309
v 0.02358831 0.09267562 0.09862170
v 0.02315940 0.09373635 0.09826309
v 0.02349325 0.09343748 0.09876061
v 0.02409432 0.09165671 0.09938764
v 0.02452248 0.08962044 0.09960555
v 0.02472982 0.08860153 0.10040612
v 0.02496861 0.08656525 0.10040612
v 0.02506442 0.08554634 0.10040612
v 0.02446110 0.09025377 0.09982310
v 0.02460557 0.08962044 0.10040612
v 0.02506667 0.08533730 0.10040612
v 0.02470512 0.08533730 0.10125612
v 0.02386751 0.08663184 0.10173487
v 0.02348352 0.08714129 0.10194846
v 0.02087937 0.09776708 0.10159922
v 0.02087937 0.09878599 0.10145851
v 0.01995867 0.10091982 0.10128931
v 0.01989205 0.10115520 0.10126297
v 0.02053579 0.10115520 0.10035706
v 0.02245503 0.09736912 0.10012868
v 0.02300895 0.09573081 0.10040612
v 0.02346630 0.09437587 0.09967446
v 0.02330686 0.09471345 0.09935589
v 0.02339893 0.09411573 0.09899547
v 0.02285849 0.09471190 0.09826309
v 0.02257405 0.09559609 0.09826309
v 0.02312048 0.09386952 0.09826309
v 0.02387874 0.09267562 0.09938764
v 0.02447008 0.09024448 0.10097182
v 0.02452622 0.08962044 0.10105120
v 0.02459509 0.08860153 0.10113959
v 0.02465348 0.08758262 0.10122365
v 0.02469914 0.08656525 0.10125107
v 0.02437801 0.09081743 0.10040612
v 0.02447682 0.09030797 0.10040612
v 0.02419912 0.09165671 0.10040612
v 0.02498807 0.08533730 0.10059120
v 0.02386751 0.08752222 0.10172225
v 0.02393413 0.08962044 0.10148197
v 0.02291538 0.09267562 0.10158876
v 0.02189663 0.09573081 0.10164287
v 0.02055076 0.10064419 0.10111577
v 0.02198346 0.09681631 0.10136363
v 0.02173420 0.09776708 0.10127055
v 0.02019596 0.10115520 0.10105408
v 0.02047666 0.10115520 0.10072397
v 0.02063684 0.10091982 0.10049126
v 0.02238018 0.09720033 0.10080767
v 0.02261447 0.09681631 0.10044328
v 0.02138987 0.09930010 0.10091879
v 0.02343486 0.09422722 0.10093430
v 0.02346331 0.09435110 0.10040612
v 0.02394237 0.09267562 0.10040612
v 0.02357708 0.09374254 0.09935589
v 0.02351196 0.09369299 0.10105516
v 0.02365194 0.09267562 0.10121030
v 0.02378518 0.09165671 0.10130302
v 0.02400225 0.09060528 0.10131637
v 0.02291538 0.09369299 0.10147078
v 0.02264441 0.09573081 0.10123086
v 0.02150065 0.09878599 0.10106130
v 0.02251866 0.09652209 0.10107825
f 1 2 7
f 1 7 12
f 1 12 22
f 1 22 38
f 1 38 64
f 1 64 91
f 1 91 92
f 1 92 65
f 1 65 39
f 1 39 24
f 1 24 14
f 1 14 8
f 1 8 3
f 1 3 9
f 1 9 13
f 1 13 23
f 1 23 28
f 1 28 46
f 1 46 45
f 1 45 44
f 1 44 72
f 1 72 71
f 1 71 73
f 1 73 48
f 1 48 29
f 1 29 17
f 1 17 10
f 1 10 4
f 1 4 5
f 1 5 6
f 1 6 2
f 2 6 7
f 3 8 9
f 4 10 19
f 4 19 33
f 4 33 32
f 4 32 57
f 4 57 83
f 4 83 58
f 4 58 34
f 4 34 20
f 4 20 11
f 4 11 6
f 4 6 5
f 6 11 12
f 6 12 7
f 8 13 9
f 8 14 15
f 8 15 16
f 8 16 13
f 10 17 18
f 10 18 19
f 11 20 21
f 11 21 22
f 11 22 12
f 13 16 23
f 14 24 15
f 15 24 25
f 15 25 26
f 15 26 27
f 15 27 16
f 16 27 28
f 16 28 23
f 17 29 30
f 17 30 18
f 18 31 32
f 18 32 33
f 18 33 19
f 18 30 31
f 20 34 35
f 20 35 21
f 21 35 60
f 21 60 36
f 21 36 37
f 21 37 38
f 21 38 22
f 24 39 40
f 24 40 25
f 25 40 26
f 26 40 41
f 26 41 42
f 26 42 43
f 26 43 44
f 26 44 45
f 26 45 46
f 26 46 28
f 26 28 27
f 29 47 30
f 29 48 47
f 30 47 49
f 30 49 50
f 30 50 51
f 30 51 31
f 31 52 53
f 31 53 54
f 31 54 32
f 31 51 55
f 31 55 56
f 31 56 52
f 32 54 57
f 34 58 35
f 35 58 59
f 35 59 60
f 36 60 61
f 36 61 37
f 37 62 63
f 37 63 64
f 37 64 38
f 37 61 62
f 39 65 66
f 39 66 40
f 40 66 67
f 40 67 68
f 40 68 42
f 40 42 41
f 42 68 69
f 42 69 70
f 42 70 43
f 43 70 71
f 43 71 72
f 43 72 44
f 47 48 49
f 48 73 49
f 49 74 50
f 49 73 70
f 49 70 74
f 50 74 55
f 50 55 51
f 52 56 75
f 52 75 53
f 53 75 76
f 53 76 54
f 54 76 77
f 54 77 78
f 54 78 79
f 54 79 57
f 55 80 81
f 55 81 56
f 55 74 82
f 55 82 80
f 56 81 75
f 57 79 83
f 58 83 79
f 58 79 59
f 59 79 84
f 59 84 60
f 60 84 85
f 60 85 86
f 60 86 87
f 60 87 61
f 61 87 62
f 62 88 64
f 62 64 63
f 62 87 89
f 62 89 90
f 62 90 88
f 64 88 91
f 65 92 93
f 65 93 66
f 66 94 95
f 66 95 67
f 66 93 96
f 66 96 94
f 67 97 98
f 67 98 68
f 67 95 97
f 68 98 99
f 68 99 74
f 68 74 100
f 68 100 69
f 69 100 70
f 70 73 71
f 70 100 74
f 74 99 82
f 75 81 80
f 75 80 82
f 75 82 99
f 75 99 97
f 75 97 101
f 75 101 102
f 75 102 103
f 75 103 76
f 76 103 104
f 76 104 77
f 77 104 78
f 78 104 85
f 78 85 84
f 78 84 79
f 85 104 103
f 85 103 105
f 85 105 86
f 86 105 87
f 87 106 89
f 87 105 106
f 88 107 96
f 88 96 92
f 88 92 91
f 88 90 107
f 89 106 90
f 90 106 108
f 90 108 107
f 92 96 93
f 94 108 97
f 94 97 95
f 94 96 108
f 96 107 108
f 97 108 101
f 97 99 98
f 101 108 106
f 101 106 102
f 102 106 105
f 102 105 103

