# https://github.com/mikedh/trimesh
v 0.01471097 0.08533730 0.09708388
v 0.02431657 0.08533730 0.09708388
v 0.01471097 0.08533730 0.09774557
v 0.01471097 0.10007899 0.09708388
v 0.02465733 0.08533730 0.09826308
v 0.02430878 0.08554634 0.09708388
v 0.01511697 0.08533730 0.09790061
v 0.01471097 0.09667849 0.09802944
v 0.01471097 0.09978478 0.09729120
v 0.01745946 0.10115520 0.09826308
v 0.01695806 0.10115520 0.09708388
v 0.02465441 0.08539614 0.09826308
v 0.02253682 0.08533730 0.09826308
v 0.02427471 0.08581268 0.09708388
v 0.02464662 0.08554634 0.09826308
v 0.01535258 0.08533730 0.09798776
v 0.01471097 0.09784761 0.09804687
v 0.01556872 0.08533730 0.09806499
v 0.01471097 0.09898885 0.09778332
v 0.01992561 0.10115520 0.09826308
v 0.01471097 0.09873799 0.09787036
v 0.01471097 0.09827499 0.09799527
v 0.01659685 0.08533730 0.09826101
v 0.01962671 0.10115520 0.09708388
v 0.02411406 0.08683160 0.09708388
v 0.02349972 0.09063935 0.09708388
v 0.02336536 0.09267562 0.09826308
v 0.02009112 0.10087182 0.09826308
v 0.02025177 0.10009757 0.09708388
v 0.01982630 0.10082227 0.09708388
v 0.02335660 0.09137644 0.09708388
v 0.02315993 0.09373635 0.09826308
v 0.02067723 0.09978323 0.09826308
v 0.02032284 0.09996440 0.09708388
v 0.02309956 0.09267562 0.09708388
v 0.02288732 0.09369299 0.09708388
v 0.02251930 0.09495346 0.09708388
v 0.02312001 0.09386952 0.09826308
v 0.02111341 0.09891607 0.09826308
v 0.02051854 0.09958967 0.09708388
v 0.02285811 0.09471190 0.09826308
v 0.02241901 0.09525387 0.09708388
v 0.02257382 0.09559609 0.09826308
v 0.02168783 0.09774076 0.09826308
v 0.02209578 0.09687515 0.09826308
v 0.02213277 0.09679618 0.09826308
v 0.02173165 0.09693709 0.09708388
v 0.02231094 0.09553415 0.09708388
v 0.02211428 0.09602193 0.09708388
v 0.02181440 0.09674817 0.09708388
f 1 2 5
f 1 5 13
f 1 13 23
f 1 23 18
f 1 18 16
f 1 16 7
f 1 7 3
f 1 3 8
f 1 8 17
f 1 17 22
f 1 22 21
f 1 21 19
f 1 19 9
f 1 9 4
f 1 4 11
f 1 11 24
f 1 24 30
f 1 30 29
f 1 29 34
f 1 34 40
f 1 40 47
f 1 47 50
f 1 50 49
f 1 49 48
f 1 48 42
f 1 42 37
f 1 37 36
f 1 36 35
f 1 35 31
f 1 31 26
f 1 26 25
f 1 25 14
f 1 14 6
f 1 6 2
f 2 6 5
f 3 7 8
f 4 9 10
f 4 10 11
f 5 6 12
f 5 12 15
f 5 15 27
f 5 27 32
f 5 32 38
f 5 38 41
f 5 41 43
f 5 43 46
f 5 46 45
f 5 45 44
f 5 44 39
f 5 39 33
f 5 33 28
f 5 28 20
f 5 20 10
f 5 10 13
f 6 14 15
f 6 15 12
f 7 16 8
f 8 16 18
f 8 18 17
f 9 19 10
f 10 20 24
f 10 24 11
f 10 19 21
f 10 21 22
f 10 22 17
f 10 17 23
f 10 23 13
f 14 25 15
f 15 25 26
f 15 26 27
f 17 18 23
f 20 28 29
f 20 29 30
f 20 30 24
f 26 31 32
f 26 32 27
f 28 33 29
f 29 33 34
f 31 35 32
f 32 35 36
f 32 36 37
f 32 37 38
f 33 39 40
f 33 40 34
f 37 41 38
f 37 42 43
f 37 43 41
f 39 44 40
f 40 44 45
f 40 45 46
f 40 46 47
f 42 48 46
f 42 46 43
f 46 48 49
f 46 49 50
f 46 50 47

