# https://github.com/mikedh/trimesh
v -0.02759920 0.10854652 0.09708376
v -0.03023640 0.10854652 0.10124432
v -0.02695076 0.10850446 0.09708376
v -0.03223663 0.10854652 0.09708376
v -0.02680907 0.10795242 0.09708376
v -0.03052361 0.10854652 0.10139487
v -0.03672599 0.10139538 0.10191386
v -0.03786971 0.09959468 0.10175465
v -0.03246129 0.10832833 0.09708376
v -0.03438238 0.10718744 0.09938818
v -0.03387307 0.10768165 0.09938818
v -0.03311102 0.10854652 0.09996970
v -0.02766813 0.10693421 0.09708376
v -0.03146564 0.10854652 0.10178832
v -0.03253916 0.10738197 0.10195859
v -0.03829605 0.09959468 0.10199130
v -0.03761569 0.09959468 0.10141988
v -0.03412198 0.09974364 0.09708376
v -0.03284679 0.10795242 0.09708376
v -0.03449727 0.10627614 0.09708376
v -0.03485213 0.10667659 0.09938818
v -0.03452535 0.10733290 0.10040596
v -0.03348885 0.10732239 0.09708376
v -0.03386541 0.10694472 0.09708376
v -0.03401604 0.10782010 0.10040596
v -0.03323994 0.10854652 0.10040596
v -0.03229025 0.10854652 0.10191723
v -0.03231578 0.10849657 0.10195618
v -0.03234386 0.10795242 0.10196966
v -0.03315314 0.10699905 0.10198264
v -0.03711021 0.10177918 0.10199755
v -0.03892408 0.09959468 0.10199467
v -0.03751996 0.09959468 0.10128569
v -0.03432622 0.09960169 0.09708376
v -0.03492999 0.10576528 0.09708376
v -0.03676811 0.10451311 0.09964311
v -0.03536144 0.10607810 0.09938818
v -0.03549930 0.10624371 0.10040596
v -0.03498999 0.10682292 0.10040596
v -0.03435303 0.10716554 0.10142421
v -0.03296295 0.10854652 0.10142421
v -0.03584522 0.10564260 0.10123037
v -0.03484574 0.10665556 0.10142421
v -0.03307528 0.10854652 0.10102836
v -0.03257745 0.10854652 0.10191723
v -0.03263872 0.10849657 0.10195618
v -0.03302805 0.10787092 0.10197302
v -0.03418070 0.10597383 0.10199130
v -0.03713701 0.10278250 0.10198985
v -0.03885132 0.09980585 0.10199322
v -0.03904407 0.09959468 0.10193599
v -0.03573800 0.09959468 0.09708376
v -0.03534485 0.10526318 0.09708376
v -0.03642602 0.10510370 0.10040596
v -0.03591671 0.10573373 0.10040596
v -0.03574821 0.10477336 0.09708376
v -0.03585544 0.10464016 0.09708376
v -0.03636475 0.10398472 0.09708376
v -0.03769483 0.10338186 0.09986340
v -0.03677833 0.10453852 0.10115245
v -0.03466831 0.10646541 0.10195234
v -0.03268723 0.10854652 0.10181766
v -0.03404157 0.10685622 0.10197927
v -0.03677067 0.10353958 0.10197158
v -0.03770632 0.10239169 0.10194561
v -0.03781099 0.10184227 0.10197976
v -0.03485340 0.10591599 0.10197687
v -0.03872623 0.10036841 0.10194609
v -0.03942956 0.09959468 0.10153196
v -0.03902109 0.09959468 0.09708376
v -0.03682556 0.10459372 0.10040596
v -0.03771526 0.10340727 0.10098459
v -0.03664430 0.10360793 0.09708376
v -0.03759910 0.10322238 0.09918521
v -0.03771398 0.10340727 0.10040596
v -0.03733487 0.10391725 0.10040596
v -0.03879133 0.10148476 0.09968832
v -0.03855007 0.10207448 0.10040596
v -0.03806884 0.10286224 0.10040596
v -0.03650771 0.10421781 0.10183113
v -0.03711404 0.10381298 0.10140786
v -0.03744975 0.10307079 0.10166326
v -0.03786333 0.10278250 0.10136409
v -0.03878494 0.10149090 0.10109185
v -0.03965677 0.09959468 0.10122604
v -0.03973081 0.09959468 0.09950458
v -0.03894323 0.09974714 0.09708376
v -0.03674131 0.10347474 0.09708376
v -0.03684343 0.10332403 0.09708376
v -0.03725062 0.10268261 0.09708376
v -0.03788886 0.10165476 0.09708376
v -0.03801650 0.10143306 0.09708376
v -0.03836498 0.10082406 0.09708376
v -0.03867134 0.10025625 0.09708376
v -0.03887174 0.09988121 0.09708376
v -0.03984952 0.09959468 0.10040596
v -0.03960188 0.10007925 0.10040596
v -0.03921767 0.10082406 0.10040596
v -0.03882962 0.10156625 0.10040596
v -0.03977166 0.09959468 0.10096198
f 1 2 3
f 1 3 5
f 1 5 13
f 1 13 18
f 1 18 34
f 1 34 52
f 1 52 70
f 1 70 87
f 1 87 95
f 1 95 94
f 1 94 93
f 1 93 92
f 1 92 91
f 1 91 90
f 1 90 89
f 1 89 88
f 1 88 73
f 1 73 58
f 1 58 57
f 1 57 56
f 1 56 53
f 1 53 35
f 1 35 20
f 1 20 24
f 1 24 23
f 1 23 19
f 1 19 9
f 1 9 4
f 1 4 12
f 1 12 26
f 1 26 44
f 1 44 41
f 1 41 62
f 1 62 45
f 1 45 27
f 1 27 14
f 1 14 6
f 1 6 2
f 2 5 3
f 2 6 7
f 2 7 8
f 2 8 5
f 4 9 10
f 4 10 11
f 4 11 12
f 5 8 13
f 6 14 15
f 6 15 7
f 7 16 8
f 7 15 16
f 8 17 18
f 8 18 13
f 8 16 32
f 8 32 51
f 8 51 69
f 8 69 85
f 8 85 100
f 8 100 96
f 8 96 86
f 8 86 70
f 8 70 52
f 8 52 33
f 8 33 17
f 9 19 10
f 10 20 21
f 10 21 22
f 10 22 11
f 10 19 23
f 10 23 24
f 10 24 20
f 11 22 25
f 11 25 26
f 11 26 12
f 14 27 28
f 14 28 29
f 14 29 15
f 15 29 30
f 15 30 16
f 16 31 32
f 16 30 31
f 17 33 34
f 17 34 18
f 20 35 36
f 20 36 37
f 20 37 21
f 21 37 36
f 21 36 38
f 21 38 39
f 21 39 22
f 22 40 41
f 22 41 25
f 22 39 42
f 22 42 43
f 22 43 40
f 25 41 44
f 25 44 26
f 27 45 46
f 27 46 28
f 28 46 47
f 28 47 29
f 29 47 30
f 30 47 48
f 30 48 31
f 31 49 32
f 31 48 49
f 32 49 50
f 32 50 51
f 33 52 34
f 35 53 36
f 36 54 55
f 36 55 38
f 36 53 56
f 36 56 57
f 36 57 58
f 36 58 59
f 36 59 54
f 38 55 60
f 38 60 42
f 38 42 39
f 40 43 61
f 40 61 46
f 40 46 62
f 40 62 41
f 42 61 43
f 42 60 61
f 45 62 46
f 46 61 63
f 46 63 47
f 47 63 48
f 48 63 49
f 49 64 65
f 49 65 66
f 49 66 50
f 49 63 67
f 49 67 64
f 50 68 51
f 50 66 65
f 50 65 68
f 51 68 69
f 54 59 71
f 54 71 72
f 54 72 60
f 54 60 55
f 58 73 74
f 58 74 59
f 59 75 76
f 59 76 71
f 59 74 77
f 59 77 78
f 59 78 79
f 59 79 75
f 60 80 61
f 60 72 81
f 60 81 80
f 61 80 65
f 61 65 64
f 61 64 67
f 61 67 63
f 65 82 72
f 65 72 83
f 65 83 84
f 65 84 85
f 65 85 69
f 65 69 68
f 65 80 82
f 70 86 87
f 71 76 72
f 72 82 81
f 72 76 75
f 72 75 79
f 72 79 78
f 72 78 84
f 72 84 83
f 73 88 74
f 74 88 89
f 74 89 90
f 74 90 91
f 74 91 77
f 77 91 92
f 77 92 93
f 77 93 94
f 77 94 95
f 77 95 87
f 77 87 86
f 77 86 96
f 77 96 97
f 77 97 98
f 77 98 99
f 77 99 78
f 78 99 84
f 80 81 82
f 84 99 98
f 84 98 97
f 84 97 96
f 84 96 100
f 84 100 85

