# https://github.com/mikedh/trimesh
v 0.01937323 0.08533729 0.09708376
v 0.01832203 0.08533729 0.09784508
v 0.01826968 0.08514257 0.09781076
v 0.01888323 0.08458902 0.09708376
v 0.00200548 0.08533729 0.09708376
v 0.01782785 0.08533729 0.09805665
v 0.01770221 0.08497601 0.09802295
v 0.01754306 0.08452656 0.09798089
v 0.01770221 0.08465882 0.09794385
v 0.01805400 0.08452656 0.09765151
v 0.01825921 0.08370480 0.09708376
v 0.01734204 0.08398402 0.09787961
v 0.01770221 0.08425713 0.09776493
v -0.00201922 0.07754099 0.09708376
v -0.00201922 0.07748833 0.09720995
v -0.00201922 0.07740872 0.09739264
v -0.00201922 0.07719318 0.09777958
v -0.00201922 0.07703520 0.09804326
v 0.00217090 0.08533729 0.09740478
v 0.01770221 0.08533729 0.09809724
v 0.01770221 0.08523687 0.09807674
v 0.01680178 0.08452656 0.09821799
v 0.01795558 0.08337168 0.09708376
v 0.01670546 0.08358968 0.09796227
v 0.01629922 0.08299448 0.09786349
v -0.00201922 0.07282597 0.09708376
v -0.00201922 0.07682823 0.09821799
v 0.00268813 0.08533729 0.09821025
v 0.01769802 0.08533729 0.09809808
v 0.01680178 0.08533729 0.09824436
v 0.01476430 0.08350762 0.09838499
v 0.01374871 0.08248869 0.09839817
v 0.01578409 0.08350762 0.09821715
v 0.01770221 0.08315859 0.09708376
v 0.01578409 0.08284630 0.09796583
v 0.00606158 0.07796595 0.09886400
v 0.01441670 0.08188003 0.09795055
v 0.01275405 0.07971969 0.09708376
v 0.01723315 0.08278139 0.09708376
v 0.01762054 0.08309246 0.09708376
v -0.00179306 0.07289578 0.09708376
v 0.00000151 0.07383266 0.09785973
v -0.00067905 0.07370284 0.09800789
v -0.00201922 0.07329013 0.09785868
v -0.00201922 0.07641673 0.09853085
v 0.00357808 0.08533729 0.09870265
v -0.00201922 0.07594523 0.09873112
v 0.01659447 0.08533729 0.09826089
v 0.00458321 0.07841663 0.09913145
v 0.00567419 0.07835173 0.09900567
v 0.00662068 0.07871301 0.09892385
v 0.00713791 0.07892120 0.09887928
v 0.00538312 0.07771857 0.09895420
v 0.01476221 0.08247155 0.09812550
v 0.00416859 0.07684047 0.09890439
v 0.00484915 0.07704009 0.09878280
v 0.00290381 0.07593911 0.09882570
v 0.00613906 0.07687476 0.09788902
v 0.00857859 0.07762304 0.09708376
v -0.00045290 0.07332564 0.09708376
v 0.00134168 0.07465932 0.09810059
v 0.00050826 0.07445235 0.09829291
v 0.00024441 0.07364406 0.09708376
v 0.00050826 0.07496671 0.09880206
v -0.00004666 0.07485894 0.09887572
v -0.00152712 0.07358405 0.09811524
v -0.00201922 0.07353506 0.09813868
v -0.00201922 0.07535984 0.09883931
v -0.00132610 0.07606648 0.09891234
v 0.00400107 0.08433061 0.09890292
v 0.00412043 0.08433061 0.09890292
v 0.00356552 0.07841663 0.09916639
v 0.00254783 0.07739770 0.09922143
v 0.00356552 0.07739770 0.09913688
v 0.00356552 0.07664942 0.09898056
v 0.00337915 0.07569540 0.09814726
v 0.00222535 0.07580562 0.09891862
v -0.00072721 0.07482710 0.09888974
v -0.00201922 0.07396860 0.09842203
v 0.00152804 0.07567703 0.09897742
v 0.00050826 0.07547618 0.09900463
v -0.00201922 0.07514184 0.09881336
v -0.00187264 0.07535984 0.09886463
v 0.00050826 0.07637877 0.09914253
v 0.00152804 0.07739770 0.09921327
v 0.00254783 0.07841663 0.09918711
v 0.00152804 0.07637877 0.09915425
v 0.00255620 0.07631876 0.09904041
v -0.00117114 0.07482710 0.09888974
v -0.00201922 0.07438744 0.09864678
v -0.00136379 0.07535984 0.09891255
f 1 2 3
f 1 3 4
f 1 4 11
f 1 11 23
f 1 23 34
f 1 34 40
f 1 40 39
f 1 39 38
f 1 38 59
f 1 59 63
f 1 63 60
f 1 60 41
f 1 41 26
f 1 26 14
f 1 14 5
f 1 5 19
f 1 19 28
f 1 28 46
f 1 46 48
f 1 48 30
f 1 30 29
f 1 29 20
f 1 20 6
f 1 6 2
f 2 6 7
f 2 7 8
f 2 8 9
f 2 9 3
f 3 10 11
f 3 11 4
f 3 9 12
f 3 12 13
f 3 13 10
f 5 14 15
f 5 15 16
f 5 16 17
f 5 17 18
f 5 18 19
f 6 20 21
f 6 21 7
f 7 21 22
f 7 22 8
f 8 22 12
f 8 12 9
f 10 13 11
f 11 13 12
f 11 12 23
f 12 22 24
f 12 24 25
f 12 25 23
f 14 26 44
f 14 44 67
f 14 67 79
f 14 79 90
f 14 90 82
f 14 82 68
f 14 68 47
f 14 47 45
f 14 45 27
f 14 27 18
f 14 18 17
f 14 17 16
f 14 16 15
f 18 27 28
f 18 28 19
f 20 29 22
f 20 22 21
f 22 29 30
f 22 30 31
f 22 31 32
f 22 32 33
f 22 33 24
f 23 25 34
f 24 33 25
f 25 33 35
f 25 35 36
f 25 36 37
f 25 37 38
f 25 38 39
f 25 39 40
f 25 40 34
f 26 41 42
f 26 42 43
f 26 43 44
f 27 45 28
f 28 45 47
f 28 47 46
f 30 48 31
f 31 48 49
f 31 49 50
f 31 50 51
f 31 51 52
f 31 52 32
f 32 52 53
f 32 53 33
f 33 53 36
f 33 36 54
f 33 54 35
f 35 54 36
f 36 53 55
f 36 55 56
f 36 56 37
f 37 56 38
f 38 56 57
f 38 57 58
f 38 58 59
f 41 60 42
f 42 61 57
f 42 57 62
f 42 62 43
f 42 60 63
f 42 63 59
f 42 59 58
f 42 58 61
f 43 62 64
f 43 64 65
f 43 65 66
f 43 66 44
f 44 66 67
f 46 47 68
f 46 68 69
f 46 69 70
f 46 70 71
f 46 71 48
f 48 71 49
f 49 71 72
f 49 72 73
f 49 73 74
f 49 74 50
f 50 74 53
f 50 53 51
f 51 53 52
f 53 74 75
f 53 75 55
f 55 75 57
f 55 57 56
f 57 76 58
f 57 75 77
f 57 77 64
f 57 64 62
f 57 61 76
f 58 76 61
f 64 77 65
f 65 78 79
f 65 79 67
f 65 67 66
f 65 77 80
f 65 80 81
f 65 81 78
f 68 82 83
f 68 83 69
f 69 83 84
f 69 84 85
f 69 85 70
f 70 85 86
f 70 86 71
f 71 86 72
f 72 86 73
f 73 85 87
f 73 87 74
f 73 86 85
f 74 87 88
f 74 88 75
f 75 88 77
f 77 88 80
f 78 89 79
f 78 81 89
f 79 89 90
f 80 88 87
f 80 87 81
f 81 87 89
f 82 90 89
f 82 89 83
f 83 89 91
f 83 91 84
f 84 87 85
f 84 91 89
f 84 89 87

