# https://github.com/mikedh/trimesh
v -0.04354505 0.08418238 0.10040590
v -0.04347628 0.08418238 0.10006001
v -0.04337619 0.08418238 0.10107863
v -0.04351067 0.08554633 0.10040590
v -0.04331430 0.08418238 0.09938776
v -0.04328527 0.08418238 0.10142453
v -0.04327839 0.08452790 0.10142453
v -0.04325242 0.08554633 0.10142453
v -0.04321192 0.08656476 0.10142453
v -0.04346100 0.08656476 0.10040590
v -0.04258387 0.08755906 0.09708376
v -0.04270459 0.08451583 0.09708376
v -0.04271300 0.08418238 0.09708376
v -0.04302702 0.08418238 0.10179827
v -0.04287498 0.08554633 0.10198489
v -0.04285206 0.08656476 0.10197903
v -0.04281844 0.08740365 0.10196193
v -0.04306064 0.08767976 0.10152566
v -0.04304307 0.08860163 0.10137323
v -0.04338765 0.08758320 0.10040590
v -0.04295902 0.08962006 0.09947326
v -0.04249142 0.08831949 0.09708376
v -0.03926409 0.08418238 0.09708376
v -0.04288797 0.08418238 0.10199222
v -0.04288720 0.08452790 0.10199076
v -0.04128728 0.09366664 0.10206697
v -0.04184046 0.09267386 0.10199662
v -0.04296666 0.08962006 0.10125353
v -0.04179767 0.09330906 0.10196780
v -0.04328298 0.08860163 0.10040590
v -0.04287269 0.09063850 0.09965011
v -0.04233250 0.08935301 0.09708376
v -0.04157915 0.08418238 0.10119979
v -0.03819748 0.08748664 0.09708376
v -0.04262437 0.08418238 0.10199222
v -0.04047587 0.09369229 0.10207479
v -0.04125214 0.09267386 0.10206550
v -0.04008391 0.09674910 0.10205818
v -0.04097632 0.09471223 0.10205329
v -0.04288185 0.09063850 0.10110404
v -0.03986539 0.09776753 0.10201372
v -0.04072265 0.09620744 0.10192431
v -0.04165021 0.09398801 0.10181048
v -0.04196576 0.09366664 0.10145238
v -0.04281996 0.09131142 0.10098776
v -0.04314545 0.08962006 0.10040590
v -0.04280851 0.09129331 0.09981818
v -0.04213079 0.09063850 0.09708376
v -0.04217358 0.09037144 0.09708376
v -0.04211551 0.08418238 0.10170886
v -0.03752129 0.09959317 0.10128578
v -0.03761680 0.09959317 0.10142013
v -0.03787199 0.09959317 0.10175479
v -0.03710641 0.09274628 0.09708376
v -0.03829833 0.09959317 0.10199124
v -0.03855734 0.09878596 0.10200346
v -0.03949177 0.09674910 0.10205818
v -0.03892485 0.09959317 0.10199467
v -0.03975231 0.09835445 0.10195411
v -0.04059276 0.09674910 0.10177628
v -0.04081663 0.09743861 0.10105372
v -0.04094423 0.09674910 0.10126673
v -0.04186108 0.09448742 0.10113140
v -0.04271682 0.09188778 0.10040590
v -0.04283143 0.09137931 0.10040590
v -0.04297430 0.09063850 0.10040590
v -0.04221713 0.09369229 0.10040590
v -0.04251435 0.09267386 0.10040590
v -0.04180073 0.09231929 0.09708376
v -0.04194972 0.09165693 0.09708376
v -0.04186032 0.09449647 0.09962080
v -0.04232639 0.09267386 0.09938776
v -0.04145308 0.09369229 0.09708376
v -0.04167313 0.09282926 0.09708376
v -0.03574030 0.09959317 0.09708376
v -0.03904557 0.09959317 0.10193604
v -0.03995861 0.09873014 0.10143625
v -0.03955977 0.09903341 0.10178361
v -0.03981649 0.09946945 0.10110453
v -0.04026193 0.09878596 0.10040590
v -0.04063250 0.09802252 0.10040590
v -0.04084796 0.09751405 0.10040590
v -0.04114441 0.09674910 0.10040590
v -0.04152261 0.09573067 0.10040590
v -0.04173502 0.09514676 0.10040590
v -0.04190998 0.09463679 0.10040590
v -0.04134994 0.09573067 0.09938776
v -0.04066688 0.09602186 0.09708376
v -0.04092742 0.09529915 0.09708376
v -0.04113677 0.09471223 0.09708376
v -0.04080975 0.09741749 0.09970679
v -0.03902341 0.09959317 0.09708376
v -0.03943141 0.09959317 0.10153201
v -0.03965681 0.09959317 0.10122618
v -0.03977294 0.09959317 0.10096187
v -0.03986386 0.09956752 0.10040590
v -0.03981802 0.09948303 0.09960028
v -0.04044836 0.09656201 0.09708376
v -0.03981343 0.09806024 0.09708376
v -0.04037195 0.09674910 0.09708376
v -0.03973092 0.09959317 0.09950501
v -0.03961020 0.09848722 0.09708376
v -0.03985011 0.09959317 0.10040590
f 1 2 5
f 1 5 13
f 1 13 23
f 1 23 33
f 1 33 50
f 1 50 35
f 1 35 24
f 1 24 14
f 1 14 6
f 1 6 3
f 1 3 4
f 1 4 2
f 2 4 5
f 3 6 7
f 3 7 8
f 3 8 4
f 4 8 9
f 4 9 10
f 4 10 11
f 4 11 5
f 5 12 13
f 5 11 12
f 6 14 15
f 6 15 7
f 7 15 8
f 8 15 16
f 8 16 9
f 9 16 17
f 9 17 18
f 9 18 19
f 9 19 20
f 9 20 10
f 10 20 11
f 11 20 21
f 11 21 22
f 11 22 32
f 11 32 49
f 11 49 48
f 11 48 70
f 11 70 69
f 11 69 74
f 11 74 73
f 11 73 90
f 11 90 89
f 11 89 88
f 11 88 98
f 11 98 100
f 11 100 99
f 11 99 102
f 11 102 92
f 11 92 75
f 11 75 54
f 11 54 34
f 11 34 23
f 11 23 13
f 11 13 12
f 14 24 25
f 14 25 15
f 15 25 26
f 15 26 16
f 16 26 27
f 16 27 17
f 17 28 19
f 17 19 18
f 17 27 29
f 17 29 28
f 19 28 30
f 19 30 20
f 20 30 21
f 21 30 31
f 21 31 22
f 22 31 32
f 23 34 33
f 24 35 36
f 24 36 37
f 24 37 26
f 24 26 25
f 26 29 27
f 26 37 36
f 26 36 38
f 26 38 39
f 26 39 29
f 28 40 30
f 28 29 40
f 29 39 41
f 29 41 42
f 29 42 43
f 29 43 44
f 29 44 45
f 29 45 40
f 30 40 45
f 30 45 46
f 30 46 31
f 31 47 48
f 31 48 49
f 31 49 32
f 31 46 47
f 33 34 51
f 33 51 52
f 33 52 53
f 33 53 50
f 34 54 51
f 35 50 53
f 35 53 55
f 35 55 56
f 35 56 57
f 35 57 36
f 36 57 38
f 38 57 58
f 38 58 41
f 38 41 39
f 41 58 59
f 41 59 42
f 42 60 61
f 42 61 62
f 42 62 43
f 42 59 60
f 43 63 44
f 43 62 61
f 43 61 63
f 44 63 45
f 45 64 65
f 45 65 66
f 45 66 46
f 45 63 67
f 45 67 68
f 45 68 64
f 46 66 47
f 47 69 70
f 47 70 48
f 47 66 65
f 47 65 64
f 47 64 68
f 47 68 71
f 47 71 72
f 47 72 73
f 47 73 74
f 47 74 69
f 51 54 75
f 51 75 92
f 51 92 101
f 51 101 103
f 51 103 95
f 51 95 94
f 51 94 93
f 51 93 76
f 51 76 58
f 51 58 55
f 51 55 53
f 51 53 52
f 55 58 57
f 55 57 56
f 58 76 59
f 59 77 61
f 59 61 60
f 59 76 78
f 59 78 77
f 61 77 79
f 61 79 80
f 61 80 81
f 61 81 82
f 61 82 83
f 61 83 84
f 61 84 85
f 61 85 63
f 63 85 86
f 63 86 67
f 67 86 71
f 67 71 68
f 71 87 88
f 71 88 89
f 71 89 90
f 71 90 73
f 71 73 72
f 71 86 85
f 71 85 84
f 71 84 91
f 71 91 87
f 76 93 78
f 77 78 79
f 78 93 79
f 79 93 94
f 79 94 95
f 79 95 96
f 79 96 80
f 80 96 97
f 80 97 81
f 81 97 91
f 81 91 82
f 82 91 83
f 83 91 84
f 87 91 88
f 88 91 98
f 91 97 99
f 91 99 100
f 91 100 98
f 92 97 101
f 92 102 97
f 95 103 96
f 96 103 97
f 97 103 101
f 97 102 99

