# https://github.com/mikedh/trimesh
v 0.01101821 0.06012481 0.09708424
v 0.01101821 0.05935436 0.10037330
v 0.01101821 0.05704401 0.09708424
v 0.00174138 0.05585516 0.09708376
v 0.00152802 0.05585312 0.09708376
v 0.00050843 0.05575005 0.09708376
v 0.01071664 0.06008297 0.09708424
v 0.01101821 0.05929415 0.10052175
v 0.01018941 0.05999521 0.09708424
v -0.00993775 0.05364482 0.09708376
v 0.01101821 0.05635928 0.09860499
v 0.00962320 0.05608069 0.09708424
v 0.00174138 0.05229474 0.09708376
v 0.01101821 0.05903495 0.10094147
v -0.00993775 0.05181920 0.10144677
v -0.00993775 0.05172124 0.10160731
v -0.00993775 0.05038238 0.09708376
v 0.00937497 0.05536126 0.09836950
v 0.01101821 0.05618886 0.09938736
v 0.01069203 0.05596129 0.09938736
v 0.00819742 0.05445406 0.09881581
v 0.00866926 0.05544698 0.09708424
v -0.00428179 0.05034666 0.09708376
v 0.00830820 0.05524186 0.09708424
v 0.00743631 0.05478673 0.09708424
v 0.00626491 0.05420710 0.09708424
v 0.00440216 0.05329990 0.09708424
v 0.00419291 0.05320500 0.09708424
v 0.00356310 0.05294172 0.09708424
v 0.00217629 0.05239883 0.09708424
v 0.01101821 0.05886045 0.10113682
v -0.00993775 0.05148755 0.10198157
v -0.00993775 0.04976499 0.10040522
v -0.00973670 0.05035687 0.09708376
v 0.01101821 0.05621437 0.09978290
v 0.01003145 0.05559902 0.10040570
v 0.01008068 0.05556127 0.09938736
v 0.00957191 0.05524900 0.09938736
v 0.00871849 0.05474081 0.09938736
v 0.00820972 0.05444589 0.09938736
v 0.00555099 0.05325296 0.10040570
v 0.00458064 0.05285294 0.09938736
v 0.00384005 0.05253149 0.09938736
v -0.00462029 0.05026605 0.09708376
v 0.00109926 0.05139877 0.09979934
v -0.00281088 0.05033442 0.09965524
v 0.00333128 0.05232740 0.09938736
v 0.00254351 0.05202534 0.09938736
v 0.01101821 0.05851655 0.10126786
v -0.00993775 0.05091609 0.10200768
v -0.00967516 0.05091609 0.10202364
v -0.00967516 0.05149877 0.10199076
v -0.00993775 0.04997215 0.10116197
v -0.00967721 0.05034973 0.09708376
v -0.00865762 0.05027523 0.09708376
v -0.00967516 0.04974969 0.10040522
v -0.00967516 0.05002726 0.10142405
v 0.01101821 0.05627968 0.10028385
v 0.00935446 0.05537860 0.10103334
v 0.00952268 0.05528472 0.10040570
v 0.01075767 0.05613885 0.10043810
v 0.00817895 0.05446222 0.09999808
v 0.00605976 0.05348563 0.10040570
v 0.00536431 0.05334175 0.10108315
v 0.00109311 0.05139673 0.10095743
v 0.00254351 0.05195084 0.10040570
v 0.00164496 0.05157225 0.10040522
v -0.00458336 0.04997521 0.10040522
v -0.00560295 0.04982520 0.10040522
v -0.00560295 0.05016910 0.09708376
v 0.00113619 0.05138448 0.10040522
v 0.00050843 0.05120488 0.10040522
v -0.00275959 0.05032013 0.10040522
v -0.00356582 0.05014665 0.10040522
v 0.00967244 0.05702564 0.10150431
v 0.01101821 0.05722974 0.10124562
v -0.00993775 0.05071301 0.10199801
v -0.00967516 0.05036605 0.10196513
v -0.00860018 0.05083751 0.10199801
v -0.00356582 0.05135795 0.10195643
v -0.00356582 0.05148755 0.10195643
v -0.00865762 0.05151102 0.10199946
v -0.00993775 0.05005481 0.10144629
v -0.00865762 0.04987929 0.09938833
v -0.00865762 0.04970989 0.10040522
v -0.00763803 0.04970071 0.10040522
v -0.00662049 0.05008951 0.10137182
v -0.00890175 0.05037932 0.10195304
v -0.00993775 0.05037013 0.10196126
v 0.01101821 0.05643989 0.10068326
v 0.01101821 0.05652765 0.10085491
v 0.01046226 0.05628070 0.10110587
v 0.00968680 0.05596741 0.10125529
v 0.00661777 0.05416935 0.10120742
v 0.00803945 0.05454794 0.10067697
v 0.00857284 0.05475714 0.10036460
v 0.00566178 0.05388872 0.10130703
v 0.00458064 0.05319888 0.10119436
v 0.00147058 0.05190084 0.10120984
v 0.00050843 0.05131917 0.10107493
v -0.00290730 0.05036299 0.10099466
v -0.00356582 0.05030993 0.10109524
v -0.00458336 0.05023033 0.10122096
v -0.00560295 0.05014257 0.10132057
v -0.00662049 0.04973540 0.10040522
v 0.00865490 0.05600721 0.10146756
v 0.01075767 0.05696339 0.10124368
v -0.00292781 0.05146204 0.10194482
v -0.00292781 0.05139673 0.10194482
v 0.01101821 0.05707565 0.10117792
v -0.00822270 0.05044667 0.10192500
v 0.00050843 0.05193452 0.10146273
v -0.00051116 0.05119161 0.10123546
v -0.00152869 0.05106201 0.10134523
v -0.00356582 0.05084873 0.10160441
f 1 2 8
f 1 8 14
f 1 14 31
f 1 31 49
f 1 49 76
f 1 76 110
f 1 110 91
f 1 91 90
f 1 90 58
f 1 58 35
f 1 35 19
f 1 19 11
f 1 11 3
f 1 3 13
f 1 13 4
f 1 4 5
f 1 5 6
f 1 6 7
f 1 7 2
f 2 7 9
f 2 9 10
f 2 10 8
f 3 11 12
f 3 12 13
f 4 13 23
f 4 23 44
f 4 44 70
f 4 70 55
f 4 55 54
f 4 54 34
f 4 34 17
f 4 17 10
f 4 10 6
f 4 6 5
f 6 10 9
f 6 9 7
f 8 10 15
f 8 15 16
f 8 16 14
f 10 17 33
f 10 33 53
f 10 53 83
f 10 83 89
f 10 89 77
f 10 77 50
f 10 50 32
f 10 32 16
f 10 16 15
f 11 18 12
f 11 19 20
f 11 20 21
f 11 21 18
f 12 18 22
f 12 22 13
f 13 22 24
f 13 24 25
f 13 25 26
f 13 26 27
f 13 27 28
f 13 28 29
f 13 29 30
f 13 30 23
f 14 16 32
f 14 32 31
f 17 34 33
f 18 21 22
f 19 35 20
f 20 35 36
f 20 36 37
f 20 37 21
f 21 25 24
f 21 24 22
f 21 37 38
f 21 38 39
f 21 39 40
f 21 40 41
f 21 41 42
f 21 42 43
f 21 43 29
f 21 29 28
f 21 28 27
f 21 27 26
f 21 26 25
f 23 30 45
f 23 45 46
f 23 46 44
f 29 43 47
f 29 47 30
f 30 47 48
f 30 48 45
f 31 32 49
f 32 50 51
f 32 51 52
f 32 52 49
f 33 34 54
f 33 54 55
f 33 55 56
f 33 56 57
f 33 57 53
f 35 58 36
f 36 59 60
f 36 60 37
f 36 58 61
f 36 61 59
f 37 60 38
f 38 60 39
f 39 60 62
f 39 62 40
f 40 62 63
f 40 63 41
f 41 63 64
f 41 64 65
f 41 65 66
f 41 66 43
f 41 43 42
f 43 66 67
f 43 67 45
f 43 45 47
f 44 46 68
f 44 68 69
f 44 69 70
f 45 67 71
f 45 71 72
f 45 72 46
f 45 48 47
f 46 72 73
f 46 73 74
f 46 74 68
f 49 75 76
f 49 52 75
f 50 77 51
f 51 78 79
f 51 79 80
f 51 80 81
f 51 81 82
f 51 82 52
f 51 77 78
f 52 82 75
f 53 57 83
f 55 70 84
f 55 84 56
f 56 85 57
f 56 84 85
f 57 85 86
f 57 86 87
f 57 87 88
f 57 88 78
f 57 78 89
f 57 89 83
f 58 90 61
f 59 61 90
f 59 90 91
f 59 91 92
f 59 92 93
f 59 93 94
f 59 94 64
f 59 64 95
f 59 95 60
f 60 95 96
f 60 96 62
f 62 95 63
f 62 96 95
f 63 95 64
f 64 94 97
f 64 97 98
f 64 98 99
f 64 99 65
f 65 99 100
f 65 100 101
f 65 101 73
f 65 73 72
f 65 72 71
f 65 71 67
f 65 67 66
f 68 74 101
f 68 101 69
f 69 101 102
f 69 102 103
f 69 103 104
f 69 104 105
f 69 105 70
f 70 105 86
f 70 86 85
f 70 85 84
f 73 101 74
f 75 106 93
f 75 93 107
f 75 107 76
f 75 82 81
f 75 81 108
f 75 108 109
f 75 109 106
f 76 107 92
f 76 92 110
f 77 89 78
f 78 88 79
f 79 88 80
f 80 109 108
f 80 108 81
f 80 88 109
f 86 105 87
f 87 105 104
f 87 104 88
f 88 104 111
f 88 111 109
f 91 110 92
f 92 107 93
f 93 106 97
f 93 97 94
f 97 106 109
f 97 109 112
f 97 112 98
f 98 112 99
f 99 112 100
f 100 112 109
f 100 109 113
f 100 113 101
f 101 113 102
f 102 113 114
f 102 114 115
f 102 115 103
f 103 115 104
f 104 115 111
f 109 111 115
f 109 115 114
f 109 114 113

