# https://github.com/mikedh/trimesh
v -0.00967722 0.11837123 0.10040593
v -0.00967722 0.11797381 0.09708376
v -0.00993980 0.11836044 0.10040593
v -0.00993980 0.11830394 0.10066797
v -0.00993980 0.11813696 0.10142465
v -0.00967722 0.11814585 0.10142465
v -0.00865846 0.11837060 0.10040593
v -0.00993980 0.11796174 0.09708376
v -0.00865846 0.11796746 0.09708376
v -0.00993980 0.11804173 0.10157987
v -0.00967722 0.11775795 0.10203757
v -0.00865846 0.11812935 0.10142465
v -0.00763971 0.11832997 0.10040593
v -0.00763971 0.11794079 0.09708376
v -0.00993980 0.11421856 0.09708376
v -0.00993980 0.11775351 0.10203508
v -0.00993980 0.11759415 0.10207251
v -0.00967722 0.11711991 0.10218282
v -0.00865846 0.11774843 0.10202459
v -0.00763971 0.11772811 0.10200862
v -0.00763971 0.11808300 0.10142465
v -0.00662095 0.11801317 0.10142465
v -0.00662095 0.11825505 0.10040593
v -0.00560219 0.11778652 0.09708376
v 0.00422236 0.11189241 0.09708376
v 0.00471882 0.11276916 0.10040593
v 0.00471882 0.11309739 0.10143163
v -0.00993980 0.11598159 0.10142465
v -0.00993980 0.11711991 0.10218032
v -0.00254879 0.11677200 0.10201910
v 0.00471882 0.11348846 0.10196370
v 0.00471882 0.11400461 0.10197618
v 0.00356232 0.11473154 0.10199115
v 0.00050748 0.11581653 0.10202259
v -0.00662095 0.11768557 0.10197568
v -0.00596808 0.11764748 0.10194723
v -0.00561798 0.11785826 0.10150550
v -0.00458487 0.11781636 0.10130336
v -0.00356611 0.11773382 0.10115412
v -0.00560219 0.11813506 0.10040593
v -0.00517604 0.11773382 0.09708376
v 0.00471882 0.11188606 0.09708376
v 0.00406309 0.11355259 0.10193674
v -0.00993980 0.11629395 0.10191079
v -0.00993980 0.11693453 0.10215586
v 0.00152624 0.11568384 0.10198566
v -0.00171083 0.11668630 0.10198017
v 0.00458108 0.11350434 0.10195970
v -0.00993980 0.11640568 0.10207899
v 0.00471882 0.11420142 0.10192776
v 0.00422236 0.11463186 0.10196619
v -0.00103213 0.11659360 0.10193126
v -0.00253014 0.11733259 0.10138571
v -0.00285442 0.11767415 0.10102085
v -0.00268367 0.11768938 0.10040593
v -0.00276115 0.11766526 0.09975857
v -0.00490485 0.11768240 0.09708376
v 0.00471882 0.11463567 0.09708376
v 0.00212315 0.11562035 0.10195372
v 0.00471882 0.11467567 0.10166073
v 0.00471882 0.11498231 0.10134578
v -0.00051127 0.11649710 0.10186238
v -0.00051127 0.11687612 0.10135327
v 0.00050748 0.11672566 0.10114164
v 0.00110008 0.11663614 0.10096994
v -0.00051127 0.11718657 0.10040593
v -0.00153003 0.11745067 0.10040593
v -0.00217572 0.11760177 0.10040593
v -0.00474557 0.11764812 0.09708376
v 0.00123209 0.11668439 0.09965026
v -0.00056006 0.11671613 0.09708376
v 0.00471882 0.11523372 0.09942016
v 0.00445481 0.11476963 0.09708376
v 0.00448781 0.11504389 0.10139420
v 0.00356232 0.11569209 0.10109323
v 0.00249478 0.11584509 0.10146407
v 0.00471882 0.11534355 0.10040593
v 0.00407313 0.11559305 0.10091654
v 0.00175008 0.11651869 0.10040593
v 0.00124070 0.11668502 0.10040593
v 0.00050748 0.11690278 0.10040593
v 0.00254356 0.11622729 0.10040593
v 0.00412622 0.11561718 0.09980898
v 0.00024634 0.11648060 0.09708376
v -0.00051127 0.11670407 0.09708376
v 0.00471882 0.11533402 0.10030960
v 0.00356232 0.11517721 0.09708376
v 0.00462269 0.11538799 0.10040593
v 0.00411331 0.11561146 0.10040593
v 0.00356232 0.11582986 0.10040593
v 0.00279179 0.11549084 0.09708376
f 1 2 3
f 1 3 4
f 1 4 5
f 1 5 6
f 1 6 7
f 1 7 2
f 2 8 3
f 2 7 9
f 2 9 14
f 2 14 24
f 2 24 41
f 2 41 57
f 2 57 69
f 2 69 71
f 2 71 85
f 2 85 84
f 2 84 91
f 2 91 87
f 2 87 73
f 2 73 58
f 2 58 42
f 2 42 25
f 2 25 15
f 2 15 8
f 3 8 15
f 3 15 28
f 3 28 44
f 3 44 49
f 3 49 45
f 3 45 29
f 3 29 17
f 3 17 16
f 3 16 10
f 3 10 5
f 3 5 4
f 5 10 6
f 6 10 11
f 6 11 12
f 6 12 7
f 7 12 13
f 7 13 14
f 7 14 9
f 10 16 11
f 11 16 17
f 11 17 18
f 11 18 19
f 11 19 12
f 12 19 20
f 12 20 21
f 12 21 13
f 13 21 22
f 13 22 23
f 13 23 14
f 14 23 24
f 15 25 26
f 15 26 27
f 15 27 28
f 17 29 18
f 18 30 20
f 18 20 19
f 18 29 31
f 18 31 32
f 18 32 33
f 18 33 34
f 18 34 30
f 20 35 21
f 20 30 35
f 21 35 22
f 22 36 37
f 22 37 38
f 22 38 23
f 22 35 36
f 23 38 39
f 23 39 40
f 23 40 24
f 24 40 41
f 25 42 26
f 26 42 58
f 26 58 72
f 26 72 86
f 26 86 77
f 26 77 61
f 26 61 60
f 26 60 50
f 26 50 32
f 26 32 31
f 26 31 27
f 27 31 43
f 27 43 44
f 27 44 28
f 29 45 31
f 30 36 35
f 30 34 46
f 30 46 47
f 30 47 36
f 31 48 43
f 31 45 49
f 31 49 48
f 32 50 51
f 32 51 33
f 33 51 46
f 33 46 34
f 36 39 38
f 36 38 37
f 36 47 52
f 36 52 39
f 39 53 54
f 39 54 40
f 39 52 53
f 40 54 55
f 40 55 56
f 40 56 41
f 41 56 57
f 43 48 49
f 43 49 44
f 46 59 47
f 46 51 59
f 47 59 52
f 50 60 51
f 51 60 61
f 51 61 59
f 52 59 62
f 52 62 63
f 52 63 54
f 52 54 53
f 54 63 64
f 54 64 65
f 54 65 66
f 54 66 67
f 54 67 68
f 54 68 55
f 55 68 56
f 56 69 57
f 56 68 67
f 56 67 70
f 56 70 71
f 56 71 69
f 58 73 72
f 59 64 62
f 59 61 74
f 59 74 75
f 59 75 76
f 59 76 64
f 61 77 78
f 61 78 75
f 61 75 74
f 62 64 63
f 64 76 65
f 65 76 75
f 65 75 78
f 65 78 79
f 65 79 80
f 65 80 81
f 65 81 66
f 66 81 70
f 66 70 67
f 70 81 80
f 70 80 79
f 70 79 82
f 70 82 83
f 70 83 84
f 70 84 85
f 70 85 71
f 72 73 83
f 72 83 86
f 73 87 83
f 77 86 83
f 77 83 88
f 77 88 78
f 78 89 90
f 78 90 82
f 78 82 79
f 78 88 89
f 82 90 83
f 83 90 89
f 83 89 88
f 83 87 91
f 83 91 84

