# https://github.com/mikedh/trimesh
v 0.02201738 0.09625961 0.09708376
v 0.02132665 0.09809376 0.09224842
v 0.02181295 0.09675301 0.09708376
v 0.00534082 0.09625961 0.09708376
v 0.02161781 0.09625961 0.00670953
v 0.02024874 0.10010166 0.09633033
v 0.02024874 0.10010166 0.09708376
v 0.02051822 0.09959325 0.09708376
v 0.02128329 0.09805085 0.09530985
v 0.02150940 0.09754029 0.09530985
v 0.02150630 0.09652776 0.00670953
v 0.02128948 0.09703617 0.00670953
v 0.02096425 0.09776983 0.00670953
v 0.02054609 0.09865580 0.00568905
v 0.02030450 0.09916636 0.00568905
v 0.01996068 0.09980777 0.00568905
v 0.02172931 0.09693749 0.09708376
v 0.00534082 0.11432435 0.09708376
v -0.00962596 0.09626175 0.09707423
v 0.00534082 0.09625961 0.00313309
v 0.02159613 0.09625961 0.00568905
v 0.02149701 0.09650631 0.00568905
v 0.01982440 0.10082674 0.09708376
v 0.01951775 0.10059935 0.00568905
v 0.01923279 0.10112922 0.00874095
v 0.02128329 0.09701472 0.00568905
v 0.02095186 0.09776983 0.00568905
v 0.02052442 0.09862147 0.00466858
v 0.02028591 0.09913203 0.00466858
v 0.01991732 0.09980777 0.00466858
v 0.00560410 0.11419349 0.09708376
v 0.00445805 0.11476626 0.09707423
v 0.00356599 0.11517385 0.09707423
v 0.00279163 0.11548704 0.09707423
v 0.00024864 0.11647813 0.09707423
v -0.00051023 0.11670123 0.09707423
v -0.00052571 0.11670552 0.09707423
v -0.00055979 0.11671410 0.09707423
v -0.00474441 0.11764512 0.09707423
v -0.00490238 0.11767944 0.09707423
v -0.00517496 0.11773093 0.09707423
v -0.00560240 0.11778456 0.09707423
v -0.00763741 0.11793901 0.09707423
v -0.00865647 0.11796475 0.09707423
v -0.00962596 0.11797119 0.09707423
v -0.00962596 0.09626175 0.00360995
v 0.01796594 0.09625961 -0.00003325
v 0.02153728 0.09625961 0.00489747
v 0.02121204 0.09683023 0.00364810
v 0.02124921 0.09692462 0.00466858
v 0.02089920 0.09776983 0.00466858
v 0.01912747 0.10198515 0.09708376
v 0.01943412 0.10147245 0.09530985
v 0.01948988 0.10053499 0.00466858
v 0.01921420 0.10110991 0.00568905
v 0.01922659 0.10111634 0.00670953
v 0.01879295 0.10184571 0.00670953
v 0.02080938 0.09776983 0.00364810
v 0.02047176 0.09849705 0.00364810
v 0.02021158 0.09900547 0.00364810
v 0.01976245 0.09980777 0.00364810
v 0.00644970 0.11374729 0.09708376
v 0.00560410 0.11427930 0.09633033
v 0.00454168 0.11480487 0.09633033
v 0.00356599 0.11527252 0.09633033
v 0.00293721 0.11554711 0.09633033
v 0.00004731 0.11662186 0.09686441
v -0.00051023 0.11670767 0.09706469
v -0.00481256 0.11769875 0.09699793
v -0.00560240 0.11789181 0.09633033
v -0.00661836 0.11800337 0.09633033
v -0.00763741 0.11808488 0.09633033
v -0.00865647 0.11813422 0.09633033
v -0.00962596 0.11814495 0.09633033
v -0.00962596 0.11507946 -0.00026214
v 0.01831285 0.09625961 -0.00011909
v 0.02139789 0.09625961 0.00311402
v 0.02139479 0.09626819 0.00311402
v 0.02141647 0.09632182 0.00364810
v 0.01912437 0.10198515 0.09633033
v 0.01861640 0.10274884 0.09708376
v 0.01940624 0.10040414 0.00364810
v 0.01825400 0.10223399 0.00364810
v 0.01830975 0.10231766 0.00431570
v 0.01835621 0.10239274 0.00499284
v 0.01876198 0.10184571 0.00568905
v 0.01840267 0.10246139 0.00670953
v 0.01838719 0.10243993 0.00568905
v 0.02041291 0.09836405 0.00301864
v 0.01954253 0.09982922 0.00273253
v 0.01935359 0.10032477 0.00312355
v 0.00695767 0.11345340 0.09708376
v 0.00703511 0.11349845 0.09633033
v 0.00652713 0.11379019 0.09633033
v 0.00522002 0.11464184 0.09123748
v 0.00056458 0.11645238 0.09633033
v 0.00458195 0.11491428 0.09123748
v 0.00319120 0.11565651 0.07493845
v 0.00254384 0.11590536 0.07493845
v 0.00005660 0.11662615 0.09633033
v -0.00051023 0.11679991 0.09633033
v -0.00152928 0.11708522 0.09633033
v -0.00254524 0.11731690 0.09633033
v -0.00466078 0.11772664 0.09633033
v -0.00387403 0.11766442 0.05455752
v -0.00560240 0.11794330 0.06779511
v -0.00661836 0.11810848 0.05862989
v -0.00763741 0.11817498 0.05862989
v -0.00962596 0.11809990 0.06372274
v -0.00962596 0.11592681 -0.00010001
v -0.00865647 0.11507946 -0.00028122
v 0.01782036 0.09878880 -0.00025261
v 0.01883941 0.09625961 -0.00018584
v 0.02120895 0.09625961 0.00255132
v 0.01937837 0.09935084 0.00105399
v 0.01755398 0.10373349 0.00670953
v 0.01721017 0.10424190 0.00670953
v 0.01738672 0.10448860 0.09123748
v 0.01738982 0.10450147 0.09633033
v 0.01738362 0.10449075 0.09708376
v 0.01848321 0.10157113 0.00263716
v 0.01785133 0.10286254 0.00364810
v 0.01805267 0.10278531 0.00465904
v 0.01742079 0.10353184 0.00364810
v 0.01748893 0.10363910 0.00466858
v 0.01714822 0.10414966 0.00466858
v 0.01720087 0.10422260 0.00568905
v 0.01945890 0.09949243 0.00161668
v 0.01918013 0.10000084 0.00161668
v 0.01832214 0.10132228 0.00113982
v 0.01839648 0.10143812 0.00182650
v 0.00763601 0.11305653 0.09708376
v 0.00573109 0.11436296 0.09123748
v 0.00832674 0.11264465 0.09708376
v 0.00883781 0.11233575 0.09708376
v 0.00887808 0.11236149 0.09633033
v 0.00534082 0.11457748 0.09123748
v 0.00718379 0.11359069 0.07492892
v 0.00369918 0.11539909 0.07493845
v 0.00071945 0.11651245 0.08207226
v 0.00283190 0.11550850 0.02707139
v 0.00232702 0.11571658 0.02809187
v 0.00152788 0.11603193 0.02809187
v 0.00152788 0.11620783 0.05862989
v 0.00493196 0.11450025 0.01179284
v 0.00439920 0.11473408 0.00772047
v 0.00356599 0.11509662 0.00772047
v 0.00152788 0.11626575 0.07493845
v 0.00017121 0.11668621 0.08307366
v -0.00051023 0.11693935 0.07493845
v -0.00254524 0.11732977 0.09530985
v -0.00356429 0.11752499 0.09530985
v -0.00356429 0.11752928 0.09428937
v -0.00405678 0.11763010 0.09021700
v -0.00661836 0.11810634 0.05760941
v -0.00336606 0.11756574 0.05455752
v -0.00356429 0.11739842 0.02299902
v -0.00865647 0.11797119 0.02707139
v -0.00962596 0.11790898 0.02197854
v -0.00865647 0.11810848 0.05455752
v -0.00962596 0.11597186 -0.00009047
v -0.00560240 0.11507946 -0.00033844
v 0.01883941 0.09675301 -0.00019539
v -0.00458335 0.11507946 -0.00034798
v 0.01476629 0.10286254 -0.00030029
v 0.01578535 0.10184571 -0.00029075
v 0.01680130 0.10082674 -0.00024307
v 0.01787611 0.09983137 -0.00010955
v 0.01860401 0.09878880 -0.00004278
v 0.01955182 0.09675301 -0.00003325
v 0.01926376 0.09625961 -0.00013816
v 0.02086513 0.09625961 0.00161668
v 0.02065141 0.09625961 0.00113982
v 0.02046556 0.09648271 0.00093954
v 0.01950226 0.09878880 0.00086324
v 0.01911199 0.09878880 0.00034824
v 0.01825090 0.10018747 0.00014795
v 0.01852348 0.10064226 0.00082510
v 0.01668980 0.10489404 0.00568905
v 0.01669909 0.10489190 0.00670953
v 0.01516586 0.10730739 0.07799035
v 0.01699954 0.10500988 0.09633033
v 0.01709866 0.10486830 0.09708376
v 0.01735265 0.10343531 0.00299957
v 0.01706149 0.10404240 0.00364810
v 0.01663714 0.10484899 0.00466858
v 0.01715751 0.10215677 0.00025287
v 0.01739911 0.10248069 0.00093954
v 0.01623757 0.10431698 0.00130195
v 0.01660307 0.10393943 0.00163576
v 0.00963076 0.11182519 0.09708376
v 0.00965244 0.11185307 0.09633033
v 0.00644660 0.11374300 0.02401949
v 0.01031529 0.11163641 0.02300856
v 0.00027342 0.11670552 0.07493845
v 0.00015882 0.11666262 0.05353704
v 0.00066989 0.11648671 0.05353704
v 0.00266774 0.11543985 0.00669999
v 0.00215976 0.11563721 0.00669999
v 0.00152788 0.11586246 0.00669999
v 0.00050883 0.11622285 0.00874095
v 0.00534082 0.11427715 0.01180238
v 0.00560410 0.11409481 0.00670953
v 0.00492576 0.11449596 0.01078190
v 0.00491027 0.11447666 0.00772047
v 0.00487930 0.11447022 0.00669999
v 0.00437132 0.11471263 0.00669999
v 0.00356599 0.11507088 0.00669999
v -0.00051023 0.11686426 0.05760941
v -0.00152928 0.11712598 0.05760941
v -0.00152928 0.11716245 0.07493845
v -0.00458335 0.11746277 0.00976142
v -0.00560240 0.11757433 0.00976142
v -0.00763741 0.11790254 0.02707139
v -0.00041730 0.11650602 0.00874095
v -0.00092838 0.11663044 0.00874095
v -0.00356429 0.11728901 0.01078190
v -0.00633030 0.11762152 0.00874095
v -0.00763741 0.11777383 0.01485427
v -0.00865647 0.11783390 0.01485427
v -0.00962596 0.11772020 0.00874095
v -0.00962596 0.11645453 0.00020518
v -0.00865647 0.11597615 -0.00010001
v -0.00356429 0.11507946 -0.00029075
v -0.00051023 0.11406263 -0.00029075
v 0.00152788 0.11304366 -0.00032890
v 0.00560410 0.11100787 -0.00031937
v -0.00661836 0.11595255 -0.00010955
v -0.00560240 0.11593539 -0.00010955
v -0.00458335 0.11586675 -0.00010001
v 0.01272819 0.10591730 -0.00029075
v 0.01374724 0.10490048 -0.00028122
v 0.01476629 0.10388151 -0.00025261
v 0.01585040 0.10291617 -0.00014769
v 0.01681060 0.10182641 -0.00008094
v 0.01756947 0.10082674 -0.00003325
v 0.01843365 0.09950744 0.00003351
v 0.01941863 0.09744591 0.00004305
v 0.01963236 0.09625961 -0.00005233
v 0.01988015 0.09625961 0.00009073
v 0.02051822 0.09625961 0.00088232
v 0.01967882 0.09778056 0.00053898
v 0.01926996 0.09812593 0.00015749
v 0.01739291 0.10147674 0.00004305
v 0.01812391 0.10091899 0.00052944
v 0.01624996 0.10535741 0.00466858
v 0.01628713 0.10540246 0.00568905
v 0.01254544 0.10980012 0.07594939
v 0.01353661 0.10874897 0.09708376
v 0.01404459 0.10824056 0.09708376
v 0.01417159 0.10810755 0.09708376
v 0.01614465 0.10599882 0.09708376
v 0.01648537 0.10562127 0.09708376
v 0.01649156 0.10562127 0.09633033
v 0.01532693 0.10648364 0.00670953
v 0.01486541 0.10699205 0.00670953
v 0.01435743 0.10754122 0.00670953
v 0.01341581 0.10864171 0.02300856
v 0.01699644 0.10500130 0.09708376
v 0.01633359 0.10444355 0.00198863
v 0.01642652 0.10455725 0.00263716
v 0.01655351 0.10472243 0.00364810
v 0.01623448 0.10328943 0.00013842
v 0.01648537 0.10363696 0.00081556
v 0.01528976 0.10542605 0.00108260
v 0.01592783 0.10482969 0.00163576
v 0.01000554 0.11157634 0.09708376
v 0.01016042 0.11150126 0.09633033
v 0.01380609 0.10805178 0.00670953
v 0.01331360 0.10852801 0.00772047
v 0.01222021 0.10947834 0.00622314
v 0.01111752 0.11042866 0.00670953
v 0.01060645 0.11083196 0.00670953
v 0.00995908 0.11134037 0.00670953
v 0.00945110 0.11172222 0.00670953
v 0.00869224 0.11223277 0.00670953
v 0.00818426 0.11255670 0.00670953
v 0.00763601 0.11289779 0.00670953
v 0.00684617 0.11338475 0.00670953
v 0.00633819 0.11368937 0.00670953
v 0.01069317 0.11111084 0.09633033
v 0.01187639 0.11031067 0.07594939
v 0.00211020 0.11561790 0.00605146
v 0.00050883 0.11609843 0.00568905
v 0.00050883 0.11618424 0.00669999
v 0.00050883 0.11620569 0.00772047
v 0.00534082 0.11423210 0.00670953
v 0.00630722 0.11367220 0.00568905
v 0.00560410 0.11403689 0.00568905
v 0.00534082 0.11415917 0.00568905
v 0.00476470 0.11442517 0.00568905
v 0.00425362 0.11465256 0.00568905
v 0.00356599 0.11495289 0.00568905
v -0.00560240 0.11755502 0.00874095
v -0.00356429 0.11719677 0.00669999
v -0.00458335 0.11737911 0.00669999
v -0.00560240 0.11750782 0.00669999
v -0.00100582 0.11661113 0.00615638
v -0.00865647 0.11781673 0.01383380
v -0.00661836 0.11758720 0.00669999
v -0.00786352 0.11764726 0.00605146
v -0.00865647 0.11773736 0.00976142
v -0.00865647 0.11764941 0.00600378
v -0.00962596 0.11763868 0.00607054
v -0.00962596 0.11648027 0.00022425
v -0.00865647 0.11648456 0.00022425
v -0.00356429 0.11576807 -0.00004278
v -0.00247090 0.11517170 -0.00013816
v -0.00152928 0.11496362 -0.00010955
v 0.00055219 0.11413771 -0.00015724
v 0.00254384 0.11304366 -0.00028122
v 0.00458195 0.11202469 -0.00028122
v 0.00763601 0.10998889 -0.00030029
v -0.00661836 0.11646311 0.00031009
v -0.00560240 0.11644595 0.00039592
v 0.01171223 0.10693627 -0.00028122
v 0.01271580 0.10692769 -0.00008094
v 0.01372865 0.10587440 -0.00006186
v 0.01471673 0.10481038 -0.00004278
v 0.01549729 0.10388151 -0.00002371
v 0.02016511 0.09625961 0.00041500
v 0.02036954 0.09625961 0.00067250
v 0.01432026 0.10750475 0.00593702
v 0.01614775 0.10523299 0.00364810
v 0.01563667 0.10579503 0.00364810
v 0.01455567 0.10674321 0.00263716
v 0.01515967 0.10630344 0.00364810
v 0.01135293 0.11061529 0.09633033
v 0.01186400 0.11019913 0.09633033
v 0.01283660 0.10938180 0.09708376
v 0.01327333 0.10849154 0.00601332
v 0.01601456 0.10506780 0.00263716
v 0.01537029 0.10551830 0.00161668
v 0.01528976 0.10441352 0.00008119
v 0.01502648 0.10509140 0.00040546
v 0.01603005 0.10393943 0.00052944
v 0.01432026 0.10650080 0.00100630
v 0.01442558 0.10661020 0.00161668
v 0.01493665 0.10602671 0.00161668
v 0.01467337 0.10580575 0.00070111
v 0.01013873 0.11148410 0.09708376
v 0.01027812 0.11138328 0.09708376
v 0.01329811 0.10851514 0.00670953
v 0.01298837 0.10822983 0.00263716
v 0.01247729 0.10868461 0.00263716
v 0.01108345 0.11039863 0.00568905
v 0.01057547 0.11080836 0.00568905
v 0.00991262 0.11131892 0.00568905
v 0.00940155 0.11168575 0.00568905
v 0.00816877 0.11254812 0.00609915
v 0.00345138 0.11473837 0.00364810
v 0.00254384 0.11508160 0.00364810
v 0.00100442 0.11558572 0.00319031
v -0.00051023 0.11627219 0.00466858
v -0.00060315 0.11645238 0.00576535
v 0.00681519 0.11335686 0.00568905
v 0.00804177 0.11247089 0.00466858
v 0.00793337 0.11241083 0.00364810
v 0.00622049 0.11361858 0.00488793
v 0.00395936 0.11452171 0.00364810
v -0.00153238 0.11667978 0.00576535
v -0.00254524 0.11688142 0.00568905
v -0.00404749 0.11661542 0.00108260
v -0.00458335 0.11689644 0.00262762
v -0.00560240 0.11716674 0.00364810
v -0.00661836 0.11728258 0.00364810
v -0.00763741 0.11738555 0.00364810
v -0.00119476 0.11657681 0.00547923
v -0.00865647 0.11743060 0.00364810
v -0.00962596 0.11763654 0.00604193
v -0.00962596 0.11676129 0.00072972
v -0.00865647 0.11675486 0.00073926
v -0.00763741 0.11674199 0.00077741
v -0.00051023 0.11478771 -0.00005233
v -0.00458335 0.11637730 0.00051037
v -0.00275896 0.11566510 0.00002397
v 0.00152788 0.11390389 -0.00011909
v 0.00350404 0.11306941 -0.00012862
v 0.00533772 0.11219202 -0.00010001
v 0.00534082 0.11203971 -0.00014769
v 0.00662006 0.11100787 -0.00025261
v 0.00967412 0.10896992 -0.00024307
v -0.00661836 0.11670767 0.00081556
v -0.00560240 0.11666476 0.00090139
v 0.01166577 0.10794237 -0.00006186
v 0.01236579 0.10759485 0.00002397
v 0.01337864 0.10658232 0.00001443
v 0.01434814 0.10550757 0.00004305
v 0.01405389 0.10725162 0.00263716
v 0.01550658 0.10567275 0.00263716
v 0.01506674 0.10618331 0.00263716
v 0.01394857 0.10712076 0.00161668
v 0.01344059 0.10763990 0.00161668
v 0.01086663 0.11093707 0.09708376
v 0.01131885 0.11058955 0.09708376
v 0.01169674 0.11029137 0.09708376
v 0.01354900 0.10772142 0.00263716
v 0.01405389 0.10618545 0.00032916
v 0.01334457 0.10754766 0.00094908
v 0.01369768 0.10688050 0.00064389
v 0.01288925 0.10814831 0.00161668
v 0.01238127 0.10859666 0.00161668
v 0.01047326 0.11073971 0.00466858
v 0.00983519 0.11124813 0.00466858
v 0.00932721 0.11162997 0.00466858
v 0.00865507 0.11207618 0.00466858
v 0.00324076 0.11465256 0.00262762
v 0.00254384 0.11491642 0.00262762
v -0.00051023 0.11612202 0.00364810
v 0.00086193 0.11553424 0.00262762
v 0.00035086 0.11570371 0.00262762
v -0.00152928 0.11639876 0.00364810
v 0.00924977 0.11158278 0.00386745
v 0.00874799 0.11186594 0.00357180
v 0.00779708 0.11233360 0.00263716
v 0.00719927 0.11257601 0.00198863
v 0.00534082 0.11366792 0.00263716
v 0.00458195 0.11404976 0.00262762
v 0.00458195 0.11421709 0.00364810
v 0.00374874 0.11443590 0.00262762
v -0.00207133 0.11660255 0.00421079
v -0.00081997 0.11564579 0.00096815
v -0.00208062 0.11557285 0.00010027
v -0.00365102 0.11628291 0.00068204
v -0.00763741 0.11699727 0.00160714
v -0.00763741 0.11723538 0.00262762
v -0.00661836 0.11714958 0.00262762
v -0.00560240 0.11704446 0.00262762
v -0.00224789 0.11656608 0.00364810
v -0.00152928 0.11623143 0.00262762
v -0.00051023 0.11596757 0.00262762
v 0.00014333 0.11563935 0.00193141
v -0.00049164 0.11574232 0.00159760
v -0.00014163 0.11554711 0.00125427
v -0.00153238 0.11653390 0.00459228
v -0.00865647 0.11726971 0.00262762
v -0.00962596 0.11726971 0.00262762
v -0.00962596 0.11741129 0.00364810
v -0.00962596 0.11704017 0.00160714
v -0.00865647 0.11702944 0.00160714
v 0.00024245 0.11466114 0.00001443
v 0.00254384 0.11370653 -0.00002371
v 0.00458195 0.11272617 -0.00005233
v 0.00662006 0.11169004 -0.00002371
v 0.00756477 0.11098641 -0.00007140
v 0.00867365 0.11002322 -0.00014769
v 0.00967412 0.10966068 -0.00001418
v 0.01060335 0.10890557 -0.00002371
v 0.01020378 0.10949335 0.00008119
v 0.01197551 0.10827488 0.00031963
v 0.01304412 0.10725806 0.00027194
v 0.01228525 0.10851085 0.00099676
v 0.01266314 0.10791020 0.00063435
v 0.01129098 0.10955127 0.00189326
v 0.01018520 0.11049945 0.00212215
v 0.00347616 0.11430719 0.00169298
v 0.00307660 0.11457963 0.00209354
v 0.00152788 0.11504513 0.00160714
v 0.00908561 0.11145407 0.00263716
v 0.00857763 0.11182304 0.00263716
v 0.00839798 0.11169648 0.00161668
v 0.00757716 0.11223277 0.00163576
v 0.00702272 0.11247089 0.00130195
v 0.00665722 0.11276050 0.00163576
v 0.00533772 0.11347914 0.00180742
v 0.00518285 0.11359712 0.00196002
v 0.00462841 0.11377517 0.00161668
v 0.00152788 0.11474266 0.00080602
v -0.00049164 0.11533045 0.00061528
v 0.00092079 0.11452599 0.00012888
v 0.00055219 0.11491213 0.00051991
v 0.00049334 0.11542698 0.00159760
v 0.00215356 0.11461824 0.00100630
v 0.00312615 0.11358425 0.00005258
v 0.00517665 0.11257815 0.00004305
v 0.00717759 0.11154846 0.00006212
v 0.00834532 0.11063460 -0.00000463
v 0.00785593 0.11131249 0.00034824
v 0.00938916 0.11067321 0.00087278
v 0.01006749 0.11040292 0.00144501
v 0.00970509 0.11076546 0.00172159
v 0.00499390 0.11350488 0.00127334
v 0.00431557 0.11367006 0.00091093
v 0.00283190 0.11448309 0.00141640
v 0.00890905 0.11134037 0.00161668
v 0.00823382 0.11157420 0.00102538
v 0.00634438 0.11265538 0.00093000
v 0.00533772 0.11338904 0.00148316
v 0.00350404 0.11379234 0.00057713
v 0.00152788 0.11441230 0.00030055
v 0.00380449 0.11342551 0.00023379
v 0.00585499 0.11239367 0.00024333
v 0.00756477 0.11173509 0.00065343
v 0.00462841 0.11326891 0.00057713
f 1 2 3
f 1 3 17
f 1 17 8
f 1 8 7
f 1 7 23
f 1 23 52
f 1 52 81
f 1 81 120
f 1 120 183
f 1 183 259
f 1 259 253
f 1 253 252
f 1 252 251
f 1 251 250
f 1 250 249
f 1 249 330
f 1 330 396
f 1 396 395
f 1 395 394
f 1 394 342
f 1 342 341
f 1 341 267
f 1 267 191
f 1 191 135
f 1 135 134
f 1 134 132
f 1 132 92
f 1 92 62
f 1 62 31
f 1 31 18
f 1 18 4
f 1 4 20
f 1 20 47
f 1 47 76
f 1 76 113
f 1 113 171
f 1 171 239
f 1 239 240
f 1 240 321
f 1 321 322
f 1 322 241
f 1 241 173
f 1 173 172
f 1 172 114
f 1 114 77
f 1 77 48
f 1 48 21
f 1 21 5
f 1 5 2
f 2 6 7
f 2 7 8
f 2 8 9
f 2 9 10
f 2 10 3
f 2 5 11
f 2 11 12
f 2 12 13
f 2 13 14
f 2 14 15
f 2 15 16
f 2 16 6
f 3 10 9
f 3 9 17
f 4 18 45
f 4 45 19
f 4 19 46
f 4 46 20
f 5 21 22
f 5 22 11
f 6 23 7
f 6 16 24
f 6 24 25
f 6 25 23
f 8 17 9
f 11 22 26
f 11 26 12
f 12 26 27
f 12 27 13
f 13 27 14
f 14 27 28
f 14 28 29
f 14 29 15
f 15 29 16
f 16 29 30
f 16 30 24
f 18 31 32
f 18 32 33
f 18 33 34
f 18 34 35
f 18 35 36
f 18 36 37
f 18 37 38
f 18 38 39
f 18 39 40
f 18 40 41
f 18 41 42
f 18 42 43
f 18 43 44
f 18 44 45
f 19 45 74
f 19 74 109
f 19 109 159
f 19 159 221
f 19 221 304
f 19 304 370
f 19 370 438
f 19 438 437
f 19 437 439
f 19 439 371
f 19 371 305
f 19 305 222
f 19 222 161
f 19 161 110
f 19 110 75
f 19 75 46
f 20 46 47
f 21 48 22
f 22 48 49
f 22 49 50
f 22 50 51
f 22 51 26
f 23 25 53
f 23 53 52
f 24 30 54
f 24 54 55
f 24 55 57
f 24 57 56
f 24 56 25
f 25 56 57
f 25 57 53
f 26 51 27
f 27 51 28
f 28 51 58
f 28 58 59
f 28 59 29
f 29 59 60
f 29 60 30
f 30 60 61
f 30 61 54
f 31 62 63
f 31 63 32
f 32 63 64
f 32 64 65
f 32 65 33
f 33 65 66
f 33 66 34
f 34 66 67
f 34 67 35
f 35 67 68
f 35 68 36
f 36 68 37
f 37 68 38
f 38 68 69
f 38 69 39
f 39 69 40
f 40 69 41
f 41 69 42
f 42 69 70
f 42 70 71
f 42 71 72
f 42 72 43
f 43 72 73
f 43 73 44
f 44 73 74
f 44 74 45
f 46 75 76
f 46 76 47
f 48 77 78
f 48 78 79
f 48 79 49
f 49 79 78
f 49 78 58
f 49 58 51
f 49 51 50
f 52 53 80
f 52 80 81
f 53 57 80
f 54 61 82
f 54 82 83
f 54 83 84
f 54 84 85
f 54 85 86
f 54 86 55
f 55 86 57
f 57 87 80
f 57 86 88
f 57 88 87
f 58 78 89
f 58 89 59
f 59 89 60
f 60 89 90
f 60 90 61
f 61 90 91
f 61 91 82
f 62 92 93
f 62 93 94
f 62 94 63
f 63 94 95
f 63 95 64
f 64 95 65
f 65 95 66
f 66 96 67
f 66 95 97
f 66 97 98
f 66 98 99
f 66 99 96
f 67 69 68
f 67 96 100
f 67 100 101
f 67 101 102
f 67 102 103
f 67 103 69
f 69 103 104
f 69 104 70
f 70 104 105
f 70 105 106
f 70 106 107
f 70 107 71
f 71 107 72
f 72 107 108
f 72 108 73
f 73 108 74
f 74 108 109
f 75 110 111
f 75 111 112
f 75 112 113
f 75 113 76
f 77 114 78
f 78 114 115
f 78 115 89
f 80 87 116
f 80 116 81
f 81 116 117
f 81 117 118
f 81 118 119
f 81 119 120
f 82 91 121
f 82 121 83
f 83 121 122
f 83 122 84
f 84 123 85
f 84 122 124
f 84 124 123
f 85 123 125
f 85 125 126
f 85 126 127
f 85 127 88
f 85 88 86
f 87 88 127
f 87 127 116
f 89 115 128
f 89 128 90
f 90 128 129
f 90 129 130
f 90 130 91
f 91 130 131
f 91 131 121
f 92 132 93
f 93 133 94
f 93 132 134
f 93 134 135
f 93 135 136
f 93 136 133
f 94 133 137
f 94 137 95
f 95 137 138
f 95 138 139
f 95 139 98
f 95 98 97
f 96 99 140
f 96 140 100
f 98 141 142
f 98 142 143
f 98 143 144
f 98 144 99
f 98 139 145
f 98 145 146
f 98 146 147
f 98 147 141
f 99 148 140
f 99 144 148
f 100 140 149
f 100 149 101
f 101 149 150
f 101 150 102
f 102 151 103
f 102 150 151
f 103 151 104
f 104 151 152
f 104 152 153
f 104 153 154
f 104 154 105
f 105 155 107
f 105 107 106
f 105 154 153
f 105 153 151
f 105 151 156
f 105 156 157
f 105 157 155
f 107 155 108
f 108 155 158
f 108 158 159
f 108 159 160
f 108 160 109
f 109 160 159
f 110 161 162
f 110 162 111
f 111 162 112
f 112 163 113
f 112 162 164
f 112 164 165
f 112 165 166
f 112 166 167
f 112 167 168
f 112 168 169
f 112 169 170
f 112 170 163
f 113 163 171
f 114 172 115
f 115 130 128
f 115 172 173
f 115 173 174
f 115 174 175
f 115 175 176
f 115 176 177
f 115 177 178
f 115 178 130
f 116 127 117
f 117 127 179
f 117 179 180
f 117 180 181
f 117 181 118
f 118 181 182
f 118 182 119
f 119 182 183
f 119 183 120
f 121 184 124
f 121 124 122
f 121 131 184
f 123 124 125
f 124 184 185
f 124 185 126
f 124 126 125
f 126 186 127
f 126 185 186
f 127 186 179
f 128 130 129
f 130 178 187
f 130 187 188
f 130 188 189
f 130 189 190
f 130 190 184
f 130 184 131
f 133 136 138
f 133 138 137
f 135 191 136
f 136 191 192
f 136 192 138
f 138 193 145
f 138 145 139
f 138 192 194
f 138 194 193
f 140 148 195
f 140 195 149
f 141 147 142
f 142 147 143
f 143 196 197
f 143 197 144
f 143 147 198
f 143 198 199
f 143 199 200
f 143 200 201
f 143 201 196
f 144 197 195
f 144 195 148
f 145 194 202
f 145 202 203
f 145 203 204
f 145 204 146
f 145 193 194
f 146 204 205
f 146 205 206
f 146 206 207
f 146 207 208
f 146 208 147
f 147 208 198
f 149 195 150
f 150 195 196
f 150 196 209
f 150 209 210
f 150 210 156
f 150 156 211
f 150 211 151
f 151 153 152
f 151 211 156
f 155 157 212
f 155 212 213
f 155 213 214
f 155 214 158
f 156 210 157
f 157 215 216
f 157 216 217
f 157 217 212
f 157 210 215
f 158 214 218
f 158 218 219
f 158 219 220
f 158 220 159
f 159 220 221
f 161 222 223
f 161 223 162
f 162 223 164
f 163 170 171
f 164 224 225
f 164 225 226
f 164 226 227
f 164 227 165
f 164 223 228
f 164 228 229
f 164 229 230
f 164 230 224
f 165 227 231
f 165 231 232
f 165 232 166
f 166 232 233
f 166 233 167
f 167 233 234
f 167 234 235
f 167 235 168
f 168 235 236
f 168 236 169
f 169 236 237
f 169 237 238
f 169 238 170
f 170 239 171
f 170 238 240
f 170 240 239
f 173 241 174
f 174 241 175
f 175 242 243
f 175 243 176
f 175 241 242
f 176 243 177
f 177 243 237
f 177 237 244
f 177 244 187
f 177 187 245
f 177 245 178
f 178 245 187
f 179 186 246
f 179 246 247
f 179 247 180
f 180 247 181
f 181 248 249
f 181 249 250
f 181 250 251
f 181 251 252
f 181 252 253
f 181 253 254
f 181 254 182
f 181 247 255
f 181 255 256
f 181 256 257
f 181 257 258
f 181 258 194
f 181 194 248
f 182 254 253
f 182 253 259
f 182 259 183
f 184 190 189
f 184 189 260
f 184 260 261
f 184 261 185
f 185 261 262
f 185 262 186
f 186 262 246
f 187 244 263
f 187 263 264
f 187 264 188
f 188 264 189
f 189 264 265
f 189 265 266
f 189 266 260
f 191 267 192
f 192 268 194
f 192 267 341
f 192 341 268
f 194 258 257
f 194 257 269
f 194 269 270
f 194 270 271
f 194 271 272
f 194 272 273
f 194 273 274
f 194 274 275
f 194 275 276
f 194 276 277
f 194 277 278
f 194 278 279
f 194 279 280
f 194 280 203
f 194 203 202
f 194 268 281
f 194 281 282
f 194 282 248
f 195 197 196
f 196 201 215
f 196 215 209
f 198 208 283
f 198 283 199
f 199 283 200
f 200 283 284
f 200 284 285
f 200 285 286
f 200 286 201
f 201 286 215
f 203 287 205
f 203 205 204
f 203 280 288
f 203 288 287
f 205 287 206
f 206 287 289
f 206 289 207
f 207 289 290
f 207 290 291
f 207 291 292
f 207 292 208
f 208 292 293
f 208 293 283
f 209 215 210
f 212 294 213
f 212 217 295
f 212 295 296
f 212 296 297
f 212 297 294
f 213 294 218
f 213 218 214
f 215 286 285
f 215 285 298
f 215 298 216
f 216 298 217
f 217 298 295
f 218 299 220
f 218 220 219
f 218 294 297
f 218 297 300
f 218 300 301
f 218 301 299
f 220 299 221
f 221 299 302
f 221 302 301
f 221 301 303
f 221 303 304
f 222 305 306
f 222 306 223
f 223 306 228
f 224 230 307
f 224 307 308
f 224 308 309
f 224 309 310
f 224 310 225
f 225 310 311
f 225 311 226
f 226 311 312
f 226 312 227
f 227 313 231
f 227 312 313
f 228 306 229
f 229 306 314
f 229 314 230
f 230 314 315
f 230 315 307
f 231 313 316
f 231 316 317
f 231 317 232
f 232 317 318
f 232 318 233
f 233 318 319
f 233 319 234
f 234 319 320
f 234 320 235
f 235 320 244
f 235 244 236
f 236 244 237
f 237 243 238
f 238 243 321
f 238 321 240
f 241 322 242
f 242 322 243
f 243 322 321
f 244 320 263
f 246 323 257
f 246 257 247
f 246 262 324
f 246 324 325
f 246 325 326
f 246 326 327
f 246 327 323
f 247 257 256
f 247 256 255
f 248 282 328
f 248 328 329
f 248 329 330
f 248 330 249
f 257 323 331
f 257 331 269
f 260 266 261
f 261 332 324
f 261 324 262
f 261 266 333
f 261 333 332
f 263 320 334
f 263 334 335
f 263 335 336
f 263 336 264
f 264 336 265
f 265 337 338
f 265 338 339
f 265 339 333
f 265 333 266
f 265 336 335
f 265 335 340
f 265 340 337
f 268 341 342
f 268 342 281
f 269 343 270
f 269 331 271
f 269 271 343
f 270 343 271
f 271 331 344
f 271 344 345
f 271 345 346
f 271 346 272
f 272 346 347
f 272 347 273
f 273 347 274
f 274 347 348
f 274 348 275
f 275 348 349
f 275 349 350
f 275 350 276
f 276 350 277
f 277 350 278
f 278 350 279
f 279 350 288
f 279 288 280
f 281 328 282
f 281 342 328
f 283 293 351
f 283 351 352
f 283 352 353
f 283 353 284
f 284 353 354
f 284 354 355
f 284 355 285
f 285 355 298
f 287 288 289
f 288 350 356
f 288 356 357
f 288 357 358
f 288 358 359
f 288 359 289
f 289 359 360
f 289 360 290
f 290 360 291
f 291 360 292
f 292 360 293
f 293 360 351
f 295 298 361
f 295 361 362
f 295 362 363
f 295 363 364
f 295 364 296
f 296 364 365
f 296 365 297
f 297 301 300
f 297 365 366
f 297 366 367
f 297 367 301
f 298 355 368
f 298 368 361
f 299 301 302
f 301 367 369
f 301 369 303
f 303 370 304
f 303 369 370
f 305 371 306
f 306 371 372
f 306 372 373
f 306 373 314
f 307 374 309
f 307 309 308
f 307 315 375
f 307 375 376
f 307 376 374
f 309 374 310
f 310 374 377
f 310 377 311
f 311 377 378
f 311 378 312
f 312 378 379
f 312 379 380
f 312 380 381
f 312 381 313
f 313 381 382
f 313 382 316
f 314 373 383
f 314 383 315
f 315 383 384
f 315 384 363
f 315 363 375
f 316 382 317
f 317 385 386
f 317 386 387
f 317 387 318
f 317 382 385
f 318 387 319
f 319 387 388
f 319 388 320
f 320 388 334
f 323 327 389
f 323 389 331
f 324 332 333
f 324 333 339
f 324 339 390
f 324 390 391
f 324 391 325
f 325 391 326
f 326 389 327
f 326 391 338
f 326 338 392
f 326 392 393
f 326 393 389
f 328 342 394
f 328 394 395
f 328 395 396
f 328 396 330
f 328 330 329
f 331 389 397
f 331 397 344
f 334 388 398
f 334 398 335
f 335 398 340
f 337 399 338
f 337 340 398
f 337 398 400
f 337 400 399
f 338 399 392
f 338 391 339
f 339 391 390
f 344 397 401
f 344 401 345
f 345 401 402
f 345 402 346
f 346 403 347
f 346 402 403
f 347 403 404
f 347 404 348
f 348 404 405
f 348 405 349
f 349 405 350
f 350 405 406
f 350 406 357
f 350 357 356
f 351 360 420
f 351 420 407
f 351 407 408
f 351 408 352
f 352 408 353
f 353 409 354
f 353 408 410
f 353 410 411
f 353 411 409
f 354 368 355
f 354 409 412
f 354 412 368
f 357 406 358
f 358 413 414
f 358 414 415
f 358 415 359
f 358 406 413
f 359 415 416
f 359 416 417
f 359 417 418
f 359 418 419
f 359 419 360
f 360 419 418
f 360 418 420
f 361 368 362
f 362 368 421
f 362 421 363
f 363 422 423
f 363 423 424
f 363 424 375
f 363 384 383
f 363 383 425
f 363 425 426
f 363 426 427
f 363 427 428
f 363 428 364
f 363 421 429
f 363 429 412
f 363 412 430
f 363 430 431
f 363 431 432
f 363 432 433
f 363 433 434
f 363 434 422
f 364 428 365
f 365 428 366
f 366 428 427
f 366 427 367
f 367 427 426
f 367 426 369
f 368 412 435
f 368 435 421
f 369 426 436
f 369 436 437
f 369 437 438
f 369 438 370
f 371 439 372
f 372 439 440
f 372 440 373
f 373 440 425
f 373 425 383
f 374 376 441
f 374 441 377
f 375 424 423
f 375 423 376
f 376 423 441
f 377 441 442
f 377 442 378
f 378 442 443
f 378 443 379
f 379 443 444
f 379 444 381
f 379 381 380
f 381 444 445
f 381 445 446
f 381 446 382
f 382 446 447
f 382 447 448
f 382 448 385
f 385 448 386
f 386 449 450
f 386 450 451
f 386 451 387
f 386 448 449
f 387 451 398
f 387 398 388
f 389 393 397
f 392 399 393
f 393 399 401
f 393 401 397
f 398 451 400
f 399 452 401
f 399 400 451
f 399 451 453
f 399 453 452
f 401 452 402
f 402 452 454
f 402 454 403
f 403 454 455
f 403 455 413
f 403 413 404
f 404 413 405
f 405 413 406
f 407 420 456
f 407 456 457
f 407 457 458
f 407 458 408
f 408 458 432
f 408 432 410
f 409 411 431
f 409 431 412
f 410 432 411
f 411 432 431
f 412 431 430
f 412 429 435
f 413 455 459
f 413 459 460
f 413 460 414
f 414 460 415
f 415 460 416
f 416 460 461
f 416 461 462
f 416 462 463
f 416 463 464
f 416 464 465
f 416 465 466
f 416 466 417
f 417 466 418
f 418 466 467
f 418 467 420
f 420 467 456
f 421 435 429
f 422 434 468
f 422 468 469
f 422 469 423
f 423 470 441
f 423 469 471
f 423 471 470
f 425 440 436
f 425 436 426
f 432 458 472
f 432 472 434
f 432 434 433
f 434 472 473
f 434 473 468
f 436 440 439
f 436 439 437
f 441 470 474
f 441 474 442
f 442 474 443
f 443 474 475
f 443 475 476
f 443 476 444
f 444 476 445
f 445 476 477
f 445 477 446
f 446 477 447
f 447 477 449
f 447 449 448
f 449 477 476
f 449 476 478
f 449 478 479
f 449 479 452
f 449 452 450
f 450 453 451
f 450 452 453
f 452 479 480
f 452 480 455
f 452 455 454
f 455 480 481
f 455 481 459
f 456 467 482
f 456 482 483
f 456 483 484
f 456 484 457
f 457 484 458
f 458 484 473
f 458 473 472
f 459 481 485
f 459 485 460
f 460 485 461
f 461 486 463
f 461 463 462
f 461 485 486
f 463 486 487
f 463 487 482
f 463 482 464
f 464 482 488
f 464 488 465
f 465 488 482
f 465 482 466
f 466 482 467
f 468 489 490
f 468 490 470
f 468 470 471
f 468 471 469
f 468 473 489
f 470 490 474
f 473 484 483
f 473 483 489
f 474 490 489
f 474 489 491
f 474 491 475
f 475 491 492
f 475 492 476
f 476 493 486
f 476 486 478
f 476 492 487
f 476 487 493
f 478 486 479
f 479 486 485
f 479 485 480
f 480 485 481
f 482 487 483
f 483 487 494
f 483 494 491
f 483 491 489
f 486 493 487
f 487 492 494
f 491 494 492

